<svg width="16" height="16" viewBox="0 0 16 16" fill="none" xmlns="http://www.w3.org/2000/svg">
<path d="M4 7.5C3.72386 7.5 3.5 7.72386 3.5 8C3.5 8.27614 3.72386 8.5 4 8.5V8V7.5ZM11.8536 8.35355C12.0488 8.15829 12.0488 7.84171 11.8536 7.64645L8.67157 4.46447C8.47631 4.2692 8.15973 4.2692 7.96447 4.46447C7.7692 4.65973 7.7692 4.97631 7.96447 5.17157L10.7929 8L7.96447 10.8284C7.7692 11.0237 7.7692 11.3403 7.96447 11.5355C8.15973 11.7308 8.47631 11.7308 8.67157 11.5355L11.8536 8.35355ZM4 8V8.5H11.5V8V7.5H4V8Z" fill="currentColor"/>
</svg>
