<svg width="20" height="20" viewBox="0 0 20 20" fill="none" xmlns="http://www.w3.org/2000/svg">
<path d="M14.8125 4.75H5.625C5.50897 4.75 5.39769 4.79609 5.31564 4.87814C5.23359 4.96019 5.1875 5.07147 5.1875 5.1875V10.4375C5.1883 11.1334 5.46511 11.8007 5.95722 12.2928C6.44933 12.7849 7.11655 13.0617 7.8125 13.0625H10.875C11.5709 13.0617 12.2382 12.7849 12.7303 12.2928C13.2224 11.8007 13.4992 11.1334 13.5 10.4375V8.25H13.9922C14.4417 8.24949 14.8726 8.07072 15.1904 7.75289C15.5082 7.43507 15.687 7.00416 15.6875 6.55469V5.625C15.6875 5.39294 15.5953 5.17038 15.4312 5.00628C15.2671 4.84219 15.0446 4.75 14.8125 4.75ZM14.8125 6.55469C14.8125 6.77225 14.7261 6.9809 14.5722 7.13474C14.4184 7.28857 14.2097 7.375 13.9922 7.375H13.5V5.625H14.8125V6.55469ZM13.9375 13.9375H4.75C4.63397 13.9375 4.52269 13.9836 4.44064 14.0656C4.35859 14.1477 4.3125 14.259 4.3125 14.375C4.3125 14.491 4.35859 14.6023 4.44064 14.6844C4.52269 14.7664 4.63397 14.8125 4.75 14.8125H13.9375C14.0535 14.8125 14.1648 14.7664 14.2469 14.6844C14.3289 14.6023 14.375 14.491 14.375 14.375C14.375 14.259 14.3289 14.1477 14.2469 14.0656C14.1648 13.9836 14.0535 13.9375 13.9375 13.9375Z" fill="currentColor"/>
</svg>
