<svg
  width="20"
  height="20"
  viewBox="0 0 20 20"
  fill="none"
  xmlns="http://www.w3.org/2000/svg"
>
  <path
    d="M4.66406 7.32812H15.3307M4.66406 7.32812V13.1949C4.66406 13.9417 4.66406 14.3148 4.80939 14.6C4.93722 14.8509 5.14104 15.0551 5.39193 15.1829C5.67686 15.3281 6.05006 15.3281 6.79534 15.3281H13.1995C13.9447 15.3281 14.3174 15.3281 14.6023 15.1829C14.8532 15.0551 15.0577 14.8509 15.1855 14.6C15.3307 14.3151 15.3307 13.9425 15.3307 13.1972V7.32812M4.66406 7.32812V6.79492C4.66406 6.04819 4.66406 5.67454 4.80939 5.38932C4.93722 5.13844 5.14104 4.93461 5.39193 4.80678C5.67714 4.66146 6.05079 4.66146 6.79753 4.66146H7.33073M15.3307 7.32812V6.79273C15.3307 6.04745 15.3307 5.67426 15.1855 5.38932C15.0577 5.13844 14.8532 4.93461 14.6023 4.80678C14.3171 4.66146 13.9443 4.66146 13.1975 4.66146H12.6641M12.6641 3.32812V4.66146M12.6641 4.66146H7.33073M7.33073 3.32812V4.66146"
    stroke="currentColor"
    stroke-width="1.2"
    stroke-linecap="round"
    stroke-linejoin="round"
  />
</svg>
