<svg width="20" height="20" viewBox="0 0 20 20" fill="none" xmlns="http://www.w3.org/2000/svg">
<path d="M15.1222 8.92635L14.3242 6.53235C14.2084 6.1838 13.9858 5.8806 13.6879 5.66582C13.3899 5.45104 13.0319 5.33561 12.6646 5.33594H7.34579C6.97852 5.33561 6.62048 5.45104 6.32256 5.66582C6.02463 5.8806 5.80197 6.1838 5.68621 6.53235L4.88821 8.92635C4.676 9.01515 4.49479 9.16469 4.36733 9.35618C4.23988 9.54768 4.17187 9.77257 4.17188 10.0026V12.9193C4.17188 13.3498 4.40754 13.7219 4.75521 13.9244V15.2526C4.75521 15.4073 4.81667 15.5557 4.92606 15.6651C5.03546 15.7745 5.18383 15.8359 5.33854 15.8359H5.92188C6.07658 15.8359 6.22496 15.7745 6.33435 15.6651C6.44375 15.5557 6.50521 15.4073 6.50521 15.2526V14.0859H13.5052V15.2526C13.5052 15.4073 13.5667 15.5557 13.6761 15.6651C13.7855 15.7745 13.9338 15.8359 14.0885 15.8359H14.6719C14.8266 15.8359 14.975 15.7745 15.0844 15.6651C15.1938 15.5557 15.2552 15.4073 15.2552 15.2526V13.9244C15.4322 13.8229 15.5793 13.6765 15.6817 13.5001C15.7841 13.3236 15.8382 13.1233 15.8385 12.9193V10.0026C15.8385 9.77257 15.7705 9.54768 15.6431 9.35618C15.5156 9.16469 15.3344 9.01515 15.1222 8.92635ZM7.34579 6.5026H12.664C12.9155 6.5026 13.1383 6.66244 13.2176 6.9016L13.8628 8.83594H6.14763L6.79221 6.9016C6.83091 6.7854 6.90521 6.68433 7.00457 6.61271C7.10393 6.5411 7.22331 6.50258 7.34579 6.5026ZM6.21354 12.3359C6.0986 12.3359 5.98479 12.3132 5.8786 12.2692C5.77242 12.2252 5.67595 12.1607 5.5947 12.0794C5.51345 11.9981 5.44901 11.9015 5.40506 11.7953C5.36111 11.6891 5.3385 11.5753 5.33854 11.4604C5.33858 11.3454 5.36126 11.2316 5.40528 11.1254C5.4493 11.0192 5.51381 10.9228 5.59511 10.8415C5.67642 10.7603 5.77293 10.6958 5.87914 10.6519C5.98535 10.6079 6.09918 10.5853 6.21413 10.5854C6.44627 10.5854 6.66887 10.6777 6.83296 10.8419C6.99706 11.0061 7.0892 11.2288 7.08913 11.4609C7.08905 11.6931 6.99676 11.9157 6.83255 12.0798C6.66835 12.2439 6.44568 12.336 6.21354 12.3359ZM13.7969 12.3359C13.6819 12.3359 13.5681 12.3132 13.4619 12.2692C13.3558 12.2252 13.2593 12.1607 13.178 12.0794C13.0968 11.9981 13.0323 11.9015 12.9884 11.7953C12.9444 11.6891 12.9218 11.5753 12.9219 11.4604C12.9219 11.3454 12.9446 11.2316 12.9886 11.1254C13.0326 11.0192 13.0971 10.9228 13.1784 10.8415C13.2598 10.7603 13.3563 10.6958 13.4625 10.6519C13.5687 10.6079 13.6825 10.5853 13.7975 10.5854C14.0296 10.5854 14.2522 10.6777 14.4163 10.8419C14.5804 11.0061 14.6725 11.2288 14.6725 11.4609C14.6724 11.6931 14.5801 11.9157 14.4159 12.0798C14.2517 12.2439 14.029 12.336 13.7969 12.3359Z" fill="currentColor"/>
</svg>
