<svg width="20" height="20" viewBox="0 0 20 20" fill="none" xmlns="http://www.w3.org/2000/svg">
<path d="M5.33594 8.61523C5.33594 11.8498 8.16559 14.5246 9.41806 15.5501C9.59731 15.6969 9.68801 15.7712 9.82174 15.8088C9.92588 15.8381 10.0791 15.8381 10.1833 15.8088C10.3173 15.7711 10.4073 15.6976 10.5872 15.5502C11.8397 14.5247 14.6692 11.8501 14.6692 8.61553C14.6692 7.39145 14.1776 6.21737 13.3024 5.35181C12.4272 4.48626 11.2403 4 10.0027 4C8.76498 4 7.57794 4.48634 6.70277 5.35189C5.8276 6.21744 5.33594 7.39116 5.33594 8.61523Z" stroke="#898990" stroke-width="1.2" stroke-linecap="round" stroke-linejoin="round"/>
<path d="M8.66927 8C8.66927 8.73638 9.26622 9.33333 10.0026 9.33333C10.739 9.33333 11.3359 8.73638 11.3359 8C11.3359 7.26362 10.739 6.66667 10.0026 6.66667C9.26622 6.66667 8.66927 7.26362 8.66927 8Z" stroke="#898990" stroke-width="1.2" stroke-linecap="round" stroke-linejoin="round"/>
</svg>
