<svg width="76" height="76" viewBox="0 0 76 76" fill="none" xmlns="http://www.w3.org/2000/svg">
<g filter="url(#filter0_d_2410_43390)">
<path d="M37.9951 9.02344C52.546 9.02344 64.3418 20.8193 64.3418 35.3701C64.3418 46.8466 57.0035 56.6077 46.7635 60.2206C45.5914 60.6342 44.4887 61.2437 43.6024 62.115L39.4473 66.2002C38.3869 67.2425 36.6865 67.2423 35.626 66.2002L30.9181 61.5716C30.1246 60.7914 29.1555 60.2197 28.1239 59.8026C18.4641 55.8964 11.6484 46.4302 11.6484 35.3701C11.6484 20.8193 23.4443 9.02344 37.9951 9.02344Z" fill="white"/>
</g>
<rect x="17.1094" y="14.4766" width="41.7913" height="41.7913" rx="20.8956" fill="#4181FF"/>
<g filter="url(#filter1_d_2410_43390)">
<path d="M30.3846 25.3473C31.3536 24.9732 31.839 24.7862 32.2824 24.7968C32.8735 24.8111 33.4351 25.0601 33.8431 25.4881C34.0674 25.7235 34.2267 26.0481 34.4438 26.5857C34.2441 26.0436 34.1455 25.6969 34.1534 25.3725C34.1678 24.7812 34.4174 24.2194 34.8456 23.8114C35.1668 23.5055 35.6519 23.318 36.621 22.9438C37.5902 22.5697 38.0755 22.3827 38.5189 22.3933C39.1101 22.4076 39.6716 22.6565 40.0796 23.0846C40.3856 23.4058 40.573 23.8908 40.9472 24.86L41.4533 26.171C41.5088 26.3145 41.6705 26.3855 41.8141 26.33L43.1123 25.8288C44.0815 25.4547 44.5668 25.2677 45.0102 25.2783C45.6014 25.2926 46.1629 25.5415 46.5709 25.9696C46.8769 26.2908 47.0643 26.7758 47.4385 27.745C47.8128 28.7145 48.0001 29.2002 47.9894 29.6438C47.9749 30.235 47.7263 30.7966 47.2981 31.2045C47.0659 31.4256 46.7472 31.5829 46.2229 31.7954C46.749 31.6027 47.0897 31.5071 47.4084 31.5147C47.9995 31.5291 48.5612 31.778 48.9692 32.206C49.2751 32.5272 49.4626 33.0122 49.8368 33.9814C50.2109 34.9506 50.3979 35.4358 50.3873 35.8792C50.3729 36.4706 50.1246 37.0329 49.6963 37.4409C49.3751 37.7469 48.8891 37.9337 47.9197 38.3079L46.6305 38.8056C46.4869 38.8611 46.4151 39.0231 46.4706 39.1668L46.9728 40.4677C47.347 41.4369 47.5341 41.9221 47.5234 42.3655C47.509 42.9569 47.2604 43.5183 46.8321 43.9263C46.5108 44.2322 46.026 44.4196 45.0567 44.7939C44.0876 45.168 43.6022 45.3551 43.1588 45.3444C42.5676 45.3299 42.0051 45.0817 41.5972 44.6535C41.3728 44.4178 41.2125 44.0935 40.9953 43.5553C41.1952 44.0981 41.2947 44.4444 41.2869 44.769C41.2726 45.3604 41.0239 45.9218 40.5956 46.3298C40.2744 46.6357 39.7894 46.8232 38.8202 47.1974C37.8508 47.5716 37.365 47.759 36.9214 47.7483C36.3304 47.7337 35.7685 47.4851 35.3607 47.057C35.055 46.7357 34.8672 46.2506 34.4931 45.2815L33.9923 43.9842C33.9368 43.8406 33.7757 43.7686 33.632 43.8239L32.3129 44.3332C31.3438 44.7074 30.8588 44.8953 30.4154 44.8847C29.8241 44.8702 29.2622 44.6207 28.8543 44.1925C28.5485 43.8712 28.3608 43.3862 27.9867 42.417C27.6125 41.4477 27.4254 40.9627 27.4362 40.5192C27.4506 39.9279 27.6993 39.3664 28.1275 38.9585C28.3595 38.7374 28.6776 38.5793 29.2013 38.367C28.6757 38.5595 28.3358 38.656 28.0171 38.6483C27.4261 38.6337 26.8642 38.385 26.4564 37.957C26.1505 37.6357 25.9626 37.1499 25.5884 36.1806C25.2143 35.2114 25.0271 34.7263 25.0379 34.2828C25.0523 33.6917 25.3012 33.13 25.7292 32.722C26.0504 32.416 26.5362 32.2284 27.5055 31.8541L28.8156 31.3483C28.9591 31.2929 29.0303 31.132 28.975 30.9885L28.4678 29.6748C28.0936 28.7054 27.9062 28.2195 27.9169 27.776C27.9314 27.1849 28.1802 26.6232 28.6082 26.2153C28.9295 25.9093 29.4152 25.7216 30.3846 25.3473ZM33.0582 36.8821C32.7289 37.0092 32.5841 37.3984 32.7837 37.6895C34.3399 39.9553 37.2208 40.9696 39.8036 39.9726C42.3864 38.9754 43.8374 36.2886 43.4673 33.5649C43.4196 33.2151 43.0517 33.024 42.7224 33.1511L33.0582 36.8821ZM38.982 29.4741C38.2973 29.7385 37.9564 30.508 38.2208 31.1927C38.4853 31.8772 39.2548 32.2182 39.9394 31.9539C40.624 31.6896 40.9647 30.92 40.7006 30.2353C40.4363 29.5506 39.6668 29.2098 38.982 29.4741ZM33.0385 31.7687C32.3537 32.0331 32.0129 32.8026 32.2773 33.4873C32.5418 34.1718 33.3109 34.5119 33.9955 34.2476C34.6801 33.9833 35.0211 33.2146 34.7571 32.5299C34.4927 31.8452 33.7232 31.5044 33.0385 31.7687Z" fill="white"/>
</g>
<defs>
<filter id="filter0_d_2410_43390" x="7.64844" y="5.02344" width="60.6953" height="65.9609" filterUnits="userSpaceOnUse" color-interpolation-filters="sRGB">
<feFlood flood-opacity="0" result="BackgroundImageFix"/>
<feColorMatrix in="SourceAlpha" type="matrix" values="0 0 0 0 0 0 0 0 0 0 0 0 0 0 0 0 0 0 127 0" result="hardAlpha"/>
<feOffset/>
<feGaussianBlur stdDeviation="2"/>
<feComposite in2="hardAlpha" operator="out"/>
<feColorMatrix type="matrix" values="0 0 0 0 0 0 0 0 0 0 0 0 0 0 0 0 0 0 0.25 0"/>
<feBlend mode="normal" in2="BackgroundImageFix" result="effect1_dropShadow_2410_43390"/>
<feBlend mode="normal" in="SourceGraphic" in2="effect1_dropShadow_2410_43390" result="shape"/>
</filter>
<filter id="filter1_d_2410_43390" x="23.0873" y="22.3906" width="29.2552" height="29.263" filterUnits="userSpaceOnUse" color-interpolation-filters="sRGB">
<feFlood flood-opacity="0" result="BackgroundImageFix"/>
<feColorMatrix in="SourceAlpha" type="matrix" values="0 0 0 0 0 0 0 0 0 0 0 0 0 0 0 0 0 0 127 0" result="hardAlpha"/>
<feOffset dy="1.95181"/>
<feGaussianBlur stdDeviation="0.975906"/>
<feComposite in2="hardAlpha" operator="out"/>
<feColorMatrix type="matrix" values="0 0 0 0 0.115079 0 0 0 0 0.232059 0 0 0 0 0.462365 0 0 0 0.25 0"/>
<feBlend mode="normal" in2="BackgroundImageFix" result="effect1_dropShadow_2410_43390"/>
<feBlend mode="normal" in="SourceGraphic" in2="effect1_dropShadow_2410_43390" result="shape"/>
</filter>
</defs>
</svg>
