<svg width="20" height="20" viewBox="0 0 20 20" fill="none" xmlns="http://www.w3.org/2000/svg">
<path d="M5.33334 15.25C5.16806 15.25 5.02961 15.194 4.918 15.082C4.80639 14.97 4.75039 14.8316 4.75 14.6667C4.74961 14.5018 4.80561 14.3633 4.918 14.2513C5.03039 14.1393 5.16884 14.0833 5.33334 14.0833H5.91667V5.33333C5.91667 5.16806 5.97267 5.02961 6.08467 4.918C6.19667 4.80639 6.33511 4.75039 6.5 4.75H10.5833C10.7486 4.75 10.8873 4.806 10.9993 4.918C11.1113 5.03 11.1671 5.16844 11.1667 5.33333H13.5C13.6653 5.33333 13.8039 5.38933 13.9159 5.50133C14.0279 5.61333 14.0837 5.75178 14.0833 5.91667V14.0833H14.6667C14.8319 14.0833 14.9706 14.1393 15.0826 14.2513C15.1946 14.3633 15.2504 14.5018 15.25 14.6667C15.2496 14.8316 15.1936 14.9702 15.082 15.0826C14.9704 15.195 14.8319 15.2508 14.6667 15.25H13.5C13.3347 15.25 13.1963 15.194 13.0847 15.082C12.9731 14.97 12.9171 14.8316 12.9167 14.6667V6.5H11.1667V14.6667C11.1667 14.8319 11.1107 14.9706 10.9987 15.0826C10.8867 15.1946 10.7482 15.2504 10.5833 15.25H5.33334ZM10 10C10 9.83472 9.944 9.69628 9.832 9.58467C9.72 9.47306 9.58156 9.41706 9.41667 9.41667C9.25178 9.41628 9.11334 9.47228 9.00134 9.58467C8.88934 9.69706 8.83334 9.8355 8.83334 10C8.83334 10.1645 8.88934 10.3031 9.00134 10.4159C9.11334 10.5287 9.25178 10.5845 9.41667 10.5833C9.58156 10.5822 9.7202 10.5262 9.83259 10.4153C9.94497 10.3045 10.0008 10.1661 10 10Z" fill="currentColor"/>
</svg>
