<svg
  width="36"
  height="36"
  viewBox="0 0 36 36"
  fill="none"
  xmlns="http://www.w3.org/2000/svg"
>
  <path
    d="M15 12L18 9M18 9L21 12M18 9V19M13.0002 16C12.0683 16 11.6024 16 11.2349 16.1522C10.7448 16.3552 10.3552 16.7448 10.1522 17.2349C10 17.6024 10 18.0681 10 19V23.8C10 24.9201 10 25.4798 10.218 25.9076C10.4097 26.2839 10.7155 26.5905 11.0918 26.7822C11.5192 27 12.079 27 13.1969 27H22.8036C23.9215 27 24.4805 27 24.9079 26.7822C25.2842 26.5905 25.5905 26.2839 25.7822 25.9076C26 25.4802 26 24.921 26 23.8031V19C26 18.0681 25.9999 17.6024 25.8477 17.2349C25.6447 16.7448 25.2554 16.3552 24.7654 16.1522C24.3978 16 23.9319 16 23 16"
    stroke="currentColor"
    stroke-width="1.8"
    stroke-linecap="round"
    stroke-linejoin="round"
  />
</svg>
