<svg width="20" height="20" viewBox="0 0 20 20" fill="none" xmlns="http://www.w3.org/2000/svg">
<path d="M9.5 6.4C9.5 6.67614 9.72386 6.9 10 6.9C10.2761 6.9 10.5 6.67614 10.5 6.4H10H9.5ZM10.5 4C10.5 3.72386 10.2761 3.5 10 3.5C9.72386 3.5 9.5 3.72386 9.5 4H10H10.5ZM9.5 16C9.5 16.2761 9.72386 16.5 10 16.5C10.2761 16.5 10.5 16.2761 10.5 16H10H9.5ZM10.5 13.6C10.5 13.3239 10.2761 13.1 10 13.1C9.72386 13.1 9.5 13.3239 9.5 13.6H10H10.5ZM13.6 9.5C13.3239 9.5 13.1 9.72386 13.1 10C13.1 10.2761 13.3239 10.5 13.6 10.5V10V9.5ZM16 10.5C16.2761 10.5 16.5 10.2761 16.5 10C16.5 9.72386 16.2761 9.5 16 9.5V10V10.5ZM4 9.5C3.72386 9.5 3.5 9.72386 3.5 10C3.5 10.2761 3.72386 10.5 4 10.5V10V9.5ZM6.4 10.5C6.67614 10.5 6.9 10.2761 6.9 10C6.9 9.72386 6.67614 9.5 6.4 9.5V10V10.5ZM14.8 9.99996H14.3C14.3 12.3748 12.3748 14.3 10 14.3V14.8V15.3C12.9271 15.3 15.3 12.9271 15.3 9.99996H14.8ZM10 14.8V14.3C7.62517 14.3 5.7 12.3748 5.7 9.99996H5.2H4.7C4.7 12.9271 7.07289 15.3 10 15.3V14.8ZM5.2 9.99996H5.7C5.7 7.62514 7.62517 5.69997 10 5.69997V5.19997V4.69997C7.07289 4.69997 4.7 7.07286 4.7 9.99996H5.2ZM10 5.19997V5.69997C12.3748 5.69997 14.3 7.62514 14.3 9.99996H14.8H15.3C15.3 7.07286 12.9271 4.69997 10 4.69997V5.19997ZM10 6.4H10.5V4H10H9.5V6.4H10ZM10 16H10.5V13.6H10H9.5V16H10ZM13.6 10V10.5H16V10V9.5H13.6V10ZM4 10V10.5H6.4V10V9.5H4V10ZM11.8 10H11.3C11.3 10.718 10.718 11.3 10 11.3V11.8V12.3C11.2703 12.3 12.3 11.2703 12.3 10H11.8ZM10 11.8V11.3C9.28203 11.3 8.7 10.718 8.7 10H8.2H7.7C7.7 11.2703 8.72975 12.3 10 12.3V11.8ZM8.2 10H8.7C8.7 9.28203 9.28203 8.7 10 8.7V8.2V7.7C8.72975 7.7 7.7 8.72975 7.7 10H8.2ZM10 8.2V8.7C10.718 8.7 11.3 9.28203 11.3 10H11.8H12.3C12.3 8.72975 11.2703 7.7 10 7.7V8.2Z" fill="#46464D"/>
</svg>
