<svg width="20" height="20" viewBox="0 0 20 20" fill="none" xmlns="http://www.w3.org/2000/svg">
<path d="M13.4948 9.42188H6.49479V6.50521H13.4948M12.6198 12.9219C12.3877 12.9219 12.1652 12.8297 12.0011 12.6656C11.837 12.5015 11.7448 12.2789 11.7448 12.0469C11.7448 11.8148 11.837 11.5923 12.0011 11.4282C12.1652 11.2641 12.3877 11.1719 12.6198 11.1719C12.8519 11.1719 13.0744 11.2641 13.2385 11.4282C13.4026 11.5923 13.4948 11.8148 13.4948 12.0469C13.4948 12.2789 13.4026 12.5015 13.2385 12.6656C13.0744 12.8297 12.8519 12.9219 12.6198 12.9219ZM7.36979 12.9219C7.13773 12.9219 6.91517 12.8297 6.75107 12.6656C6.58698 12.5015 6.49479 12.2789 6.49479 12.0469C6.49479 11.8148 6.58698 11.5923 6.75107 11.4282C6.91517 11.2641 7.13773 11.1719 7.36979 11.1719C7.60186 11.1719 7.82442 11.2641 7.98851 11.4282C8.1526 11.5923 8.24479 11.8148 8.24479 12.0469C8.24479 12.2789 8.1526 12.5015 7.98851 12.6656C7.82442 12.8297 7.60186 12.9219 7.36979 12.9219ZM5.32812 12.3385C5.32812 12.8519 5.55562 13.3127 5.91146 13.6335V14.6719C5.91146 14.8266 5.97292 14.975 6.08231 15.0844C6.19171 15.1938 6.34008 15.2552 6.49479 15.2552H7.07812C7.23283 15.2552 7.38121 15.1938 7.4906 15.0844C7.6 14.975 7.66146 14.8266 7.66146 14.6719V14.0885H12.3281V14.6719C12.3281 14.8266 12.3896 14.975 12.499 15.0844C12.6084 15.1938 12.7567 15.2552 12.9115 15.2552H13.4948C13.6495 15.2552 13.7979 15.1938 13.9073 15.0844C14.0167 14.975 14.0781 14.8266 14.0781 14.6719V13.6335C14.434 13.3127 14.6615 12.8519 14.6615 12.3385V6.50521C14.6615 4.46354 12.5731 4.17188 9.99479 4.17188C7.41646 4.17188 5.32812 4.46354 5.32812 6.50521V12.3385Z" fill="currentColor"/>
</svg>
