<svg width="74" height="74" fill="none" xmlns="http://www.w3.org/2000/svg"><rect width="74" height="74" rx="16" fill="#4181FF"/><g filter="url(#a)"><path fill-rule="evenodd" clip-rule="evenodd" d="M21.957 17.07c1.988-.767 2.983-1.15 3.892-1.129 1.212.03 2.363.54 3.2 1.418.218.23.406.499.592.836.023.041.072.06.116.044a.099.099 0 0 0 .064-.115 3.923 3.923 0 0 1-.122-1.014 4.575 4.575 0 0 1 1.418-3.201c.659-.628 1.653-1.01 3.64-1.778 1.989-.767 2.983-1.152 3.893-1.13 1.212.03 2.363.54 3.2 1.418.627.659 1.011 1.653 1.779 3.641l1.03 2.668a.572.572 0 0 0 .739.327l2.661-1.027c1.988-.767 2.983-1.151 3.892-1.129 1.213.03 2.364.54 3.2 1.418.627.659 1.011 1.653 1.779 3.64.767 1.988 1.15 2.983 1.129 3.893a4.574 4.574 0 0 1-1.417 3.2c-.254.242-.56.445-.95.65a.083.083 0 0 0-.045.066.085.085 0 0 0 .104.09c.427-.11.79-.165 1.14-.156 1.212.03 2.364.54 3.2 1.418.628.658 1.012 1.652 1.779 3.64.768 1.988 1.151 2.983 1.13 3.892a4.575 4.575 0 0 1-1.419 3.201c-.658.627-1.653 1.01-3.64 1.778l-2.66 1.027a.572.572 0 0 0-.328.739l1.029 2.665c.767 1.988 1.15 2.982 1.129 3.892a4.574 4.574 0 0 1-1.417 3.2c-.659.627-1.654 1.012-3.642 1.78-1.987.766-2.981 1.15-3.89 1.128a4.575 4.575 0 0 1-3.201-1.418 3.991 3.991 0 0 1-.614-.877.093.093 0 0 0-.114-.043.092.092 0 0 0-.058.108c.097.393.143.733.135 1.062a4.574 4.574 0 0 1-1.417 3.2c-.659.627-1.654 1.011-3.641 1.778-1.988.768-2.982 1.151-3.892 1.13a4.574 4.574 0 0 1-3.2-1.418c-.627-.658-1.012-1.653-1.779-3.64l-1.028-2.664a.572.572 0 0 0-.74-.328l-2.672 1.032c-1.988.767-2.983 1.152-3.892 1.13a4.573 4.573 0 0 1-3.2-1.418c-.628-.659-1.012-1.653-1.78-3.641-.766-1.988-1.15-2.982-1.128-3.892a4.574 4.574 0 0 1 1.417-3.2 3.81 3.81 0 0 1 .782-.56c.075-.043.067-.16-.012-.196a.1.1 0 0 0-.064-.006c-.349.08-.656.12-.954.112a4.574 4.574 0 0 1-3.201-1.418c-.628-.658-1.012-1.653-1.78-3.64-.767-1.989-1.15-2.983-1.128-3.892a4.575 4.575 0 0 1 1.418-3.2c.659-.628 1.652-1.012 3.64-1.78l2.672-1.031a.572.572 0 0 0 .327-.74l-1.03-2.669c-.768-1.988-1.151-2.982-1.13-3.891a4.575 4.575 0 0 1 1.419-3.201c.659-.627 1.652-1.011 3.64-1.779Zm5.31 23.722c-.642.248-.923 1.008-.537 1.578 3.18 4.688 9.115 6.794 14.434 4.74 5.318-2.053 8.297-7.6 7.503-13.209-.097-.682-.816-1.055-1.459-.807l-19.94 7.698Zm12.325-15.273a2.725 2.725 0 1 0 1.962 5.085 2.725 2.725 0 0 0-1.962-5.085ZM27.39 30.226a2.726 2.726 0 1 0 1.964 5.086 2.726 2.726 0 0 0-1.964-5.086Z" fill="#fff"/></g><defs><filter id="a" x="7" y="11" width="60" height="60" filterUnits="userSpaceOnUse" color-interpolation-filters="sRGB"><feFlood flood-opacity="0" result="BackgroundImageFix"/><feColorMatrix in="SourceAlpha" values="0 0 0 0 0 0 0 0 0 0 0 0 0 0 0 0 0 0 127 0" result="hardAlpha"/><feOffset dy="4"/><feGaussianBlur stdDeviation="2"/><feComposite in2="hardAlpha" operator="out"/><feColorMatrix values="0 0 0 0 0.115079 0 0 0 0 0.232059 0 0 0 0 0.462365 0 0 0 0.25 0"/><feBlend in2="BackgroundImageFix" result="effect1_dropShadow_444_12338"/><feBlend in="SourceGraphic" in2="effect1_dropShadow_444_12338" result="shape"/></filter></defs></svg>