<svg width="130" height="117" viewBox="0 0 130 117" fill="none" xmlns="http://www.w3.org/2000/svg">
<g clip-path="url(#clip0_2859_34469)">
<path d="M46.3567 105.057C46.7083 102.305 49.5717 101.117 50.6098 101.031L56.8195 101.201C59.8962 102.846 60.4237 106.905 60.2663 110.03C60.1827 111.69 59.0232 113.068 57.445 113.589C47.9115 116.732 40.7374 115.594 36.8928 114.093C35.4637 113.535 34.4888 112.153 34.6121 110.624C35.0967 104.617 42.3666 104.331 46.3567 105.057Z" fill="#D1D1D1"/>
<path d="M46.3567 105.057C46.7083 102.305 49.5717 101.117 50.6098 101.031L56.8195 101.201C59.8962 102.846 60.4237 106.905 60.2663 110.03C60.1827 111.69 59.0232 113.068 57.445 113.589C47.9115 116.732 40.7374 115.594 36.8928 114.093C35.4637 113.535 34.4888 112.153 34.6121 110.624C35.0967 104.617 42.3666 104.331 46.3567 105.057ZM46.3567 105.057C47.6153 105.322 49.4424 105.832 50.1135 106.541" stroke="#C1C1C1" stroke-width="1.57196" stroke-linecap="round"/>
<path d="M80.2625 105.057C79.9109 102.305 77.0475 101.117 76.0094 101.031L69.7997 101.201C66.723 102.846 66.1955 106.905 66.353 110.03C66.4366 111.69 67.596 113.068 69.1742 113.589C78.7077 116.732 85.8819 115.594 89.7264 114.093C91.1555 113.535 92.1305 112.153 92.0071 110.624C91.5225 104.617 84.2526 104.331 80.2625 105.057Z" fill="#D1D1D1"/>
<path d="M80.2625 105.057C79.9109 102.305 77.0475 101.117 76.0094 101.031L69.7997 101.201C66.723 102.846 66.1955 106.905 66.353 110.03C66.4366 111.69 67.596 113.068 69.1742 113.589C78.7077 116.732 85.8819 115.594 89.7264 114.093C91.1555 113.535 92.1305 112.153 92.0071 110.624C91.5225 104.617 84.2526 104.331 80.2625 105.057ZM80.2625 105.057C79.004 105.322 77.1768 105.832 76.5057 106.541" stroke="#C1C1C1" stroke-width="1.57196" stroke-linecap="round"/>
<path d="M50.5944 102.095C49.6697 100.291 49.8568 91.7785 50.3887 86.4531H56.2766L56.4788 100.811C56.5214 103.831 52.6148 105.063 50.9164 102.566C50.8089 102.408 50.6816 102.266 50.5944 102.095Z" fill="#FAFAFC" stroke="#C1C1C1" stroke-width="1.57196"/>
<path d="M76.0254 102.095C76.9501 100.291 76.763 91.7785 76.2311 86.4531H70.3432L70.141 100.811C70.0985 103.831 74.005 105.063 75.7034 102.566C75.8109 102.408 75.9382 102.266 76.0254 102.095Z" fill="#FAFAFC" stroke="#C1C1C1" stroke-width="1.57196"/>
<path d="M51.9199 0C58.3232 5.35055e-05 63.6162 4.75145 64.4668 10.9209C64.4881 11.0742 64.6177 11.1912 64.7724 11.1914C64.9273 11.1914 65.0577 11.0743 65.0791 10.9209C65.93 4.75188 71.2229 0.000975611 77.6259 0.000976562C84.6214 0.00127571 90.292 5.67247 90.292 12.668V20.3371C90.292 20.4287 90.3662 20.5029 90.4578 20.5029H98.1298C105.126 20.5031 110.796 26.1744 110.796 33.1699C110.796 39.5485 106.081 44.8247 99.9463 45.7061C99.7885 45.7289 99.6692 45.8631 99.6689 46.0225C99.6689 46.182 99.7884 46.317 99.9463 46.3398C106.081 47.2213 110.796 52.4984 110.796 58.877C110.796 65.8723 105.126 71.5436 98.1298 71.5439H90.4578C90.3662 71.5439 90.292 71.6182 90.292 71.7098V79.3799C90.2917 86.3752 84.6212 92.0466 77.6259 92.0469C71.2468 92.0469 65.9686 87.3308 65.0879 81.1953C65.0651 81.0379 64.9315 80.9189 64.7724 80.9189C64.6135 80.9191 64.4797 81.038 64.457 81.1953C63.5759 87.3303 58.2987 92.0458 51.9199 92.0459C44.9245 92.0458 39.2531 86.3743 39.2529 79.3789V71.7098C39.2529 71.6182 39.1786 71.5439 39.087 71.5439H31.417C24.4214 71.5439 18.7501 65.8725 18.75 58.877C18.75 52.474 23.501 47.1811 29.6699 46.3301C29.8239 46.3087 29.9414 46.178 29.9414 46.0225C29.9411 45.8671 29.8238 45.7371 29.6699 45.7158C23.5012 44.8647 18.7501 39.5727 18.75 33.1699C18.75 26.1743 24.4214 20.5031 31.417 20.5029H39.087C39.1786 20.5029 39.2529 20.4287 39.2529 20.3371V12.667C39.2529 5.67139 44.9243 0.000132448 51.9199 0Z" fill="#E5E5E5"/>
<mask id="mask0_2859_34469" style="mask-type:luminance" maskUnits="userSpaceOnUse" x="18" y="0" width="93" height="93">
<path d="M51.9199 0C58.3232 5.35055e-05 63.6162 4.75145 64.4668 10.9209C64.4881 11.0742 64.6177 11.1912 64.7724 11.1914C64.9273 11.1914 65.0577 11.0743 65.0791 10.9209C65.93 4.75188 71.2229 0.000975611 77.6259 0.000976562C84.6214 0.00127571 90.292 5.67247 90.292 12.668V20.3371C90.292 20.4287 90.3662 20.5029 90.4578 20.5029H98.1298C105.126 20.5031 110.796 26.1744 110.796 33.1699C110.796 39.5485 106.081 44.8247 99.9463 45.7061C99.7885 45.7289 99.6692 45.8631 99.6689 46.0225C99.6689 46.182 99.7884 46.317 99.9463 46.3398C106.081 47.2213 110.796 52.4984 110.796 58.877C110.796 65.8723 105.126 71.5436 98.1298 71.5439H90.4578C90.3662 71.5439 90.292 71.6182 90.292 71.7098V79.3799C90.2917 86.3752 84.6212 92.0466 77.6259 92.0469C71.2468 92.0469 65.9686 87.3308 65.0879 81.1953C65.0651 81.0379 64.9315 80.9189 64.7724 80.9189C64.6135 80.9191 64.4797 81.038 64.457 81.1953C63.5759 87.3303 58.2987 92.0458 51.9199 92.0459C44.9245 92.0458 39.2531 86.3743 39.2529 79.3789V71.7098C39.2529 71.6182 39.1786 71.5439 39.087 71.5439H31.417C24.4214 71.5439 18.7501 65.8725 18.75 58.877C18.75 52.474 23.501 47.1811 29.6699 46.3301C29.8239 46.3087 29.9414 46.178 29.9414 46.0225C29.9411 45.8671 29.8238 45.7371 29.6699 45.7158C23.5012 44.8647 18.7501 39.5727 18.75 33.1699C18.75 26.1743 24.4214 20.5031 31.417 20.5029H39.087C39.1786 20.5029 39.2529 20.4287 39.2529 20.3371V12.667C39.2529 5.67139 44.9243 0.000132448 51.9199 0Z" fill="white"/>
</mask>
<g mask="url(#mask0_2859_34469)">
<path d="M64.4685 10.9225L62.9112 11.1372L62.9115 11.1391L64.4685 10.9225ZM64.7741 11.193L64.7721 12.765H64.7741V11.193ZM65.0808 10.9225L66.6378 11.139L66.638 11.1373L65.0808 10.9225ZM99.948 45.7077L99.7244 44.1517L99.7228 44.1519L99.948 45.7077ZM99.6706 46.0241L98.0986 46.0217V46.0241H99.6706ZM99.948 46.3414L99.7228 47.8972L99.7244 47.8974L99.948 46.3414ZM65.0896 81.1969L66.6456 80.9736L66.6454 80.9724L65.0896 81.1969ZM64.7741 80.9205V79.3486H64.7723L64.7741 80.9205ZM29.9431 46.0241H31.515V46.0217L29.9431 46.0241ZM51.9216 0.00164747V1.57361C57.5288 1.57365 62.1665 5.73486 62.9112 11.1372L64.4685 10.9225L66.0257 10.7078C65.0694 3.77134 59.1209 -1.57025 51.9216 -1.57031V0.00164747ZM64.4685 10.9225L62.9115 11.1391C63.0367 12.0394 63.8046 12.7637 64.7721 12.765L64.7741 11.193L64.7761 9.6211C65.4342 9.62193 65.9428 10.1121 66.0254 10.7059L64.4685 10.9225ZM64.7741 11.193V12.765C65.739 12.765 66.5119 12.044 66.6378 11.139L65.0808 10.9225L63.5238 10.706C63.6069 10.1078 64.1191 9.6211 64.7741 9.6211V11.193ZM65.0808 10.9225L66.638 11.1373C67.3831 5.73536 72.0206 1.57458 77.6276 1.57458V0.00262403L77.6277 -1.56933C70.4288 -1.56933 64.4803 3.7717 63.5236 10.7077L65.0808 10.9225ZM77.6276 0.00262403V1.57458C83.7548 1.57485 88.7217 6.5422 88.7217 12.6696H90.2937H91.8656C91.8656 4.80604 85.4913 -1.569 77.6277 -1.56933L77.6276 0.00262403ZM90.2937 12.6696H88.7217V20.3387H90.2937H91.8656V12.6696H90.2937ZM90.4595 20.5045V22.0765H98.1315V20.5045L98.1316 18.9326H90.4595V20.5045ZM98.1315 20.5045V22.0765C104.259 22.0767 109.226 27.0442 109.226 33.1715H110.798H112.37C112.37 25.3078 105.995 18.9328 98.1316 18.9326L98.1315 20.5045ZM110.798 33.1715H109.226C109.226 38.7567 105.096 43.3799 99.7244 44.1517L99.948 45.7077L100.171 47.2636C107.068 46.2729 112.37 40.3434 112.37 33.1715H110.798ZM99.948 45.7077L99.7228 44.1519C98.8137 44.2835 98.1 45.0612 98.0986 46.0217L99.6706 46.0241L101.242 46.0264C101.241 46.6682 100.767 47.1775 100.173 47.2634L99.948 45.7077ZM99.6706 46.0241H98.0986C98.0986 46.9829 98.8098 47.765 99.7228 47.8972L99.948 46.3414L100.173 44.7857C100.77 44.8721 101.242 45.3844 101.242 46.0241H99.6706ZM99.948 46.3414L99.7244 47.8974C105.096 48.6693 109.225 53.293 109.225 58.8786H110.797H112.369C112.369 51.707 107.069 45.7766 100.171 44.7855L99.948 46.3414ZM110.797 58.8786H109.225C109.225 65.0059 104.258 69.9734 98.1315 69.9736V71.5455V73.1175C105.995 73.1171 112.369 66.7421 112.369 58.8786H110.797ZM98.1315 71.5455V69.9736H90.4595V71.5455V73.1175H98.1315V71.5455ZM90.2937 71.7114H88.7217V79.3815H90.2937H91.8656V71.7114H90.2937ZM90.2937 79.3815H88.7217C88.7215 85.5088 83.7546 90.4762 77.6276 90.4765V92.0485V93.6204C85.4911 93.6201 91.8654 87.2448 91.8656 79.3815H90.2937ZM77.6276 92.0485V90.4765C72.0415 90.4765 67.4168 86.3462 66.6456 80.9736L65.0896 81.1969L63.5335 81.4203C64.5238 88.3186 70.4555 93.6204 77.6276 93.6204V92.0485ZM65.0896 81.1969L66.6454 80.9724C66.5143 80.0639 65.737 79.3486 64.7741 79.3486V80.9205V82.4925C64.1294 82.4925 63.6194 82.0151 63.5337 81.4215L65.0896 81.1969ZM64.7741 80.9205L64.7723 79.3486C63.8131 79.3497 63.034 80.062 62.9028 80.9728L64.4587 81.1969L66.0146 81.4211C65.9287 82.0173 65.4173 82.4918 64.7759 82.4925L64.7741 80.9205ZM64.4587 81.1969L62.9028 80.9728C62.1312 86.3451 57.5073 90.4755 51.9216 90.4755V92.0475V93.6195C59.0935 93.6194 65.0239 88.3187 66.0146 81.4211L64.4587 81.1969ZM51.9216 92.0475V90.4755C45.7944 90.4754 40.8268 85.5077 40.8266 79.3805H39.2546H37.6826C37.6829 87.244 44.058 93.6193 51.9216 93.6195V92.0475ZM39.2546 79.3805H40.8266V71.7114H39.2546H37.6826V79.3805H39.2546ZM39.0887 71.5455V69.9736H31.4187V71.5455V73.1175H39.0887V71.5455ZM31.4187 71.5455V69.9736C25.2913 69.9736 20.3237 65.0061 20.3236 58.8785L18.7517 58.8786H17.1797C17.1799 66.7423 23.5549 73.1175 31.4187 73.1175V71.5455ZM18.7517 58.8786L20.3236 58.8785C20.3236 53.2715 24.4845 48.6341 29.8864 47.8889L29.6716 46.3317L29.4568 44.7745C22.5209 45.7313 17.1797 51.6796 17.1797 58.8786H18.7517ZM29.6716 46.3317L29.8864 47.8889C30.7927 47.7634 31.515 46.9896 31.515 46.0241H29.9431H28.3711C28.3711 45.3695 28.8587 44.8573 29.4568 44.7745L29.6716 46.3317ZM29.9431 46.0241L31.515 46.0217C31.5135 45.0542 30.7894 44.2853 29.8873 44.1603L29.6716 45.7174L29.4559 47.2745C28.8615 47.1922 28.3721 46.6833 28.3711 46.0265L29.9431 46.0241ZM29.6716 45.7174L29.8873 44.1603C24.4854 43.415 20.3237 38.7781 20.3236 33.1715H18.7517H17.1797C17.1798 40.3704 22.5204 46.3176 29.4559 47.2745L29.6716 45.7174ZM18.7517 33.1715H20.3236C20.3236 27.0441 25.2912 22.0766 31.4187 22.0765V20.5045V18.9326C23.5551 18.9327 17.1797 25.3077 17.1797 33.1715H18.7517ZM31.4187 20.5045V22.0765H39.0887V20.5045V18.9326H31.4187V20.5045ZM39.2546 20.3387H40.8266V12.6686H39.2546H37.6826V20.3387H39.2546ZM39.2546 12.6686H40.8266C40.8266 6.54124 45.7942 1.57372 51.9216 1.57361V0.00164747V-1.57031C44.0579 -1.57016 37.6826 4.80485 37.6826 12.6686H39.2546ZM39.0887 20.5045V22.0765C40.0485 22.0765 40.8266 21.2984 40.8266 20.3387H39.2546H37.6826C37.6826 19.5621 38.3122 18.9326 39.0887 18.9326V20.5045ZM39.2546 71.7114H40.8266C40.8266 70.7516 40.0485 69.9736 39.0887 69.9736V71.5455V73.1175C38.3122 73.1175 37.6826 72.4881 37.6826 71.7114H39.2546ZM90.4595 71.5455V69.9736C89.4997 69.9736 88.7217 70.7516 88.7217 71.7114H90.2937H91.8656C91.8656 72.4881 91.2361 73.1175 90.4595 73.1175V71.5455ZM90.2937 20.3387H88.7217C88.7217 21.2984 89.4997 22.0765 90.4595 22.0765V20.5045V18.9326C91.2361 18.9326 91.8656 19.5621 91.8656 20.3387H90.2937Z" fill="#C1C1C1"/>
</g>
<path d="M106.569 70.3083C97.6326 78.8785 92.2005 69.957 90.0558 62.6239C89.6858 61.3587 90.4331 60.0653 91.6837 59.6485C93.1863 59.1476 94.7663 60.117 95.1736 61.6476C97.3426 69.7988 101.18 68.277 103.617 65.6109C104.167 65.0101 105.153 64.9864 105.641 65.6378L106.77 67.1433C107.494 68.1084 107.44 69.4733 106.569 70.3083Z" fill="#FAFAFC" stroke="#C1C1C1" stroke-width="1.57196"/>
<path d="M105.207 66.556C103.129 62.815 105.058 60.709 106.544 59.9709C106.765 59.8611 106.962 59.702 107.101 59.4978C109.835 55.4674 112.494 58.1466 114.751 55.8893C116.997 53.6435 119.804 53.0826 119.804 55.3279C119.804 57.4049 117.883 58.5214 116.706 59.1216C116.613 59.1689 116.629 59.3031 116.732 59.323C118.364 59.6411 121.664 59.696 124.295 59.2578C127.664 58.6967 128.16 61.5031 127.07 62.6262C127.796 62.9224 128.225 63.6168 128.225 64.3109C128.225 65.9951 126.155 67.2899 123.172 67.1179C122.178 68.5575 119.13 70.5982 111.944 68.8017C110.634 69.7374 107.453 70.5982 105.207 66.556Z" fill="#FAFAFC"/>
<path d="M111.944 68.8017C110.634 69.7374 107.453 70.5982 105.207 66.556C103.129 62.815 105.058 60.709 106.544 59.9709C106.765 59.8611 106.962 59.702 107.101 59.4978C109.835 55.4674 112.494 58.1466 114.751 55.8893C116.997 53.6435 119.804 53.0826 119.804 55.3279C119.804 57.4049 117.883 58.5214 116.706 59.1216C116.613 59.1689 116.629 59.3031 116.732 59.323C118.364 59.6411 121.664 59.696 124.295 59.2578C127.664 58.6967 128.16 61.5031 127.07 62.6262M111.944 68.8017C110.821 68.4274 108.463 67.342 108.014 65.9946M111.944 68.8017C119.13 70.5982 122.178 68.5575 123.172 67.1179M127.07 62.6262C126.622 62.4435 126.061 62.4124 125.418 62.6266C124.071 63.0757 119.991 62.8135 118.12 62.6262M127.07 62.6262C127.796 62.9224 128.225 63.6168 128.225 64.3109C128.225 65.9951 126.155 67.2899 123.172 67.1179M123.172 67.1179C123.734 66.3051 123.285 64.8723 121.488 64.8723C119.243 64.8723 118.681 65.9951 116.435 65.4337" stroke="#C1C1C1" stroke-width="1.57196" stroke-linecap="round"/>
<path d="M110.266 60.9399C111.576 60.5656 114.42 60.4908 115.319 63.1855" stroke="#C1C1C1" stroke-width="1.57196" stroke-linecap="round"/>
<path d="M22.4443 70.3083C31.3806 78.8785 36.8127 69.957 38.9575 62.6239C39.3275 61.3587 38.5802 60.0653 37.3296 59.6485C35.827 59.1476 34.247 60.117 33.8397 61.6476C31.6707 69.7988 27.8343 68.277 25.3963 65.6109C24.8469 65.0101 23.8612 64.9864 23.3727 65.6378L22.2436 67.1433C21.5197 68.1084 21.5736 69.4733 22.4443 70.3083Z" fill="#FAFAFC" stroke="#C1C1C1" stroke-width="1.57196"/>
<path d="M23.8068 66.556C25.8852 62.815 23.9562 60.709 22.4704 59.9709C22.2495 59.8611 22.052 59.702 21.9135 59.4978C19.1796 55.4674 16.5202 58.1466 14.263 55.8893C12.0173 53.6435 9.21027 53.0826 9.21027 55.3279C9.21027 57.4049 11.1313 58.5214 12.3083 59.1216C12.4011 59.1689 12.3849 59.3031 12.2825 59.323C10.6503 59.6411 7.35 59.696 4.71896 59.2578C1.35048 58.6967 0.853913 61.5031 1.94432 62.6262C1.2184 62.9224 0.789062 63.6168 0.789062 64.3109C0.789062 65.9951 2.85882 67.2899 5.84179 67.1179C6.83611 68.5575 9.88396 70.5982 17.07 68.8017C18.38 69.7374 21.5612 70.5982 23.8068 66.556Z" fill="#FAFAFC"/>
<path d="M17.07 68.8017C18.38 69.7374 21.5612 70.5982 23.8068 66.556C25.8852 62.815 23.9562 60.709 22.4704 59.9709C22.2495 59.8611 22.052 59.702 21.9135 59.4978C19.1796 55.4674 16.5202 58.1466 14.263 55.8893C12.0173 53.6435 9.21026 53.0826 9.21026 55.3279C9.21026 57.4049 11.1313 58.5214 12.3083 59.1216C12.4011 59.1689 12.3849 59.3031 12.2825 59.323C10.6503 59.6411 7.35 59.696 4.71895 59.2578C1.35047 58.6967 0.85391 61.5031 1.94431 62.6262M17.07 68.8017C18.1929 68.4274 20.5508 67.342 20.9999 65.9946M17.07 68.8017C9.88396 70.5982 6.8361 68.5575 5.84178 67.1179M1.94431 62.6262C2.39234 62.4435 2.95335 62.4124 3.59613 62.6266C4.94352 63.0757 9.02313 62.8135 10.8945 62.6262M1.94431 62.6262C1.21839 62.9224 0.789062 63.6168 0.789062 64.3109C0.789062 65.9951 2.85881 67.2899 5.84178 67.1179M5.84178 67.1179C5.28037 66.3051 5.7295 64.8723 7.52602 64.8723C9.77168 64.8723 10.3331 65.9951 12.5787 65.4337" stroke="#C1C1C1" stroke-width="1.57196" stroke-linecap="round"/>
<path d="M18.748 60.9399C17.4381 60.5656 14.5936 60.4908 13.6953 63.1855" stroke="#C1C1C1" stroke-width="1.57196" stroke-linecap="round"/>
<path d="M57.6383 39.4493C59.2723 39.4493 60.6232 37.4529 60.6555 34.9903C60.6879 32.5276 59.3895 30.5312 57.7555 30.5312C56.1215 30.5312 54.7706 32.5276 54.7382 34.9903C54.7059 37.4529 56.0043 39.4493 57.6383 39.4493Z" fill="#C1C1C1"/>
<path d="M56.7938 34.3177C57.1554 34.349 57.4856 33.9451 57.5314 33.4156C57.5772 32.8861 57.3211 32.4316 56.9595 32.4003C56.5978 32.3691 56.2676 32.773 56.2218 33.3024C56.1761 33.8319 56.4321 34.2865 56.7938 34.3177Z" fill="#FAFAFC"/>
<path d="M68.1695 39.4493C69.8035 39.4493 71.1544 37.4529 71.1868 34.9903C71.2192 32.5276 69.9208 30.5312 68.2868 30.5312C66.6528 30.5312 65.3019 32.5276 65.2695 34.9903C65.2371 37.4529 66.5355 39.4493 68.1695 39.4493Z" fill="#C1C1C1"/>
<path d="M67.325 34.3177C67.6866 34.349 68.0169 33.9451 68.0627 33.4156C68.1084 32.8861 67.8523 32.4316 67.4907 32.4003C67.1291 32.3691 66.7988 32.773 66.7531 33.3024C66.7073 33.8319 66.9634 34.2865 67.325 34.3177Z" fill="#FAFAFC"/>
<path d="M67.0312 25.8281C68.154 28.0737 70.3997 29.1966 73.7682 28.6352" stroke="#C1C1C1" stroke-width="1.57196" stroke-linecap="round"/>
<path d="M59.1744 25.8281C58.0516 28.0737 55.806 29.1966 52.4375 28.6352" stroke="#C1C1C1" stroke-width="1.57196" stroke-linecap="round"/>
<path d="M64.6933 48.5393L68.3888 49.4955C69.4046 49.7584 70.4012 49.0155 70.4012 47.9953C70.4012 45.6893 68.8491 44.3284 66.7499 43.376C65.564 42.838 64.2515 42.6719 62.9492 42.6719C61.8288 42.6719 60.7011 42.7947 59.6562 43.1988C57.1833 44.1554 55.8047 45.5277 55.8047 47.9662C55.8047 48.993 56.8182 49.7338 57.8353 49.4504L60.9815 48.5736C62.1927 48.2361 63.4757 48.2242 64.6933 48.5393Z" fill="#C1C1C1"/>
<path d="M71.0771 47.9893C71.0771 49.4764 69.6388 50.5079 68.2226 50.1417L64.5263 49.1856C63.4236 48.9003 62.2608 48.9112 61.164 49.2168L58.0185 50.0938C56.5985 50.4895 55.1328 49.4596 55.1328 47.96C55.1328 46.6011 55.5221 45.4878 56.2919 44.584C57.0472 43.6975 58.1256 43.0633 59.415 42.5645C60.5669 42.1189 61.7866 41.9923 62.9511 41.9922C64.3044 41.9922 65.7235 42.1641 67.0302 42.7569C69.2153 43.7482 71.077 45.2833 71.0771 47.9893Z" stroke="#C1C1C1" stroke-width="1.34739" stroke-linecap="round"/>
<mask id="mask1_2859_34469" style="mask-type:alpha" maskUnits="userSpaceOnUse" x="55" y="42" width="16" height="8">
<path d="M64.6934 48.5393L68.3889 49.4955C69.4047 49.7584 70.4012 49.0155 70.4012 47.9953C70.4012 45.6893 68.8492 44.3284 66.75 43.376C65.5641 42.838 64.2516 42.6719 62.9493 42.6719C61.8289 42.6719 60.7012 42.7947 59.6563 43.1988C57.1834 44.1554 55.8047 45.5277 55.8047 47.9662C55.8047 48.993 56.8183 49.7338 57.8353 49.4504L60.9816 48.5736C62.1928 48.2361 63.4757 48.2242 64.6934 48.5393Z" fill="#1F1F1F"/>
</mask>
<g mask="url(#mask1_2859_34469)">
<path d="M63.3269 64.0043C68.1198 64.0043 72.0053 59.9826 72.0053 55.0217C72.0053 50.0607 68.1198 46.0391 63.3269 46.0391C58.5339 46.0391 54.6484 50.0607 54.6484 55.0217C54.6484 59.9826 58.5339 64.0043 63.3269 64.0043Z" fill="#EEEEEE"/>
</g>
<path d="M84.5879 31.7832C84.9221 31.8274 85.1734 32.0139 85.3349 32.1757C85.5236 32.3649 85.6723 32.6009 85.791 32.8281C86.0306 33.2868 86.2296 33.8739 86.3877 34.4501C86.701 35.5926 86.9091 36.904 86.9091 37.5C86.9091 38.8776 85.8505 40.0818 84.4394 40.082C83.0281 40.082 81.9688 38.8777 81.9688 37.5C81.9688 36.904 82.1768 35.5926 82.4902 34.4501C82.6483 33.8739 82.8473 33.2868 83.087 32.8281C83.2057 32.6009 83.3542 32.3649 83.5429 32.1757C83.7276 31.9906 84.0303 31.7734 84.4394 31.7734L84.5879 31.7832Z" fill="#FAFAFC" stroke="#C1C1C1" stroke-width="1.57196"/>
<path d="M115.891 13.0363C116.636 11.1539 118.91 8.36996 122.674 9.86016C126.751 11.4741 125.851 16.6435 121.694 18.6824C119.356 19.8293 119.302 20.9173 119.106 22.682" stroke="#C1C1C1" stroke-width="2.24565" stroke-linecap="round"/>
<path d="M118.649 30.1652C119.544 29.9735 120.113 29.0931 119.922 28.1987C119.73 27.3044 118.85 26.7347 117.955 26.9264C117.061 27.1181 116.491 27.9985 116.683 28.8928C116.875 29.7872 117.755 30.3569 118.649 30.1652Z" fill="#C1C1C1"/>
</g>
<defs>
<clipPath id="clip0_2859_34469">
<rect width="130" height="117" fill="white"/>
</clipPath>
</defs>
</svg>
