<svg width="97" height="122" viewBox="0 0 97 122" fill="none" xmlns="http://www.w3.org/2000/svg">
<g clip-path="url(#clip0_2859_33067)">
<path d="M28.793 109.591C29.1598 106.72 32.1466 105.482 33.2294 105.391L39.7068 105.569C42.9161 107.285 43.4663 111.519 43.3021 114.778C43.2149 116.51 42.0055 117.948 40.3593 118.491C30.4149 121.769 22.9315 120.582 18.9212 119.016C17.4305 118.434 16.4135 116.993 16.5422 115.398C17.0477 109.132 24.6309 108.834 28.793 109.591Z" fill="#D1D1D1"/>
<path d="M28.793 109.591C29.1598 106.72 32.1466 105.482 33.2294 105.391L39.7068 105.569C42.9161 107.285 43.4663 111.519 43.3021 114.778C43.2149 116.51 42.0055 117.948 40.3593 118.491C30.4149 121.769 22.9315 120.582 18.9212 119.016C17.4305 118.434 16.4135 116.993 16.5422 115.398C17.0477 109.132 24.6309 108.834 28.793 109.591ZM28.793 109.591C30.1058 109.867 32.0118 110.4 32.7117 111.139" stroke="#C1C1C1" stroke-width="1.63971" stroke-linecap="round"/>
<path d="M64.16 109.591C63.7932 106.72 60.8065 105.482 59.7236 105.391L53.2463 105.569C50.0369 107.285 49.4867 111.519 49.6509 114.778C49.7381 116.51 50.9475 117.948 52.5938 118.491C62.5382 121.769 70.0216 120.582 74.0319 119.016C75.5226 118.434 76.5395 116.993 76.4108 115.398C75.9054 109.132 68.3221 108.834 64.16 109.591Z" fill="#D1D1D1"/>
<path d="M64.16 109.591C63.7932 106.72 60.8065 105.482 59.7236 105.391L53.2463 105.569C50.0369 107.285 49.4867 111.519 49.6509 114.778C49.7381 116.51 50.9475 117.948 52.5938 118.491C62.5382 121.769 70.0216 120.582 74.0319 119.016C75.5226 118.434 76.5395 116.993 76.4108 115.398C75.9054 109.132 68.3221 108.834 64.16 109.591ZM64.16 109.591C62.8472 109.867 60.9413 110.4 60.2413 111.139" stroke="#C1C1C1" stroke-width="1.63971" stroke-linecap="round"/>
<path d="M33.2161 106.504C32.2516 104.622 32.4467 95.7424 33.0016 90.1875H39.1432L39.3541 105.164C39.3985 108.314 35.3235 109.6 33.552 106.995C33.4398 106.83 33.3071 106.682 33.2161 106.504Z" fill="#FAFAFC" stroke="#C1C1C1" stroke-width="1.63971"/>
<path d="M59.7399 106.504C60.7045 104.622 60.5093 95.7424 59.9545 90.1875H53.8128L53.6019 105.164C53.5575 108.314 57.6325 109.6 59.4041 106.995C59.5162 106.83 59.649 106.682 59.7399 106.504Z" fill="#FAFAFC" stroke="#C1C1C1" stroke-width="1.63971"/>
<path d="M34.5996 0C41.2785 9.92636e-07 46.7998 4.95585 47.6875 11.3906C47.7096 11.5508 47.8451 11.6729 48.0068 11.6729C48.1684 11.6727 48.3041 11.5507 48.3262 11.3906C49.2144 4.95642 54.7347 0.00107037 61.4131 0.000976562C68.7101 0.0011235 74.6258 5.91688 74.626 13.2139V21.2137C74.626 21.3093 74.7034 21.3867 74.799 21.3867H82.8008C90.0977 21.3868 96.0134 27.3017 96.0137 34.5986C96.0137 41.2522 91.0955 46.7574 84.6963 47.6768C84.5318 47.7004 84.4065 47.8397 84.4062 48.0059C84.4062 48.1722 84.5316 48.3123 84.6963 48.3359C91.0953 49.2553 96.0134 54.7597 96.0137 61.4131C96.0137 68.7102 90.0979 74.6259 82.8008 74.626H74.799C74.7034 74.626 74.626 74.7034 74.626 74.799V82.8018C74.6259 90.0988 68.7101 96.0145 61.4131 96.0146C54.7595 96.0146 49.2552 91.0965 48.3359 84.6973C48.3123 84.5327 48.1731 84.4074 48.0068 84.4072C47.8405 84.4072 47.7004 84.5326 47.6768 84.6973C46.7571 91.096 41.2529 96.0137 34.5996 96.0137C27.3026 96.0135 21.3868 90.0978 21.3867 82.8008V74.799C21.3867 74.7034 21.3093 74.626 21.2137 74.626H13.2129C5.91576 74.6259 1.59864e-05 68.7102 0 61.4131C0.000222878 54.7344 4.95595 49.2139 11.3906 48.3262C11.551 48.304 11.6728 48.1678 11.6729 48.0059C11.6729 47.8439 11.551 47.7077 11.3906 47.6855C4.95587 46.7978 1.46315e-05 41.2775 0 34.5986C0.000228048 27.3017 5.91589 21.3868 13.2129 21.3867H21.2137C21.3093 21.3867 21.3867 21.3093 21.3867 21.2137V13.2129C21.3869 5.91593 27.3027 0.000197845 34.5996 0Z" fill="#E5E5E5"/>
<mask id="mask0_2859_33067" style="mask-type:luminance" maskUnits="userSpaceOnUse" x="0" y="0" width="97" height="97">
<path d="M34.5996 0C41.2785 9.92636e-07 46.7998 4.95585 47.6875 11.3906C47.7096 11.5508 47.8451 11.6729 48.0068 11.6729C48.1684 11.6727 48.3041 11.5507 48.3262 11.3906C49.2144 4.95642 54.7347 0.00107037 61.4131 0.000976562C68.7101 0.0011235 74.6258 5.91688 74.626 13.2139V21.2137C74.626 21.3093 74.7034 21.3867 74.799 21.3867H82.8008C90.0977 21.3868 96.0134 27.3017 96.0137 34.5986C96.0137 41.2522 91.0955 46.7574 84.6963 47.6768C84.5318 47.7004 84.4065 47.8397 84.4062 48.0059C84.4062 48.1722 84.5316 48.3123 84.6963 48.3359C91.0953 49.2553 96.0134 54.7597 96.0137 61.4131C96.0137 68.7102 90.0979 74.6259 82.8008 74.626H74.799C74.7034 74.626 74.626 74.7034 74.626 74.799V82.8018C74.6259 90.0988 68.7101 96.0145 61.4131 96.0146C54.7595 96.0146 49.2552 91.0965 48.3359 84.6973C48.3123 84.5327 48.1731 84.4074 48.0068 84.4072C47.8405 84.4072 47.7004 84.5326 47.6768 84.6973C46.7571 91.096 41.2529 96.0137 34.5996 96.0137C27.3026 96.0135 21.3868 90.0978 21.3867 82.8008V74.799C21.3867 74.7034 21.3093 74.626 21.2137 74.626H13.2129C5.91576 74.6259 1.59864e-05 68.7102 0 61.4131C0.000222878 54.7344 4.95595 49.2139 11.3906 48.3262C11.551 48.304 11.6728 48.1678 11.6729 48.0059C11.6729 47.8439 11.551 47.7077 11.3906 47.6855C4.95587 46.7978 1.46315e-05 41.2775 0 34.5986C0.000228048 27.3017 5.91589 21.3868 13.2129 21.3867H21.2137C21.3093 21.3867 21.3867 21.3093 21.3867 21.2137V13.2129C21.3869 5.91593 27.3027 0.000197845 34.5996 0Z" fill="white"/>
</mask>
<g mask="url(#mask0_2859_33067)">
<path d="M48.0059 11.672V13.3117H48.0074L48.0059 11.672ZM84.4053 48.005L82.7656 48.0027V48.005H84.4053ZM48.0059 84.4063L48.0075 82.7666H48.0059V84.4063ZM34.5987 -0.000915051V1.63879C40.4473 1.63879 45.2849 5.97909 46.0623 11.6138L47.6866 11.3897L49.3109 11.1657C48.3128 3.93089 42.1079 -1.64062 34.5987 -1.64062V-0.000915051ZM47.6866 11.3897L46.0623 11.6138C46.1924 12.5573 46.9972 13.3117 48.0059 13.3117V11.672V10.0322C48.6912 10.0322 49.225 10.5426 49.3109 11.1657L47.6866 11.3897ZM48.0059 11.672L48.0074 13.3117C49.0136 13.3108 49.8192 12.5585 49.9496 11.6139L48.3253 11.3897L46.701 11.1655C46.7871 10.5411 47.3214 10.0328 48.0045 10.0322L48.0059 11.672ZM48.3253 11.3897L49.9496 11.6139C50.7274 5.97951 55.5641 1.63985 61.4122 1.63977V6.1512e-05V-1.63965C53.9034 -1.63954 47.6996 3.93141 46.701 11.1655L48.3253 11.3897ZM61.4122 6.1512e-05V1.63977C67.8036 1.6399 72.9852 6.82155 72.9854 13.213H74.6251H76.2648C76.2646 5.01046 69.6148 -1.63948 61.4122 -1.63965V6.1512e-05ZM74.6251 13.213H72.9854V21.2128H74.6251H76.2648V13.213H74.6251ZM74.7981 21.3858V23.0255H82.7999V21.3858V19.7461H74.7981V21.3858ZM82.7999 21.3858V23.0255C89.1914 23.0256 94.3729 28.2065 94.3731 34.5978L96.0128 34.5977H97.6525C97.6522 26.3951 91.0023 19.7462 82.7999 19.7461V21.3858ZM96.0128 34.5977L94.3731 34.5978C94.373 40.4243 90.0657 45.2478 84.4622 46.0528L84.6954 47.6759L84.9285 49.2989C92.1233 48.2652 97.6525 42.0784 97.6525 34.5977H96.0128ZM84.6954 47.6759L84.4622 46.0528C83.522 46.1879 82.767 46.9913 82.7656 48.0027L84.4053 48.005L86.0451 48.0072C86.0441 48.6863 85.5397 49.2111 84.9285 49.2989L84.6954 47.6759ZM84.4053 48.005H82.7656C82.7656 49.0145 83.518 49.8224 84.4622 49.9581L84.6954 48.335L84.9286 46.712C85.5435 46.8003 86.0451 47.3282 86.0451 48.005H84.4053ZM84.6954 48.335L84.4622 49.9581C90.0656 50.7631 94.3729 55.5861 94.3731 61.4122H96.0128H97.6525C97.6522 53.9317 92.1232 47.7456 84.9286 46.712L84.6954 48.335ZM96.0128 61.4122H94.3731C94.373 67.8037 89.1914 72.9853 82.7999 72.9854V74.6251V76.2648C91.0025 76.2647 97.6525 69.6149 97.6525 61.4122H96.0128ZM82.7999 74.6251V72.9854H74.7981V74.6251V76.2648H82.7999V74.6251ZM74.6251 74.7981H72.9854V82.8009H74.6251H76.2648V74.7981H74.6251ZM74.6251 82.8009H72.9854C72.9853 89.1923 67.8037 94.3739 61.4122 94.374V96.0137V97.6535C69.6148 97.6533 76.2647 91.0035 76.2648 82.8009H74.6251ZM61.4122 96.0137V94.374C55.5859 94.374 50.763 90.0668 49.9581 84.4632L48.335 84.6964L46.712 84.9295C47.7455 92.1243 53.9314 97.6534 61.4122 97.6535V96.0137ZM48.335 84.6964L49.9581 84.4632C49.8231 83.5236 49.0202 82.7676 48.0075 82.7666L48.0059 84.4063L48.0044 86.046C47.3242 86.0454 46.7997 85.54 46.712 84.9295L48.335 84.6964ZM48.0059 84.4063V82.7666C46.9963 82.7666 46.1885 83.519 46.0528 84.4631L47.6759 84.6964L49.2989 84.9296C49.2106 85.5443 48.6828 86.046 48.0059 86.046V84.4063ZM47.6759 84.6964L46.0528 84.4631C45.2475 90.0663 40.4248 94.3731 34.5987 94.3731V96.0128V97.6525C42.0792 97.6525 48.2649 92.124 49.2989 84.9296L47.6759 84.6964ZM34.5987 96.0128V94.3731C28.2071 94.3729 23.0256 89.1913 23.0255 82.7999H21.3858H19.7461C19.7461 91.0026 26.3961 97.6523 34.5987 97.6525V96.0128ZM21.3858 82.7999H23.0255V74.7981H21.3858H19.7461V82.7999H21.3858ZM21.2128 74.6251V72.9854H13.212V74.6251V76.2648H21.2128V74.6251ZM13.212 74.6251V72.9854C6.82043 72.9853 1.63881 67.8037 1.63879 61.4122H-0.000915051L-1.64062 61.4121C-1.64062 69.6148 5.00926 76.2647 13.212 76.2648V74.6251ZM-0.000915051 61.4122H1.63879C1.63899 55.5639 5.97909 50.7269 11.6138 49.9496L11.3897 48.3253L11.1656 46.7009C3.93097 47.699 -1.64037 53.9031 -1.64062 61.4121L-0.000915051 61.4122ZM11.3897 48.3253L11.6138 49.9496C12.5625 49.8183 13.3116 49.0083 13.3117 48.0051L11.672 48.005L10.0322 48.0048C10.0323 47.3254 10.5377 46.7878 11.1656 46.7009L11.3897 48.3253ZM11.672 48.005L13.3117 48.0051C13.3117 47.0015 12.5631 46.1917 11.6145 46.0604L11.3897 47.6846L11.1649 49.3089C10.5372 49.222 10.0322 48.6844 10.0322 48.0048L11.672 48.005ZM11.3897 47.6846L11.6145 46.0604C5.97965 45.283 1.63881 40.4461 1.63879 34.5977H-0.000915051H-1.64062C-1.64062 42.107 3.93024 48.3108 11.1649 49.3089L11.3897 47.6846ZM-0.000915051 34.5977H1.63879C1.63899 28.2064 6.82044 23.0256 13.212 23.0255V21.3858V19.7461C5.0095 19.7462 -1.64037 26.395 -1.64062 34.5977H-0.000915051ZM13.212 21.3858V23.0255H21.2128V21.3858V19.7461H13.212V21.3858ZM21.3858 21.2128H23.0255V13.212H21.3858H19.7461V21.2128H21.3858ZM21.3858 13.212H23.0255C23.0257 6.82063 28.2073 1.63897 34.5987 1.63879V-0.000915051V-1.64062C26.3962 -1.6404 19.7463 5.0094 19.7461 13.212H21.3858ZM21.2128 21.3858V23.0255C22.214 23.0255 23.0255 22.214 23.0255 21.2128H21.3858H19.7461C19.7461 20.4028 20.4028 19.7461 21.2128 19.7461V21.3858ZM21.3858 74.7981H23.0255C23.0255 73.7969 22.214 72.9854 21.2128 72.9854V74.6251V76.2648C20.4028 76.2648 19.7461 75.6081 19.7461 74.7981H21.3858ZM74.7981 74.6251V72.9854C73.7969 72.9854 72.9854 73.7969 72.9854 74.7981H74.6251H76.2648C76.2648 75.6081 75.6081 76.2648 74.7981 76.2648V74.6251ZM74.6251 21.2128H72.9854C72.9854 22.214 73.7969 23.0255 74.7981 23.0255V21.3858V19.7461C75.6081 19.7461 76.2648 20.4028 76.2648 21.2128H74.6251Z" fill="#C1C1C1"/>
</g>
<path d="M40.5654 41.154C42.2699 41.154 43.679 39.0716 43.7127 36.5028C43.7465 33.934 42.3922 31.8516 40.6877 31.8516C38.9833 31.8516 37.5742 33.934 37.5404 36.5028C37.5066 39.0716 38.861 41.154 40.5654 41.154Z" fill="#C1C1C1"/>
<path d="M39.6899 35.8012C40.0671 35.8338 40.4116 35.4125 40.4593 34.8602C40.507 34.308 40.2399 33.8338 39.8627 33.8012C39.4855 33.7686 39.141 34.1899 39.0933 34.7422C39.0455 35.2945 39.3126 35.7686 39.6899 35.8012Z" fill="#FAFAFC"/>
<path d="M51.542 41.154C53.2464 41.154 54.6555 39.0716 54.6893 36.5028C54.7231 33.934 53.3687 31.8516 51.6643 31.8516C49.9599 31.8516 48.5507 33.934 48.517 36.5028C48.4832 39.0716 49.8375 41.154 51.542 41.154Z" fill="#C1C1C1"/>
<path d="M50.6664 35.8012C51.0436 35.8338 51.3881 35.4125 51.4358 34.8602C51.4836 34.308 51.2165 33.8338 50.8393 33.8012C50.462 33.7686 50.1176 34.1899 50.0698 34.7422C50.0221 35.2945 50.2892 35.7686 50.6664 35.8012Z" fill="#FAFAFC"/>
<path d="M50.3594 26.9375C51.5306 29.2799 53.8731 30.4511 57.3867 29.8655" stroke="#C1C1C1" stroke-width="1.63971" stroke-linecap="round"/>
<path d="M42.1602 26.9375C40.9889 29.2799 38.6465 30.4511 35.1328 29.8655" stroke="#C1C1C1" stroke-width="1.63971" stroke-linecap="round"/>
<path d="M68.669 33.1514C69.0179 33.1973 69.2806 33.3916 69.4492 33.5606C69.6461 33.7578 69.801 34.0043 69.9248 34.2412C70.1748 34.7197 70.383 35.3316 70.5479 35.9326C70.8748 37.1244 71.0918 38.4925 71.0918 39.1143C71.0918 40.5514 69.9868 41.8086 68.5147 41.8086C67.0426 41.8086 65.9375 40.5514 65.9375 39.1143C65.9375 38.4925 66.1545 37.1244 66.4815 35.9326C66.6463 35.3316 66.8545 34.7197 67.1045 34.2412C67.2283 34.0043 67.3833 33.7578 67.5801 33.5606C67.7727 33.3675 68.088 33.1406 68.5147 33.1406L68.669 33.1514Z" fill="#FAFAFC" stroke="#C1C1C1" stroke-width="1.63971"/>
<path d="M45.0604 47.3265L40.909 46.329C39.7679 46.0548 38.6484 46.8298 38.6484 47.8939C38.6484 50.2928 40.3826 51.7113 42.7311 52.7043C44.0802 53.2748 45.5558 53.4467 47.0205 53.4467C48.2793 53.4467 49.5458 53.3194 50.7302 52.893C53.501 51.8954 55.0455 50.4644 55.0455 47.9242C55.0455 46.8532 53.9069 46.0804 52.7644 46.3761L49.23 47.2907C47.8694 47.6427 46.4282 47.6551 45.0604 47.3265Z" fill="#C1C1C1" stroke="#C1C1C1" stroke-width="1.63971" stroke-linecap="round"/>
<mask id="mask1_2859_33067" style="mask-type:alpha" maskUnits="userSpaceOnUse" x="37" y="45" width="19" height="10">
<path d="M45.0604 47.3265L40.909 46.329C39.7679 46.0548 38.6484 46.8298 38.6484 47.8939C38.6484 50.2928 40.3826 51.7113 42.7311 52.7043C44.0802 53.2748 45.5558 53.4467 47.0206 53.4467C48.2793 53.4467 49.5459 53.3194 50.7302 52.893C53.5011 51.8954 55.0456 50.4644 55.0456 47.9242C55.0456 46.8532 53.907 46.0804 52.7645 46.3761L49.2301 47.2907C47.8695 47.6427 46.4282 47.6551 45.0604 47.3265Z" fill="black" stroke="black" stroke-width="1.63971" stroke-linecap="round"/>
</mask>
<g mask="url(#mask1_2859_33067)">
<path d="M47.1499 57.5095C51.2195 57.5095 54.5186 55.9089 54.5186 53.9345C54.5186 51.96 51.2195 50.3594 47.1499 50.3594C43.0803 50.3594 39.7812 51.96 39.7812 53.9345C39.7812 55.9089 43.0803 57.5095 47.1499 57.5095Z" fill="#EEEEEE"/>
</g>
<path d="M37.9453 47.8911C37.9455 46.2812 39.5837 45.2852 41.0732 45.6431L45.2246 46.6411C46.4804 46.9429 47.8047 46.931 49.0537 46.6079L52.5888 45.6929C54.0812 45.307 55.7477 46.2979 55.748 47.9214C55.748 49.3514 55.3066 50.5187 54.4453 51.4595C53.6035 52.3787 52.4044 53.0353 50.9687 53.5523C49.6785 54.0168 48.3217 54.147 47.0205 54.147C45.5069 54.147 43.9263 53.9704 42.457 53.3491C40.0409 52.3275 37.9453 50.7346 37.9453 47.8911Z" stroke="#C1C1C1" stroke-width="1.40547" stroke-linecap="round"/>
<path d="M73.6903 63.2573C77.7113 73.06 66.8143 72.2574 59.6085 69.7363C58.1405 69.2227 56.4683 70.1304 56.2754 71.6737C56.1605 72.5928 56.6161 73.495 57.4487 73.9011C63.724 76.9621 71.7103 78.4465 76.948 74.1678C81.2285 70.6709 80.4109 63.9328 78.0599 60.0516C77.4764 59.0884 76.2575 58.8304 75.2109 59.2462C73.6603 59.8622 73.0571 61.7137 73.6903 63.2573Z" fill="#FAFAFC" stroke="#C1C1C1" stroke-width="1.63971" stroke-linecap="round"/>
<path d="M49.2579 52.7628C50.4019 52.3815 51.8004 53.9069 52.3089 55.051C56.0335 55.7959 56.6425 62.3172 56.3975 67.2547C57.4499 67.3818 59.3259 68.5513 58.4106 72.2124C57.5447 75.6761 54.79 75.3167 53.3113 74.622C53.1535 74.5478 52.9761 74.5195 52.8035 74.5442C48.8117 75.1151 47.3675 71.7569 48.1138 68.3988C48.724 65.6529 48.368 62.9325 48.1138 61.9156C47.351 58.4833 47.5379 56.627 48.1138 56.1951C47.9867 55.4324 47.8107 53.2451 49.2579 52.7628Z" fill="#FAFAFC"/>
<path d="M55.741 70.3056C56.1224 69.5429 56.3415 68.3838 56.3975 67.2547M56.3975 67.2547C56.6425 62.3172 56.0335 55.7959 52.3089 55.051M56.3975 67.2547C57.4499 67.3818 59.3259 68.5513 58.4106 72.2124C57.5447 75.6761 54.79 75.3167 53.3113 74.622C53.1535 74.5478 52.9761 74.5195 52.8035 74.5442C48.8117 75.1151 47.3675 71.7569 48.1138 68.3988C48.724 65.6529 48.368 62.9325 48.1138 61.9156C47.351 58.4833 47.5379 56.627 48.1138 56.1951M52.3089 55.051C51.8004 53.9069 50.4019 52.3815 49.2579 52.7628C47.8107 53.2451 47.9867 55.4324 48.1138 56.1951M52.3089 55.051C53.0716 56.5764 54.5207 60.3138 54.2156 63.0597M48.1138 56.1951C49.1308 55.4324 51.3937 55.9663 52.3089 64.2037" stroke="#C1C1C1" stroke-width="1.63971" stroke-linecap="round"/>
<path d="M20.3564 63.2573C16.3354 73.06 27.2324 72.2574 34.4382 69.7363C35.9062 69.2227 37.5784 70.1304 37.7713 71.6737C37.8862 72.5928 37.4305 73.495 36.598 73.9011C30.3227 76.9621 22.3364 78.4465 17.0987 74.1678C12.8182 70.6709 13.6357 63.9328 15.9868 60.0516C16.5703 59.0884 17.7892 58.8304 18.8358 59.2462C20.3863 59.8622 20.9896 61.7137 20.3564 63.2573Z" fill="#FAFAFC" stroke="#C1C1C1" stroke-width="1.63971" stroke-linecap="round"/>
<path d="M44.7877 52.7628C43.6436 52.3815 42.2452 53.9069 41.7367 55.051C38.0121 55.7959 37.4031 62.3172 37.648 67.2547C36.5956 67.3818 34.7197 68.5513 35.6349 72.2124C36.5009 75.6761 39.2556 75.3167 40.7342 74.622C40.8921 74.5478 41.0694 74.5195 41.242 74.5442C45.2338 75.1151 46.678 71.7569 45.9318 68.3988C45.3216 65.6529 45.6775 62.9325 45.9318 61.9156C46.6945 58.4833 46.5077 56.627 45.9318 56.1951C46.0589 55.4324 46.2349 53.2451 44.7877 52.7628Z" fill="#FAFAFC"/>
<path d="M38.3045 70.3056C37.9231 69.5429 37.704 68.3838 37.648 67.2547M37.648 67.2547C37.4031 62.3172 38.0121 55.7959 41.7367 55.051M37.648 67.2547C36.5956 67.3818 34.7197 68.5513 35.6349 72.2124C36.5009 75.6761 39.2556 75.3167 40.7342 74.622C40.8921 74.5478 41.0694 74.5195 41.242 74.5442C45.2338 75.1151 46.678 71.7569 45.9318 68.3988C45.3216 65.6529 45.6775 62.9325 45.9318 61.9156C46.6945 58.4833 46.5077 56.627 45.9318 56.1951M41.7367 55.051C42.2452 53.9069 43.6436 52.3815 44.7877 52.7628C46.2349 53.2451 46.0589 55.4324 45.9318 56.1951M41.7367 55.051C40.974 56.5764 39.5249 60.3138 39.83 63.0597M45.9318 56.1951C44.9147 55.4324 42.6519 55.9663 41.7367 64.2037" stroke="#C1C1C1" stroke-width="1.63971" stroke-linecap="round"/>
</g>
<defs>
<clipPath id="clip0_2859_33067">
<rect width="97" height="122" fill="white"/>
</clipPath>
</defs>
</svg>
