<svg width="204" height="237" viewBox="0 0 204 237" fill="none" xmlns="http://www.w3.org/2000/svg">
<path d="M100 236.875C120.987 236.875 138 231.055 138 223.875C138 216.695 120.987 210.875 100 210.875C79.0132 210.875 62 216.695 62 223.875C62 231.055 79.0132 236.875 100 236.875Z" fill="#A0C0FF"/>
<path d="M56.9485 159.743C58.7895 146.731 65.5298 136.757 74.0593 128.896C75.7894 127.302 78.4629 127.465 80.095 129.16C81.965 131.101 81.7005 134.233 79.683 136.021C68.8472 145.623 65.8738 155.122 65.1777 161.802C64.9048 164.421 61.6949 165.886 59.7948 164.064L57.8003 162.15C57.1501 161.527 56.8223 160.635 56.9485 159.743Z" fill="#FAFAFC" stroke="#1F1F1F" stroke-width="2.2"/>
<path d="M65.9336 159.847C60.6893 162.402 57.2239 157.851 56.5489 155.591C54.1257 155.455 53.4658 157.579 53.1361 158.641C44.2611 143.556 30.4265 151.004 32.7614 160.736C34.0584 166.142 54.2922 179.496 59.316 178.434C63.903 177.464 66.165 171.054 65.1403 167.573C65.0473 167.257 65.1117 166.909 65.329 166.661C67.7396 163.914 67.1453 161.203 65.9336 159.847Z" fill="#0F3E9A"/>
<path d="M53.1361 158.641C44.2611 143.556 30.4265 151.004 32.7614 160.736C34.0584 166.142 54.2923 179.496 59.316 178.434C63.903 177.464 66.165 171.054 65.1403 167.573C65.0473 167.257 65.1117 166.909 65.329 166.661C67.7395 163.914 67.1453 161.203 65.9336 159.847C60.6893 162.402 57.2239 157.851 56.5489 155.591C54.1257 155.455 53.4658 157.579 53.1361 158.641ZM53.1361 158.641C53.375 159.195 53.9961 160.635 54.5697 161.963" stroke="#1F1F1F" stroke-width="2.2" stroke-linecap="round"/>
<path d="M32.9844 156.695C38.0394 158.06 50.2202 164.309 58.5035 178.387" stroke="#1F1F1F" stroke-width="2.2" stroke-linecap="round"/>
<path d="M129.582 166.775C114.028 172.729 110.524 157.298 110.761 146.015C110.802 144.071 112.344 142.535 114.278 142.341C116.77 142.092 118.866 144.149 118.896 146.653C119.043 159.08 123.724 160.208 127.425 158.551C128.564 158.041 130.021 158.406 130.485 159.565L131.486 162.069C132.225 163.916 131.44 166.064 129.582 166.775Z" fill="#FAFAFC" stroke="#1F1F1F" stroke-width="2.2" stroke-linecap="round"/>
<path d="M45.0547 58.1285C48.6245 69.1119 57.262 76.5385 64.2648 80.0142C66.6081 81.1772 67.8708 84.0581 66.6698 86.3822C65.8803 87.9102 64.2055 88.8105 62.5356 88.3989C48.1135 84.8438 40.237 69.5166 37.3017 59.6542C36.7561 57.8207 37.7957 55.9368 39.5864 55.2639C41.8448 54.4151 44.3089 55.8341 45.0547 58.1285Z" fill="#FAFAFC" stroke="#1F1F1F" stroke-width="2.2" stroke-linecap="round"/>
<path d="M34.9207 60.5016C35.603 62.06 37.7045 63.7816 42.5992 62.4637C48.5276 60.8674 48.0779 56.573 47.112 54.6251C49.7721 50.7296 48.2043 49.827 49.1068 48.2593C49.6777 47.2678 52.7647 41.1808 48.774 40.1358C45.6436 39.3161 43.9294 44.4432 43.5494 46.3118C42.9318 43.0339 40.1377 34.2014 37.04 32.9625C34.6655 32.0128 32.5512 33.6758 32.24 35.6113C30.311 33.1132 28.7194 32.9591 27.2538 34.0082C25.5627 35.2187 26.2572 37.1905 26.2097 37.9981C19.8766 38.4143 24.6096 46.3874 27.6704 49.9678C27.8336 50.1587 27.9536 50.3827 28.0234 50.6239C29.4061 55.4014 32.0703 58.0337 33.8031 59.1164C34.3113 59.4339 34.6804 59.9526 34.9207 60.5016Z" fill="#FAFAFC"/>
<path d="M47.112 54.6251C48.0779 56.573 48.5276 60.8674 42.5992 62.4637C37.7045 63.7816 35.603 62.06 34.9207 60.5016C34.6804 59.9526 34.3113 59.4339 33.8031 59.1164C32.0703 58.0337 29.4061 55.4014 28.0234 50.6239C27.9536 50.3827 27.8336 50.1587 27.6704 49.9678C24.6096 46.3874 19.8766 38.4143 26.2097 37.9981M47.112 54.6251C49.7721 50.7296 48.2043 49.827 49.1068 48.2593C49.6777 47.2678 52.7647 41.1808 48.774 40.1358C45.6436 39.3161 43.9294 44.4432 43.5494 46.3118M47.112 54.6251C46.7183 55.2016 45.2307 56.2974 44.5467 56.9055M26.2097 37.9981C26.2572 37.1905 25.5627 35.2187 27.2538 34.0082C28.7194 32.9591 30.311 33.1132 32.24 35.6113M26.2097 37.9981C27.2393 38.869 29.6777 42.4167 31.388 46.4072M43.5494 46.3118C42.9318 43.0339 40.1377 34.2014 37.04 32.9625C34.6655 32.0128 32.5512 33.6758 32.24 35.6113M43.5494 46.3118C42.5987 48.687 39.3683 48.4971 38.3715 51.6801M32.24 35.6113C33.4327 37.156 34.789 39.65 36.4227 43.4616M38.0387 43.5559C36.1385 43.7143 33.5067 43.4515 31.3406 47.214" stroke="#1F1F1F" stroke-width="2.2" stroke-linecap="round"/>
<path d="M97.6281 17.5563C106.74 19.0025 113.2 26.9604 113.018 35.932C113.013 36.1549 113.172 36.3497 113.392 36.3849C113.612 36.4199 113.824 36.2837 113.889 36.0702C116.494 27.4837 125.099 21.9172 134.211 23.363C144.167 24.943 150.957 34.2954 149.377 44.2513L147.645 55.1657C147.624 55.2961 147.713 55.4185 147.844 55.4392L158.762 57.172C168.718 58.7522 175.508 68.1044 173.928 78.0602C172.487 87.1386 164.584 93.5836 155.653 93.4515C155.424 93.4483 155.224 93.6121 155.188 93.8385C155.153 94.0648 155.292 94.2815 155.511 94.3494C164.044 96.9882 169.565 105.564 168.125 114.642C166.545 124.598 157.192 131.388 147.236 129.809L136.316 128.076C136.186 128.055 136.063 128.144 136.043 128.274L134.31 139.196C132.729 149.152 123.377 155.941 113.421 154.361C104.343 152.92 97.8977 145.017 98.0305 136.086C98.0338 135.857 97.8701 135.656 97.6437 135.62C97.4172 135.584 97.1995 135.724 97.1316 135.943C94.4925 144.476 85.9174 149.995 76.8388 148.554C66.883 146.974 60.0924 137.623 61.6722 127.667L63.4052 116.747C63.4259 116.616 63.337 116.494 63.2067 116.473L52.2922 114.741C42.3363 113.161 35.5467 103.809 37.1267 93.8534C38.573 84.7419 46.5276 78.2835 55.4982 78.4646C55.7217 78.4691 55.9181 78.3106 55.9532 78.0899C55.9883 77.8691 55.8505 77.6576 55.6366 77.5927C47.0498 74.9881 41.4845 66.3831 42.9304 57.2709C44.5106 47.315 53.8626 40.5245 63.8186 42.1045L74.7341 43.8368C74.8644 43.8574 74.9869 43.7685 75.0076 43.6382L76.7398 32.7228C78.3202 22.7672 87.6724 15.9767 97.6281 17.5563Z" fill="#4181FF"/>
<mask id="mask0_2859_31314" style="mask-type:luminance" maskUnits="userSpaceOnUse" x="36" y="17" width="139" height="138">
<path d="M97.6281 17.5563C106.74 19.0025 113.2 26.9604 113.018 35.932C113.013 36.1549 113.172 36.3497 113.392 36.3849C113.612 36.4199 113.824 36.2837 113.889 36.0702C116.494 27.4837 125.099 21.9172 134.211 23.363C144.167 24.943 150.957 34.2954 149.377 44.2513L147.645 55.1657C147.624 55.2961 147.713 55.4185 147.844 55.4392L158.762 57.172C168.718 58.7522 175.508 68.1044 173.928 78.0602C172.487 87.1386 164.584 93.5836 155.653 93.4515C155.424 93.4483 155.224 93.6121 155.188 93.8385C155.153 94.0648 155.292 94.2815 155.511 94.3494C164.044 96.9882 169.565 105.564 168.125 114.642C166.545 124.598 157.192 131.388 147.236 129.809L136.316 128.076C136.186 128.055 136.063 128.144 136.043 128.274L134.31 139.196C132.729 149.152 123.377 155.941 113.421 154.361C104.343 152.92 97.8977 145.017 98.0305 136.086C98.0338 135.857 97.8701 135.656 97.6437 135.62C97.4172 135.584 97.1995 135.724 97.1316 135.943C94.4925 144.476 85.9174 149.995 76.8388 148.554C66.883 146.974 60.0924 137.623 61.6722 127.667L63.4052 116.747C63.4259 116.616 63.337 116.494 63.2067 116.473L52.2922 114.741C42.3363 113.161 35.5467 103.809 37.1267 93.8534C38.573 84.7419 46.5276 78.2835 55.4982 78.4646C55.7217 78.4691 55.9181 78.3106 55.9532 78.0899C55.9883 77.8691 55.8505 77.6576 55.6366 77.5927C47.0498 74.9881 41.4845 66.3831 42.9304 57.2709C44.5106 47.315 53.8626 40.5245 63.8186 42.1045L74.7341 43.8368C74.8644 43.8574 74.9869 43.7685 75.0076 43.6382L76.7398 32.7228C78.3202 22.7672 87.6724 15.9767 97.6281 17.5563Z" fill="white"/>
</mask>
<g mask="url(#mask0_2859_31314)">
<path d="M113.016 35.9292L110.816 35.8846V35.8858L113.016 35.9292ZM113.39 36.3821L113.043 38.5546L113.045 38.5549L113.39 36.3821ZM134.209 23.3602L134.554 21.1874H134.553L134.209 23.3602ZM155.651 93.4487L155.684 91.2489H155.682L155.651 93.4487ZM155.509 94.3466L154.857 96.4478L154.859 96.4484L155.509 94.3466ZM168.123 114.639L170.295 114.984H170.296L168.123 114.639ZM97.6409 135.617L97.986 133.445L97.9857 133.444L97.6409 135.617ZM97.1288 135.94L95.0274 135.289L95.027 135.29L97.1288 135.94ZM97.6253 17.5535L97.2805 19.7264C105.293 20.9979 110.976 27.9961 110.816 35.8846L113.016 35.9292L115.215 35.9738C115.419 25.919 108.183 17.0015 97.9701 15.3807L97.6253 17.5535ZM113.016 35.9292L110.816 35.8858C110.791 37.1734 111.707 38.3412 113.043 38.5546L113.39 36.3821L113.737 34.2097C114.632 34.3527 115.232 35.1309 115.215 35.9726L113.016 35.9292ZM113.39 36.3821L113.045 38.5549C114.379 38.7666 115.616 37.9433 115.992 36.7071L113.887 36.0674L111.782 35.4277C112.028 34.6185 112.841 34.0675 113.735 34.2093L113.39 36.3821ZM113.887 36.0674L115.992 36.7071C118.282 29.1572 125.852 24.2619 133.864 25.533L134.209 23.3602L134.553 21.1874C124.341 19.567 114.701 25.8055 111.781 35.4288L113.887 36.0674ZM134.209 23.3602L133.864 25.533C142.62 26.9226 148.592 35.1477 147.202 43.9037L149.375 44.2485L151.548 44.5933C153.318 33.4376 145.71 22.9579 134.554 21.1874L134.209 23.3602ZM149.375 44.2485L147.202 43.9037L145.47 54.8181L147.643 55.1629L149.816 55.5078L151.548 44.5933L149.375 44.2485ZM147.842 55.4364L147.497 57.6092L158.415 59.342L158.76 57.1692L159.105 54.9964L148.186 53.2636L147.842 55.4364ZM158.76 57.1692L158.415 59.342C167.171 60.7317 173.143 68.9568 171.754 77.7126L173.926 78.0574L176.099 78.4023C177.869 67.2465 170.261 56.767 159.105 54.9964L158.76 57.1692ZM173.926 78.0574L171.754 77.7126C170.487 85.6946 163.536 91.3651 155.684 91.2489L155.651 93.4487L155.619 95.6485C165.628 95.7965 174.484 88.577 176.099 78.4023L173.926 78.0574ZM155.651 93.4487L155.682 91.2489C154.389 91.2308 153.226 92.1554 153.014 93.4909L155.186 93.8357L157.359 94.1805C157.219 95.0632 156.454 95.6602 155.619 95.6485L155.651 93.4487ZM155.186 93.8357L153.014 93.4909C152.801 94.8313 153.627 96.0663 154.857 96.4478L155.509 94.3466L156.161 92.2455C156.953 92.4912 157.5 93.2926 157.359 94.1805L155.186 93.8357ZM155.509 94.3466L154.859 96.4484C162.362 98.7686 167.216 106.312 165.95 114.295L168.123 114.639L170.296 114.984C171.91 104.809 165.722 95.2021 156.159 92.2448L155.509 94.3466ZM168.123 114.639L165.95 114.295C164.56 123.05 156.335 129.022 147.579 127.633L147.234 129.806L146.89 131.979C158.045 133.749 168.525 126.14 170.295 114.984L168.123 114.639ZM147.234 129.806L147.579 127.633L136.659 125.9L136.314 128.073L135.969 130.246L146.89 131.979L147.234 129.806ZM136.041 128.271L133.868 127.927L132.135 138.848L134.308 139.193L136.48 139.537L138.213 128.616L136.041 128.271ZM134.308 139.193L132.135 138.848C130.745 147.604 122.52 153.575 113.764 152.185L113.419 154.358L113.075 156.531C124.23 158.301 134.71 150.693 136.48 139.537L134.308 139.193ZM113.419 154.358L113.764 152.185C105.782 150.918 100.111 143.968 100.228 136.116L98.0277 136.083L95.828 136.05C95.6791 146.06 102.9 154.916 113.075 156.531L113.419 154.358ZM98.0277 136.083L100.228 136.116C100.246 134.828 99.3268 133.657 97.986 133.445L97.6409 135.617L97.2957 137.79C96.4078 137.649 95.8161 136.88 95.828 136.05L98.0277 136.083ZM97.6409 135.617L97.9857 133.444C96.6443 133.232 95.4084 134.059 95.0274 135.289L97.1288 135.94L99.2303 136.591C98.9849 137.384 98.1843 137.931 97.2957 137.79L97.6409 135.617ZM97.1288 135.94L95.027 135.29C92.7066 142.793 85.1632 147.645 77.1808 146.379L76.836 148.551L76.4911 150.724C86.666 152.339 96.2728 146.154 99.2306 136.59L97.1288 135.94ZM76.836 148.551L77.1808 146.379C68.4249 144.989 62.4529 136.765 63.8422 128.009L61.6694 127.664L59.4966 127.319C57.7263 138.475 65.3356 148.953 76.4911 150.724L76.836 148.551ZM61.6694 127.664L63.8422 128.009L65.5752 117.089L63.4024 116.744L61.2296 116.399L59.4966 127.319L61.6694 127.664ZM63.2039 116.47L63.5487 114.298L52.6342 112.565L52.2894 114.738L51.9445 116.911L62.859 118.643L63.2039 116.47ZM52.2894 114.738L52.6342 112.565C43.8783 111.176 37.9072 102.951 39.2968 94.1955L37.1239 93.8506L34.9512 93.5057C33.1808 104.661 40.7885 115.14 51.9445 116.911L52.2894 114.738ZM37.1239 93.8506L39.2968 94.1955C40.5685 86.1841 47.5637 80.5022 55.451 80.6614L55.4954 78.4618L55.5399 76.2623C45.486 76.0593 36.572 83.2941 34.9512 93.5057L37.1239 93.8506ZM55.4954 78.4618L55.451 80.6614C56.7316 80.6872 57.9092 79.7782 58.1231 78.4325L55.9504 78.0871L53.7777 77.7417C53.9215 76.8373 54.7061 76.2454 55.5399 76.2623L55.4954 78.4618ZM55.9504 78.0871L58.1231 78.4325C58.3368 77.0859 57.498 75.8564 56.2724 75.4846L55.6338 77.5899L54.9952 79.6952C54.1974 79.4532 53.6341 78.6468 53.7777 77.7417L55.9504 78.0871ZM55.6338 77.5899L56.2724 75.4846C48.7225 73.1945 43.8291 65.6249 45.1004 57.6129L42.9276 57.2681L40.7548 56.9232C39.1343 67.1356 45.3714 76.776 54.9952 79.6952L55.6338 77.5899ZM42.9276 57.2681L45.1004 57.6129C46.4901 48.8569 54.7151 42.8849 63.471 44.2745L63.8158 42.1017L64.1607 39.9289C53.0046 38.1584 42.5254 45.7674 40.7548 56.9232L42.9276 57.2681ZM63.8158 42.1017L63.471 44.2745L74.3864 46.0068L74.7313 43.834L75.0761 41.6611L64.1607 39.9289L63.8158 42.1017ZM75.0048 43.6354L77.1776 43.9802L78.9098 33.0648L76.737 32.72L74.5642 32.375L72.8319 43.2906L75.0048 43.6354ZM76.737 32.72L78.9098 33.0648C80.2997 24.3091 88.5248 18.3371 97.2805 19.7264L97.6253 17.5535L97.9701 15.3807C86.8145 13.6107 76.335 21.2196 74.5642 32.375L76.737 32.72ZM74.7313 43.834L74.3864 46.0068C75.7168 46.2179 76.9664 45.3106 77.1776 43.9802L75.0048 43.6354L72.8319 43.2906C73.0017 42.2209 74.0064 41.4914 75.0761 41.6611L74.7313 43.834ZM63.4024 116.744L65.5752 117.089C65.7864 115.758 64.879 114.509 63.5487 114.298L63.2039 116.47L62.859 118.643C61.7894 118.473 61.0599 117.469 61.2296 116.399L63.4024 116.744ZM136.314 128.073L136.659 125.9C135.329 125.689 134.079 126.596 133.868 127.927L136.041 128.271L138.213 128.616C138.044 129.686 137.039 130.415 135.969 130.246L136.314 128.073ZM147.643 55.1629L145.47 54.8181C145.259 56.1485 146.166 57.3981 147.497 57.6092L147.842 55.4364L148.186 53.2636C149.256 53.4334 149.986 54.4381 149.816 55.5078L147.643 55.1629Z" fill="#1F1F1F"/>
</g>
<path d="M127.383 157.187C132.663 159.667 131.294 165.221 129.958 167.164C131.372 169.137 133.44 168.318 134.474 167.908C128.296 184.284 142.776 190.383 148.889 182.459C152.285 178.057 149.987 153.923 146.008 150.678C142.375 147.714 135.965 149.975 133.897 152.957C133.709 153.227 133.398 153.395 133.069 153.382C129.417 153.228 127.679 155.392 127.383 157.187Z" fill="#0F3E9A"/>
<path d="M134.474 167.908C128.296 184.284 142.776 190.383 148.889 182.459C152.285 178.057 149.987 153.923 146.008 150.678C142.375 147.714 135.965 149.975 133.897 152.957C133.709 153.227 133.398 153.395 133.069 153.382C129.417 153.228 127.679 155.392 127.383 157.187C132.663 159.667 131.294 165.221 129.958 167.164C131.372 169.137 133.44 168.318 134.474 167.908ZM134.474 167.908C134.755 167.375 135.487 165.987 136.161 164.708" stroke="#1F1F1F" stroke-width="2.2" stroke-linecap="round"/>
<path d="M111.235 63.1147C107.699 62.3206 102.762 63.9752 99.9972 66.4578C99.1875 67.1848 99.7648 68.2716 100.853 68.2466C103.552 68.1846 106.877 68.3345 110.016 71.8434" stroke="#1F1F1F" stroke-width="2.2" stroke-linecap="round"/>
<path d="M80.8664 58.6641C84.4843 58.8854 88.7653 61.8481 90.7303 65.0019C91.3057 65.9255 90.4488 66.8087 89.4108 66.482C86.8358 65.6716 83.5999 64.8904 79.6094 67.3876" stroke="#1F1F1F" stroke-width="2.2" stroke-linecap="round"/>
<path d="M95.1717 81.6239L89.8362 81.2589C88.3696 81.1585 87.2064 82.4756 87.4874 83.9186C88.1231 87.1841 90.6333 88.6941 93.7819 89.4794C95.5477 89.9198 97.3943 89.8047 99.1807 89.457C100.719 89.1576 102.233 88.6822 103.55 87.8353C106.685 85.8206 108.201 83.5106 107.53 80.0593C107.247 78.607 105.652 77.83 104.334 78.5026L100.257 80.5835C98.6873 81.3846 96.9297 81.7442 95.1717 81.6239Z" fill="#1F1F1F" stroke="#1F1F1F" stroke-width="2.2" stroke-linecap="round"/>
<mask id="mask1_2859_31314" style="mask-type:alpha" maskUnits="userSpaceOnUse" x="86" y="77" width="23" height="14">
<path d="M95.1717 81.6239L89.8362 81.2589C88.3696 81.1585 87.2064 82.4756 87.4874 83.9186C88.1231 87.1841 90.6333 88.6941 93.7819 89.4794C95.5477 89.9198 97.3943 89.8047 99.1807 89.457C100.719 89.1576 102.233 88.6822 103.55 87.8353C106.685 85.8206 108.201 83.5106 107.53 80.0593C107.247 78.607 105.652 77.83 104.334 78.5026L100.257 80.5835C98.6873 81.3846 96.9297 81.7442 95.1717 81.6239Z" fill="black" stroke="black" stroke-width="2.2" stroke-linecap="round"/>
</mask>
<g mask="url(#mask1_2859_31314)">
<path d="M100.414 94.9349C105.386 93.9669 108.995 91.0117 108.473 88.3344C107.952 85.657 103.499 84.2714 98.5264 85.2394C93.5542 86.2074 89.946 89.1626 90.4672 91.84C90.9885 94.5173 95.4418 95.903 100.414 94.9349Z" fill="#FF875F"/>
</g>
<path d="M85.343 83.6172C84.9962 81.3403 87.0606 79.5632 89.2344 79.7563L95.0116 80.2705C96.7325 80.4234 98.48 80.1411 100.064 79.455L104.614 77.4831C106.63 76.6097 109.171 77.6776 109.521 79.9743C109.823 81.9514 109.47 83.6665 108.49 85.1576C107.534 86.6124 106.037 87.7681 104.206 88.7742C102.552 89.6827 100.739 90.1432 98.9834 90.4108C96.9418 90.722 94.7607 90.8063 92.6372 90.253C89.1561 89.3459 85.946 87.5732 85.343 83.6172Z" stroke="#1F1F1F" stroke-width="2.2" stroke-linecap="round"/>
<path d="M158.881 73.289C154.803 84.0937 145.828 91.1088 138.67 94.2537C136.275 95.306 134.879 98.1248 135.97 100.503C136.688 102.066 138.319 103.043 140.006 102.71C154.578 99.8323 163.162 84.8897 166.555 75.1751C167.185 73.3691 166.235 71.4387 164.477 70.6829C162.261 69.7296 159.733 71.0319 158.881 73.289Z" fill="#FAFAFC" stroke="#1F1F1F" stroke-width="2.2" stroke-linecap="round"/>
<path d="M168.891 76.1347C168.137 77.6595 165.957 79.2811 161.129 77.736C155.282 75.8646 155.932 71.5959 156.988 69.6953C154.512 65.6797 156.121 64.8514 155.292 63.2432C154.768 62.2261 151.969 56.0017 156.004 55.1441C159.169 54.4715 160.642 59.6731 160.935 61.5574C161.705 58.3119 164.908 49.6195 168.06 48.5266C170.477 47.6889 172.511 49.4488 172.731 51.3967C174.775 48.9914 176.372 48.9118 177.787 50.0282C179.42 51.3164 178.634 53.2536 178.644 54.0625C184.95 54.774 179.85 62.5174 176.625 65.9509C176.454 66.134 176.323 66.3521 176.242 66.5899C174.638 71.2975 171.854 73.8026 170.072 74.8031C169.55 75.0966 169.157 75.5975 168.891 76.1347Z" fill="#FAFAFC"/>
<path d="M156.988 69.6953C155.932 71.5959 155.282 75.8646 161.129 77.736C165.957 79.2811 168.137 77.6595 168.891 76.1347C169.157 75.5975 169.55 75.0966 170.072 74.8031C171.854 73.8026 174.638 71.2975 176.242 66.5899C176.323 66.3521 176.454 66.134 176.625 65.9509C179.85 62.5174 184.95 54.774 178.644 54.0625M156.988 69.6953C154.512 65.6797 156.121 64.8514 155.292 63.2432C154.768 62.2261 151.969 56.0017 156.004 55.1441C159.169 54.4715 160.642 59.6731 160.935 61.5574M156.988 69.6953C157.354 70.2895 158.789 71.4535 159.444 72.0929M178.644 54.0625C178.634 53.2536 179.42 51.3164 177.787 50.0282C176.372 48.9118 174.775 48.9914 172.731 51.3967M178.644 54.0625C177.574 54.8844 174.973 58.3144 173.078 62.2206M160.935 61.5574C161.705 58.3119 164.908 49.6195 168.06 48.5266C170.477 47.6889 172.511 49.4488 172.731 51.3967M160.935 61.5574C161.773 63.9744 165.009 63.9356 165.856 67.1616M172.731 51.3967C171.468 52.884 169.997 55.3119 168.187 59.0431M166.568 59.0618C168.459 59.3088 171.1 59.1692 173.088 63.0288" stroke="#1F1F1F" stroke-width="2.2" stroke-linecap="round"/>
<path d="M156.449 22.7343C156.267 18.5341 158.093 10.0242 166.858 9.58594" stroke="#1F1F1F" stroke-width="2.2" stroke-linecap="round"/>
<path d="M161.922 28.4382C164.479 25.5163 171.345 20.9875 178.357 26.2468" stroke="#1F1F1F" stroke-width="2.2" stroke-linecap="round"/>
<path d="M162.71 166.031C164.453 170.191 166.48 180.719 160.641 189.555" stroke="#1F1F1F" stroke-width="2.2" stroke-linecap="round"/>
<path d="M170.096 169.555C171.473 172.841 173.075 181.158 168.461 188.138" stroke="#1F1F1F" stroke-width="2.2" stroke-linecap="round"/>
<path d="M28.7891 104.906C29.5196 108.924 32.8432 117.616 40.2939 120.246" stroke="#1F1F1F" stroke-width="2.2" stroke-linecap="round"/>
<path d="M69.1898 7.68434C71.0076 7.68434 72.4812 6.21074 72.4812 4.39295C72.4812 2.57517 71.0076 1.10156 69.1898 1.10156C67.372 1.10156 65.8984 2.57517 65.8984 4.39295C65.8984 6.21074 67.372 7.68434 69.1898 7.68434Z" fill="#FF875F" stroke="#1F1F1F" stroke-width="2.2"/>
<path d="M16.1898 87.3797C18.0076 87.3797 19.4812 85.906 19.4812 84.0883C19.4812 82.2705 18.0076 80.7969 16.1898 80.7969C14.372 80.7969 12.8984 82.2705 12.8984 84.0883C12.8984 85.906 14.372 87.3797 16.1898 87.3797Z" fill="#9CBEFF" stroke="#1F1F1F" stroke-width="2.2"/>
<path d="M191.502 74.2312C193.32 74.2312 194.794 72.7576 194.794 70.9398C194.794 69.122 193.32 67.6484 191.502 67.6484C189.685 67.6484 188.211 69.122 188.211 70.9398C188.211 72.7576 189.685 74.2312 191.502 74.2312Z" fill="#9CBEFF" stroke="#1F1F1F" stroke-width="2.2"/>
<path d="M199.174 121.348C200.992 121.348 202.466 119.875 202.466 118.057C202.466 116.239 200.992 114.766 199.174 114.766C197.356 114.766 195.883 116.239 195.883 118.057C195.883 119.875 197.356 121.348 199.174 121.348Z" fill="#FF875F" stroke="#1F1F1F" stroke-width="2.2"/>
<path d="M178.354 145.45C180.172 145.45 181.645 143.976 181.645 142.159C181.645 140.341 180.172 138.867 178.354 138.867C176.536 138.867 175.062 140.341 175.062 142.159C175.062 143.976 176.536 145.45 178.354 145.45Z" fill="#FF875F" stroke="#1F1F1F" stroke-width="2.2"/>
<path d="M41.0288 5.04315L4.91485 22.0861C3.59842 22.7073 3.03487 24.2781 3.65612 25.5945L16.4108 52.6216C17.032 53.938 18.6028 54.5016 19.9192 53.8803L56.0332 36.8374C57.3496 36.2162 57.9131 34.6454 57.2919 33.329L44.5373 6.30187C43.916 4.98545 42.3452 4.4219 41.0288 5.04315Z" fill="#D7F0F4" stroke="#1F1F1F" stroke-width="2.2"/>
<path d="M27.3281 21.3047L38.4884 44.9534" stroke="#92D6DF" stroke-width="2.2" stroke-linecap="round"/>
<path d="M16.8984 26.2266L28.0587 49.8753" stroke="#92D6DF" stroke-width="2.2" stroke-linecap="round"/>
<path d="M37.7578 16.3828L48.9181 40.0315" stroke="#92D6DF" stroke-width="2.2" stroke-linecap="round"/>
<path d="M2.12381 24.9363C1.24329 23.0705 2.04204 20.8441 3.90787 19.9636L40.0218 2.92069C41.8876 2.04016 44.114 2.83891 44.9945 4.70474L48.1832 11.4615L5.31247 31.693L2.12381 24.9363Z" fill="#0BBAB4"/>
<mask id="mask2_2859_31314" style="mask-type:luminance" maskUnits="userSpaceOnUse" x="1" y="2" width="48" height="30">
<path d="M2.12381 24.9363C1.24329 23.0705 2.04204 20.8441 3.90787 19.9636L40.0218 2.92069C41.8876 2.04016 44.114 2.83891 44.9945 4.70474L48.1832 11.4615L5.31247 31.693L2.12381 24.9363Z" fill="white"/>
</mask>
<g mask="url(#mask2_2859_31314)">
<path d="M0.131622 25.8726C-1.26745 22.908 0.0016892 19.3705 2.96634 17.9714L39.0803 0.928498C42.0449 -0.470578 45.5824 0.798565 46.9815 3.76321L43.0023 5.64106C42.6404 4.87404 41.7251 4.54569 40.9581 4.90766L4.84418 21.9505C4.07716 22.3125 3.74881 23.2277 4.11078 23.9948L0.131622 25.8726ZM3.32028 32.6294L0.131622 25.8726C-1.26745 22.908 0.0016892 19.3705 2.96634 17.9714L4.84418 21.9505C4.07716 22.3125 3.74881 23.2277 4.11078 23.9948L7.29944 30.7515L3.32028 32.6294ZM39.0803 0.928498C42.0449 -0.470578 45.5824 0.798565 46.9815 3.76321L50.1702 10.52L46.191 12.3978L43.0023 5.64106C42.6404 4.87404 41.7251 4.54569 40.9581 4.90766L39.0803 0.928498Z" fill="#1F1F1F"/>
</g>
<path d="M11.9716 16.1991C11.4103 15.0097 9.99121 14.5006 8.80189 15.0619C7.61257 15.6231 7.10343 17.0423 7.6647 18.2316L9.22832 21.5449C9.78958 22.7342 11.2087 23.2434 12.398 22.6821C13.5874 22.1208 14.0965 20.7017 13.5352 19.5124L11.9716 16.1991Z" fill="#BFE6ED" stroke="#1F1F1F" stroke-width="2.2"/>
<path d="M20.081 12.3709C19.5197 11.1816 18.1006 10.6725 16.9113 11.2337C15.7219 11.795 15.2128 13.2141 15.7741 14.4035L17.3377 17.7168C17.899 18.9061 19.3181 19.4152 20.5074 18.854C21.6967 18.2927 22.2059 16.8736 21.6446 15.6842L20.081 12.3709Z" fill="#BFE6ED" stroke="#1F1F1F" stroke-width="2.2"/>
<path d="M28.1904 8.54281C27.6291 7.35349 26.21 6.84435 25.0206 7.40561C23.8313 7.96688 23.3222 9.38601 23.8834 10.5753L25.4471 13.8886C26.0083 15.078 27.4275 15.5871 28.6168 15.0258C29.8061 14.4646 30.3152 13.0454 29.754 11.8561L28.1904 8.54281Z" fill="#BFE6ED" stroke="#1F1F1F" stroke-width="2.2"/>
<path d="M36.2997 4.71468C35.7385 3.52536 34.3193 3.01622 33.13 3.57749C31.9407 4.13875 31.4316 5.55789 31.9928 6.74721L33.5564 10.0605C34.1177 11.2498 35.5368 11.759 36.7262 11.1977C37.9155 10.6364 38.4246 9.21731 37.8634 8.02799L36.2997 4.71468Z" fill="#BFE6ED" stroke="#1F1F1F" stroke-width="2.2"/>
<path d="M9.90625 38.4244L50.8349 19.1094" stroke="#92D6DF" stroke-width="2.2" stroke-linecap="round"/>
<path d="M13.6172 46.2838L54.5457 26.9688" stroke="#92D6DF" stroke-width="2.2" stroke-linecap="round"/>
<path d="M47.1314 11.7969L57.2908 33.3247C57.9121 34.6411 57.3485 36.212 56.0321 36.8333L19.918 53.8762C18.6016 54.4973 17.0306 53.9338 16.4094 52.6175L6.25 31.0896L47.1314 11.7969Z" stroke="#1F1F1F" stroke-width="2.2"/>
</svg>
