<svg width="228" height="238" viewBox="0 0 228 238" fill="none" xmlns="http://www.w3.org/2000/svg">
<g clip-path="url(#clip0_2859_34363)">
<path d="M168.537 166.008C150.021 160.262 146.988 146.587 147.786 140.468L154.967 135.68C154.169 150.844 164.013 156.697 170.93 158.825L168.537 166.008Z" fill="#FAFAFC" stroke="#1F1F1F" stroke-width="2.1" stroke-linecap="round"/>
<path d="M85.6089 162.467C74.614 141.589 85.0288 134.302 91.9188 133.281L94.312 141.262C86.338 142.758 88.867 151.157 92.6384 157.809C94.0535 160.304 92.9062 163.631 90.1383 164.386C88.3639 164.87 86.4658 164.095 85.6089 162.467Z" fill="#FAFAFC" stroke="#1F1F1F" stroke-width="2.1" stroke-linecap="round"/>
<path d="M81.9856 29.2756C90.8166 27.0669 99.7553 31.794 103.057 40.0091C103.139 40.2136 103.359 40.3302 103.573 40.2767C103.787 40.2233 103.926 40.0169 103.902 39.7978C102.947 30.996 108.607 22.6184 117.438 20.4096C127.086 17.9965 136.864 23.861 139.277 33.509L141.923 44.087C141.954 44.2133 142.082 44.2901 142.209 44.2585L152.789 41.6121C162.437 39.1991 172.215 45.0645 174.628 54.7124C176.829 63.5105 172.145 72.4158 163.986 75.7464C163.777 75.8318 163.659 76.0575 163.713 76.2767C163.768 76.496 163.979 76.6393 164.204 76.6161C172.97 75.7131 181.296 81.3655 183.496 90.1641C185.909 99.8119 180.044 109.589 170.396 112.002L159.814 114.649C159.688 114.68 159.611 114.808 159.642 114.935L162.289 125.516C164.702 135.163 158.836 144.942 149.189 147.355C140.392 149.555 131.488 144.872 128.156 136.716C128.071 136.506 127.845 136.388 127.625 136.442C127.405 136.497 127.262 136.709 127.285 136.934C128.185 145.698 122.533 154.02 113.736 156.221C104.089 158.633 94.3116 152.769 91.8982 143.121L89.2518 132.54C89.2202 132.414 89.0922 132.337 88.9659 132.369L78.3898 135.014C68.7419 137.427 58.9643 131.562 56.5509 121.914C54.3424 113.084 59.0683 104.146 67.2816 100.844C67.4857 100.762 67.6017 100.542 67.5483 100.329C67.4948 100.115 67.2892 99.9767 67.0705 100C58.2694 100.954 49.8918 95.2932 47.683 86.4629C45.27 76.815 51.1346 67.0374 60.7824 64.6241L71.3604 61.9784C71.4867 61.9468 71.5635 61.8188 71.5319 61.6925L68.8862 51.1144C66.4732 41.4665 72.3377 31.6888 81.9856 29.2756Z" fill="#4181FF"/>
<mask id="mask0_2859_34363" style="mask-type:luminance" maskUnits="userSpaceOnUse" x="47" y="19" width="138" height="138">
<path d="M81.9856 29.2756C90.8166 27.0669 99.7553 31.794 103.057 40.0091C103.139 40.2136 103.359 40.3302 103.573 40.2767C103.787 40.2233 103.926 40.0169 103.902 39.7978C102.947 30.996 108.607 22.6184 117.438 20.4096C127.086 17.9965 136.864 23.861 139.277 33.509L141.923 44.087C141.954 44.2133 142.082 44.2901 142.209 44.2585L152.789 41.6121C162.437 39.1991 172.215 45.0645 174.628 54.7124C176.829 63.5105 172.145 72.4158 163.986 75.7464C163.777 75.8318 163.659 76.0575 163.713 76.2767C163.768 76.496 163.979 76.6393 164.204 76.6161C172.97 75.7131 181.296 81.3655 183.496 90.1641C185.909 99.8119 180.044 109.589 170.396 112.002L159.814 114.649C159.688 114.68 159.611 114.808 159.642 114.935L162.289 125.516C164.702 135.163 158.836 144.942 149.189 147.355C140.392 149.555 131.488 144.872 128.156 136.716C128.071 136.506 127.845 136.388 127.625 136.442C127.405 136.497 127.262 136.709 127.285 136.934C128.185 145.698 122.533 154.02 113.736 156.221C104.089 158.633 94.3116 152.769 91.8982 143.121L89.2518 132.54C89.2202 132.414 89.0922 132.337 88.9659 132.369L78.3898 135.014C68.7419 137.427 58.9643 131.562 56.5509 121.914C54.3424 113.084 59.0683 104.146 67.2816 100.844C67.4857 100.762 67.6017 100.542 67.5483 100.329C67.4948 100.115 67.2892 99.9767 67.0705 100C58.2694 100.954 49.8918 95.2932 47.683 86.4629C45.27 76.815 51.1346 67.0374 60.7824 64.6241L71.3604 61.9784C71.4867 61.9468 71.5635 61.8188 71.5319 61.6925L68.8862 51.1144C66.4732 41.4665 72.3377 31.6888 81.9856 29.2756Z" fill="white"/>
</mask>
<g mask="url(#mask0_2859_34363)">
<path d="M127.624 136.441L127.116 134.404H127.114L127.624 136.441ZM67.2805 100.843L68.0639 102.792L68.0652 102.791L67.2805 100.843ZM67.0694 99.999L66.845 97.9112L66.8431 97.9114L67.0694 99.999ZM81.9845 29.2745L82.494 31.3118C90.2934 29.3611 98.1914 33.5357 101.107 40.7911L103.056 40.008L105.004 39.225C101.318 30.0501 91.3377 24.7705 81.475 27.2373L81.9845 29.2745ZM103.056 40.008L101.107 40.7911C101.568 41.9364 102.816 42.629 104.081 42.313L103.572 40.2756L103.063 38.2383C103.9 38.0291 104.708 38.4886 105.004 39.225L103.056 40.008ZM103.572 40.2756L104.081 42.313C105.347 41.9965 106.122 40.7972 105.989 39.5705L103.901 39.7967L101.813 40.0228C101.728 39.2344 102.225 38.4479 103.062 38.2384L103.572 40.2756ZM103.901 39.7967L105.989 39.5705C105.145 31.7971 110.147 24.3965 117.947 22.4458L117.437 20.4085L116.928 18.3713C107.066 20.8381 100.747 30.1927 101.813 40.0228L103.901 39.7967ZM117.437 20.4085L117.947 22.4458C126.47 20.3141 135.107 25.4947 137.239 34.0174L139.276 33.5079L141.313 32.9983C138.618 22.2251 127.701 15.6768 116.928 18.3713L117.437 20.4085ZM139.276 33.5079L137.239 34.0174L139.884 44.5954L141.922 44.0859L143.959 43.5764L141.313 32.9983L139.276 33.5079ZM142.208 44.2574L142.717 46.2947L153.298 43.6483L152.788 41.611L152.279 39.5738L141.698 42.2202L142.208 44.2574ZM152.788 41.611L153.298 43.6483C161.821 41.5167 170.458 46.698 172.59 55.2209L174.627 54.7113L176.665 54.2018C173.97 43.4287 163.052 36.8794 152.279 39.5738L152.788 41.611ZM174.627 54.7113L172.59 55.2209C174.533 62.991 170.397 70.8595 163.192 73.8011L163.985 75.7453L164.779 77.6895C173.891 73.9698 179.122 64.0278 176.665 54.2018L174.627 54.7113ZM163.985 75.7453L163.192 73.8011C162.046 74.2689 161.359 75.521 161.675 76.7846L163.712 76.2756L165.75 75.7667C165.956 76.5919 165.507 77.3925 164.779 77.6895L163.985 75.7453ZM163.712 76.2756L161.675 76.7846C161.991 78.049 163.187 78.8308 164.418 78.7039L164.203 76.615L163.988 74.526C164.769 74.4454 165.543 74.9408 165.75 75.7667L163.712 76.2756ZM164.203 76.615L164.418 78.7039C172.16 77.9065 179.515 82.9018 181.458 90.6725L183.495 90.163L185.533 89.6535C183.075 79.8271 173.778 73.5176 163.988 74.526L164.203 76.615ZM183.495 90.163L181.458 90.6725C183.589 99.1951 178.408 107.832 169.885 109.964L170.395 112.001L170.904 114.038C181.677 111.344 188.227 100.427 185.533 89.6535L183.495 90.163ZM170.395 112.001L169.885 109.964L159.303 112.61L159.813 114.648L160.323 116.685L170.904 114.038L170.395 112.001ZM159.641 114.934L157.604 115.443L160.251 126.024L162.288 125.515L164.325 125.005L161.679 114.424L159.641 114.934ZM162.288 125.515L160.251 126.024C162.382 134.547 157.201 143.185 148.678 145.316L149.188 147.354L149.697 149.391C160.47 146.696 167.019 135.778 164.325 125.005L162.288 125.515ZM149.188 147.354L148.678 145.316C140.909 147.259 133.042 143.124 130.099 135.921L128.155 136.715L126.211 137.509C129.933 146.618 139.873 151.848 149.697 149.391L149.188 147.354ZM128.155 136.715L130.1 135.921C129.631 134.775 128.38 134.089 127.116 134.404L127.624 136.441L128.132 138.479C127.308 138.684 126.508 138.236 126.211 137.509L128.155 136.715ZM127.624 136.441L127.114 134.404C125.848 134.721 125.069 135.918 125.195 137.148L127.284 136.933L129.373 136.719C129.453 137.499 128.96 138.272 128.133 138.479L127.624 136.441ZM127.284 136.933L125.195 137.148C125.99 144.888 120.995 152.239 113.226 154.182L113.735 156.22L114.245 158.257C124.069 155.8 130.378 146.507 129.373 136.719L127.284 136.933ZM113.735 156.22L113.226 154.182C104.703 156.314 96.0663 151.133 93.9344 142.61L91.8971 143.12L89.8599 143.63C92.5547 154.402 103.472 160.951 114.245 158.257L113.735 156.22ZM91.8971 143.12L93.9344 142.61L91.288 132.03L89.2507 132.539L87.2135 133.049L89.8599 143.63L91.8971 143.12ZM88.9648 132.368L88.4553 130.33L77.8791 132.976L78.3887 135.013L78.8982 137.05L89.4743 134.405L88.9648 132.368ZM78.3887 135.013L77.8791 132.976C69.3563 135.107 60.719 129.926 58.5871 121.404L56.5498 121.913L54.5126 122.423C57.2074 133.196 68.1253 139.745 78.8982 137.05L78.3887 135.013ZM56.5498 121.913L58.5871 121.404C56.6366 113.605 60.8102 105.708 68.0639 102.792L67.2805 100.843L66.4972 98.8948C57.3242 102.583 52.0461 112.561 54.5126 122.423L56.5498 121.913ZM67.2805 100.843L68.0652 102.791C69.2133 102.329 69.8995 101.078 69.5844 99.8181L67.5472 100.328L65.5099 100.837C65.3016 100.004 65.7559 99.1934 66.4959 98.8954L67.2805 100.843ZM67.5472 100.328L69.5844 99.8181C69.2677 98.5537 68.0698 97.7796 66.845 97.9112L67.0694 99.999L67.2938 102.087C66.5064 102.172 65.7199 101.676 65.5101 100.838L67.5472 100.328ZM67.0694 99.999L66.8431 97.9114C59.0703 98.7539 51.6699 93.751 49.7192 85.9523L47.6819 86.4618L45.6447 86.9714C48.1114 96.8331 57.4662 103.152 67.2957 102.087L67.0694 99.999ZM47.6819 86.4618L49.7192 85.9523C47.5876 77.4294 52.7683 68.7921 61.2909 66.6602L60.7813 64.623L60.2718 62.5858C49.4988 65.2805 42.9503 76.1984 45.6447 86.9714L47.6819 86.4618ZM60.7813 64.623L61.2909 66.6602L71.8689 64.0146L71.3593 61.9773L70.8498 59.9401L60.2718 62.5858L60.7813 64.623ZM71.5308 61.6914L73.5681 61.1818L70.9224 50.6038L68.8851 51.1133L66.8479 51.6229L69.4936 62.2009L71.5308 61.6914ZM68.8851 51.1133L70.9224 50.6038C68.7907 42.0809 73.9713 33.4436 82.494 31.3118L81.9845 29.2745L81.475 27.2373C70.7019 29.932 64.1535 40.8499 66.8479 51.6229L68.8851 51.1133ZM71.3593 61.9773L71.8689 64.0146C73.1203 63.7016 73.8811 62.4333 73.5681 61.1818L71.5308 61.6914L69.4936 62.2009C69.2438 61.2021 69.851 60.1899 70.8498 59.9401L71.3593 61.9773ZM89.2507 132.539L91.288 132.03C90.975 130.778 89.7067 130.017 88.4553 130.33L88.9648 132.368L89.4743 134.405C88.4755 134.655 87.4633 134.048 87.2135 133.049L89.2507 132.539ZM159.813 114.648L159.303 112.61C158.052 112.923 157.291 114.192 157.604 115.443L159.641 114.934L161.679 114.424C161.929 115.423 161.321 116.435 160.323 116.685L159.813 114.648ZM141.922 44.0859L139.884 44.5954C140.197 45.8469 141.466 46.6077 142.717 46.2947L142.208 44.2574L141.698 42.2202C142.697 41.9704 143.709 42.5775 143.959 43.5764L141.922 44.0859Z" fill="#1F1F1F"/>
</g>
<path d="M102.73 83.7394C104.942 83.0353 105.909 79.7489 104.891 76.3989C103.873 73.049 101.255 70.904 99.0433 71.608C96.8318 72.3121 95.8645 75.5985 96.8826 78.9485C97.9008 82.2984 100.519 84.4434 102.73 83.7394Z" fill="#1F1F1F"/>
<path d="M89.3903 87.9804C91.6038 87.2757 92.5728 83.9888 91.5547 80.6388C90.5365 77.2888 87.9167 75.1444 85.7032 75.8491C83.4897 76.5537 82.5207 79.8407 83.5389 83.1907C84.557 86.5406 87.1768 88.6851 89.3903 87.9804Z" fill="#1F1F1F"/>
<path d="M85.9946 81.5219C86.4873 81.3685 86.7046 80.6594 86.4799 79.938C86.2553 79.2167 85.6738 78.7563 85.1811 78.9097C84.6885 79.0631 84.4712 79.7723 84.6958 80.4936C84.9204 81.2149 85.5019 81.6753 85.9946 81.5219Z" fill="#FAFAFC"/>
<path d="M99.3774 77.35C99.8701 77.1966 100.087 76.4875 99.8628 75.7661C99.6381 75.0448 99.0566 74.5844 98.5639 74.7378C98.0713 74.8913 97.854 75.6004 98.0786 76.3217C98.3032 77.0431 98.8847 77.5035 99.3774 77.35Z" fill="#FAFAFC"/>
<path d="M112.792 99.4961C114.799 97.5398 114.224 93.6944 111.508 90.9073C108.791 88.1202 104.962 87.4467 102.955 89.403C100.947 91.3594 101.523 95.2047 104.239 97.9919C106.956 100.779 110.785 101.452 112.792 99.4961Z" fill="#1F1F1F"/>
<mask id="mask1_2859_34363" style="mask-type:alpha" maskUnits="userSpaceOnUse" x="101" y="88" width="13" height="13">
<path d="M103.686 90.1499C104.386 89.4673 105.472 89.1754 106.781 89.4058C108.089 89.6358 109.532 90.3821 110.753 91.6355C111.975 92.8891 112.685 94.3508 112.881 95.6641C113.078 96.979 112.758 98.0564 112.057 98.7391C111.357 99.4217 110.272 99.7141 108.962 99.4839C107.654 99.2539 106.211 98.5077 104.989 97.2541C103.767 96.0006 103.059 94.5387 102.862 93.2256C102.666 91.9106 102.985 90.8326 103.686 90.1499Z" fill="#1F1F1F" stroke="#1F1F1F" stroke-width="2.1"/>
</mask>
<g mask="url(#mask1_2859_34363)">
<path d="M117.585 97.4573C116.772 101.602 113.858 104.521 111.076 103.975C108.293 103.43 106.696 99.6276 107.509 95.4823C108.322 91.3369 111.236 88.4186 114.018 88.964C116.801 89.5093 118.397 93.3119 117.585 97.4573Z" fill="#FF875F"/>
</g>
<path d="M103.686 90.15C104.386 89.4673 105.472 89.1755 106.781 89.4058C108.089 89.6358 109.532 90.3821 110.753 91.6355C111.975 92.8891 112.685 94.3509 112.881 95.6641C113.078 96.979 112.758 98.0564 112.057 98.7391C111.357 99.4217 110.272 99.7141 108.962 99.4839C107.655 99.2539 106.211 98.5078 104.989 97.2542C103.767 96.0007 103.059 94.5388 102.862 93.2256C102.666 91.9106 102.985 90.8327 103.686 90.15Z" stroke="#1F1F1F" stroke-width="2.1"/>
<path d="M57.4027 114.513L56.4528 114.6C55.5512 114.683 54.8873 115.481 54.9699 116.382L57.6612 145.763C57.7438 146.664 58.5416 147.328 59.4432 147.245L60.3932 147.158C61.2948 147.076 61.9587 146.278 61.8761 145.376L59.1847 115.996C59.1022 115.095 58.3043 114.431 57.4027 114.513Z" fill="#CEE9FB" stroke="#1F1F1F" stroke-width="2.1"/>
<path d="M59.8381 122.082L55.3747 122.491C54.4731 122.574 53.8091 123.372 53.8917 124.273L56.5198 152.962C56.6024 153.863 57.4002 154.527 58.3018 154.445L62.7652 154.036C63.6668 153.953 64.3308 153.156 64.2482 152.254L61.6201 123.565C61.5375 122.664 60.7397 122 59.8381 122.082Z" fill="#0F3E9A" stroke="#1F1F1F" stroke-width="2.1"/>
<path d="M74.6618 122.039C70.5572 129.698 64.2677 132.23 56.9616 132.691L56.4844 140.034C72.2768 142.011 79.5686 132.602 83.3406 125.32C84.3477 123.375 83.6147 121.015 81.7747 119.829C79.3129 118.241 76.0456 119.457 74.6618 122.039Z" fill="#FAFAFC" stroke="#1F1F1F" stroke-width="2.1" stroke-linecap="round"/>
<path d="M26.5245 87.8247C27.0516 72.488 39.9112 60.4822 55.2479 61.0089C70.5848 61.5359 82.5908 74.3964 82.0638 89.7334C81.5368 105.071 68.6764 117.077 53.3394 116.55C38.0027 116.022 25.9975 103.162 26.5245 87.8247ZM55.0671 66.2984C42.6516 65.8718 32.2409 75.591 31.8141 88.0064C31.3875 100.422 41.1065 110.833 53.5221 111.26C65.9376 111.686 76.3485 101.967 76.7751 89.5514C77.2016 77.136 67.4825 66.7252 55.0671 66.2984Z" fill="#1F5BD2"/>
<path d="M53.4761 116.035C68.4826 116.55 81.0657 104.803 81.5814 89.7967C82.097 74.7902 70.3499 62.2071 55.3434 61.6915C40.337 61.1758 27.7539 72.9229 27.2382 87.9294C26.7226 102.936 38.4697 115.519 53.4761 116.035Z" stroke="#1F1F1F" stroke-width="2.1"/>
<path d="M53.6576 110.654C65.6953 111.067 75.7891 101.644 76.2027 89.6065C76.6163 77.5689 67.1932 67.4751 55.1555 67.0614C43.1178 66.6478 33.0241 76.071 32.6104 88.1086C32.1968 100.146 41.6199 110.24 53.6576 110.654Z" fill="#B0CCFF" fill-opacity="0.6" stroke="#1F1F1F" stroke-width="2.1"/>
<path d="M45.4542 83.6679C46.9197 80.3907 47.0085 77.2424 45.6527 76.6361C44.2968 76.0298 42.0096 78.195 40.5441 81.4723C39.0786 84.7495 38.9898 87.8978 40.3456 88.5041C41.7015 89.1104 43.9887 86.9452 45.4542 83.6679Z" fill="#FAFAFC"/>
<path d="M41.7149 93.9153C42.5647 93.4072 42.8417 92.3063 42.3336 91.4565C41.8254 90.6066 40.7246 90.3296 39.8747 90.8377C39.0249 91.3459 38.7479 92.4467 39.256 93.2966C39.7641 94.1464 40.865 94.4234 41.7149 93.9153Z" fill="#FAFAFC"/>
<path d="M62.4557 127.349C64.8834 129.114 63.9712 132.41 62.5442 133.351C65.0972 135.526 63.8876 138.439 62.5844 139.361C64.4544 140.004 65.8798 143.304 61.3971 145.135C54.5344 147.938 48.135 145.511 47.5168 136.154C46.8986 126.798 58.0863 124.172 62.4557 127.349Z" fill="#FAFAFC"/>
<path d="M62.5442 133.351C63.9712 132.41 64.8834 129.114 62.4557 127.349C58.0863 124.172 46.8986 126.798 47.5168 136.154C48.135 145.511 54.5344 147.938 61.3971 145.135C65.8798 143.304 64.4544 140.004 62.5844 139.361M62.5442 133.351C65.0972 135.526 63.8876 138.439 62.5844 139.361M62.5442 133.351C61.5512 132.505 58.8592 131.784 55.2183 133.219M62.5844 139.361C61.1841 138.879 59.2257 138.997 57.1824 140.214" stroke="#1F1F1F" stroke-width="2.1" stroke-linecap="round"/>
<path d="M63.5246 214.306L40.7915 205.213C39.6104 204.74 38.35 204.497 37.078 204.497H18.4628C16.8249 204.497 16.3725 202.246 17.8831 201.613L60.1774 183.891C61.7654 183.225 63.4715 182.888 65.1932 182.899L82.4227 183.007C83.5577 183.015 84.6867 183.173 85.7798 183.479L100.745 187.662C101.354 187.832 101.977 187.95 102.606 188.015L127.484 190.583C128.564 190.695 129.626 190.944 130.643 191.324L145.981 197.055C147.082 197.466 147.303 198.927 146.374 199.646L120.157 219.943C118.508 221.22 116.314 221.548 114.364 220.811L97.6202 214.486C95.8962 213.835 94.0517 213.564 92.2134 213.693L69.7042 215.273C67.5978 215.421 65.4852 215.09 63.5246 214.306Z" fill="#95B8FF"/>
<path d="M66.5479 205.223L43.7713 196.113C43.5919 196.041 43.4009 196.002 43.2077 195.999L16.7552 195.514C15.3982 195.489 15.0118 193.644 16.2446 193.077L60.1841 172.851C61.0214 172.465 61.9322 172.266 62.854 172.266H81.4675C82.4883 172.266 83.5055 172.388 84.4972 172.63L105.516 177.764C106.171 177.924 106.839 178.024 107.511 178.063L129.568 179.361C131.175 179.455 132.75 179.853 134.209 180.533L147 186.49C148.1 187.002 148.249 188.507 147.269 189.225L117.803 210.805C116.924 211.449 115.777 211.6 114.761 211.206L100.05 205.494C98.369 204.841 96.569 204.552 94.7682 204.645L70.5996 205.895C69.2163 205.967 67.8339 205.738 66.5479 205.223Z" fill="#D7F0F4"/>
<path d="M43 195.813L84.702 173" stroke="#86CAD3" stroke-width="2.1" stroke-linecap="round"/>
<path d="M67 204.69L105.5 179.5" stroke="#86CAD3" stroke-width="2.1" stroke-linecap="round"/>
<path d="M96.5391 204.194L132.387 179.984" stroke="#86CAD3" stroke-width="2.1" stroke-linecap="round"/>
<path d="M66.5479 205.217L45.1999 196.678C44.0759 196.228 42.8797 195.987 41.6693 195.964L16.7552 195.508C15.3982 195.483 15.0118 193.638 16.2446 193.071L60.2866 172.798C61.0578 172.443 61.892 172.245 62.7405 172.216L81.6149 171.578C83.1913 171.524 84.7639 171.764 86.2532 172.283L103.815 178.41C104.931 178.8 106.103 179.009 107.285 179.032L129.299 179.447C131.08 179.481 132.835 179.887 134.449 180.639L147 186.484C148.1 186.996 148.249 188.501 147.269 189.219L117.803 210.799C116.924 211.443 115.777 211.594 114.761 211.2L100.05 205.488C98.369 204.835 96.569 204.546 94.7682 204.639L70.5996 205.889C69.2163 205.961 67.8339 205.732 66.5479 205.217Z" stroke="#1F1F1F" stroke-width="2.1" stroke-linecap="round"/>
<path d="M162.959 171.36C161.247 169.076 163.197 166.127 164.386 164.938C168.587 163.538 169.893 160.77 170.099 158.897C170.17 158.254 170.509 157.621 171.116 157.397C177.78 154.938 181.003 157.614 182.28 160.435C182.944 161.901 182.565 163.567 181.865 165.016L174.894 179.455C173.704 181.921 171.207 183.488 168.469 183.488H155.071C152.909 183.488 150.774 182.294 150.347 180.174C148.852 172.752 157.717 171.15 162.959 171.36Z" fill="#0F3E9A" stroke="#1F1F1F" stroke-width="2.1"/>
<path d="M162.953 171.359C164.38 171.359 167.519 171.93 168.661 174.213" stroke="#1F1F1F" stroke-width="2.1" stroke-linecap="round"/>
<path d="M92.9488 156.688C91.4571 162.247 85.8253 161.881 83.7062 160.922C82.0364 162.638 83.191 164.504 83.7682 165.437C66.7919 162.281 63.3838 177.403 72.1412 181.963C77.0057 184.496 100.044 178.073 102.505 173.645C104.751 169.602 101.443 163.769 98.1882 162.28C97.8927 162.144 97.6754 161.871 97.6317 161.549C97.1463 157.976 94.7427 156.663 92.9488 156.688Z" fill="#0F3E9A"/>
<path d="M83.7682 165.437C66.7919 162.281 63.3838 177.403 72.1412 181.963C77.0057 184.496 100.044 178.073 102.505 173.645C104.751 169.602 101.443 163.769 98.1882 162.28C97.8927 162.144 97.6754 161.871 97.6317 161.549C97.1463 157.976 94.7427 156.663 92.9488 156.688C91.4571 162.247 85.8253 161.881 83.7062 160.922C82.0364 162.638 83.191 164.504 83.7682 165.437ZM83.7682 165.437C84.3353 165.617 85.8095 166.087 87.1694 166.519" stroke="#1F1F1F" stroke-width="2.1" stroke-linecap="round"/>
<path d="M159.481 100.909C158.676 97.4407 154.796 96.8519 150.84 97.168C147.805 97.4104 145.487 94.2361 147.097 91.6526C147.577 90.8834 148.339 90.3282 149.228 90.1523C153.674 89.2729 160.957 88.7334 165.686 95.5221C170.946 103.073 164.754 111.671 160.489 114.707L155.519 108.405C157.216 108.158 160.716 106.235 159.481 100.909Z" fill="#FAFAFC" stroke="#1F1F1F" stroke-width="2.1" stroke-linecap="round"/>
<path d="M161.021 107.567C156.256 104.855 153.006 107.672 152.282 109.594C149.272 109.853 143.58 115.559 146.692 121.415C149.182 126.1 152.727 126.008 154.189 125.377C156.209 128.416 163.893 127.511 165.937 123.09C167.572 119.553 165.232 117.775 163.619 117.126C165.101 115.32 166.275 110.558 161.021 107.567Z" fill="#FAFAFC"/>
<path d="M152.282 109.594C153.006 107.672 156.256 104.855 161.021 107.567C166.275 110.558 165.101 115.32 163.619 117.126C165.232 117.775 167.572 119.553 165.937 123.09C163.893 127.511 156.209 128.416 154.189 125.377C152.727 126.008 149.182 126.1 146.692 121.415C143.58 115.559 149.272 109.853 152.282 109.594ZM152.282 109.594C152.975 109.433 154.587 109.322 155.484 110.167M161.25 112.337C161.666 112.241 164.779 118.097 161.197 121.559" stroke="#1F1F1F" stroke-width="2.1" stroke-linecap="round"/>
<path d="M10.2841 52.6565C14.8809 52.6565 18.6073 50.6837 18.6073 48.2501C18.6073 45.8166 14.8809 43.8438 10.2841 43.8438C5.68734 43.8438 1.96094 45.8166 1.96094 48.2501C1.96094 50.6837 5.68734 52.6565 10.2841 52.6565Z" fill="#8DB3FF"/>
<path d="M10.2783 24.3281C15.3814 24.3281 19.5098 28.4449 19.5098 33.5126C19.5097 35.6495 18.6827 38.262 17.2959 40.7998C15.9154 43.3261 14.0359 45.6761 12.0508 47.2978C11.0112 48.1471 9.5465 48.147 8.50685 47.2978C6.52176 45.6761 4.64229 43.3262 3.26172 40.7998C1.87492 38.2619 1.04693 35.6496 1.04688 33.5126C1.04688 28.445 5.17545 24.3282 10.2783 24.3281Z" fill="#0AB8B8" stroke="#1F1F1F" stroke-width="2.1"/>
<path d="M10.2783 38.3847C12.9432 38.3847 15.1035 36.2244 15.1035 33.5595C15.1035 30.8947 12.9432 28.7344 10.2783 28.7344C7.61343 28.7344 5.45312 30.8947 5.45312 33.5595C5.45312 36.2244 7.61343 38.3847 10.2783 38.3847Z" fill="#FAFAFC" stroke="#1F1F1F" stroke-width="2.1"/>
<path d="M216.995 167.235C221.592 167.235 225.318 165.262 225.318 162.828C225.318 160.395 221.592 158.422 216.995 158.422C212.398 158.422 208.672 160.395 208.672 162.828C208.672 165.262 212.398 167.235 216.995 167.235Z" fill="#8DB3FF"/>
<path d="M181.612 238C186.209 238 189.935 236.027 189.935 233.594C189.935 231.16 186.209 229.188 181.612 229.188C177.015 229.188 173.289 231.16 173.289 233.594C173.289 236.027 177.015 238 181.612 238Z" fill="#8DB3FF"/>
<path d="M181.607 208.695C186.71 208.695 190.838 212.812 190.838 217.88C190.838 220.017 190.011 222.629 188.624 225.167C187.244 227.693 185.364 230.043 183.379 231.665C182.34 232.514 180.875 232.514 179.835 231.665C177.85 230.043 175.971 227.693 174.59 225.167C173.203 222.629 172.375 220.017 172.375 217.88C172.375 212.812 176.504 208.695 181.607 208.695Z" fill="#0AB8B8" stroke="#1F1F1F" stroke-width="2.1"/>
<path d="M181.606 222.752C184.271 222.752 186.432 220.592 186.432 217.927C186.432 215.262 184.271 213.102 181.606 213.102C178.942 213.102 176.781 215.262 176.781 217.927C176.781 220.592 178.942 222.752 181.606 222.752Z" fill="#FAFAFC" stroke="#1F1F1F" stroke-width="2.1"/>
<path d="M216.99 137.93C222.093 137.93 226.221 142.047 226.221 147.114C226.221 149.251 225.394 151.864 224.007 154.401C222.627 156.928 220.747 159.278 218.762 160.899C217.723 161.749 216.258 161.749 215.218 160.899C213.233 159.278 211.354 156.928 209.973 154.401C208.587 151.864 207.759 149.251 207.758 147.114C207.758 142.047 211.887 137.93 216.99 137.93Z" fill="#6398FF" stroke="#1F1F1F" stroke-width="2.1"/>
<path d="M216.989 151.986C219.654 151.986 221.814 149.826 221.814 147.161C221.814 144.496 219.654 142.336 216.989 142.336C214.324 142.336 212.164 144.496 212.164 147.161C212.164 149.826 214.324 151.986 216.989 151.986Z" fill="#FAFAFC" stroke="#1F1F1F" stroke-width="2.1"/>
<path d="M166.416 12L162.055 25.8515" stroke="#1F1F1F" stroke-width="2.1" stroke-linecap="round"/>
<path d="M181.147 21.8594L170.062 31.1984" stroke="#1F1F1F" stroke-width="2.1" stroke-linecap="round"/>
</g>
<defs>
<clipPath id="clip0_2859_34363">
<rect width="228" height="238" fill="white"/>
</clipPath>
</defs>
</svg>
