<svg width="246" height="220" viewBox="0 0 246 220" fill="none" xmlns="http://www.w3.org/2000/svg">
<path d="M91.2412 195.507L11.3742 102.987C8.32423 99.4538 10.0043 93.9478 14.5072 92.7192L143.14 57.6223C145.345 57.0207 147.703 57.6514 149.314 59.2733L233.97 144.543C237.314 147.912 235.911 153.625 231.386 155.061L97.964 197.408C95.5444 198.176 92.9 197.428 91.2412 195.507Z" fill="#C2D6FD" stroke="#3A77EE" stroke-width="1.4"/>
<path d="M90.9052 210.866L11.0383 118.346C7.98829 114.813 9.66834 109.307 14.1713 108.078L142.804 72.9817C145.009 72.3801 147.367 73.0107 148.978 74.6326L233.634 159.902C236.978 163.271 235.575 168.985 231.05 170.421L97.628 212.768C95.2084 213.536 92.564 212.788 90.9052 210.866Z" fill="#7AA7FF" stroke="#3A77EE" stroke-width="1.4"/>
<path d="M91.0771 202.874L11.2102 110.354C8.16017 106.821 9.84022 101.315 14.3432 100.086L142.976 64.9895C145.181 64.3879 147.539 65.0186 149.149 66.6405L233.805 151.91C237.15 155.279 235.747 160.993 231.222 162.429L97.7999 204.776C95.3804 205.544 92.7359 204.796 91.0771 202.874Z" fill="#7AA7FF" stroke="#3472ED" stroke-width="1.4"/>
<path d="M91.2412 195.507L11.3742 102.987C8.32423 99.4538 10.0043 93.9478 14.5072 92.7192L143.14 57.6223C145.345 57.0207 147.703 57.6514 149.314 59.2733L233.97 144.543C237.314 147.912 235.911 153.625 231.386 155.061L97.964 197.408C95.5444 198.176 92.9 197.428 91.2412 195.507Z" fill="#C2D6FD" stroke="#3A77EE" stroke-width="1.4"/>
<path d="M57.2578 81.4688L149.535 184.013" stroke="#8CB0F7" stroke-width="1.4"/>
<path d="M104.492 68.6562L197.433 169.986" stroke="#8CB0F7" stroke-width="1.4"/>
<path d="M82.375 76.5234L173.074 177.03" stroke="#8CB0F7" stroke-width="1.4"/>
<path d="M127.461 62.5469L220.437 160.486" stroke="#8CB0F7" stroke-width="1.4"/>
<path d="M49.4375 105.992L164.438 74.4922" stroke="#8CB0F7" stroke-width="1.4"/>
<path d="M64.4375 122.492L180.438 90.9922" stroke="#8CB0F7" stroke-width="1.4"/>
<path d="M78.4375 139.492L193.938 108.492" stroke="#8CB0F7" stroke-width="1.4"/>
<path d="M91.2585 195.543L11.3821 103.012C8.32817 99.4748 10.017 93.9615 14.5284 92.7411L33.9318 87.4922L122.398 189.924L97.9296 197.461C95.5224 198.202 92.9045 197.45 91.2585 195.543Z" fill="#94B8FE" stroke="#7DA9FE" stroke-width="1.4"/>
<path d="M91.2412 195.507L11.3742 102.987C8.32423 99.4538 10.0043 93.9478 14.5072 92.7192L143.14 57.6223C145.345 57.0207 147.703 57.6514 149.314 59.2733L233.97 144.543C237.314 147.912 235.911 153.625 231.386 155.061L97.964 197.408C95.5444 198.176 92.9 197.428 91.2412 195.507Z" stroke="#3A77EE" stroke-width="1.4"/>
<path d="M24.2489 99.7643C17.4986 96.4175 7.88165 99.4524 4.84003 107.487C1.79875 115.522 7.34744 123.489 12.8308 120.957H12.832C10.8201 118.969 9.29181 115.465 11.6 111.038C13.9083 106.61 18.9618 104.599 22.8879 106.546C23.1391 106.67 23.3795 106.808 23.6089 106.958C25.1825 107.986 27.5558 108.361 28.7999 106.952C29.4864 106.175 29.6691 105.051 29.1151 104.174C27.9428 102.319 26.3056 100.784 24.2489 99.7643Z" fill="#5C93FF" stroke="#3A77EE" stroke-width="1.4"/>
<path d="M35.3284 112.057C28.6727 108.526 18.976 111.295 15.7145 119.244C12.4534 127.192 17.7809 135.309 23.3318 132.928H23.333C21.3766 130.885 19.9452 127.341 22.3742 122.979C24.8035 118.617 29.9104 116.745 33.7815 118.799C34.0291 118.93 34.2656 119.074 34.4908 119.231C36.0355 120.301 38.3976 120.742 39.68 119.368C40.3876 118.61 40.6011 117.491 40.0715 116.6C38.9507 114.712 37.3563 113.133 35.3284 112.057Z" fill="#5C93FF" stroke="#3A77EE" stroke-width="1.4"/>
<path d="M45.7983 125.615C39.1182 122.13 29.4409 124.967 26.2349 132.938C23.0291 140.908 28.413 148.988 33.9472 146.568H33.9484C31.9778 144.539 30.5218 141.005 32.9204 136.626C35.3192 132.247 40.413 130.34 44.2983 132.367C44.5468 132.497 44.7843 132.639 45.0106 132.794C46.5627 133.854 48.9278 134.278 50.2006 132.895C50.9029 132.132 51.1087 131.012 50.5729 130.124C49.439 128.245 47.8336 126.677 45.7983 125.615Z" fill="#5C93FF" stroke="#3A77EE" stroke-width="1.4"/>
<path d="M84.7134 4.02981C90.4004 4.44117 94.7954 9.00202 95.1558 14.5357C95.165 14.6743 95.274 14.7863 95.4126 14.7964C95.5512 14.8062 95.6757 14.7107 95.7046 14.5747C96.8578 9.15116 101.861 5.27216 107.547 5.68313C113.761 6.13261 118.435 11.5346 117.986 17.7486L117.493 24.5611C117.487 24.6424 117.548 24.7134 117.629 24.7193L124.445 25.2124C130.658 25.6623 135.331 31.0633 134.882 37.2769C134.472 42.9414 129.946 47.3231 124.442 47.7134C124.299 47.7239 124.183 47.8368 124.172 47.98C124.162 48.1229 124.261 48.2509 124.401 48.2818C129.792 49.4602 133.64 54.4472 133.23 60.1118C132.785 66.265 127.483 70.9044 121.346 70.5581L121.938 71.5796C122.353 72.2963 122.11 73.214 121.393 73.6294L113.554 78.1714C113.06 80.9643 111.551 83.3734 109.445 85.0406C111.168 86.6203 113.073 87.6808 114.833 88.3511C115.138 88.4669 115.419 88.6232 115.676 88.8091C115.779 88.7398 115.892 88.6799 116.018 88.6333C118.222 87.82 119.97 87.8162 121.317 88.3511C122.665 88.8865 123.495 89.9151 123.955 90.9312C124.507 92.1524 124.16 93.4553 123.687 94.4361L119.32 103.482C118.449 105.286 116.622 106.432 114.62 106.432H106.226C104.658 106.432 102.895 105.556 102.532 103.754C102.266 102.435 102.452 101.308 102.998 100.382C103.536 99.4715 104.38 98.8273 105.307 98.3775C106.756 97.6747 108.523 97.3902 110.041 97.3345C109.93 96.7098 110.036 96.0914 110.227 95.5611C110.429 95.0007 110.738 94.4925 111.047 94.0874C106.71 92.4349 103.921 89.9 102.243 87.4722C102.041 87.4684 101.837 87.4606 101.633 87.4458C95.9688 87.0358 91.589 82.5106 91.1988 77.0064C91.1885 76.863 91.0755 76.7463 90.9321 76.7359C90.7888 76.7256 90.6601 76.8249 90.6294 76.9654C89.8727 80.4269 87.5444 83.2489 84.4761 84.7193C82.629 88.1687 81.9598 91.271 81.8091 93.8169L81.8228 93.8286C82.9579 94.7986 83.5934 96.7983 82.2036 98.9615C82.7256 100.192 82.7093 101.893 82.2407 103.39C81.761 104.923 80.743 106.442 79.0757 107.038C78.5337 107.231 77.8534 107.228 77.1626 107.142C76.4497 107.053 75.6292 106.863 74.7534 106.601C72.9996 106.077 70.9536 105.248 68.9761 104.29C66.9986 103.331 65.0648 102.232 63.5366 101.16C62.7733 100.624 62.0973 100.087 61.565 99.5669C61.0453 99.0596 60.6076 98.5164 60.3941 97.9663C59.1235 94.6911 60.7272 91.4057 63.6021 90.1675C66.2762 89.0161 69.827 89.6882 73.0777 93.1939C73.1015 93.1478 73.1251 93.1006 73.1519 93.0552C73.5194 92.4314 74.1563 91.903 75.1753 91.8228L75.2661 91.815C75.5212 89.5766 76.02 87.4553 76.7154 85.4439C71.5759 84.0834 67.9652 79.2246 68.3628 73.7281L68.855 66.9146C68.8609 66.8334 68.8004 66.7625 68.7193 66.7564L66.5347 66.5982C66.3144 66.9383 66.015 67.2707 65.6353 67.5884L66.814 70.9312C66.8854 71.1339 66.8831 71.3441 66.8238 71.5347L66.9195 77.1607C66.9272 77.6223 66.639 77.9565 66.2779 78.0835C66.1426 78.1311 65.9969 78.1498 65.853 78.1353C65.6131 78.111 65.3776 77.9939 65.2007 77.7661L61.7495 73.3228C61.5834 73.2114 61.45 73.0484 61.3784 72.8452L60.2339 69.5972C59.8422 69.5767 59.4539 69.517 59.0718 69.4136C56.9918 68.8506 55.326 67.0799 54.3687 64.1324C54.1482 63.4534 54.0365 62.803 54.0161 62.1851C52.2364 60.0265 51.2497 57.2083 51.4673 54.1978C51.5998 52.3665 52.1636 50.6703 53.0503 49.1988L52.1255 46.5728C51.5969 45.0718 52.3852 43.4266 53.8863 42.898C55.3872 42.3695 57.0324 43.1577 57.5611 44.6587L57.6568 44.9302C58.9746 44.2674 60.4354 43.8564 61.9712 43.7564C62.1103 43.7473 62.2238 43.6386 62.2339 43.4995C62.2439 43.3606 62.1474 43.2367 62.0113 43.2075C56.5873 42.0545 52.7076 37.0496 53.1187 31.3628C53.5685 25.149 58.9702 20.4769 65.1841 20.9263L71.9986 21.4185C72.0798 21.4242 72.1499 21.363 72.1558 21.2818L72.6489 14.4683C73.0988 8.25478 78.4999 3.58091 84.7134 4.02981Z" fill="#FAFAFC"/>
<path d="M95.1559 14.5359L91.1643 14.7958L91.1647 14.8007L95.1559 14.5359ZM95.4127 14.7966L95.1219 18.786L95.1301 18.7866L95.4127 14.7966ZM95.7047 14.5749L99.617 15.408L99.6172 15.4069L95.7047 14.5749ZM117.629 24.7195L117.339 28.7089L117.341 28.709L117.629 24.7195ZM124.442 47.7136L124.159 43.7236L124.149 43.7243L124.442 47.7136ZM124.172 47.9802L120.183 47.6916L120.182 47.7024L124.172 47.9802ZM124.401 48.282L123.54 52.1881L123.547 52.1897L124.401 48.282ZM121.346 70.5583L121.571 66.5647L114.168 66.1469L117.885 72.5635L121.346 70.5583ZM121.393 73.6296L123.398 77.0906L123.399 77.0901L121.393 73.6296ZM113.554 78.1716L111.549 74.7106L109.939 75.6433L109.615 77.4752L113.554 78.1716ZM109.445 85.0408L106.962 81.9042L103.282 84.817L106.741 87.989L109.445 85.0408ZM115.676 88.8093L113.332 92.0503L115.6 93.6913L117.919 92.1215L115.676 88.8093ZM116.018 88.6335L114.633 84.8808L114.632 84.8813L116.018 88.6335ZM102.532 103.754L98.6106 104.544L98.6107 104.545L102.532 103.754ZM110.041 97.3347L110.188 101.332L114.788 101.163L113.979 96.632L110.041 97.3347ZM111.047 94.0876L114.226 96.5153L117.478 92.2571L112.471 90.3497L111.047 94.0876ZM102.243 87.4724L105.533 85.198L104.368 83.5121L102.319 83.4731L102.243 87.4724ZM91.1989 77.0066L95.1888 76.7237L95.1887 76.7223L91.1989 77.0066ZM90.9322 76.7361L91.223 72.7466L91.2188 72.7463L90.9322 76.7361ZM84.4762 84.7195L82.7476 81.1123L81.5676 81.6777L80.9499 82.8312L84.4762 84.7195ZM81.8092 93.8171L77.8162 93.5807L77.6989 95.5623L79.206 96.8542L81.8092 93.8171ZM81.8229 93.8288L79.2197 96.8659L79.2243 96.8698L81.8229 93.8288ZM82.2037 98.9616L78.8384 96.7995L77.6961 98.5776L78.5211 100.523L82.2037 98.9616ZM79.0758 107.038L80.4198 110.805H80.4209L79.0758 107.038ZM60.3942 97.9665L56.6649 99.4132L56.6653 99.4142L60.3942 97.9665ZM73.0778 93.1941L70.1446 95.9138L74.0122 100.085L76.6292 95.0344L73.0778 93.1941ZM75.1754 91.823L75.4895 95.8106L75.5039 95.8095L75.5182 95.8083L75.1754 91.823ZM75.2662 91.8152L75.6091 95.8004L78.8699 95.5199L79.2405 92.2681L75.2662 91.8152ZM76.7155 85.4441L80.4959 86.751L81.9034 82.6796L77.739 81.5773L76.7155 85.4441ZM68.7194 66.7566L69.0195 62.7678L69.0083 62.767L68.7194 66.7566ZM66.5348 66.5984L66.8237 62.6088L64.4636 62.4379L63.1774 64.4241L66.5348 66.5984ZM65.6354 67.5886L63.0687 64.5207L60.9401 66.3015L61.863 68.9188L65.6354 67.5886ZM66.8141 70.9314L70.5869 69.6026L70.5864 69.6012L66.8141 70.9314ZM66.8238 71.5349L63.0048 70.3455L62.8135 70.9597L62.8244 71.6029L66.8238 71.5349ZM61.7496 73.323L64.9087 70.8693L64.5128 70.3597L63.9768 70.0004L61.7496 73.323ZM60.234 69.5974L64.0066 68.268L63.1168 65.7428L60.4431 65.6029L60.234 69.5974ZM54.0162 62.1853L58.0141 62.0538L57.9693 60.692L57.1025 59.6407L54.0162 62.1853ZM53.0504 49.199L56.4765 51.2634L57.4495 49.6485L56.8233 47.8702L53.0504 49.199ZM57.5612 44.6589L53.7883 45.9877L53.7887 45.9888L57.5612 44.6589ZM57.6569 44.9304L53.8844 46.2603L55.395 50.5454L59.4542 48.5039L57.6569 44.9304ZM61.9713 43.7566L62.2313 47.7481L62.2331 47.748L61.9713 43.7566ZM62.0113 43.2077L62.8491 39.2965L62.8431 39.2952L62.0113 43.2077ZM71.9987 21.4187L71.7105 25.4083L71.7193 25.4089L71.9987 21.4187ZM84.7135 4.02999L84.4249 8.01957C88.0907 8.28472 90.9319 11.2267 91.1643 14.7958L95.1559 14.5359L99.1474 14.2759C98.6591 6.77768 92.7103 0.597966 85.0021 0.0404112L84.7135 4.02999ZM95.1559 14.5359L91.1647 14.8007C91.3031 16.8873 92.9512 18.6278 95.1219 18.786L95.4127 14.7966L95.7036 10.8072C97.597 10.9452 99.027 12.4618 99.1471 14.271L95.1559 14.5359ZM95.4127 14.7966L95.1301 18.7866C97.2998 18.9403 99.1813 17.4544 99.617 15.408L95.7047 14.5749L91.7924 13.7419C92.1703 11.9674 93.8028 10.6726 95.6953 10.8066L95.4127 14.7966ZM95.7047 14.5749L99.6172 15.4069C100.361 11.9088 103.594 9.408 107.259 9.67291L107.547 5.68331L107.836 1.69373C100.128 1.13669 93.3548 6.39394 91.7922 13.743L95.7047 14.5749ZM107.547 5.68331L107.259 9.67291C111.27 9.96302 114.286 13.4498 113.996 17.4603L117.986 17.7488L121.975 18.0376C122.584 9.62007 116.253 2.30257 107.836 1.69373L107.547 5.68331ZM117.986 17.7488L113.996 17.4603L113.503 24.2725L117.493 24.5613L121.482 24.8501L121.975 18.0376L117.986 17.7488ZM117.493 24.5613L113.503 24.2725C113.338 26.5533 115.052 28.5426 117.339 28.7089L117.629 24.7195L117.919 20.73C120.044 20.8845 121.635 22.732 121.482 24.8501L117.493 24.5613ZM117.629 24.7195L117.341 28.709L124.156 29.2022L124.445 25.2126L124.734 21.2231L117.918 20.7299L117.629 24.7195ZM124.445 25.2126L124.156 29.2022C128.167 29.4925 131.182 32.9787 130.893 36.9888L134.882 37.2771L138.872 37.5658C139.48 29.1487 133.15 21.8324 124.734 21.2231L124.445 25.2126ZM134.882 37.2771L130.893 36.9888C130.628 40.6397 127.709 43.4718 124.159 43.7236L124.442 47.7136L124.725 51.7036C132.183 51.1747 138.316 45.244 138.872 37.5658L134.882 37.2771ZM124.442 47.7136L124.149 43.7243C122.086 43.8757 120.341 45.5092 120.183 47.6916L124.172 47.9802L128.162 48.2688C128.025 50.1649 126.511 51.5725 124.735 51.7029L124.442 47.7136ZM124.172 47.9802L120.182 47.7024C120.03 49.8813 121.522 51.7433 123.54 52.1881L124.401 48.282L125.262 44.3758C127 44.7589 128.294 46.365 128.163 48.258L124.172 47.9802ZM124.401 48.282L123.547 52.1897C127.024 52.9498 129.504 56.1724 129.24 59.8235L133.23 60.112L137.219 60.4008C137.775 52.7225 132.559 45.9711 125.255 44.3743L124.401 48.282ZM133.23 60.112L129.24 59.8235C128.953 63.7931 125.533 66.7882 121.571 66.5647L121.346 70.5583L121.121 74.552C129.434 75.021 136.616 68.7376 137.219 60.4008L133.23 60.112ZM121.346 70.5583L117.885 72.5635L118.477 73.585L121.938 71.5798L125.399 69.5746L124.807 68.5531L121.346 70.5583ZM121.938 71.5798L118.477 73.585C117.786 72.3928 118.19 70.8629 119.387 70.1692L121.393 73.6296L123.399 77.0901C126.029 75.5655 126.92 72.2002 125.399 69.5746L121.938 71.5798ZM121.393 73.6296L119.388 70.1686L111.549 74.7106L113.554 78.1716L115.559 81.6326L123.398 77.0906L121.393 73.6296ZM113.554 78.1716L109.615 77.4752C109.298 79.2686 108.33 80.8221 106.962 81.9042L109.445 85.0408L111.927 88.1773C114.773 85.9251 116.823 82.6605 117.493 78.868L113.554 78.1716ZM109.445 85.0408L106.741 87.989C108.888 89.957 111.246 91.2653 113.41 92.0894L114.833 88.3513L116.257 84.6132C114.901 84.0967 113.447 83.2839 112.148 82.0925L109.445 85.0408ZM114.833 88.3513L113.41 92.0894C113.362 92.0712 113.337 92.0537 113.332 92.0503L115.676 88.8093L118.02 85.5683C117.502 85.1931 116.913 84.863 116.257 84.6132L114.833 88.3513ZM115.676 88.8093L117.919 92.1215C117.769 92.2228 117.596 92.3146 117.404 92.3857L116.018 88.6335L114.632 84.8813C114.187 85.0455 113.788 85.2572 113.433 85.4972L115.676 88.8093ZM116.018 88.6335L117.403 92.3862C118.984 91.8028 119.671 92.0016 119.841 92.0689L121.317 88.3513L122.793 84.6337C120.268 83.6311 117.46 83.8377 114.633 84.8808L116.018 88.6335ZM121.317 88.3513L119.841 92.0689C119.945 92.1101 120.017 92.1628 120.084 92.2325C120.16 92.3114 120.241 92.4276 120.311 92.581L123.955 90.9314L127.599 89.2823C126.82 87.5623 125.324 85.6389 122.793 84.6337L121.317 88.3513ZM123.955 90.9314L120.31 92.5805C120.271 92.4932 120.25 92.4084 120.242 92.3418C120.234 92.2795 120.24 92.2514 120.238 92.267C120.236 92.2841 120.227 92.3327 120.201 92.4136C120.175 92.494 120.137 92.5897 120.085 92.6973L123.687 94.4363L127.289 96.1753C127.949 94.8082 128.884 92.1217 127.599 89.2823L123.955 90.9314ZM123.687 94.4363L120.085 92.6973L115.718 101.743L119.32 103.482L122.922 105.221L127.289 96.1753L123.687 94.4363ZM119.32 103.482L115.718 101.743C115.514 102.164 115.087 102.432 114.619 102.432L114.62 106.432V110.432C118.158 110.432 121.384 108.407 122.922 105.221L119.32 103.482ZM114.62 106.432V102.432H106.226V106.432V110.432H114.62V106.432ZM106.226 106.432V102.432C106.201 102.432 106.162 102.428 106.123 102.417C106.085 102.406 106.083 102.399 106.11 102.417C106.14 102.436 106.213 102.491 106.291 102.6C106.374 102.715 106.429 102.847 106.453 102.964L102.532 103.754L98.6107 104.545C99.4879 108.897 103.551 110.432 106.226 110.432V106.432ZM102.532 103.754L106.453 102.964C106.4 102.7 106.411 102.553 106.419 102.496C106.427 102.444 106.437 102.427 106.444 102.415L102.998 100.382L99.5538 98.3495C98.4416 100.235 98.1767 102.39 98.6106 104.544L102.532 103.754ZM102.998 100.382L106.444 102.415C106.462 102.385 106.587 102.202 107.053 101.976L105.307 98.3777L103.561 94.7786C102.173 95.4521 100.611 96.558 99.5538 98.3495L102.998 100.382ZM105.307 98.3777L107.053 101.976C107.814 101.607 108.969 101.377 110.188 101.332L110.041 97.3347L109.895 93.3374C108.078 93.4041 105.698 93.7423 103.561 94.7786L105.307 98.3777ZM110.041 97.3347L113.979 96.632C114.002 96.7616 113.996 96.8546 113.991 96.8965C113.987 96.9361 113.981 96.9421 113.99 96.9171L110.227 95.5613L106.464 94.2047C106.109 95.1905 105.836 96.5375 106.104 98.0374L110.041 97.3347ZM110.227 95.5613L113.99 96.9171C114.002 96.8828 114.028 96.8248 114.072 96.7465C114.116 96.669 114.17 96.5896 114.226 96.5153L111.047 94.0876L107.868 91.6599C107.376 92.3043 106.837 93.1698 106.464 94.2047L110.227 95.5613ZM111.047 94.0876L112.471 90.3497C108.906 88.9913 106.761 86.975 105.533 85.198L102.243 87.4724L98.9523 89.7468C101.08 92.8253 104.513 95.8789 109.623 97.8256L111.047 94.0876ZM102.243 87.4724L102.319 83.4731C102.167 83.4702 102.037 83.4648 101.922 83.4565L101.633 87.446L101.344 91.4356C101.636 91.4568 101.914 91.4669 102.167 91.4717L102.243 87.4724ZM101.633 87.446L101.922 83.4565C98.2715 83.1922 95.4406 80.2744 95.1888 76.7237L91.1989 77.0066L87.2089 77.2894C87.7376 84.7472 93.6662 90.8797 101.344 91.4356L101.633 87.446ZM91.1989 77.0066L95.1887 76.7223C95.0418 74.6603 93.4119 72.9061 91.223 72.7466L90.9322 76.7361L90.6415 80.7255C88.7392 80.5868 87.3354 79.0662 87.209 77.2908L91.1989 77.0066ZM90.9322 76.7361L91.2188 72.7463C89.027 72.5889 87.1628 74.0934 86.7218 76.1114L90.6295 76.9656L94.5372 77.8198C94.1575 79.5569 92.5508 80.8626 90.6457 80.7258L90.9322 76.7361ZM90.6295 76.9656L86.7218 76.1114C86.2364 78.3318 84.7385 80.1582 82.7476 81.1123L84.4762 84.7195L86.2048 88.3267C90.3505 86.34 93.5092 82.5226 94.5372 77.8198L90.6295 76.9656ZM84.4762 84.7195L80.9499 82.8312C78.8082 86.8309 77.9983 90.5038 77.8162 93.5807L81.8092 93.8171L85.8022 94.0535C85.9215 92.0385 86.45 89.507 88.0025 86.6077L84.4762 84.7195ZM81.8092 93.8171L79.206 96.8542L79.2197 96.8659L81.8229 93.8288L84.426 90.7918L84.4124 90.7801L81.8092 93.8171ZM81.8229 93.8288L79.2243 96.8698C79.1359 96.7943 79.0851 96.7238 79.055 96.6693C79.023 96.6113 79.0065 96.5569 79.0001 96.5121C78.9932 96.4634 79.0011 96.4474 78.9946 96.4756C78.9878 96.5045 78.9575 96.6143 78.8384 96.7995L82.2037 98.9616L85.569 101.124C88.0214 97.3068 87.1021 93.0786 84.4215 90.7879L81.8229 93.8288ZM82.2037 98.9616L78.5211 100.523C78.5211 100.523 78.5407 100.571 78.5598 100.676C78.5787 100.78 78.5932 100.919 78.5938 101.089C78.5949 101.44 78.5372 101.832 78.4233 102.196L82.2408 103.39L86.0582 104.585C86.7282 102.443 86.8733 99.7277 85.8863 97.4001L82.2037 98.9616ZM82.2408 103.39L78.4234 102.195C78.3058 102.571 78.1453 102.863 77.9948 103.048C77.8569 103.219 77.7659 103.258 77.7307 103.271L79.0758 107.038L80.4209 110.805C83.706 109.632 85.3676 106.792 86.0582 104.585L82.2408 103.39ZM79.0758 107.038L77.7318 103.27C77.8469 103.229 77.9326 103.211 77.9765 103.204C78.0205 103.196 78.0366 103.197 78.0185 103.198C78.0009 103.198 77.9614 103.199 77.8971 103.195C77.8332 103.192 77.7535 103.185 77.6567 103.173L77.1627 107.142L76.6685 111.111C77.5408 111.22 78.9804 111.319 80.4198 110.805L79.0758 107.038ZM77.1627 107.142L77.6567 103.173C77.2398 103.121 76.6497 102.993 75.8982 102.768L74.7535 106.601L73.6088 110.434C74.6088 110.732 75.6596 110.986 76.6685 111.111L77.1627 107.142ZM74.7535 106.601L75.8982 102.768C74.4027 102.322 72.5614 101.582 70.7207 100.69L68.9762 104.29L67.2317 107.889C69.3459 108.914 71.5965 109.833 73.6088 110.434L74.7535 106.601ZM68.9762 104.29L70.7207 100.69C68.8808 99.7985 67.143 98.8036 65.8338 97.8852L63.5367 101.16L61.2396 104.434C62.9867 105.66 65.1166 106.864 67.2317 107.889L68.9762 104.29ZM63.5367 101.16L65.8338 97.8852C65.1754 97.4233 64.6852 97.0231 64.3592 96.7048L61.5651 99.5671L58.7707 102.429C59.5094 103.15 60.3714 103.825 61.2396 104.434L63.5367 101.16ZM61.5651 99.5671L64.3592 96.7048C64.2015 96.5508 64.1099 96.4429 64.0643 96.3821C64.0434 96.3542 64.0419 96.3492 64.0522 96.367C64.0624 96.3845 64.0906 96.4355 64.123 96.5189L60.3942 97.9665L56.6653 99.4142C57.1876 100.759 58.108 101.782 58.7707 102.429L61.5651 99.5671ZM60.3942 97.9665L64.1234 96.5199C63.6646 95.3371 64.2004 94.2653 65.1844 93.8415L63.6022 90.1677L62.0203 86.4938C57.2547 88.5463 54.5827 94.0455 56.6649 99.4132L60.3942 97.9665ZM63.6022 90.1677L65.1844 93.8415C65.9135 93.5276 67.7274 93.3069 70.1446 95.9138L73.0778 93.1941L76.0109 90.4744C71.9269 86.0699 66.6395 84.5049 62.0203 86.4938L63.6022 90.1677ZM73.0778 93.1941L76.6292 95.0344C76.6343 95.0246 76.639 95.0156 76.6424 95.0089C76.6469 95.0003 76.648 94.9981 76.6508 94.9926C76.6553 94.9839 76.6553 94.9841 76.6535 94.9875C76.6514 94.9914 76.6454 95.0027 76.6367 95.0186C76.6279 95.0346 76.615 95.0574 76.5987 95.0852L73.152 93.0554L69.7055 91.0251C69.6474 91.1239 69.6017 91.209 69.5741 91.2615C69.5601 91.2882 69.548 91.3116 69.5405 91.3261C69.5304 91.3456 69.5299 91.3467 69.5263 91.3537L73.0778 93.1941ZM73.152 93.0554L76.5987 95.0852C76.5198 95.2191 76.3715 95.4092 76.127 95.571C75.8683 95.7422 75.6249 95.8 75.4895 95.8106L75.1754 91.823L74.8614 87.8353C72.3887 88.0301 70.6536 89.4158 69.7055 91.0251L73.152 93.0554ZM75.1754 91.823L75.5182 95.8083L75.6091 95.8004L75.2662 91.8152L74.9234 87.8299L74.8326 87.8377L75.1754 91.823ZM75.2662 91.8152L79.2405 92.2681C79.4611 90.3329 79.8921 88.4976 80.4959 86.751L76.7155 85.4441L72.935 84.1371C72.1481 86.4134 71.5816 88.8208 71.292 91.3622L75.2662 91.8152ZM76.7155 85.4441L77.739 81.5773C74.423 80.6995 72.0963 77.559 72.3525 74.0168L68.3629 73.7283L64.3733 73.4397C63.8344 80.8907 68.7289 87.4677 75.6919 89.3109L76.7155 85.4441ZM68.3629 73.7283L72.3525 74.0168L72.8447 67.203L68.8551 66.9148L64.8655 66.6262L64.3733 73.4397L68.3629 73.7283ZM68.8551 66.9148L72.8447 67.203C73.0077 64.9491 71.3251 62.9413 69.0195 62.7678L68.7194 66.7566L68.4193 70.7453C66.2759 70.584 64.7142 68.7177 64.8655 66.6262L68.8551 66.9148ZM68.7194 66.7566L69.0083 62.767L66.8237 62.6088L66.5348 66.5984L66.2459 70.5879L68.4304 70.7461L68.7194 66.7566ZM66.5348 66.5984L63.1774 64.4241C63.2081 64.3766 63.1929 64.4168 63.0687 64.5207L65.6354 67.5886L68.2021 70.6565C68.8374 70.125 69.421 69.5003 69.8922 68.7727L66.5348 66.5984ZM65.6354 67.5886L61.863 68.9188L63.0417 72.2616L66.8141 70.9314L70.5864 69.6012L69.4077 66.2584L65.6354 67.5886ZM66.8141 70.9314L63.0412 72.2601C62.8096 71.6025 62.8235 70.9276 63.0048 70.3455L66.8238 71.5349L70.6429 72.7243C70.9429 71.7611 70.9614 70.6658 70.5869 69.6026L66.8141 70.9314ZM66.8238 71.5349L62.8244 71.6029L62.9201 77.2289L66.9196 77.1609L70.919 77.0934L70.8233 71.4669L66.8238 71.5349ZM66.9196 77.1609L62.9201 77.2289C62.8957 75.7817 63.8707 74.6901 64.9511 74.3102L66.278 78.0837L67.6048 81.8572C69.4075 81.2234 70.959 79.464 70.919 77.0934L66.9196 77.1609ZM66.278 78.0837L64.9511 74.3102C65.3477 74.1708 65.7917 74.1088 66.2558 74.1558L65.8531 78.1355L65.45 82.1151C66.2019 82.1911 66.9377 82.0918 67.6048 81.8572L66.278 78.0837ZM65.8531 78.1355L66.2558 74.1558C67.0775 74.2391 67.8491 74.655 68.3599 75.3127L65.2008 77.7663L62.0417 80.22C62.9063 81.3331 64.1483 81.9833 65.45 82.1151L65.8531 78.1355ZM65.2008 77.7663L68.3599 75.3127L64.9087 70.8693L61.7496 73.323L58.5906 75.7766L62.0417 80.22L65.2008 77.7663ZM61.7496 73.323L63.9768 70.0004C64.4912 70.3452 64.9221 70.8656 65.1514 71.5167L61.3785 72.8454L57.6057 74.1742C57.9781 75.2315 58.6758 76.0781 59.5225 76.6456L61.7496 73.323ZM61.3785 72.8454L65.1514 71.5167L64.0066 68.268L60.234 69.5974L56.4614 70.9268L57.6057 74.1742L61.3785 72.8454ZM60.234 69.5974L60.4431 65.6029C60.3199 65.5964 60.2124 65.5785 60.1164 65.5526L59.0719 69.4138L58.0269 73.2749C58.6951 73.4557 59.3647 73.5574 60.0249 73.5919L60.234 69.5974ZM59.0719 69.4138L60.1164 65.5526C59.7524 65.4541 58.8648 65.0263 58.1731 62.8969L54.3688 64.1326L50.5644 65.3681C51.7875 69.1337 54.2309 72.2474 58.0269 73.2749L59.0719 69.4138ZM54.3688 64.1326L58.1731 62.8969C58.0628 62.5574 58.0215 62.2783 58.0141 62.0538L54.0162 62.1853L50.0184 62.3168C50.0517 63.3281 50.2337 64.3497 50.5644 65.3681L54.3688 64.1326ZM54.0162 62.1853L57.1025 59.6407C55.9488 58.2415 55.3166 56.4288 55.457 54.4864L51.4674 54.198L47.4778 53.9094C47.183 57.9881 48.5241 61.8119 50.93 64.7299L54.0162 62.1853ZM51.4674 54.198L55.457 54.4864C55.5428 53.2997 55.9061 52.21 56.4765 51.2634L53.0504 49.199L49.6243 47.1345C48.4213 49.1311 47.6569 51.4336 47.4778 53.9094L51.4674 54.198ZM53.0504 49.199L56.8233 47.8702L55.8985 45.2443L52.1256 46.573L48.3527 47.9016L49.2775 50.5277L53.0504 49.199ZM52.1256 46.573L55.8985 45.2443C56.1038 45.8273 55.7974 46.4659 55.2151 46.671L53.8864 42.8982L52.5579 39.1252C48.9735 40.3876 47.0902 44.3166 48.3527 47.9016L52.1256 46.573ZM53.8864 42.8982L55.2151 46.671C54.6324 46.8762 53.9935 46.5702 53.7883 45.9877L57.5612 44.6589L61.334 43.3302C60.0716 39.7457 56.1425 37.863 52.5579 39.1252L53.8864 42.8982ZM57.5612 44.6589L53.7887 45.9888L53.8844 46.2603L57.6569 44.9304L61.4293 43.6005L61.3336 43.3291L57.5612 44.6589ZM57.6569 44.9304L59.4542 48.5039C60.304 48.0764 61.2432 47.8125 62.2313 47.7481L61.9713 43.7566L61.7113 39.765C59.6279 39.9007 57.6454 40.4587 55.8596 41.3569L57.6569 44.9304ZM61.9713 43.7566L62.2331 47.748C64.2861 47.6134 66.0638 45.9969 66.2236 43.7884L62.234 43.4997L58.2444 43.211C58.3841 41.2807 59.9347 39.8815 61.7096 39.7651L61.9713 43.7566ZM62.234 43.4997L66.2236 43.7884C66.3827 41.5847 64.8617 39.7276 62.8491 39.2965L62.0113 43.2077L61.1736 47.119C59.4333 46.7463 58.1054 45.137 58.2444 43.211L62.234 43.4997ZM62.0113 43.2077L62.8431 39.2952C59.3451 38.5516 56.8433 35.3174 57.1084 31.6514L53.1188 31.363L49.1292 31.0742C48.572 38.7817 53.8297 45.5578 61.1796 47.1203L62.0113 43.2077ZM53.1188 31.363L57.1084 31.6514C57.3987 27.6412 60.8847 24.626 64.8957 24.9161L65.1842 20.9265L65.4727 16.9369C57.0559 16.3282 49.7386 22.6568 49.1292 31.0742L53.1188 31.363ZM65.1842 20.9265L64.8957 24.9161L71.7105 25.4083L71.9987 21.4187L72.2868 17.4291L65.4727 16.9369L65.1842 20.9265ZM71.9987 21.4187L71.7193 25.4089C74.0144 25.5696 75.9815 23.8379 76.1455 21.5705L72.1559 21.282L68.1663 20.9932C68.3186 18.8884 70.1454 17.2792 72.278 17.4284L71.9987 21.4187ZM72.1559 21.282L76.1455 21.5705L76.6386 14.7573L72.649 14.4685L68.6595 14.1797L68.1663 20.9932L72.1559 21.282ZM72.649 14.4685L76.6386 14.7573C76.929 10.7463 80.4151 7.72988 84.4249 8.01957L84.7135 4.02999L85.0021 0.0404112C76.5848 -0.567713 69.2687 5.76364 68.6595 14.1797L72.649 14.4685Z" fill="#FAFAFC"/>
<path d="M75.9219 95.0777C75.9701 86.9559 79.2709 80.2882 83.8428 74.7662C84.7701 73.6461 86.4211 73.5243 87.5613 74.4268C88.8676 75.4608 88.9655 77.4009 87.8781 78.6632C82.0381 85.4428 81.005 91.5076 81.1327 95.6565C81.1828 97.283 79.3384 98.4466 78.0235 97.4879L76.6433 96.4816C76.1933 96.1535 75.9186 95.6345 75.9219 95.0777Z" fill="#FAFAFC" stroke="#1F1F1F" stroke-width="1.5"/>
<path d="M81.4365 94.4017C78.4365 96.4017 75.9365 93.9017 75.3357 92.5739C73.8403 92.6915 73.6123 94.0473 73.4984 94.725C66.8115 86.222 58.9563 91.9316 61.1936 97.6983C62.4364 100.902 75.9365 107.402 78.9252 106.335C81.6541 105.36 82.5078 101.247 81.5915 99.1997C81.5083 99.0138 81.5189 98.7954 81.6315 98.6257C82.88 96.7432 82.2911 95.1317 81.4365 94.4017Z" fill="#0F3E9A"/>
<path d="M73.4984 94.725C66.8115 86.222 58.9563 91.9316 61.1936 97.6983C62.4364 100.902 75.9365 107.402 78.9252 106.335C81.6541 105.36 82.5078 101.247 81.5915 99.1997C81.5083 99.0138 81.5189 98.7954 81.6315 98.6257C82.88 96.7432 82.2911 95.1317 81.4365 94.4017C78.4365 96.4017 75.9365 93.9017 75.3357 92.5739C73.8403 92.6915 73.6123 94.0473 73.4984 94.725ZM73.4984 94.725C73.6907 95.0445 74.1906 95.8749 74.652 96.6405" stroke="#1F1F1F" stroke-width="1.5" stroke-linecap="round"/>
<path d="M61 95.2031C64.2092 95.6196 72.1878 98.4364 78.4288 106.372" stroke="#1F1F1F" stroke-width="1.5" stroke-linecap="round"/>
<path d="M113.931 94.1883C104.851 91.8171 101.583 85.7447 101.027 82.6722C101 82.5181 101.02 82.3618 101.078 82.2165L102.555 78.5259C102.885 77.7004 104.17 77.7947 104.469 78.6319C106.581 84.5372 110.947 87.6324 114.669 89.0498C116.382 89.7019 117.308 91.9865 116.163 93.4173C115.629 94.0855 114.758 94.4045 113.931 94.1883Z" fill="#FAFAFC" stroke="#1F1F1F" stroke-width="1.5" stroke-linecap="round"/>
<path d="M111.271 98.0797C110.198 96.6494 111.42 94.802 112.165 94.057C114.797 93.1797 115.615 91.4454 115.744 90.2722C115.789 89.8696 116.001 89.4729 116.381 89.3327C120.556 87.7921 122.575 89.4687 123.375 91.2357C123.791 92.154 123.554 93.1977 123.115 94.1054L118.748 103.151C118.002 104.696 116.438 105.678 114.723 105.678H106.33C104.975 105.678 103.638 104.93 103.37 103.602C102.434 98.9519 107.987 97.9483 111.271 98.0797Z" fill="#0F3E9A" stroke="#1F1F1F" stroke-width="1.5"/>
<path d="M111.266 98.0859C112.16 98.0859 114.127 98.4435 114.842 99.8737" stroke="#1F1F1F" stroke-width="1.5" stroke-linecap="round"/>
<path d="M84.8159 4.02984C90.5029 4.44119 94.8976 9.0015 95.258 14.5351C95.2672 14.6739 95.3756 14.7864 95.5143 14.7965C95.653 14.8065 95.7774 14.7109 95.8064 14.5748C96.9594 9.15094 101.963 5.27135 107.65 5.68244C113.864 6.13191 118.537 11.5341 118.088 17.7481L117.595 24.5611C117.589 24.6425 117.651 24.7132 117.732 24.7191L124.547 25.2121C130.761 25.6617 135.434 31.0629 134.985 37.2768C134.575 42.9414 130.049 47.3226 124.545 47.7129C124.401 47.7233 124.285 47.836 124.275 47.9793C124.265 48.1224 124.363 48.2509 124.504 48.2817C129.894 49.4602 133.742 54.4469 133.332 60.1116C132.883 66.3255 127.481 70.9991 121.267 70.5496L114.453 70.0567C114.371 70.0508 114.3 70.112 114.295 70.1934L113.802 77.0074C113.352 83.2216 107.95 87.8948 101.736 87.4454C96.071 87.0354 91.6906 82.5105 91.3004 77.0061C91.2902 76.8627 91.1775 76.7456 91.0341 76.7353C90.8907 76.725 90.7623 76.8246 90.7316 76.965C89.5531 82.3559 84.5665 86.2035 78.9017 85.7937C72.6878 85.344 68.0152 79.9421 68.4647 73.7281L68.9576 66.9141C68.9634 66.8327 68.9023 66.762 68.8209 66.7561L62.0069 66.2633C55.7929 65.8137 51.1198 60.4115 51.5689 54.1975C51.9803 48.5105 56.5396 44.1167 62.0732 43.7563C62.2123 43.7472 62.3255 43.6382 62.3356 43.4991C62.3456 43.3601 62.2493 43.2359 62.1129 43.2069C56.689 42.0539 52.8095 37.0494 53.2206 31.3627C53.6703 25.1487 59.0723 20.4762 65.2863 20.9256L72.1003 21.4185C72.1816 21.4244 72.2524 21.3632 72.2582 21.2818L72.7511 14.4679C73.2009 8.25425 78.6022 3.5807 84.8159 4.02984Z" fill="#3276FF"/>
<mask id="mask0_2859_22940" style="mask-type:luminance" maskUnits="userSpaceOnUse" x="51" y="4" width="85" height="84">
<path d="M84.8159 4.02984C90.5029 4.44119 94.8976 9.0015 95.258 14.5351C95.2672 14.6739 95.3756 14.7864 95.5143 14.7965C95.653 14.8065 95.7774 14.7109 95.8064 14.5748C96.9594 9.15094 101.963 5.27135 107.65 5.68244C113.864 6.13191 118.537 11.5341 118.088 17.7481L117.595 24.5611C117.589 24.6425 117.651 24.7132 117.732 24.7191L124.547 25.2121C130.761 25.6617 135.434 31.0629 134.985 37.2768C134.575 42.9414 130.049 47.3226 124.545 47.7129C124.401 47.7233 124.285 47.836 124.275 47.9793C124.265 48.1224 124.363 48.2509 124.504 48.2817C129.894 49.4602 133.742 54.4469 133.332 60.1116C132.883 66.3255 127.481 70.9991 121.267 70.5496L114.453 70.0567C114.371 70.0508 114.3 70.112 114.295 70.1934L113.802 77.0074C113.352 83.2216 107.95 87.8948 101.736 87.4454C96.071 87.0354 91.6906 82.5105 91.3004 77.0061C91.2902 76.8627 91.1775 76.7456 91.0341 76.7353C90.8907 76.725 90.7623 76.8246 90.7316 76.965C89.5531 82.3559 84.5665 86.2035 78.9017 85.7937C72.6878 85.344 68.0152 79.9421 68.4647 73.7281L68.9576 66.9141C68.9634 66.8327 68.9023 66.762 68.8209 66.7561L62.0069 66.2633C55.7929 65.8137 51.1198 60.4115 51.5689 54.1975C51.9803 48.5105 56.5396 44.1167 62.0732 43.7563C62.2123 43.7472 62.3255 43.6382 62.3356 43.4991C62.3456 43.3601 62.2493 43.2359 62.1129 43.2069C56.689 42.0539 52.8095 37.0494 53.2206 31.3627C53.6703 25.1487 59.0723 20.4762 65.2863 20.9256L72.1003 21.4185C72.1816 21.4244 72.2524 21.3632 72.2582 21.2818L72.7511 14.4679C73.2009 8.25425 78.6022 3.5807 84.8159 4.02984Z" fill="white"/>
</mask>
<g mask="url(#mask0_2859_22940)">
<path d="M95.2581 14.5352L93.7613 14.6327L93.7614 14.6337L95.2581 14.5352ZM124.545 47.713L124.439 46.2168L124.436 46.2169L124.545 47.713ZM124.275 47.9794L122.779 47.8712V47.8734L124.275 47.9794ZM124.504 48.2818L124.182 49.7469L124.183 49.7472L124.504 48.2818ZM84.816 4.02991L84.7077 5.526C89.6369 5.88254 93.4489 9.83582 93.7613 14.6327L95.2581 14.5352L96.755 14.4377C96.3466 8.16733 91.3691 2.99999 84.9242 2.53382L84.816 4.02991ZM95.2581 14.5352L93.7614 14.6337C93.8181 15.4955 94.4967 16.2264 95.4053 16.2926L95.5144 14.7966L95.6234 13.3006C96.2547 13.3466 96.7165 13.8533 96.755 14.4377L95.2581 14.5352ZM95.5144 14.7966L95.4053 16.2926C96.3086 16.3579 97.0923 15.7386 97.2736 14.8873L95.8065 14.5749L94.3394 14.2625C94.4627 13.6834 94.9977 13.2553 95.6234 13.3006L95.5144 14.7966ZM95.8065 14.5749L97.2736 14.8873C98.2732 10.1855 102.613 6.82231 107.542 7.1786L107.65 5.68251L107.758 4.18642C101.314 3.72055 95.6459 8.11654 94.3394 14.2625L95.8065 14.5749ZM107.65 5.68251L107.542 7.1786C112.93 7.5683 116.981 12.2522 116.592 17.6401L118.088 17.7482L119.584 17.8564C120.093 10.8162 114.799 4.69566 107.758 4.18642L107.65 5.68251ZM118.088 17.7482L116.592 17.6401L116.099 24.453L117.595 24.5612L119.091 24.6695L119.584 17.8564L118.088 17.7482ZM117.732 24.7192L117.624 26.2153L124.439 26.7083L124.547 25.2122L124.655 23.7161L117.84 23.2231L117.732 24.7192ZM124.547 25.2122L124.439 26.7083C129.826 27.0982 133.878 31.7813 133.489 37.1688L134.985 37.2769L136.481 37.3852C136.99 30.3449 131.695 24.2255 124.655 23.7161L124.547 25.2122ZM134.985 37.2769L133.489 37.1688C133.134 42.0783 129.21 45.8784 124.439 46.2168L124.545 47.713L124.651 49.2093C130.888 48.767 136.016 43.8049 136.481 37.3852L134.985 37.2769ZM124.545 47.713L124.436 46.2169C123.575 46.2793 122.845 46.9603 122.779 47.8712L124.275 47.9794L125.771 48.0876C125.726 48.7119 125.228 49.1675 124.653 49.2091L124.545 47.713ZM124.275 47.9794L122.779 47.8734C122.714 48.7799 123.335 49.5609 124.182 49.7469L124.504 48.2818L124.825 46.8168C125.392 46.9412 125.815 47.4652 125.771 48.0853L124.275 47.9794ZM124.504 48.2818L124.183 49.7472C128.856 50.7688 132.191 55.0939 131.836 60.0035L133.332 60.1117L134.828 60.22C135.293 53.8002 130.932 48.1518 124.824 46.8165L124.504 48.2818ZM133.332 60.1117L131.836 60.0035C131.446 65.3913 126.762 69.4433 121.375 69.0536L121.267 70.5497L121.158 72.0458C128.199 72.555 134.319 67.2601 134.828 60.22L133.332 60.1117ZM121.267 70.5497L121.375 69.0536L114.561 68.5607L114.453 70.0568L114.344 71.5529L121.158 72.0458L121.267 70.5497ZM114.295 70.1935L112.799 70.0853L112.306 76.8993L113.802 77.0075L115.298 77.1157L115.791 70.3017L114.295 70.1935ZM113.802 77.0075L112.306 76.8993C111.916 82.2872 107.232 86.3391 101.844 85.9494L101.736 87.4455L101.628 88.9415C108.668 89.4507 114.789 84.1561 115.298 77.1157L113.802 77.0075ZM101.736 87.4455L101.844 85.9494C96.9344 85.594 93.135 81.6718 92.7967 76.9002L91.3005 77.0062L89.8043 77.1123C90.2464 83.3493 95.2077 88.4769 101.628 88.9415L101.736 87.4455ZM91.3005 77.0062L92.7967 76.9002C92.7359 76.0418 92.0585 75.3055 91.1424 75.2393L91.0342 76.7354L90.926 78.2314C90.2968 78.1859 89.8448 77.6838 89.8043 77.1123L91.3005 77.0062ZM91.0342 76.7354L91.1424 75.2393C90.2277 75.1736 89.4502 75.8035 89.2663 76.6448L90.7317 76.9651L92.1971 77.2854C92.0746 77.8458 91.5541 78.2765 90.926 78.2314L91.0342 76.7354ZM90.7317 76.9651L89.2663 76.6448C88.2447 81.318 83.9197 84.6529 79.01 84.2977L78.9018 85.7938L78.7935 87.2899C85.2133 87.7543 90.8618 83.394 92.1971 77.2854L90.7317 76.9651ZM78.9018 85.7938L79.01 84.2977C73.6224 83.9077 69.5712 79.2242 69.9609 73.8364L68.4648 73.7282L66.9687 73.62C66.4595 80.6601 71.7533 86.7803 78.7935 87.2899L78.9018 85.7938ZM68.4648 73.7282L69.9609 73.8364L70.4538 67.0224L68.9577 66.9142L67.4616 66.806L66.9687 73.62L68.4648 73.7282ZM68.821 66.7562L68.9292 65.2601L62.1152 64.7673L62.007 66.2634L61.8988 67.7594L68.7128 68.2523L68.821 66.7562ZM62.007 66.2634L62.1152 64.7673C56.7276 64.3775 52.6757 59.6935 53.0651 54.3058L51.569 54.1976L50.0729 54.0894C49.564 61.1295 54.8585 67.2502 61.8988 67.7594L62.007 66.2634ZM51.569 54.1976L53.0651 54.3058C53.4217 49.3767 57.374 45.5656 62.1708 45.2532L62.0733 43.7564L61.9758 42.2595C55.7054 42.6679 50.5391 47.6445 50.0729 54.0894L51.569 54.1976ZM62.0733 43.7564L62.1708 45.2532C63.0329 45.197 63.7659 44.518 63.8318 43.6074L62.3357 43.4992L60.8396 43.391C60.8854 42.7587 61.392 42.2976 61.9758 42.2595L62.0733 43.7564ZM62.3357 43.4992L63.8318 43.6074C63.8975 42.6974 63.2703 41.9195 62.425 41.7398L62.113 43.207L61.8011 44.6742C61.2285 44.5525 60.794 44.0229 60.8396 43.391L62.3357 43.4992ZM62.113 43.207L62.425 41.7398C57.7233 40.7403 54.3605 36.3999 54.7168 31.4709L53.2207 31.3628L51.7246 31.2545C51.2587 37.6991 55.655 43.3676 61.8011 44.6742L62.113 43.207ZM53.2207 31.3628L54.7168 31.4709C55.1067 26.0833 59.7903 22.0322 65.1782 22.4218L65.2864 20.9257L65.3946 19.4297C58.3544 18.9205 52.2342 24.2142 51.7246 31.2545L53.2207 31.3628ZM65.2864 20.9257L65.1782 22.4218L71.9921 22.9147L72.1004 21.4186L72.2086 19.9225L65.3946 19.4297L65.2864 20.9257ZM72.2583 21.2819L73.7544 21.3902L74.2473 14.5762L72.7512 14.468L71.2551 14.3597L70.7622 21.1737L72.2583 21.2819ZM72.7512 14.468L74.2473 14.5762C74.6373 9.18854 79.3204 5.13659 84.7077 5.526L84.816 4.02991L84.9242 2.53382C77.8841 2.02495 71.7647 7.32001 71.2551 14.3597L72.7512 14.468ZM72.1004 21.4186L71.9921 22.9147C72.8998 22.9804 73.6888 22.2978 73.7544 21.3902L72.2583 21.2819L70.7622 21.1737C70.8161 20.4288 71.4637 19.8686 72.2086 19.9225L72.1004 21.4186ZM68.9577 66.9142L70.4538 67.0224C70.5194 66.1148 69.8368 65.3258 68.9292 65.2601L68.821 66.7562L68.7128 68.2523C67.9679 68.1984 67.4077 67.5509 67.4616 66.806L68.9577 66.9142ZM114.453 70.0568L114.561 68.5607C113.653 68.4951 112.864 69.1776 112.799 70.0853L114.295 70.1935L115.791 70.3017C115.737 71.0466 115.089 71.6068 114.344 71.5529L114.453 70.0568ZM117.595 24.5612L116.099 24.453C116.034 25.3607 116.716 26.1497 117.624 26.2153L117.732 24.7192L117.84 23.2231C118.585 23.277 119.145 23.9246 119.091 24.6695L117.595 24.5612Z" fill="#1F1F1F"/>
</g>
<path d="M86.8785 38.533C88.3278 38.649 89.6679 36.9726 89.8717 34.7886C90.0754 32.6047 89.0657 30.7402 87.6164 30.6241C86.1671 30.5081 84.827 32.1845 84.6233 34.3685C84.4195 36.5524 85.4292 38.4169 86.8785 38.533Z" fill="#1F1F1F"/>
<path d="M78.1387 37.8378C79.5894 37.954 80.9305 36.2777 81.1343 34.0937C81.338 31.9097 80.3272 30.0451 78.8766 29.929C77.426 29.8129 76.0848 31.4892 75.8811 33.6732C75.6773 35.8571 76.6881 37.7217 78.1387 37.8378Z" fill="#1F1F1F"/>
<path d="M77.7012 33.2815C78.0233 33.3093 78.3174 32.9496 78.3582 32.478C78.3989 32.0065 78.1708 31.6017 77.8488 31.5738C77.5267 31.546 77.2326 31.9057 77.1918 32.3773C77.1511 32.8488 77.3791 33.2536 77.7012 33.2815Z" fill="#FAFAFC"/>
<path d="M86.4512 34.0393C86.7733 34.0671 87.0674 33.7074 87.1082 33.2359C87.1489 32.7643 86.9208 32.3595 86.5988 32.3316C86.2767 32.3038 85.9826 32.6635 85.9418 33.1351C85.9011 33.6066 86.1291 34.0114 86.4512 34.0393Z" fill="#FAFAFC"/>
<path d="M87.8542 43.7621L84.5493 43.8143C83.6409 43.8286 82.9929 44.7002 83.2408 45.5742C83.8018 47.5523 85.4262 48.352 87.406 48.6722C88.5164 48.8518 89.6477 48.685 90.7298 48.3781C91.6613 48.1139 92.5691 47.7426 93.3367 47.1525C95.1625 45.7491 95.9766 44.2477 95.3836 42.157C95.1341 41.2773 94.1114 40.8815 93.3347 41.3642L90.9319 42.8574C90.0069 43.4322 88.9431 43.7449 87.8542 43.7621Z" fill="#1F1F1F" stroke="#1F1F1F" stroke-width="1.5" stroke-linecap="round"/>
<mask id="mask1_2859_22940" style="mask-type:alpha" maskUnits="userSpaceOnUse" x="82" y="40" width="15" height="10">
<path d="M87.8542 43.7621L84.5493 43.8143C83.6409 43.8286 82.9929 44.7002 83.2408 45.5742C83.8019 47.5523 85.4262 48.352 87.4061 48.6722C88.5165 48.8518 89.6477 48.685 90.7299 48.3781C91.6613 48.1139 92.5691 47.7426 93.3367 47.1525C95.1626 45.7491 95.9766 44.2477 95.3836 42.157C95.1341 41.2773 94.1114 40.8815 93.3347 41.3642L90.9319 42.8574C90.0069 43.4322 88.9431 43.7449 87.8542 43.7621Z" fill="black" stroke="black" stroke-width="1.5" stroke-linecap="round"/>
</mask>
<g mask="url(#mask1_2859_22940)">
<path d="M91.7758 51.6857C94.7877 50.8314 96.8565 48.8241 96.3965 47.2023C95.9365 45.5804 93.1219 44.9582 90.1099 45.8125C87.0979 46.6668 85.0292 48.6741 85.4892 50.296C85.9492 51.9178 88.7638 52.54 91.7758 51.6857Z" fill="#FF875F"/>
</g>
<path d="M82.5197 45.7792C82.1373 44.4311 83.1371 43.0869 84.5382 43.0648L87.8428 43.0127C88.7958 42.9977 89.7268 42.7234 90.5364 42.2203L92.9391 40.7277C94.1393 39.9819 95.7195 40.5929 96.1053 41.9522C96.4427 43.142 96.3909 44.2222 95.9537 45.2151C95.5257 46.1868 94.7591 47.0054 93.7941 47.7471C92.9226 48.417 91.9151 48.8222 90.9347 49.1002C89.7962 49.4231 88.5462 49.6167 87.2869 49.4131C85.1935 49.0745 83.1992 48.1745 82.5197 45.7792Z" stroke="#1F1F1F" stroke-width="1.5" stroke-linecap="round"/>
<path d="M99.4342 52.3449C100.402 51.7844 101.619 52.0481 102.277 52.9178L103.306 52.3214C104.582 51.5818 106.216 52.0169 106.956 53.2931L107.814 54.7734L97.3745 60.8232L96.5166 59.3429C95.7771 58.0666 96.2121 56.4324 97.4883 55.6928L98.5174 55.0963C98.0898 54.093 98.4665 52.9057 99.4342 52.3449Z" fill="#1F5BD2" stroke="#1F1F1F" stroke-width="1.5"/>
<path d="M109.133 52.3028L94.1411 60.9911C93.7827 61.1988 93.6606 61.6577 93.8682 62.0161L105.101 81.3988C105.309 81.7572 105.768 81.8793 106.126 81.6716L121.118 72.9833C121.476 72.7756 121.599 72.3167 121.391 71.9583L110.158 52.5756C109.95 52.2173 109.491 52.0951 109.133 52.3028Z" fill="#BFE6ED" stroke="#1F1F1F" stroke-width="1.5"/>
<path d="M66.1305 77.3756C66.0833 77.3921 66.0375 77.3929 66.0019 77.3836C65.9717 77.3756 65.9345 77.3572 65.895 77.3063L62.7109 73.2074L66.1835 71.9844L66.2717 77.1737C66.2728 77.2384 66.2545 77.276 66.2359 77.3012C66.2139 77.3308 66.1778 77.3589 66.1305 77.3756Z" fill="#ABC8FC" stroke="#1F1F1F" stroke-width="1.5"/>
<path d="M66.1835 71.9844L66.2708 77.1739C66.2718 77.2384 66.2544 77.276 66.2359 77.3012C66.2139 77.3308 66.1778 77.3588 66.1305 77.3755C66.0833 77.3922 66.0376 77.3929 66.0019 77.3836C65.9716 77.3756 65.9337 77.3577 65.894 77.3066L62.7109 73.2074L66.1835 71.9844Z" fill="#BFE6ED" stroke="#1F1F1F" stroke-width="1.5"/>
<path d="M66.337 77.0442C66.3303 77.3181 65.9409 77.4553 65.764 77.246L64.5703 75.8335L66.3822 75.1953L66.337 77.0442Z" fill="#ABC8FC"/>
<mask id="mask2_2859_22940" style="mask-type:luminance" maskUnits="userSpaceOnUse" x="64" y="75" width="3" height="3">
<path d="M66.337 77.0442C66.3303 77.3181 65.9409 77.4553 65.764 77.246L64.5703 75.8335L66.3822 75.1953L66.337 77.0442Z" fill="white"/>
</mask>
<g mask="url(#mask2_2859_22940)">
<path d="M64.5726 75.83L64.0743 74.4151L62.0234 75.1374L63.4269 76.7982L64.5726 75.83ZM66.3845 75.1918L67.884 75.2284L67.9371 73.0547L65.8862 73.777L66.3845 75.1918ZM65.7663 77.2425L66.912 76.2743L65.7182 74.8617L64.5726 75.83L63.4269 76.7982L64.6207 78.2107L65.7663 77.2425ZM64.5726 75.83L65.0708 77.2448L66.8827 76.6066L66.3845 75.1918L65.8862 73.777L64.0743 74.4151L64.5726 75.83ZM66.3845 75.1918L64.8849 75.1552L64.8398 77.0041L66.3393 77.0407L67.8389 77.0773L67.884 75.2284L66.3845 75.1918ZM65.7663 77.2425L64.6207 78.2107C65.2125 78.911 66.0704 78.9294 66.6149 78.7376C67.1595 78.5458 67.8165 77.9939 67.8389 77.0773L66.3393 77.0407L64.8398 77.0041C64.8555 76.3615 65.3144 76.015 65.6184 75.908C65.9223 75.8009 66.4971 75.7833 66.912 76.2743L65.7663 77.2425Z" fill="#1F1F1F"/>
</g>
<path d="M54.2367 43.6059C55.3469 43.215 56.5637 43.7986 56.9547 44.9088L66.2076 71.1815C66.2459 71.291 66.1887 71.4107 66.0793 71.4493L62.4557 72.7255C62.3461 72.7641 62.2257 72.707 62.187 72.5976L52.9341 46.3248C52.543 45.2145 53.1263 43.9969 54.2367 43.6059Z" fill="#BFE6ED" stroke="#1F1F1F" stroke-width="1.5"/>
<path d="M54.2367 43.6059C55.3469 43.215 56.5637 43.7986 56.9547 44.9088L59.258 51.4487L55.2373 52.8647L52.9341 46.3248C52.543 45.2145 53.1263 43.9969 54.2367 43.6059Z" fill="#0F3E9A" stroke="#1F1F1F" stroke-width="1.5"/>
<path d="M115.691 54.1897C118.947 59.8156 113.529 62.2554 110.516 62.5901L112.379 66.6872C114.365 66.0664 118.859 64.6014 120.945 60.7278C122.724 57.4243 120.927 53.2539 118.742 50.9428C118.107 50.2703 117.084 50.2659 116.314 50.7792C115.209 51.5162 115.025 53.0398 115.691 54.1897Z" fill="#FAFAFC" stroke="#1F1F1F" stroke-width="1.5" stroke-linecap="round"/>
<path d="M110.519 60.721C112.381 59.9764 113.43 61.4819 113.871 62.5836C115.143 65.7643 114.062 67.3151 113.177 67.7003C112.929 67.8084 112.675 67.9458 112.523 68.1698C111.707 69.3761 109.743 71.359 106.794 71.8951C103.517 72.491 102.697 70.6536 102.697 69.6603C100.91 69.0644 100.711 67.4256 100.835 66.6807C100.214 66.5565 99.0467 65.9357 99.3447 64.4459C99.6427 62.9561 101.952 63.0463 103.242 63.0072C102.87 62.2623 102.697 59.9764 105.678 59.231C108.42 58.5451 110.023 59.8519 110.519 60.721Z" fill="#FAFAFC"/>
<path d="M110.519 60.721C112.381 59.9764 113.43 61.4819 113.871 62.5836C115.143 65.7643 114.062 67.3151 113.177 67.7003C112.929 67.8084 112.675 67.9458 112.523 68.1698C111.707 69.3761 109.743 71.359 106.794 71.8951C103.517 72.491 102.697 70.6536 102.697 69.6603M110.519 60.721C110.023 59.8519 108.42 58.5451 105.678 59.231C102.697 59.9764 102.87 62.2623 103.242 63.0072M110.519 60.721C110.644 60.9694 110.892 61.6152 110.892 62.2111M102.697 69.6603C100.91 69.0644 100.711 67.4256 100.835 66.6807M102.697 69.6603C103.07 69.7845 104.932 70.0904 106.021 69.1299M103.242 63.0072C101.952 63.0463 99.6427 62.9561 99.3447 64.4459C99.0467 65.9357 100.214 66.5565 100.835 66.6807M103.242 63.0072C103.805 62.9902 105.305 62.8071 106.794 62.2112M100.835 66.6807C101.934 66.9005 103.619 67.2089 105.06 66.2484" stroke="#1F1F1F" stroke-width="1.5" stroke-linecap="round"/>
<path d="M62.9036 56.2578C64.6495 56.9565 64.6024 59.098 63.8806 59.8893C65.7656 60.8175 65.4791 62.7724 64.8295 63.5328C66.0641 63.6359 67.4373 65.4205 64.9966 67.2219C61.2601 69.9796 57.0004 69.49 55.1858 63.9031C53.3711 58.3162 59.7614 55.0004 62.9036 56.2578Z" fill="#FAFAFC"/>
<path d="M63.8806 59.8893C64.6024 59.098 64.6495 56.9565 62.9036 56.2578C59.7614 55.0004 53.3711 58.3162 55.1858 63.9031C57.0004 69.49 61.2601 69.9796 64.9966 67.2219C67.4373 65.4205 66.0641 63.6359 64.8295 63.5328M63.8806 59.8893C65.7656 60.8175 65.4791 62.7724 64.8295 63.5328M63.8806 59.8893C63.1475 59.5283 61.4018 59.5047 59.4113 60.9359M64.8295 63.5328C63.905 63.4555 62.7338 63.8285 61.6801 64.8818" stroke="#1F1F1F" stroke-width="1.5" stroke-linecap="round"/>
</svg>
