<svg width="256" height="250" viewBox="0 0 256 250" fill="none" xmlns="http://www.w3.org/2000/svg">
<path d="M81.0224 97.9127L37.7109 113.202L97.2712 211.579L138.282 198.234L195.531 183.763L235.171 146.098L177.271 65.2187C176.618 64.3061 175.342 64.1097 174.444 64.7836L139.457 91.0537L81.0224 97.9127Z" fill="#AEE2EB" stroke="#039696" stroke-width="1.4"/>
<path fill-rule="evenodd" clip-rule="evenodd" d="M153.182 113.098C153.794 114.025 155.044 114.275 155.966 113.656L180.362 97.2808L194.946 87.3021C194.961 87.2919 194.978 87.2843 194.995 87.2795C195.066 87.2597 195.141 87.2892 195.179 87.3518L198.902 93.428C198.911 93.4427 198.928 93.4497 198.945 93.4453L198.973 93.4397C199.567 93.3263 200.184 93.5376 200.583 94.0026L200.659 94.0993L200.665 94.1089L198.917 91.1893L198.916 91.1889V91.1902C199.521 92.0219 199.249 93.1785 198.381 93.667C198.314 93.7051 198.246 93.7427 198.182 93.7865L188.641 100.311C187.721 100.94 187.493 102.201 188.135 103.113L199.416 119.148L209.195 133.442L209.256 133.525L209.268 133.541L209.279 133.557C209.819 134.38 209.549 135.512 208.655 135.987L205.355 137.52C204.637 137.902 203.752 137.719 203.241 137.095L203.226 137.077L203.213 137.059L181.709 107.198C181.076 106.318 179.857 106.103 178.961 106.713L160.091 119.555C159.18 120.175 158.942 121.416 159.56 122.329L171.427 139.857C172.074 140.708 171.777 141.926 170.843 142.398L170.822 142.408L170.801 142.417L170.684 142.467C170.653 142.48 170.62 142.49 170.586 142.497L130.691 150.883C129.979 151.113 129.196 150.851 128.769 150.229L128.763 150.221L118.468 131.194C118 130.33 116.973 129.933 116.045 130.259L60.9296 149.637C60.305 149.852 59.6189 149.684 59.1648 149.223L59.1437 149.202L59.1256 149.179L59.0208 149.053L59.0027 149.032L56.0267 145.28C55.3734 144.352 55.7991 143.06 56.8683 142.695L110.215 123.641C111.393 123.22 111.9 121.833 111.271 120.751L106.328 112.261C106.252 112.144 106.104 112.094 105.973 112.142L53.6533 130.434C52.777 130.755 52.4246 131.185 51.8335 130.479L51.7203 130.332L49.8017 127.606C48.969 126.422 47.116 123.934 48.4761 123.438L104.709 104.634C105.184 104.475 105.582 104.143 105.825 103.704L106.747 102.035C107.481 100.707 109.369 100.648 110.184 101.928L121.426 119.574C121.851 120.24 122.628 120.594 123.409 120.477L146.844 116.967L146.846 116.966V116.964C146.846 116.961 146.845 116.959 146.844 116.956C146.844 116.953 146.842 116.95 146.84 116.947L130.724 92.4001L137.427 91.36C138.2 91.2401 138.971 91.5816 139.402 92.2341L153.182 113.098ZM151.532 124.352C151.133 123.756 150.409 123.48 149.725 123.643C149.594 123.674 149.463 123.712 149.33 123.732L128.38 126.908C128.246 126.928 128.113 126.959 127.992 127.02C127.111 127.468 126.786 128.594 127.336 129.45L134.463 141.501C134.876 142.145 135.67 142.434 136.401 142.205L157.901 137.738C158.984 137.399 159.437 136.115 158.806 135.173L151.532 124.352Z" fill="#8FD4DE" fill-opacity="0.9" stroke="#6BC2CC" stroke-width="1.4" stroke-linecap="round"/>
<path d="M81.0219 97.9127L37.2109 113.214L97.2708 211.58L138.281 198.234L195.531 183.763L235.17 146.098L177.271 65.2188C176.618 64.3061 175.341 64.1097 174.444 64.7836L139.456 91.0537L81.0219 97.9127Z" stroke="#08AAAA" stroke-width="1.4"/>
<path d="M33.4307 111.574L35.0896 93.1455C35.2325 91.5577 37.356 91.1328 38.0989 92.5434L76.6391 165.724L81.7789 211.972L34.2278 115.838C33.5744 114.517 33.2986 113.041 33.4307 111.574Z" fill="#68C8D9" stroke="#08AAAA" stroke-width="1.4"/>
<path d="M161.498 94.5078C165.625 94.5079 168.965 97.8367 168.965 101.936C168.965 103.664 168.297 105.762 167.189 107.789C166.086 109.808 164.582 111.689 162.99 112.99C162.115 113.705 160.88 113.705 160.005 112.99C158.413 111.69 156.91 109.808 155.807 107.789C154.699 105.762 154.031 103.664 154.031 101.936C154.031 97.8366 157.371 94.5078 161.498 94.5078Z" fill="#0DA2A2" stroke="#1F1F1F" stroke-width="1.4"/>
<path d="M161.498 105.941C163.689 105.941 165.465 104.165 165.465 101.974C165.465 99.7837 163.689 98.0078 161.498 98.0078C159.307 98.0078 157.531 99.7837 157.531 101.974C157.531 104.165 159.307 105.941 161.498 105.941Z" fill="#FAFAFC" stroke="#1F1F1F" stroke-width="1.4"/>
<path d="M52.4981 63.5078C56.6247 63.5079 59.9648 66.8367 59.9649 70.9365C59.9649 72.6642 59.297 74.7621 58.1894 76.789C57.0859 78.8084 55.5823 80.6895 53.9902 81.9902C53.115 82.7051 51.8801 82.7051 51.0049 81.9902C49.4128 80.6895 47.9101 78.8083 46.8067 76.789C45.699 74.762 45.0312 72.6643 45.0312 70.9365C45.0313 66.8366 48.3714 63.5078 52.4981 63.5078Z" fill="#0DA2A2" stroke="#1F1F1F" stroke-width="1.4"/>
<path d="M52.4979 74.9412C54.6887 74.9412 56.4646 73.1652 56.4646 70.9745C56.4646 68.7837 54.6887 67.0078 52.4979 67.0078C50.3072 67.0078 48.5312 68.7837 48.5312 70.9745C48.5312 73.1652 50.3072 74.9412 52.4979 74.9412Z" fill="#FAFAFC" stroke="#1F1F1F" stroke-width="1.4"/>
<path d="M102.708 4.02987C108.395 4.4414 112.789 9.00196 113.149 14.5357C113.158 14.6746 113.267 14.7872 113.406 14.7975C113.545 14.8075 113.669 14.7112 113.698 14.5748C114.851 9.15067 119.855 5.27184 125.542 5.68319C131.756 6.1329 136.43 11.5338 135.981 17.7476L135.488 24.5611C135.482 24.6423 135.543 24.7125 135.624 24.7183L142.439 25.2115C148.653 25.6612 153.326 31.0631 152.877 37.2769C152.467 42.9424 147.94 47.3241 142.435 47.7135C142.292 47.7237 142.177 47.8363 142.166 47.9791C142.156 48.122 142.254 48.2501 142.394 48.2808C147.786 49.4582 151.636 54.4454 151.227 60.1109C150.84 65.4613 146.78 69.6664 141.693 70.4459C141.616 70.5109 141.539 70.5754 141.461 70.6383C141.485 71.0131 141.462 71.3785 141.399 71.7301C141.225 72.6947 140.756 73.5165 140.222 74.1051C140.545 74.4774 140.842 74.9458 140.992 75.5045C141.258 76.4877 141.038 77.6009 140.075 78.7203C138.822 80.1752 136.774 80.5912 135.04 80.3912C134.159 80.2894 133.302 80.0243 132.597 79.606C132.16 79.3464 131.761 79.0133 131.461 78.607C130.414 83.417 126.335 86.998 121.447 87.4293C121.475 88.3159 121.492 89.1977 121.492 90.0416C121.49 91.398 121.448 92.6696 121.353 93.7115C121.331 93.9517 121.304 94.1818 121.276 94.4C121.738 94.5745 122.243 94.8328 122.716 95.1793C123.459 95.7238 124.179 96.5249 124.518 97.6168C126.292 97.3782 128.567 97.3679 130.559 97.981C131.702 98.333 132.79 98.9017 133.626 99.7877C134.472 100.684 135.024 101.866 135.145 103.365C135.284 105.096 134.182 106.611 132.639 107.213C129.049 108.615 122.479 109.63 113.827 106.778C112.16 106.228 110.893 104.754 110.801 102.934C110.729 101.495 110.81 99.7988 111.287 98.2496C111.758 96.7239 112.634 95.2837 114.176 94.4225L114.299 85.6558C111.4 83.769 109.446 80.5966 109.192 77.0064C109.181 76.8635 109.069 76.7475 108.926 76.7369C108.783 76.7266 108.655 76.8253 108.624 76.9654C107.942 80.0847 105.983 82.6846 103.358 84.2447L103.501 94.4225C105.044 95.2836 105.919 96.7237 106.39 98.2496C106.868 99.7988 106.95 101.495 106.877 102.934C106.786 104.754 105.519 106.228 103.851 106.778C95.199 109.63 88.6298 108.615 85.0393 107.213C83.4962 106.611 82.3938 105.096 82.5334 103.365C82.6544 101.866 83.2059 100.684 84.052 99.7877C84.8883 98.9019 85.9754 98.333 87.1184 97.981C89.1106 97.3678 91.3858 97.3782 93.1604 97.6168C93.4992 96.5249 94.2189 95.7238 94.9621 95.1793C95.4347 94.8331 95.9398 94.5755 96.4016 94.401C96.3729 94.1826 96.3475 93.952 96.3254 93.7115C96.2298 92.6696 96.1878 91.398 96.1867 90.0416C96.1857 88.6627 96.226 87.1825 96.298 85.7457C90.3334 85.0527 85.9193 79.7757 86.3566 73.7281L86.8488 66.9137C86.8547 66.8323 86.7935 66.7613 86.7121 66.7555L84.3557 66.5846C84.3537 66.7238 84.342 66.8646 84.3137 67.0055C84.1265 67.9343 83.4011 68.6569 82.1984 69.0318L81.7678 72.2408C81.6435 73.1627 80.7953 73.8092 79.8732 73.6851L77.09 73.3111C76.1681 73.1869 75.5217 72.3386 75.6457 71.4166L76.0422 68.4566C75.7112 68.2628 75.4001 68.0372 75.1135 67.7769C73.9836 66.7505 73.3176 65.2791 73.1984 63.4205C70.6841 61.1701 69.1999 57.8226 69.4621 54.1969C69.6928 51.0087 71.2273 48.2269 73.5061 46.3346C67.9245 42.2402 65.0653 35.0705 66.758 27.9713L66.8693 27.5289C69.3755 18.0858 79.063 12.4612 88.5061 14.9674L88.9445 15.0904C89.4957 15.2517 90.0337 15.4379 90.5568 15.6471L90.6428 14.4683C91.0924 8.25434 96.4942 3.58049 102.708 4.02987Z" fill="#FAFAFC"/>
<path d="M113.15 14.5359L109.158 14.7957V14.7988L113.15 14.5359ZM113.407 14.7977L113.112 18.7868L113.118 18.7872L113.407 14.7977ZM135.489 24.5613L131.499 24.2726L131.498 24.2834L135.489 24.5613ZM142.436 47.7137L142.154 43.7236L142.149 43.724L142.436 47.7137ZM142.167 47.9793L138.178 47.6847L138.177 47.6945L142.167 47.9793ZM142.395 48.281L141.537 52.1879L141.542 52.189L142.395 48.281ZM141.694 70.4461L141.088 66.4922L139.972 66.6632L139.111 67.3918L141.694 70.4461ZM141.462 70.6385L138.947 67.5282L137.338 68.8293L137.47 70.8942L141.462 70.6385ZM140.223 74.1053L137.261 71.4168L134.875 74.0456L137.202 76.727L140.223 74.1053ZM140.076 78.7205L143.106 81.3308L143.107 81.3303L140.076 78.7205ZM131.462 78.6072L134.679 76.2301L129.432 69.1288L127.554 77.7564L131.462 78.6072ZM121.448 87.4295L121.096 83.445L117.329 83.7773L117.45 87.5574L121.448 87.4295ZM121.277 94.4002L117.311 93.8802L116.899 97.0226L119.864 98.1423L121.277 94.4002ZM124.519 97.617L120.699 98.8027L121.701 102.032L125.052 101.581L124.519 97.617ZM114.177 94.4227L116.127 97.9149L118.144 96.7886L118.177 94.4788L114.177 94.4227ZM114.3 85.6561L118.3 85.7122L118.331 83.5067L116.482 82.3036L114.3 85.6561ZM109.193 77.0066L113.183 76.7236L113.182 76.7208L109.193 77.0066ZM108.927 76.7371L109.222 72.748L109.213 72.7474L108.927 76.7371ZM108.625 76.9656L104.718 76.1092V76.1113L108.625 76.9656ZM103.359 84.2449L101.315 80.8061L99.3262 81.988L99.3588 84.3013L103.359 84.2449ZM103.502 94.4227L99.5024 94.4791L99.535 96.789L101.552 97.9152L103.502 94.4227ZM103.852 106.778L105.104 110.577H105.105L103.852 106.778ZM85.0401 107.213L83.5853 110.939L83.5856 110.94L85.0401 107.213ZM93.1612 97.617L92.6282 101.581L95.9791 102.032L96.9814 98.8027L93.1612 97.617ZM96.4025 94.4012L97.8167 98.1428L100.781 97.0225L100.369 93.881L96.4025 94.4012ZM96.2989 85.7459L100.294 85.9463L100.482 82.2049L96.7604 81.7726L96.2989 85.7459ZM84.3565 66.5848L84.6459 62.5952L80.4177 62.2886L80.357 66.5275L84.3565 66.5848ZM82.1993 69.032L81.0088 65.2133L78.5741 65.9724L78.2348 68.5L82.1993 69.032ZM81.7686 72.241L85.7328 72.7753L85.733 72.7731L81.7686 72.241ZM77.0909 73.3113L76.5568 77.2755L76.5582 77.2757L77.0909 73.3113ZM75.6465 71.4168L79.6108 71.9501L79.6111 71.9478L75.6465 71.4168ZM76.043 68.4568L80.0076 68.9879L80.3609 66.3501L78.0644 65.0052L76.043 68.4568ZM73.1993 63.4207L77.191 63.1648L77.0864 61.5316L75.867 60.4402L73.1993 63.4207ZM73.507 46.3348L76.0623 49.412L80.0033 46.1394L75.8728 43.1095L73.507 46.3348ZM66.7589 27.9715L62.8798 26.9953L62.8737 27.0195L62.8679 27.0437L66.7589 27.9715ZM66.8701 27.5291L63.004 26.503L62.9974 26.5279L62.9912 26.5529L66.8701 27.5291ZM88.507 14.9676L89.5876 11.1163L89.5604 11.1087L89.533 11.1014L88.507 14.9676ZM88.9454 15.0906L90.0689 11.2517L90.0475 11.2454L90.0261 11.2394L88.9454 15.0906ZM90.5576 15.6473L89.0725 19.3613L94.1496 21.3915L94.5471 15.9381L90.5576 15.6473ZM90.6436 14.4685L94.633 14.7594L94.6331 14.7572L90.6436 14.4685ZM102.709 4.03005L102.421 8.01962C106.086 8.28485 108.926 11.226 109.158 14.7957L113.15 14.5359L117.141 14.2762C116.653 6.77831 110.707 0.598309 102.998 0.0404809L102.709 4.03005ZM113.15 14.5359L109.158 14.7988C109.295 16.874 110.931 18.6257 113.112 18.7868L113.407 14.7977L113.701 10.8085C115.604 10.9491 117.023 12.4756 117.141 14.2731L113.15 14.5359ZM113.407 14.7977L113.118 18.7872C115.318 18.9464 117.181 17.4291 117.611 15.4074L113.699 14.575L109.786 13.7426C110.158 11.9936 111.773 10.6691 113.695 10.8081L113.407 14.7977ZM113.699 14.575L117.611 15.4074C118.355 11.9097 121.588 9.40774 125.255 9.67295L125.543 5.68337L125.832 1.69381C118.124 1.13631 111.348 6.39203 109.786 13.7426L113.699 14.575ZM125.543 5.68337L125.255 9.67295C129.266 9.96326 132.282 13.4497 131.992 17.4595L135.982 17.7478L139.971 18.0366C140.58 9.6188 134.248 2.30292 125.832 1.69381L125.543 5.68337ZM135.982 17.7478L131.992 17.4595L131.499 24.2726L135.489 24.5613L139.478 24.8501L139.971 18.0366L135.982 17.7478ZM135.489 24.5613L131.498 24.2834C131.339 26.576 133.068 28.544 135.337 28.7081L135.625 24.7185L135.914 20.729C138.02 20.8813 139.627 22.709 139.479 24.8393L135.489 24.5613ZM135.625 24.7185L135.337 28.7081L142.151 29.2013L142.44 25.2117L142.729 21.2221L135.914 20.729L135.625 24.7185ZM142.44 25.2117L142.151 29.2013C146.162 29.4916 149.179 32.9785 148.889 36.9887L152.878 37.2771L156.868 37.5657C157.476 29.1482 151.145 21.8313 142.729 21.2221L142.44 25.2117ZM152.878 37.2771L148.889 36.9887C148.625 40.6401 145.705 43.4724 142.154 43.7236L142.436 47.7137L142.718 51.7037C150.177 51.1761 156.312 45.2453 156.868 37.5657L152.878 37.2771ZM142.436 47.7137L142.149 43.724C140.071 43.8735 138.338 45.5176 138.178 47.6847L142.167 47.9793L146.156 48.2739C146.018 50.1553 144.515 51.5744 142.723 51.7033L142.436 47.7137ZM142.167 47.9793L138.177 47.6945C138.023 49.8618 139.5 51.7405 141.537 52.1879L142.395 48.281L143.253 44.3742C145.01 44.7601 146.291 46.3826 146.157 48.264L142.167 47.9793ZM142.395 48.281L141.542 52.189C145.02 52.9485 147.502 56.1717 147.238 59.8227L151.228 60.1111L155.217 60.3998C155.773 52.7196 150.554 45.9682 143.248 44.3731L142.395 48.281ZM151.228 60.1111L147.238 59.8227C146.989 63.2688 144.373 65.9889 141.088 66.4922L141.694 70.4461L142.3 74.3999C149.189 73.3443 154.693 67.6544 155.217 60.3998L151.228 60.1111ZM141.694 70.4461L139.111 67.3918C139.039 67.4529 138.989 67.4942 138.947 67.5282L141.462 70.6385L143.977 73.7487C144.091 73.6571 144.195 73.5693 144.277 73.5004L141.694 70.4461ZM141.462 70.6385L137.47 70.8942C137.473 70.9384 137.471 70.9795 137.463 71.0203L141.4 71.7303L145.336 72.4407C145.456 71.7783 145.499 71.0882 145.454 70.3827L141.462 70.6385ZM141.4 71.7303L137.463 71.0203C137.452 71.081 137.429 71.1516 137.39 71.2284C137.349 71.3076 137.301 71.3732 137.261 71.4168L140.223 74.1053L143.185 76.7937C144.156 75.7242 145.012 74.2356 145.336 72.4407L141.4 71.7303ZM140.223 74.1053L137.202 76.727C137.218 76.7455 137.214 76.7441 137.199 76.7191C137.184 76.6924 137.155 76.6348 137.132 76.5482L140.993 75.5047L144.855 74.4619C144.507 73.1741 143.85 72.1815 143.244 71.4835L140.223 74.1053ZM140.993 75.5047L137.132 76.5482C137.112 76.4743 137.098 76.3859 137.098 76.2903C137.097 76.1942 137.11 76.1101 137.127 76.0448C137.163 75.9081 137.195 75.9353 137.044 76.1107L140.076 78.7205L143.107 81.3303C144.8 79.3642 145.517 76.9139 144.855 74.4619L140.993 75.5047ZM140.076 78.7205L137.045 76.1102C137.013 76.1473 136.903 76.2525 136.608 76.3397C136.299 76.4306 135.901 76.464 135.5 76.4178L135.041 80.3914L134.582 84.365C137.076 84.6529 140.678 84.1509 143.106 81.3308L140.076 78.7205ZM135.041 80.3914L135.5 76.4178C135.081 76.3694 134.782 76.2513 134.64 76.1666L132.598 79.6062L130.556 83.0458C131.823 83.7976 133.239 84.2099 134.582 84.365L135.041 80.3914ZM132.598 79.6062L134.64 76.1666C134.607 76.147 134.596 76.1367 134.601 76.1416C134.607 76.1468 134.638 76.1742 134.679 76.2301L131.462 78.6072L128.245 80.9844C128.924 81.9026 129.758 82.5721 130.556 83.0458L132.598 79.6062ZM131.462 78.6072L127.554 77.7564C126.88 80.8527 124.245 83.1672 121.096 83.445L121.448 87.4295L121.799 91.414C128.428 90.8292 133.951 85.9818 135.371 79.458L131.462 78.6072ZM121.448 87.4295L117.45 87.5574C117.477 88.4127 117.493 89.2493 117.493 90.0387L121.493 90.0418L125.493 90.0449C125.493 89.1465 125.475 88.2195 125.446 87.3016L121.448 87.4295ZM121.493 90.0418L117.493 90.0387C117.492 91.3308 117.451 92.4704 117.371 93.3461L121.354 93.7117L125.337 94.0774C125.448 92.8693 125.491 91.4656 125.493 90.0449L121.493 90.0418ZM121.354 93.7117L117.371 93.3461C117.354 93.5276 117.334 93.7057 117.311 93.8802L121.277 94.4002L125.243 94.9202C125.277 94.6583 125.31 94.3762 125.337 94.0774L121.354 93.7117ZM121.277 94.4002L119.864 98.1423C120.022 98.2021 120.201 98.2948 120.353 98.4062L122.717 95.1795L125.081 91.9528C124.287 91.3712 123.456 90.9474 122.69 90.6581L121.277 94.4002ZM122.717 95.1795L120.353 98.4062C120.606 98.5916 120.679 98.7396 120.699 98.8027L124.519 97.617L128.339 96.4313C127.681 94.3106 126.315 92.8565 125.081 91.9528L122.717 95.1795ZM124.519 97.617L125.052 101.581C126.489 101.388 128.134 101.419 129.383 101.804L130.56 97.9812L131.737 94.1583C129.002 93.3167 126.098 93.3687 123.986 93.6527L124.519 97.617ZM130.56 97.9812L129.383 101.804C130.075 102.017 130.487 102.288 130.719 102.534L133.627 99.7879L136.536 97.0421C135.095 95.5153 133.331 94.6492 131.737 94.1583L130.56 97.9812ZM133.627 99.7879L130.719 102.534C130.908 102.735 131.107 103.048 131.159 103.687L135.146 103.365L139.133 103.043C138.942 100.685 138.039 98.6339 136.536 97.0421L133.627 99.7879ZM135.146 103.365L131.159 103.687C131.156 103.648 131.16 103.601 131.171 103.558C131.183 103.517 131.197 103.491 131.205 103.48C131.212 103.469 131.214 103.469 131.207 103.475C131.201 103.48 131.193 103.484 131.185 103.487L132.64 107.213L134.095 110.94C137.073 109.777 139.432 106.749 139.133 103.043L135.146 103.365ZM132.64 107.213L131.185 103.487C128.483 104.542 122.871 105.547 115.081 102.979L113.828 106.778L112.576 110.577C122.09 113.713 129.617 112.688 134.095 110.94L132.64 107.213ZM113.828 106.778L115.081 102.979C114.964 102.941 114.881 102.874 114.837 102.82C114.801 102.775 114.798 102.751 114.797 102.733L110.802 102.934L106.807 103.135C106.991 106.781 109.513 109.567 112.576 110.577L113.828 106.778ZM110.802 102.934L114.797 102.733C114.737 101.547 114.822 100.365 115.111 99.4285L111.288 98.2498L107.466 97.071C106.799 99.2326 106.722 101.442 106.807 103.135L110.802 102.934ZM111.288 98.2498L115.111 99.4285C115.387 98.5336 115.761 98.1196 116.127 97.9149L114.177 94.4227L112.227 90.9304C109.509 92.4482 108.131 94.9145 107.466 97.071L111.288 98.2498ZM114.177 94.4227L118.177 94.4788L118.3 85.7122L114.3 85.6561L110.301 85.5999L110.177 94.3665L114.177 94.4227ZM114.3 85.6561L116.482 82.3036C114.603 81.0803 113.346 79.0279 113.183 76.7236L109.193 77.0066L105.203 77.2897C105.549 82.1658 108.2 86.4582 112.118 89.0085L114.3 85.6561ZM109.193 77.0066L113.182 76.7208C113.035 74.6581 111.405 72.9095 109.222 72.748L108.927 76.7371L108.632 80.7262C106.735 80.5859 105.33 79.0693 105.203 77.2924L109.193 77.0066ZM108.927 76.7371L109.213 72.7474C107.025 72.5903 105.161 74.0906 104.718 76.1092L108.625 76.9656L112.533 77.822C112.152 79.5605 110.543 80.8633 108.641 80.7268L108.927 76.7371ZM108.625 76.9656L104.718 76.1113C104.28 78.1112 103.021 79.7925 101.315 80.8061L103.359 84.2449L105.402 87.6837C108.947 85.5771 111.606 82.0586 112.533 77.8199L108.625 76.9656ZM103.359 84.2449L99.3588 84.3013L99.5024 94.4791L103.502 94.4227L107.502 94.3662L107.358 84.1885L103.359 84.2449ZM103.502 94.4227L101.552 97.9152C101.918 98.1196 102.292 98.533 102.569 99.4287L106.391 98.2498L110.213 97.0711C109.548 94.9151 108.171 92.448 105.452 90.9301L103.502 94.4227ZM106.391 98.2498L102.569 99.4287C102.858 100.366 102.943 101.549 102.883 102.733L106.878 102.934L110.873 103.136C110.959 101.441 110.88 99.2315 110.213 97.0711L106.391 98.2498ZM106.878 102.934L102.883 102.733C102.882 102.751 102.88 102.775 102.844 102.82C102.799 102.874 102.716 102.941 102.599 102.979L103.852 106.778L105.105 110.577C108.167 109.567 110.689 106.782 110.873 103.136L106.878 102.934ZM103.852 106.778L102.599 102.979C94.809 105.547 89.1976 104.542 86.4945 103.487L85.0401 107.213L83.5856 110.94C88.0637 112.688 95.5906 113.713 105.104 110.577L103.852 106.778ZM85.0401 107.213L86.4945 103.487C86.4867 103.484 86.479 103.48 86.4727 103.475C86.4662 103.469 86.4681 103.469 86.4752 103.48C86.4829 103.491 86.4974 103.517 86.5087 103.558C86.5206 103.601 86.5244 103.647 86.5213 103.686L82.5343 103.365L78.5473 103.043C78.2486 106.749 80.6068 109.776 83.5853 110.939L85.0401 107.213ZM82.5343 103.365L86.5212 103.687C86.5728 103.048 86.772 102.734 86.9615 102.533L84.0529 99.7879L81.1444 97.0419C79.6416 98.6337 78.7376 100.685 78.5473 103.043L82.5343 103.365ZM84.0529 99.7879L86.9614 102.534C87.1934 102.288 87.6059 102.017 88.2963 101.804L87.1192 97.9812L85.9425 94.1583C84.3469 94.6496 82.5849 95.5161 81.1444 97.0419L84.0529 99.7879ZM87.1192 97.9812L88.2963 101.804C89.5461 101.419 91.1913 101.388 92.6282 101.581L93.1612 97.617L93.6943 93.6527C91.5821 93.3686 88.6772 93.3165 85.9425 94.1583L87.1192 97.9812ZM93.1612 97.617L96.9814 98.8027C97.001 98.7395 97.074 98.5915 97.327 98.4062L94.963 95.1795L92.5992 91.9527C91.3657 92.8564 89.9992 94.3106 89.341 96.4313L93.1612 97.617ZM94.963 95.1795L97.327 98.4062C97.4768 98.2964 97.6553 98.2038 97.8167 98.1428L96.4025 94.4012L94.9882 90.6595C94.226 90.9476 93.3946 91.37 92.5992 91.9527L94.963 95.1795ZM96.4025 94.4012L100.369 93.881C100.347 93.719 100.328 93.5402 100.31 93.346L96.3262 93.7117L92.343 94.0773C92.3694 94.364 92.4004 94.6465 92.4363 94.9214L96.4025 94.4012ZM96.3262 93.7117L100.31 93.346C100.229 92.4703 100.189 91.3308 100.188 90.0387L96.1875 90.0418L92.1875 90.0449C92.1886 91.4656 92.232 92.8692 92.343 94.0773L96.3262 93.7117ZM96.1875 90.0418L100.188 90.0387C100.187 88.7358 100.225 87.324 100.294 85.9463L96.2989 85.7459L92.3039 85.5455C92.2288 87.0415 92.1864 88.59 92.1875 90.0449L96.1875 90.0418ZM96.2989 85.7459L96.7604 81.7726C92.9133 81.3257 90.0648 77.9186 90.347 74.0169L86.3574 73.7283L82.368 73.4398C81.7754 81.6331 87.7551 88.7802 95.8373 89.7192L96.2989 85.7459ZM86.3574 73.7283L90.347 74.0169L90.8393 67.202L86.8496 66.9139L82.8601 66.6253L82.368 73.4398L86.3574 73.7283ZM86.8496 66.9139L90.8393 67.202C91.0042 64.9226 89.2917 62.9317 87.0016 62.7661L86.713 66.7557L86.4236 70.7452C84.2963 70.5914 82.7069 68.742 82.8601 66.6253L86.8496 66.9139ZM86.713 66.7557L87.0016 62.7661L84.6459 62.5952L84.3565 66.5848L84.0671 70.5743L86.4236 70.7452L86.713 66.7557ZM84.3565 66.5848L80.357 66.5275C80.3576 66.4852 80.3618 66.3722 80.3933 66.216L84.3145 67.0057L88.2358 67.7958C88.3239 67.3579 88.3515 66.9629 88.3561 66.642L84.3565 66.5848ZM84.3145 67.0057L80.3933 66.216C80.4658 65.8563 80.6514 65.5502 80.8561 65.3521C81.0379 65.1762 81.1416 65.1719 81.0088 65.2133L82.1993 69.032L83.3898 72.8507C85.5617 72.1736 87.6814 70.5469 88.2358 67.7958L84.3145 67.0057ZM82.1993 69.032L78.2348 68.5L77.8041 71.709L81.7686 72.241L85.733 72.7731L86.1638 69.5641L82.1993 69.032ZM81.7686 72.241L77.8045 71.7067C77.9755 70.4379 79.1422 69.5509 80.4074 69.7211L79.874 73.6854L79.3409 77.6496C82.4501 78.0679 85.3133 75.888 85.7328 72.7753L81.7686 72.241ZM79.874 73.6854L80.4074 69.7211L77.6237 69.347L77.0909 73.3113L76.5582 77.2757L79.3409 77.6496L79.874 73.6854ZM77.0909 73.3113L77.6249 69.3471C78.8941 69.5181 79.781 70.6851 79.6108 71.9501L75.6465 71.4168L71.6823 70.8835C71.2641 73.9926 73.4436 76.8561 76.5568 77.2755L77.0909 73.3113ZM75.6465 71.4168L79.6111 71.9478L80.0076 68.9879L76.043 68.4568L72.0784 67.9258L71.6819 70.8857L75.6465 71.4168ZM76.043 68.4568L78.0644 65.0052C77.9589 64.9434 77.8739 64.8799 77.8036 64.816L75.1144 67.7771L72.4246 70.7378C72.9274 71.1944 73.4651 71.5826 74.0216 71.9085L76.043 68.4568ZM75.1144 67.7771L77.8036 64.816C77.5724 64.6059 77.2559 64.1764 77.191 63.1648L73.1993 63.4207L69.2075 63.6766C69.381 66.3822 70.3961 68.895 72.4246 70.7378L75.1144 67.7771ZM73.1993 63.4207L75.867 60.4402C74.234 58.9786 73.2836 56.8209 73.4525 54.4856L69.463 54.1971L65.4734 53.9084C65.1179 58.8245 67.1359 63.362 70.5316 66.4012L73.1993 63.4207ZM69.463 54.1971L73.4525 54.4856C73.6014 52.4277 74.5864 50.6377 76.0623 49.412L73.507 46.3348L70.9514 43.2575C67.8698 45.8165 65.7859 49.5899 65.4734 53.9084L69.463 54.1971ZM73.507 46.3348L75.8728 43.1095C71.5472 39.9364 69.342 34.3841 70.6498 28.8992L66.7589 27.9715L62.8679 27.0437C60.7902 35.7573 64.3035 44.5444 71.1409 49.56L73.507 46.3348ZM66.7589 27.9715L70.6379 28.9477L70.7492 28.5053L66.8701 27.5291L62.9912 26.5529L62.8798 26.9953L66.7589 27.9715ZM66.8701 27.5291L70.7364 28.5552C72.6759 21.2471 80.1733 16.8943 87.4809 18.8337L88.507 14.9676L89.533 11.1014C77.9545 8.02853 66.0767 14.925 63.004 26.503L66.8701 27.5291ZM88.507 14.9676L87.4261 18.8188L87.8646 18.9419L88.9454 15.0906L90.0261 11.2394L89.5876 11.1163L88.507 14.9676ZM88.9454 15.0906L87.8217 18.9296C88.2503 19.055 88.6677 19.1995 89.0725 19.3613L90.5576 15.6473L92.0428 11.9332C91.4014 11.6767 90.7427 11.4489 90.0689 11.2517L88.9454 15.0906ZM90.5576 15.6473L94.5471 15.9381L94.633 14.7594L90.6436 14.4685L86.6543 14.1777L86.5682 15.3564L90.5576 15.6473ZM90.6436 14.4685L94.6331 14.7572C94.9234 10.7461 98.4102 7.72961 102.421 8.01962L102.709 4.03005L102.998 0.0404809C94.5798 -0.568274 87.263 5.76293 86.654 14.1799L90.6436 14.4685Z" fill="#FAFAFC"/>
<path d="M93.7426 98.4687C94.0558 96.0174 96.6059 94.9599 97.5305 94.8828L103.061 95.0344C105.801 96.4997 106.271 100.115 106.13 102.898C106.056 104.376 105.023 105.604 103.618 106.067C95.1274 108.867 88.738 107.853 85.314 106.516C84.0412 106.019 83.1729 104.789 83.2828 103.427C83.7144 98.0767 90.189 97.8218 93.7426 98.4687Z" fill="#0F3E9A"/>
<path d="M93.7426 98.4687C94.0558 96.0174 96.6059 94.9599 97.5305 94.8828L103.061 95.0344C105.801 96.4997 106.271 100.115 106.13 102.898C106.056 104.376 105.023 105.604 103.618 106.067C95.1274 108.867 88.738 107.853 85.314 106.516C84.0412 106.019 83.1729 104.789 83.2828 103.427C83.7144 98.0767 90.189 97.8218 93.7426 98.4687ZM93.7426 98.4687C94.8635 98.7044 96.4908 99.159 97.0884 99.7903" stroke="#1F1F1F" stroke-width="1.5" stroke-linecap="round"/>
<path d="M123.941 98.4687C123.628 96.0174 121.078 94.9599 120.153 94.8828L114.623 95.0344C111.883 96.4997 111.413 100.115 111.553 102.898C111.628 104.376 112.66 105.604 114.066 106.067C122.557 108.867 128.946 107.853 132.37 106.516C133.643 106.019 134.511 104.789 134.401 103.427C133.97 98.0767 127.495 97.8218 123.941 98.4687Z" fill="#0F3E9A"/>
<path d="M123.941 98.4687C123.628 96.0174 121.078 94.9599 120.153 94.8828L114.623 95.0344C111.883 96.4997 111.413 100.115 111.553 102.898C111.628 104.376 112.66 105.604 114.066 106.067C122.557 108.867 128.946 107.853 132.37 106.516C133.643 106.019 134.511 104.789 134.401 103.427C133.97 98.0767 127.495 97.8218 123.941 98.4687ZM123.941 98.4687C122.82 98.7044 121.193 99.159 120.595 99.7903" stroke="#1F1F1F" stroke-width="1.5" stroke-linecap="round"/>
<path d="M97.5156 95.8297C96.692 94.2228 96.8587 86.6412 97.3324 81.8984H102.576L102.756 94.6856C102.794 97.3753 99.3149 98.473 97.8023 96.2486C97.7066 96.1078 97.5933 95.9812 97.5156 95.8297Z" fill="#FAFAFC" stroke="#1F1F1F" stroke-width="1.5"/>
<path d="M120.163 95.8297C120.987 94.2228 120.82 86.6412 120.346 81.8984H115.103L114.922 94.6856C114.885 97.3753 118.364 98.473 119.876 96.2486C119.972 96.1078 120.085 95.9812 120.163 95.8297Z" fill="#FAFAFC" stroke="#1F1F1F" stroke-width="1.5"/>
<path d="M102.705 4.02989C108.392 4.44141 112.785 9.00129 113.146 14.5351C113.155 14.6742 113.264 14.7874 113.403 14.7975C113.542 14.8076 113.666 14.7112 113.695 14.5748C114.848 9.15048 119.852 5.27112 125.539 5.68248C131.753 6.13217 136.426 11.5334 135.977 17.7473L135.484 24.5603C135.478 24.6416 135.54 24.7124 135.621 24.7183L142.436 25.2112C148.65 25.6609 153.323 31.0629 152.874 37.2769C152.464 42.9424 147.937 47.3235 142.432 47.7129C142.289 47.7231 142.173 47.8355 142.163 47.9784C142.153 48.1214 142.251 48.25 142.391 48.2807C147.783 49.4581 151.633 54.4452 151.223 60.1109C150.774 66.3248 145.372 70.9981 139.158 70.5489L132.342 70.0559C132.26 70.05 132.19 70.1112 132.184 70.1925L131.691 77.0075C131.241 83.2215 125.839 87.8947 119.625 87.4455C113.96 87.0357 109.579 82.5104 109.189 77.0062C109.179 76.863 109.066 76.7466 108.922 76.7363C108.779 76.726 108.652 76.8249 108.621 76.9651C107.442 82.3557 102.456 86.2034 96.7913 85.7938C90.5772 85.3444 85.9039 79.9423 86.3533 73.7281L86.8463 66.9132C86.8522 66.8318 86.791 66.7611 86.7096 66.7552L79.8976 66.2625C73.6836 65.8128 69.0102 60.4107 69.4596 54.1967C69.8709 48.5107 74.4286 44.118 79.9609 43.7562C80.1 43.7471 80.2143 43.6373 80.2243 43.4982C80.2341 43.3593 80.1369 43.2349 80.0007 43.2059C74.5777 42.0521 70.6999 37.0491 71.1112 31.3628C71.5607 25.1487 76.9628 20.4754 83.1769 20.9248L89.989 21.4176C90.0703 21.4235 90.1411 21.3623 90.147 21.2809L90.6398 14.4679C91.0894 8.2538 96.4914 3.58041 102.705 4.02989Z" fill="#3276FF"/>
<mask id="mask0_2859_23045" style="mask-type:luminance" maskUnits="userSpaceOnUse" x="69" y="4" width="84" height="84">
<path d="M102.705 4.02989C108.392 4.44141 112.785 9.00129 113.146 14.5351C113.155 14.6742 113.264 14.7874 113.403 14.7975C113.542 14.8076 113.666 14.7112 113.695 14.5748C114.848 9.15048 119.852 5.27112 125.539 5.68248C131.753 6.13217 136.426 11.5334 135.977 17.7473L135.484 24.5603C135.478 24.6416 135.54 24.7124 135.621 24.7183L142.436 25.2112C148.65 25.6609 153.323 31.0629 152.874 37.2769C152.464 42.9424 147.937 47.3235 142.432 47.7129C142.289 47.7231 142.173 47.8355 142.163 47.9784C142.153 48.1214 142.251 48.25 142.391 48.2807C147.783 49.4581 151.633 54.4452 151.223 60.1109C150.774 66.3248 145.372 70.9981 139.158 70.5489L132.342 70.0559C132.26 70.05 132.19 70.1112 132.184 70.1925L131.691 77.0075C131.241 83.2215 125.839 87.8947 119.625 87.4455C113.96 87.0357 109.579 82.5104 109.189 77.0062C109.179 76.863 109.066 76.7466 108.922 76.7363C108.779 76.726 108.652 76.8249 108.621 76.9651C107.442 82.3557 102.456 86.2034 96.7913 85.7938C90.5772 85.3444 85.9039 79.9423 86.3533 73.7281L86.8463 66.9132C86.8522 66.8318 86.791 66.7611 86.7096 66.7552L79.8976 66.2625C73.6836 65.8128 69.0102 60.4107 69.4596 54.1967C69.8709 48.5107 74.4286 44.118 79.9609 43.7562C80.1 43.7471 80.2143 43.6373 80.2243 43.4982C80.2341 43.3593 80.1369 43.2349 80.0007 43.2059C74.5777 42.0521 70.6999 37.0491 71.1112 31.3628C71.5607 25.1487 76.9628 20.4754 83.1769 20.9248L89.989 21.4176C90.0703 21.4235 90.1411 21.3623 90.147 21.2809L90.6398 14.4679C91.0894 8.2538 96.4914 3.58041 102.705 4.02989Z" fill="white"/>
</mask>
<g mask="url(#mask0_2859_23045)">
<path d="M113.403 14.7975L113.293 16.2935L113.294 16.2936L113.403 14.7975ZM142.432 47.7129L142.326 46.2166L142.324 46.2167L142.432 47.7129ZM142.163 47.9784L140.667 47.8679V47.8701L142.163 47.9784ZM142.391 48.2807L142.069 49.7459L142.071 49.7462L142.391 48.2807ZM108.922 76.7363L109.031 75.2402L109.03 75.2401L108.922 76.7363ZM80.2243 43.4982L81.7204 43.6064L81.7206 43.604L80.2243 43.4982ZM102.705 4.02996L102.597 5.52604C107.526 5.88272 111.336 9.83539 111.649 14.6325L113.146 14.5351L114.642 14.4377C114.234 8.16734 109.259 3.00025 102.814 2.53387L102.705 4.02996ZM113.146 14.5351L111.649 14.6325C111.705 15.4956 112.385 16.2272 113.293 16.2935L113.403 14.7975L113.512 13.3015C114.143 13.3475 114.604 13.8528 114.642 14.4377L113.146 14.5351ZM113.403 14.7975L113.294 16.2936C114.205 16.3595 114.982 15.7317 115.162 14.887L113.695 14.5748L112.228 14.2627C112.349 13.6907 112.878 13.2556 113.511 13.3014L113.403 14.7975ZM113.695 14.5748L115.162 14.887C116.161 10.1849 120.502 6.8221 125.431 7.17865L125.539 5.68255L125.647 4.18647C119.202 3.72029 113.534 8.11613 112.228 14.2627L113.695 14.5748ZM125.539 5.68255L125.431 7.17865C130.819 7.56856 134.871 12.2516 134.481 17.6391L135.977 17.7473L137.473 17.8555C137.982 10.8153 132.687 4.69594 125.647 4.18647L125.539 5.68255ZM135.977 17.7473L134.481 17.6391L133.988 24.4521L135.484 24.5603L136.98 24.6685L137.473 17.8555L135.977 17.7473ZM135.621 24.7183L135.513 26.2143L142.328 26.7073L142.436 25.2112L142.544 23.7151L135.729 23.2222L135.621 24.7183ZM142.436 25.2112L142.328 26.7073C147.715 27.0972 151.768 31.781 151.378 37.1687L152.874 37.2769L154.37 37.3851C154.879 30.3448 149.584 24.2246 142.544 23.7151L142.436 25.2112ZM152.874 37.2769L151.378 37.1687C151.023 42.0788 147.099 45.879 142.326 46.2166L142.432 47.7129L142.538 49.2091C148.776 48.7679 153.906 43.806 154.37 37.3851L152.874 37.2769ZM142.432 47.7129L142.324 46.2167C141.459 46.2789 140.734 46.963 140.667 47.8679L142.163 47.9784L143.659 48.0888C143.613 48.708 143.118 49.1675 142.538 49.2091L142.432 47.7129ZM142.163 47.9784L140.667 47.8701C140.602 48.7728 141.217 49.5589 142.069 49.7459L142.391 48.2807L142.712 46.8156C143.284 46.9411 143.704 47.47 143.659 48.0866L142.163 47.9784ZM142.391 48.2807L142.071 49.7462C146.745 50.7669 150.082 55.0924 149.727 60.0027L151.223 60.1109L152.719 60.2191C153.184 53.7979 148.821 48.1493 142.711 46.8153L142.391 48.2807ZM151.223 60.1109L149.727 60.0027C149.337 65.3904 144.653 69.4423 139.266 69.0528L139.158 70.5489L139.049 72.045C146.09 72.5539 152.21 67.2593 152.719 60.2191L151.223 60.1109ZM139.158 70.5489L139.266 69.0528L132.45 68.5598L132.342 70.0559L132.233 71.552L139.049 72.045L139.158 70.5489ZM132.184 70.1925L130.688 70.0843L130.195 76.8993L131.691 77.0075L133.187 77.1157L133.68 70.3007L132.184 70.1925ZM131.691 77.0075L130.195 76.8993C129.805 82.287 125.121 86.3389 119.733 85.9494L119.625 87.4455L119.517 88.9416C126.557 89.4505 132.678 84.1561 133.187 77.1157L131.691 77.0075ZM119.625 87.4455L119.733 85.9494C114.824 85.5943 111.024 81.6716 110.685 76.9L109.189 77.0062L107.693 77.1123C108.135 83.3493 113.097 88.4772 119.517 88.9416L119.625 87.4455ZM109.189 77.0062L110.685 76.9C110.624 76.0349 109.939 75.3059 109.031 75.2402L108.922 76.7363L108.814 78.2324C108.192 78.1873 107.734 77.6912 107.693 77.1123L109.189 77.0062ZM108.922 76.7363L109.03 75.2401C108.116 75.1746 107.34 75.8029 107.156 76.6447L108.621 76.9651L110.086 77.2855C109.964 77.847 109.442 78.2774 108.814 78.2324L108.922 76.7363ZM108.621 76.9651L107.156 76.6447C106.134 81.3177 101.809 84.6527 96.8995 84.2977L96.7913 85.7938L96.6831 87.2899C103.103 87.7541 108.751 83.3937 110.086 77.2855L108.621 76.9651ZM96.7913 85.7938L96.8995 84.2977C91.5117 83.9079 87.4598 79.2242 87.8494 73.8363L86.3533 73.7281L84.8573 73.6199C84.3482 80.6603 89.6427 86.7807 96.6831 87.2899L96.7913 85.7938ZM86.3533 73.7281L87.8494 73.8363L88.3424 67.0214L86.8463 66.9132L85.3502 66.8049L84.8573 73.6199L86.3533 73.7281ZM86.7096 66.7552L86.8178 65.2591L80.0058 64.7664L79.8976 66.2625L79.7893 67.7585L86.6014 68.2513L86.7096 66.7552ZM79.8976 66.2625L80.0058 64.7664C74.6181 64.3765 70.5661 59.6927 70.9557 54.3049L69.4596 54.1967L67.9635 54.0885C67.4544 61.1288 72.7491 67.2491 79.7893 67.7585L79.8976 66.2625ZM69.4596 54.1967L70.9557 54.3049C71.3122 49.3768 75.263 45.5666 80.0588 45.253L79.9609 43.7562L79.8631 42.2594C73.5943 42.6694 68.4296 47.6447 67.9635 54.0885L69.4596 54.1967ZM79.9609 43.7562L80.0588 45.253C80.9197 45.1968 81.6545 44.5179 81.7204 43.6064L80.2243 43.4982L78.7282 43.39C78.774 42.7566 79.2805 42.2975 79.8631 42.2594L79.9609 43.7562ZM80.2243 43.4982L81.7206 43.604C81.7852 42.6902 81.1524 41.9173 80.3128 41.7387L80.0007 43.2059L79.6885 44.6731C79.1214 44.5524 78.6831 44.0283 78.7281 43.3924L80.2243 43.4982ZM80.0007 43.2059L80.3128 41.7387C75.6118 40.7385 72.2508 36.3995 72.6073 31.471L71.1112 31.3628L69.6151 31.2546C69.1491 37.6986 73.5434 43.3656 79.6885 44.6731L80.0007 43.2059ZM71.1112 31.3628L72.6073 31.471C72.997 26.0831 77.6808 22.0312 83.0687 22.4209L83.1769 20.9248L83.2852 19.4288C76.2447 18.9195 70.1244 24.2142 69.6151 31.2546L71.1112 31.3628ZM83.1769 20.9248L83.0687 22.4209L89.8808 22.9137L89.989 21.4176L90.0972 19.9215L83.2852 19.4288L83.1769 20.9248ZM90.147 21.2809L91.643 21.3891L92.1358 14.5761L90.6398 14.4679L89.1437 14.3597L88.6509 21.1727L90.147 21.2809ZM90.6398 14.4679L92.1358 14.5761C92.5257 9.18833 97.2095 5.13632 102.597 5.52604L102.705 4.02996L102.814 2.53387C95.7743 2.02463 89.653 7.31941 89.1437 14.3597L90.6398 14.4679ZM89.989 21.4176L89.8808 22.9137C90.7884 22.9793 91.5774 22.2968 91.643 21.3891L90.147 21.2809L88.6509 21.1727C88.7047 20.4278 89.3523 19.8676 90.0972 19.9215L89.989 21.4176ZM86.8463 66.9132L88.3424 67.0214C88.408 66.1137 87.7255 65.3247 86.8178 65.2591L86.7096 66.7552L86.6014 68.2513C85.8565 68.1974 85.2963 67.5499 85.3502 66.8049L86.8463 66.9132ZM132.342 70.0559L132.45 68.5598C131.542 68.4941 130.753 69.1767 130.688 70.0843L132.184 70.1925L133.68 70.3007C133.626 71.0456 132.978 71.6058 132.233 71.552L132.342 70.0559ZM135.484 24.5603L133.988 24.4521C133.923 25.3597 134.605 26.1487 135.513 26.2143L135.621 24.7183L135.729 23.2222C136.474 23.276 137.034 23.9236 136.98 24.6685L135.484 24.5603Z" fill="#1F1F1F"/>
</g>
<path d="M104.777 38.533C106.226 38.649 107.566 36.9726 107.77 34.7886C107.974 32.6047 106.964 30.7402 105.515 30.6241C104.066 30.5081 102.725 32.1845 102.522 34.3685C102.318 36.5524 103.328 38.4169 104.777 38.533Z" fill="#1F1F1F"/>
<path d="M96.3185 37.861C97.9289 37.9899 99.3995 36.324 99.6033 34.14C99.807 31.956 98.6667 30.0811 97.0564 29.9522C95.4461 29.8233 93.9754 31.4892 93.7717 33.6732C93.5679 35.8571 94.7082 37.7321 96.3185 37.861Z" fill="#1F1F1F"/>
<path d="M95.5996 33.2815C95.9217 33.3093 96.2158 32.9496 96.2566 32.478C96.2973 32.0065 96.0693 31.6017 95.7472 31.5738C95.4251 31.546 95.131 31.9057 95.0903 32.3773C95.0495 32.8488 95.2776 33.2536 95.5996 33.2815Z" fill="#FAFAFC"/>
<path d="M104.342 34.0393C104.664 34.0671 104.958 33.7074 104.999 33.2359C105.04 32.7643 104.811 32.3595 104.489 32.3316C104.167 32.3038 103.873 32.6635 103.832 33.1351C103.792 33.6066 104.02 34.0114 104.342 34.0393Z" fill="#FAFAFC"/>
<path d="M82.1984 48.2434L81.6061 48.1637C81.0945 48.0949 80.6239 48.4538 80.5551 48.9655L78.091 67.2834C78.0221 67.795 78.3811 68.2656 78.8928 68.3344L79.4851 68.4141C79.9967 68.4829 80.4673 68.1239 80.5361 67.6123L83.0002 49.2944C83.069 48.7828 82.71 48.3122 82.1984 48.2434Z" fill="#CEE9FB" stroke="#1F1F1F" stroke-width="1.5"/>
<path d="M82.6312 53.2021L79.8483 52.8277C79.3366 52.7589 78.8661 53.1179 78.7973 53.6295L76.3911 71.5164C76.3223 72.0281 76.6813 72.4986 77.1929 72.5674L79.9758 72.9418C80.4875 73.0106 80.958 72.6516 81.0269 72.14L83.433 54.2531C83.5018 53.7415 83.1428 53.2709 82.6312 53.2021Z" fill="#0F3E9A" stroke="#1F1F1F" stroke-width="1.5"/>
<path d="M67.0866 27.5403C69.5526 18.2482 79.0848 12.7145 88.3769 15.1804C97.669 17.6464 103.203 27.1785 100.737 36.4706C98.2706 45.7626 88.7386 51.2956 79.4465 48.8296C70.1547 46.3634 64.6208 36.8322 67.0866 27.5403ZM87.5263 18.3849C80.0043 16.3888 72.2886 20.8679 70.2922 28.3899C68.2958 35.912 72.775 43.6286 80.2971 45.625C87.8193 47.6214 95.5359 43.1413 97.5323 35.6191C99.5284 28.097 95.0484 20.3812 87.5263 18.3849Z" fill="#1F5BD2"/>
<path d="M79.6201 48.4435C88.6628 50.8434 97.9388 45.4583 100.339 36.4156C102.739 27.3729 97.3535 18.0968 88.3108 15.6969C79.2681 13.2971 69.992 18.6821 67.5921 27.7249C65.1923 36.7676 70.5773 46.0436 79.6201 48.4435Z" stroke="#1F1F1F" stroke-width="1.5"/>
<path d="M80.4903 45.1826C87.7343 47.1052 95.1653 42.7912 97.0878 35.5472C99.0103 28.3032 94.6964 20.8723 87.4524 18.9498C80.2084 17.0273 72.7774 21.3412 70.8549 28.5852C68.9324 35.8292 73.2463 43.2601 80.4903 45.1826Z" fill="#E5EEFF" fill-opacity="0.4" stroke="#1F1F1F" stroke-width="1.5"/>
<g filter="url(#filter0_d_2859_23045)">
<path d="M80.2624 27.832C81.7554 26.15 82.4016 24.2858 81.7057 23.6681C81.0098 23.0504 79.2354 23.9132 77.7424 25.5952C76.2494 27.2771 75.6032 29.1414 76.299 29.7591C76.9949 30.3767 78.7693 29.514 80.2624 27.832Z" fill="#FAFAFC"/>
</g>
<g filter="url(#filter1_d_2859_23045)">
<path d="M76.0967 33.2537C76.7002 33.1102 77.0731 32.5047 76.9296 31.9012C76.7861 31.2977 76.1806 30.9248 75.5771 31.0683C74.9736 31.2118 74.6007 31.8174 74.7442 32.4208C74.8877 33.0243 75.4932 33.3972 76.0967 33.2537Z" fill="#FAFAFC"/>
</g>
<path d="M84.432 57.7636C85.6677 59.1811 84.6499 61.0658 83.6468 61.4413C84.9018 63.1265 83.7559 64.7361 82.8313 65.1169C83.8832 65.7713 84.2923 67.9856 81.299 68.4769C76.7163 69.2289 73.1476 66.8521 74.0782 61.052C75.0088 55.252 82.2079 55.2124 84.432 57.7636Z" fill="#FAFAFC"/>
<path d="M83.6468 61.4413C84.6499 61.0658 85.6677 59.1811 84.432 57.7636C82.2079 55.2124 75.0088 55.252 74.0782 61.052C73.1476 66.8521 76.7163 69.2289 81.299 68.4769C84.2923 67.9856 83.8832 65.7713 82.8313 65.1169M83.6468 61.4413C84.9018 63.1265 83.756 64.7361 82.8313 65.1169M83.6468 61.4413C83.1587 60.7859 81.6157 59.9694 79.1917 60.3363M82.8313 65.1169C82.0435 64.6269 80.8311 64.4252 79.4132 64.8826" stroke="#1F1F1F" stroke-width="1.5" stroke-linecap="round"/>
<path d="M139.427 63.215C139.542 60.9038 137.221 59.8441 134.691 59.3365C132.75 58.9472 131.867 56.5494 133.334 55.2212C133.771 54.8258 134.347 54.6145 134.934 54.6631C137.87 54.9057 142.52 55.8664 144.267 60.9536C146.209 66.6116 140.806 70.8839 137.598 72.0217L135.614 67.1959C136.719 67.3436 139.25 66.7653 139.427 63.215Z" fill="#FAFAFC" stroke="#1F1F1F" stroke-width="1.5" stroke-linecap="round"/>
<path d="M139.2 67.6465C136.705 65.1016 134.17 66.2836 133.375 67.3563C131.447 66.9821 126.871 69.5347 127.773 73.7506C128.495 77.1232 130.728 77.6979 131.754 77.5637C132.476 79.8241 137.441 80.6276 139.507 78.228C141.16 76.3084 140.013 74.7792 139.121 74.086C140.369 73.2213 141.952 70.453 139.2 67.6465Z" fill="#FAFAFC"/>
<path d="M133.375 67.3563C134.17 66.2836 136.705 65.1016 139.2 67.6465C141.952 70.453 140.369 73.2213 139.121 74.086C140.013 74.7792 141.16 76.3084 139.507 78.228C137.441 80.6276 132.476 79.8241 131.754 77.5637C130.728 77.6979 128.495 77.1232 127.773 73.7506C126.871 69.5347 131.447 66.9821 133.375 67.3563ZM133.375 67.3563C133.838 67.3793 134.865 67.5974 135.275 68.2851M138.493 70.6699C138.771 70.6838 139.673 74.8996 136.816 76.4256" stroke="#1F1F1F" stroke-width="1.5" stroke-linecap="round"/>
<path d="M108.391 50.5307C110.051 49.9586 110.752 47.6261 109.958 45.3209C109.164 43.0157 107.174 41.6107 105.514 42.1828C103.854 42.755 103.152 45.0875 103.946 47.3927C104.741 49.6979 106.73 51.1028 108.391 50.5307Z" fill="#1F1F1F"/>
<mask id="mask1_2859_23045" style="mask-type:alpha" maskUnits="userSpaceOnUse" x="103" y="42" width="8" height="9">
<path d="M105.757 42.883C106.301 42.6956 106.964 42.8085 107.627 43.2766C108.289 43.7441 108.895 44.5362 109.247 45.5567C109.599 46.5772 109.609 47.5749 109.375 48.3509C109.142 49.1281 108.689 49.6254 108.145 49.813C107.601 50.0006 106.938 49.8874 106.275 49.4194C105.613 48.952 105.005 48.1601 104.654 47.1396C104.302 46.1191 104.293 45.1212 104.526 44.3451C104.76 43.5677 105.212 43.0705 105.757 42.883Z" fill="#1F1F1F" stroke="#1F1F1F" stroke-width="1.5"/>
</mask>
<g mask="url(#mask1_2859_23045)">
<path d="M111.645 50.6489C110.077 52.7806 107.646 53.6554 106.215 52.6028C104.784 51.5503 104.896 48.9689 106.464 46.8373C108.032 44.7056 110.463 43.8308 111.894 44.8834C113.325 45.9359 113.213 48.5173 111.645 50.6489Z" fill="#FF875F"/>
</g>
<path d="M105.756 42.8908C106.3 42.7034 106.963 42.8163 107.626 43.2845C108.288 43.7519 108.895 44.5441 109.247 45.5645C109.598 46.585 109.609 47.5827 109.375 48.3588C109.141 49.136 108.689 49.6333 108.145 49.8209C107.601 50.0084 106.938 49.8953 106.275 49.4272C105.613 48.9598 105.005 48.168 104.653 47.1475C104.302 46.1269 104.292 45.129 104.526 44.3529C104.76 43.5756 105.212 43.0783 105.756 42.8908Z" stroke="#1F1F1F" stroke-width="1.5"/>
<defs>
<filter id="filter0_d_2859_23045" x="72.1736" y="21.5477" width="13.6528" height="14.1762" filterUnits="userSpaceOnUse" color-interpolation-filters="sRGB">
<feFlood flood-opacity="0" result="BackgroundImageFix"/>
<feColorMatrix in="SourceAlpha" type="matrix" values="0 0 0 0 0 0 0 0 0 0 0 0 0 0 0 0 0 0 127 0" result="hardAlpha"/>
<feOffset dy="1.921"/>
<feGaussianBlur stdDeviation="1.921"/>
<feComposite in2="hardAlpha" operator="out"/>
<feColorMatrix type="matrix" values="0 0 0 0 0.500755 0 0 0 0 0.622039 0 0 0 0 0.862361 0 0 0 1 0"/>
<feBlend mode="normal" in2="BackgroundImageFix" result="effect1_dropShadow_2859_23045"/>
<feBlend mode="normal" in="SourceGraphic" in2="effect1_dropShadow_2859_23045" result="shape"/>
</filter>
<filter id="filter1_d_2859_23045" x="70.8689" y="29.1181" width="9.934" height="9.92619" filterUnits="userSpaceOnUse" color-interpolation-filters="sRGB">
<feFlood flood-opacity="0" result="BackgroundImageFix"/>
<feColorMatrix in="SourceAlpha" type="matrix" values="0 0 0 0 0 0 0 0 0 0 0 0 0 0 0 0 0 0 127 0" result="hardAlpha"/>
<feOffset dy="1.921"/>
<feGaussianBlur stdDeviation="1.921"/>
<feComposite in2="hardAlpha" operator="out"/>
<feColorMatrix type="matrix" values="0 0 0 0 0.500755 0 0 0 0 0.622039 0 0 0 0 0.862361 0 0 0 1 0"/>
<feBlend mode="normal" in2="BackgroundImageFix" result="effect1_dropShadow_2859_23045"/>
<feBlend mode="normal" in="SourceGraphic" in2="effect1_dropShadow_2859_23045" result="shape"/>
</filter>
</defs>
</svg>
