<svg width="131" height="119" viewBox="0 0 131 119" fill="none" xmlns="http://www.w3.org/2000/svg">
<path d="M78.5437 5.70625C86.928 6.31292 93.233 13.6021 92.6266 21.9864L91.9618 31.1771C91.9539 31.2869 92.0365 31.3823 92.1462 31.3903L101.341 32.0554C109.725 32.6621 116.031 39.9503 115.424 48.3345C114.871 55.9789 108.763 61.8932 101.334 62.4182C101.143 62.4318 100.989 62.5829 100.975 62.774C100.961 62.965 101.093 63.1359 101.28 63.1769C108.555 64.7654 113.749 71.4981 113.196 79.1427C112.589 87.5268 105.301 93.8328 96.9163 93.2266L87.7216 92.5615C87.6118 92.5536 87.5164 92.6361 87.5085 92.7459L86.8432 101.943C86.2368 110.327 78.9484 116.632 70.5641 116.026C62.9192 115.473 57.0039 109.365 56.4795 101.936C56.466 101.745 56.3157 101.589 56.1247 101.575C55.9334 101.561 55.7616 101.694 55.7207 101.881C54.1323 109.157 47.4004 114.349 39.756 113.796C31.3715 113.19 25.0666 105.902 25.673 97.517L26.3382 88.3213C26.3461 88.2116 26.2636 88.1161 26.1538 88.1082L16.9601 87.4432C8.57577 86.8367 2.26999 79.5473 2.87623 71.163C3.43138 63.4888 9.58507 57.5577 17.0527 57.0729C17.2385 57.0606 17.39 56.9148 17.4036 56.7291C17.4171 56.5433 17.2881 56.3764 17.1059 56.3375C9.78584 54.7831 4.54976 48.029 5.10465 40.3549C5.71123 31.9705 13.0004 25.6655 21.3847 26.272L30.5784 26.937C30.6882 26.9449 30.7836 26.8623 30.7916 26.7526L31.4564 17.5608C32.063 9.17639 39.3511 2.87137 47.7356 3.47783C55.4096 4.03309 61.3399 10.1859 61.8248 17.6533C61.8369 17.8394 61.9835 17.9908 62.1695 18.0043C62.3554 18.0176 62.5215 17.8888 62.5602 17.7065C64.1151 10.3869 70.8698 5.15118 78.5437 5.70625Z" fill="#4181FF"/>
<mask id="mask0_2859_34640" style="mask-type:luminance" maskUnits="userSpaceOnUse" x="2" y="3" width="114" height="114">
<path d="M78.5437 5.70625C86.928 6.31292 93.233 13.6021 92.6266 21.9864L91.9618 31.1771C91.9539 31.2869 92.0365 31.3823 92.1462 31.3903L101.341 32.0554C109.725 32.6621 116.031 39.9503 115.424 48.3345C114.871 55.9789 108.763 61.8932 101.334 62.4182C101.143 62.4318 100.989 62.5829 100.975 62.774C100.961 62.965 101.093 63.1359 101.28 63.1769C108.555 64.7654 113.749 71.4981 113.196 79.1427C112.589 87.5268 105.301 93.8328 96.9163 93.2266L87.7216 92.5615C87.6118 92.5536 87.5164 92.6361 87.5085 92.7459L86.8432 101.943C86.2368 110.327 78.9484 116.632 70.5641 116.026C62.9192 115.473 57.0039 109.365 56.4795 101.936C56.466 101.745 56.3157 101.589 56.1247 101.575C55.9334 101.561 55.7616 101.694 55.7207 101.881C54.1323 109.157 47.4004 114.349 39.756 113.796C31.3715 113.19 25.0666 105.902 25.673 97.517L26.3382 88.3213C26.3461 88.2116 26.2636 88.1161 26.1538 88.1082L16.9601 87.4432C8.57577 86.8367 2.26999 79.5473 2.87623 71.163C3.43138 63.4888 9.58507 57.5577 17.0527 57.0729C17.2385 57.0606 17.39 56.9148 17.4036 56.7291C17.4171 56.5433 17.2881 56.3764 17.1059 56.3375C9.78584 54.7831 4.54976 48.029 5.10465 40.3549C5.71123 31.9705 13.0004 25.6655 21.3847 26.272L30.5784 26.937C30.6882 26.9449 30.7836 26.8623 30.7916 26.7526L31.4564 17.5608C32.063 9.17639 39.3511 2.87137 47.7356 3.47783C55.4096 4.03309 61.3399 10.1859 61.8248 17.6533C61.8369 17.8394 61.9835 17.9908 62.1695 18.0043C62.3554 18.0176 62.5215 17.8888 62.5602 17.7065C64.1151 10.3869 70.8698 5.15118 78.5437 5.70625Z" fill="white"/>
</mask>
<g mask="url(#mask0_2859_34640)">
<path d="M101.335 62.4198L101.201 60.5245L101.2 60.5246L101.335 62.4198ZM100.976 62.7756L99.0809 62.6385L99.0808 62.6405L100.976 62.7756ZM101.281 63.1785L100.873 65.0344L100.875 65.0348L101.281 63.1785ZM56.1263 101.576L56.2651 99.6817L56.2633 99.6816L56.1263 101.576ZM17.0543 57.0745L17.1774 58.9705L17.1794 58.9704L17.0543 57.0745ZM17.4052 56.7307L19.3002 56.8698L19.3003 56.8678L17.4052 56.7307ZM17.1075 56.3391L17.504 54.4809L17.5022 54.4806L17.1075 56.3391ZM62.1711 18.0059L62.034 19.9009L62.0357 19.9011L62.1711 18.0059ZM78.5453 5.7079L78.4082 7.60295C85.7457 8.13388 91.2639 14.5131 90.7332 21.8509L92.6282 21.988L94.5233 22.125C95.2054 12.6943 88.1134 4.49526 78.6825 3.81286L78.5453 5.7079ZM92.6282 21.988L90.7332 21.8509L90.0684 31.0417L91.9634 31.1787L93.8585 31.3158L94.5233 22.125L92.6282 21.988ZM92.1478 31.3919L92.0108 33.2869L101.205 33.952L101.342 32.057L101.479 30.1619L92.2849 29.4968L92.1478 31.3919ZM101.342 32.057L101.205 33.952C108.543 34.483 114.061 40.8615 113.53 48.199L115.425 48.3361L117.32 48.4732C118.002 39.0424 110.91 30.8444 101.479 30.1619L101.342 32.057ZM115.425 48.3361L113.53 48.199C113.046 54.8872 107.701 60.0652 101.201 60.5245L101.335 62.4198L101.469 64.315C109.826 63.7245 116.698 57.0738 117.32 48.4732L115.425 48.3361ZM101.335 62.4198L101.2 60.5246C100.09 60.604 99.1646 61.4827 99.0809 62.6385L100.976 62.7756L102.871 62.9127C102.815 63.6862 102.199 64.2629 101.471 64.3149L101.335 62.4198ZM100.976 62.7756L99.0808 62.6405C98.9982 63.799 99.7912 64.797 100.873 65.0344L101.281 63.1785L101.688 61.3226C102.396 61.478 102.926 62.1341 102.871 62.9107L100.976 62.7756ZM101.281 63.1785L100.875 65.0348C107.241 66.4246 111.786 72.3188 111.302 79.0072L113.197 79.1443L115.092 79.2814C115.714 70.6807 109.871 63.1093 101.686 61.3222L101.281 63.1785ZM113.197 79.1443L111.302 79.0072C110.771 86.3449 104.392 91.8636 97.0549 91.3331L96.9179 93.2282L96.7808 95.1232C106.211 95.8051 114.41 88.7119 115.092 79.2814L113.197 79.1443ZM96.9179 93.2282L97.0549 91.3331L87.8603 90.6681L87.7232 92.5631L87.5861 94.4582L96.7808 95.1232L96.9179 93.2282ZM87.5101 92.7475L85.615 92.6105L84.9498 101.807L86.8448 101.944L88.7399 102.081L89.4051 92.8846L87.5101 92.7475ZM86.8448 101.944L84.9498 101.807C84.419 109.144 78.0405 114.662 70.7027 114.132L70.5657 116.027L70.4286 117.922C79.8594 118.604 88.0577 111.512 88.7399 102.081L86.8448 101.944ZM70.5657 116.027L70.7027 114.132C64.0138 113.648 58.8352 108.303 58.3763 101.803L56.4811 101.937L54.5858 102.071C55.1758 110.429 61.8277 117.3 70.4286 117.922L70.5657 116.027ZM56.4811 101.937L58.3763 101.803C58.2985 100.701 57.4289 99.767 56.2651 99.6817L56.1263 101.576L55.9875 103.471C55.2058 103.414 54.6366 102.79 54.5858 102.071L56.4811 101.937ZM56.1263 101.576L56.2633 99.6816C55.1022 99.5976 54.1025 100.393 53.866 101.477L55.7223 101.882L57.5786 102.287C57.4239 102.996 56.7679 103.528 55.9892 103.471L56.1263 101.576ZM55.7223 101.882L53.866 101.477C52.4762 107.843 46.583 112.386 39.8946 111.902L39.7576 113.797L39.6205 115.692C48.221 116.314 55.7915 110.473 57.5786 102.287L55.7223 101.882ZM39.7576 113.797L39.8946 111.902C32.5567 111.372 27.0389 104.993 27.5697 97.6557L25.6746 97.5186L23.7796 97.3815C23.0974 106.812 30.1895 115.01 39.6205 115.692L39.7576 113.797ZM25.6746 97.5186L27.5697 97.6557L28.2348 88.46L26.3398 88.323L24.4447 88.1859L23.7796 97.3815L25.6746 97.5186ZM26.1554 88.1098L26.2925 86.2147L17.0988 85.5497L16.9617 87.4448L16.8246 89.3399L26.0183 90.0048L26.1554 88.1098ZM16.9617 87.4448L17.0988 85.5497C9.76114 85.019 4.24236 78.6394 4.77293 71.3017L2.87788 71.1646L0.982832 71.0275C0.30092 80.4583 7.39369 88.6577 16.8246 89.3399L16.9617 87.4448ZM2.87788 71.1646L4.77293 71.3017C5.25866 64.5873 10.6435 59.3947 17.1774 58.9705L17.0543 57.0745L16.9312 55.1785C8.52991 55.7239 1.60742 62.3935 0.982832 71.0275L2.87788 71.1646ZM17.0543 57.0745L17.1794 58.9704C18.2794 58.8978 19.215 58.0314 19.3002 56.8698L17.4052 56.7307L15.5103 56.5917C15.5683 55.8015 16.2008 55.2267 16.9292 55.1786L17.0543 57.0745ZM17.4052 56.7307L19.3003 56.8678C19.3841 55.7089 18.5868 54.712 17.504 54.4809L17.1075 56.3391L16.711 58.1973C15.9927 58.044 15.4533 57.3809 15.5102 56.5937L17.4052 56.7307ZM17.1075 56.3391L17.5022 54.4806C11.0973 53.1205 6.51587 47.2077 7.00135 40.4935L5.1063 40.3565L3.21125 40.2193C2.58695 48.8534 8.47766 56.4489 16.7129 58.1977L17.1075 56.3391ZM5.1063 40.3565L7.00135 40.4935C7.53221 33.1558 13.9114 27.6378 21.2493 28.1686L21.3863 26.2736L21.5234 24.3785C12.0926 23.6964 3.89356 30.7883 3.21125 40.2193L5.1063 40.3565ZM21.3863 26.2736L21.2493 28.1686L30.443 28.8336L30.58 26.9386L30.7171 25.0435L21.5234 24.3785L21.3863 26.2736ZM30.7932 26.7542L32.6882 26.8912L33.3531 17.6995L31.458 17.5624L29.563 17.4253L28.8981 26.6171L30.7932 26.7542ZM31.458 17.5624L33.3531 17.6995C33.8839 10.3617 40.2623 4.84377 47.6001 5.37453L47.7372 3.47948L47.8743 1.58444C38.4433 0.90227 30.2452 7.99438 29.563 17.4253L31.458 17.5624ZM47.7372 3.47948L47.6001 5.37453C54.3144 5.86034 59.5061 11.2443 59.9304 17.778L61.8264 17.6549L63.7224 17.5318C63.1768 9.13065 56.5081 2.20914 47.8743 1.58444L47.7372 3.47948ZM61.8264 17.6549L59.9304 17.778C60.0023 18.8861 60.8766 19.8172 62.034 19.9009L62.1711 18.0059L62.3082 16.1108C63.0936 16.1677 63.6746 16.7959 63.7224 17.5318L61.8264 17.6549ZM62.1711 18.0059L62.0357 19.9011C63.1965 19.984 64.1906 19.1842 64.4203 18.1029L62.5618 17.7081L60.7033 17.3133C60.8555 16.5966 61.5175 16.0543 62.3065 16.1107L62.1711 18.0059ZM62.5618 17.7081L64.4203 18.1029C65.7808 11.6985 71.6941 7.11731 78.4082 7.60295L78.5453 5.7079L78.6825 3.81286C70.0488 3.18837 62.4526 9.07852 60.7033 17.3133L62.5618 17.7081ZM30.58 26.9386L30.443 28.8336C31.5993 28.9172 32.6046 28.0476 32.6882 26.8912L30.7932 26.7542L28.8981 26.6171C28.9659 25.6803 29.7803 24.9757 30.7171 25.0435L30.58 26.9386ZM26.3398 88.323L28.2348 88.46C28.3185 87.3036 27.4488 86.2984 26.2925 86.2147L26.1554 88.1098L26.0183 90.0048C25.0815 89.9371 24.377 89.1227 24.4447 88.1859L26.3398 88.323ZM87.7232 92.5631L87.8603 90.6681C86.7039 90.5844 85.6986 91.4541 85.615 92.6105L87.5101 92.7475L89.4051 92.8846C89.3373 93.8214 88.523 94.5259 87.5861 94.4582L87.7232 92.5631ZM91.9634 31.1787L90.0684 31.0417C89.9848 32.1981 90.8544 33.2033 92.0108 33.2869L92.1478 31.3919L92.2849 29.4968C93.2217 29.5646 93.9263 30.379 93.8585 31.3158L91.9634 31.1787Z" fill="#1F1F1F"/>
</g>
<path d="M38.728 49.0875C40.6853 49.2441 42.4948 46.9824 42.7698 44.0357C43.0447 41.089 41.6809 38.5732 39.7236 38.4165C37.7664 38.2598 35.9568 40.5216 35.6819 43.4683C35.407 46.415 36.7708 48.9308 38.728 49.0875Z" fill="#1F1F1F"/>
<path d="M38.1424 42.9423C38.5769 42.9799 38.9738 42.4945 39.0288 41.8583C39.0838 41.2221 38.7761 40.6759 38.3415 40.6383C37.907 40.6008 37.5101 41.0861 37.4551 41.7223C37.4001 42.3586 37.7078 42.9048 38.1424 42.9423Z" fill="#FAFAFC"/>
<path d="M51.8356 57.0863L47.3764 57.1566C46.1507 57.176 45.2764 58.3519 45.6109 59.5312C46.3679 62.2002 48.5595 63.2792 51.2309 63.7112C52.7291 63.9535 54.2555 63.7285 55.7155 63.3144C56.9723 62.9579 58.1971 62.4569 59.2328 61.6608C61.6963 59.7672 62.7947 57.7414 61.9946 54.9206C61.6579 53.7336 60.278 53.1996 59.2301 53.8509L55.9881 55.8656C54.7401 56.6412 53.3048 57.0631 51.8356 57.0863Z" fill="#1F1F1F" stroke="#1F1F1F" stroke-width="1.9" stroke-linecap="round"/>
<mask id="mask1_2859_34640" style="mask-type:alpha" maskUnits="userSpaceOnUse" x="44" y="52" width="20" height="13">
<path d="M51.8355 57.0863L47.3764 57.1566C46.1507 57.176 45.2764 58.3519 45.6109 59.5312C46.3679 62.2002 48.5595 63.2792 51.2309 63.7112C52.729 63.9535 54.2554 63.7285 55.7155 63.3144C56.9722 62.9579 58.1971 62.4569 59.2328 61.6608C61.6963 59.7672 62.7947 57.7414 61.9946 54.9206C61.6579 53.7336 60.278 53.1996 59.23 53.8509L55.9881 55.8656C54.74 56.6412 53.3047 57.0631 51.8355 57.0863Z" fill="black" stroke="black" stroke-width="1.9" stroke-linecap="round"/>
</mask>
<g mask="url(#mask1_2859_34640)">
<path d="M57.1216 67.7826C61.1855 66.6299 63.9768 63.9216 63.3561 61.7333C62.7355 59.5451 58.9379 58.7056 54.874 59.8582C50.8101 61.0109 48.0188 63.7192 48.6394 65.9075C49.2601 68.0958 53.0577 68.9353 57.1216 67.7826Z" fill="#FF875F"/>
</g>
<path d="M44.6944 59.7883C44.1896 58.0086 45.509 56.234 47.3586 56.2046L51.818 56.1335C53.1151 56.1131 54.3826 55.7408 55.4845 55.056L58.7257 53.0414C60.3101 52.0568 62.3964 52.864 62.9057 54.6585C63.3575 56.2517 63.2881 57.6938 62.7049 59.0184C62.1332 60.3166 61.1067 61.4134 59.8088 62.411C58.6416 63.3082 57.2907 63.8521 55.972 64.2261C54.4404 64.6605 52.7636 64.919 51.0766 64.6462C48.2616 64.1909 45.6015 62.9856 44.6944 59.7883Z" stroke="#1F1F1F" stroke-width="1.9" stroke-linecap="round"/>
<path d="M22.7718 102.159C22.777 102.491 22.3567 102.639 22.1528 102.377L17.8047 96.7773L22.6515 95.0703L22.7718 102.159Z" fill="#ABC8FC" stroke="#1F1F1F" stroke-width="1.9"/>
<path d="M22.6516 95.0703L22.7715 102.158C22.777 102.49 22.3564 102.638 22.1525 102.376L17.8047 96.7773L22.6516 95.0703Z" fill="#BFE6ED" stroke="#1F1F1F" stroke-width="1.9"/>
<path d="M22.7979 101.987C22.7889 102.357 22.2634 102.542 22.0248 102.259L20.4141 100.354L22.8588 99.4922L22.7979 101.987Z" fill="#ABC8FC"/>
<mask id="mask2_2859_34640" style="mask-type:luminance" maskUnits="userSpaceOnUse" x="20" y="99" width="3" height="4">
<path d="M22.7979 101.987C22.7889 102.357 22.2634 102.542 22.0248 102.259L20.4141 100.354L22.8588 99.4922L22.7979 101.987Z" fill="white"/>
</mask>
<g mask="url(#mask2_2859_34640)">
<path d="M20.4165 100.35L19.7853 98.5573L17.1875 99.4722L18.9653 101.576L20.4165 100.35ZM22.8612 99.4883L24.7607 99.5348L24.8279 96.7812L22.2301 97.6963L22.8612 99.4883ZM22.0272 102.255L23.4784 101.029L21.8677 99.1228L20.4165 100.35L18.9653 101.576L20.576 103.482L22.0272 102.255ZM20.4165 100.35L21.0477 102.142L23.4924 101.281L22.8612 99.4883L22.2301 97.6963L19.7853 98.5573L20.4165 100.35ZM22.8612 99.4883L20.9618 99.4419L20.9009 101.937L22.8003 101.983L24.6997 102.03L24.7607 99.5348L22.8612 99.4883ZM22.0272 102.255L20.576 103.482C21.3329 104.377 22.4313 104.402 23.131 104.156C23.8307 103.909 24.6711 103.202 24.6997 102.03L22.8003 101.983L20.9009 101.937C20.9205 101.134 21.4936 100.704 21.8687 100.572C22.2438 100.44 22.9601 100.416 23.4784 101.029L22.0272 102.255Z" fill="#1F1F1F"/>
</g>
<path d="M6.45467 56.8083C7.98501 56.2694 9.66304 57.0726 10.2021 58.6029L22.6867 94.0517C22.75 94.2318 22.6547 94.4295 22.4746 94.4929L17.5853 96.2149C17.4052 96.2783 17.208 96.1836 17.1444 96.0036L4.65978 60.5548C4.12091 59.0245 4.92441 57.3473 6.45467 56.8083Z" fill="#BFE6ED" stroke="#1F1F1F" stroke-width="1.9"/>
<path d="M6.45467 56.8083C7.98501 56.2694 9.66304 57.0726 10.2021 58.6029L13.3307 67.486L7.7883 69.438L4.65978 60.5548C4.12091 59.0245 4.92442 57.3473 6.45467 56.8083Z" fill="#0F3E9A" stroke="#1F1F1F" stroke-width="1.9"/>
<path d="M18.1635 73.9444C20.5191 74.8871 20.4555 77.7765 19.4817 78.8441C22.025 80.0965 21.6384 82.7341 20.7619 83.7601C22.4277 83.8992 24.2805 86.3071 20.9874 88.7376C15.9459 92.4584 10.1985 91.7979 7.7502 84.2597C5.30183 76.7216 13.9238 72.2477 18.1635 73.9444Z" fill="#FAFAFC"/>
<path d="M19.4817 78.8441C20.4555 77.7765 20.5191 74.8871 18.1635 73.9444C13.9238 72.2477 5.30183 76.7216 7.7502 84.2597C10.1985 91.7979 15.9459 92.4584 20.9874 88.7376C24.2805 86.3071 22.4277 83.8992 20.7619 83.7601M19.4817 78.8441C22.025 80.0965 21.6384 82.7341 20.7619 83.7601M19.4817 78.8441C18.4925 78.3571 16.1371 78.3251 13.4514 80.2562M20.7619 83.7601C19.5145 83.6559 17.9343 84.1591 16.5127 85.5802" stroke="#1F1F1F" stroke-width="1.9" stroke-linecap="round"/>
<path d="M4.42969 15.5306C7.61714 14.1448 14.9899 13.2024 18.9811 20.5197" stroke="#1F1F1F" stroke-width="1.9" stroke-linecap="round"/>
<path d="M105.792 18.9722C105.625 15.1253 107.297 7.3311 115.326 6.92969" stroke="#1F1F1F" stroke-width="1.9" stroke-linecap="round"/>
<path d="M110.805 24.1989C113.147 21.5228 119.436 17.3748 125.858 22.1918" stroke="#1F1F1F" stroke-width="1.9" stroke-linecap="round"/>
<path d="M124.391 65.8602C125.47 65.8602 126.345 64.9856 126.345 63.9067C126.345 62.8278 125.47 61.9531 124.391 61.9531C123.312 61.9531 122.438 62.8278 122.438 63.9067C122.438 64.9856 123.312 65.8602 124.391 65.8602Z" fill="#BFE6ED" stroke="#1F1F1F" stroke-width="1.9"/>
<path d="M23.391 4.86021C24.47 4.86021 25.3446 3.98558 25.3446 2.90666C25.3446 1.82775 24.47 0.953125 23.391 0.953125C22.3121 0.953125 21.4375 1.82775 21.4375 2.90666C21.4375 3.98558 22.3121 4.86021 23.391 4.86021Z" fill="#9CBEFF" stroke="#1F1F1F" stroke-width="1.9"/>
<path d="M127.391 39.8602C128.47 39.8602 129.345 38.9856 129.345 37.9067C129.345 36.8278 128.47 35.9531 127.391 35.9531C126.312 35.9531 125.438 36.8278 125.438 37.9067C125.438 38.9856 126.312 39.8602 127.391 39.8602Z" fill="#FFB69E" stroke="#1F1F1F" stroke-width="1.9"/>
<path d="M56.7334 42.558C54.3407 41.9917 50.9792 43.0753 49.0842 44.7377C48.5293 45.2245 48.9124 45.9663 49.6506 45.9578C51.4818 45.9369 53.7364 46.0647 55.8376 48.4695" stroke="#1F1F1F" stroke-width="1.9" stroke-linecap="round"/>
<path d="M67.2209 68.8912C68.5269 68.1343 70.222 68.4185 71.1094 69.6333L72.675 68.726C74.3952 67.7293 76.6406 68.2031 77.6465 69.9386L78.7728 71.882L64.0735 80.4006L62.9473 78.4573C61.9415 76.7216 62.6468 74.5378 64.3668 73.5408L65.9325 72.6335C65.3197 71.2597 65.9152 69.6482 67.2209 68.8912Z" fill="#1F5BD2" stroke="#1F1F1F" stroke-width="1.9"/>
<path d="M80.61 68.5123L60.3822 80.235C59.8691 80.5324 59.6942 81.1894 59.9916 81.7026L75.1475 107.855C75.4449 108.368 76.102 108.543 76.6151 108.245L96.8429 96.5226C97.3561 96.2252 97.531 95.5682 97.2336 95.055L82.0776 68.903C81.7802 68.3898 81.1232 68.2149 80.61 68.5123Z" fill="#BFE6ED" stroke="#1F1F1F" stroke-width="1.9"/>
<path d="M89.4817 71.1176C93.8744 78.7083 86.5641 82.0003 82.5 82.4518L85.0127 87.9798C87.6929 87.1422 93.7569 85.1656 96.5711 79.9391C98.9712 75.4819 96.5465 69.855 93.5988 66.7367C92.7411 65.8294 91.3613 65.8235 90.3225 66.516C88.831 67.5104 88.5839 69.5661 89.4817 71.1176Z" fill="#FAFAFC" stroke="#1F1F1F" stroke-width="1.9" stroke-linecap="round"/>
<path d="M82.501 79.9334C85.0132 78.9287 86.4286 80.96 87.0232 82.4465C88.7398 86.738 87.2805 88.8305 86.0872 89.3502C85.7526 89.496 85.4094 89.6814 85.2049 89.9836C84.1032 91.6112 81.4534 94.2866 77.4749 95.01C73.0524 95.814 71.9469 93.3348 71.947 91.9947C69.5348 91.1907 69.2666 88.9795 69.4341 87.9744C68.5965 87.8069 67.0219 86.9693 67.4239 84.9592C67.8259 82.949 70.9419 83.0707 72.6818 83.0181C72.1796 82.013 71.9472 78.9287 75.968 77.923C79.668 76.9976 81.831 78.7607 82.501 79.9334Z" fill="#FAFAFC"/>
<path d="M82.501 79.9334C85.0132 78.9287 86.4286 80.96 87.0232 82.4465C88.7398 86.738 87.2805 88.8305 86.0872 89.3502C85.7526 89.496 85.4094 89.6814 85.2049 89.9836C84.1032 91.6112 81.4534 94.2866 77.4749 95.01C73.0524 95.814 71.9469 93.3348 71.947 91.9947M82.501 79.9334C81.831 78.7607 79.668 76.9976 75.968 77.923C71.9472 78.9287 72.1796 82.013 72.6818 83.0181M82.501 79.9334C82.6684 80.2685 83.0031 81.1399 83.0031 81.9439M71.947 91.9947C69.5348 91.1907 69.2666 88.9795 69.4341 87.9744M71.947 91.9947C72.45 92.1622 74.9623 92.575 76.431 91.2791M72.6818 83.0181C70.9419 83.0707 67.8259 82.949 67.4239 84.9592C67.0219 86.9693 68.5965 87.8069 69.4341 87.9744M72.6818 83.0181C73.442 82.995 75.4648 82.748 77.4749 81.9439M69.4341 87.9744C70.9174 88.2711 73.1912 88.6872 75.1351 87.3912" stroke="#1F1F1F" stroke-width="1.9" stroke-linecap="round"/>
</svg>
