<svg width="118" height="118" viewBox="0 0 118 118" fill="none" xmlns="http://www.w3.org/2000/svg">
<path d="M47.6134 2.86835C55.268 3.42237 61.1836 9.56027 61.667 17.0089C61.679 17.1942 61.8247 17.3454 62.0098 17.3588C62.195 17.3722 62.3609 17.2435 62.3995 17.0619C63.9499 9.76029 70.6878 4.53835 78.3426 5.09204C86.7054 5.69726 92.9952 12.9666 92.3904 21.3294L91.7274 30.4964C91.7194 30.6059 91.8018 30.701 91.9113 30.709L101.081 31.3722C109.444 31.9772 115.734 39.2476 115.129 47.6106C114.577 55.2352 108.485 61.1348 101.076 61.6588C100.885 61.6724 100.73 61.8228 100.716 62.0136C100.703 62.2044 100.834 62.3746 101.021 62.4156C108.278 64.0003 113.457 70.7161 112.906 78.3409C112.301 86.7038 105.031 92.9925 96.6678 92.3876L87.4979 91.7244C87.3884 91.7164 87.2932 91.7988 87.2853 91.9083L86.6218 101.082C86.0168 109.445 78.7462 115.734 70.3834 115.13C62.7578 114.578 56.8573 108.485 56.3344 101.075C56.3209 100.884 56.1708 100.73 55.9804 100.716C55.7901 100.702 55.6193 100.834 55.5785 101.02C53.9946 108.278 47.2793 113.458 39.6541 112.907C31.291 112.302 25.0015 105.032 25.6064 96.6686L26.2699 87.4949C26.2778 87.3854 26.1955 87.2902 26.086 87.2823L16.9152 86.619C8.55232 86.0139 2.26365 78.7445 2.86832 70.3816C3.4221 62.727 9.55938 56.8106 17.008 56.327C17.1935 56.3149 17.3445 56.1696 17.3579 55.9842C17.3712 55.7988 17.2428 55.6332 17.061 55.5945C9.75934 54.0442 4.53669 47.306 5.09013 39.6513C5.69516 31.2883 12.9655 24.9987 21.3286 25.6036L30.4994 26.2669C30.6089 26.2748 30.7041 26.1925 30.712 26.083L31.375 16.9161C31.98 8.55297 39.2503 2.26343 47.6134 2.86835Z" fill="#4181FF"/>
<mask id="mask0_2859_34541" style="mask-type:luminance" maskUnits="userSpaceOnUse" x="2" y="2" width="114" height="114">
<path d="M47.6134 2.86835C55.268 3.42237 61.1836 9.56027 61.667 17.0089C61.679 17.1942 61.8247 17.3454 62.0098 17.3588C62.195 17.3722 62.3609 17.2435 62.3995 17.0619C63.9499 9.76029 70.6878 4.53835 78.3426 5.09204C86.7054 5.69726 92.9952 12.9666 92.3904 21.3294L91.7274 30.4964C91.7194 30.6059 91.8018 30.701 91.9113 30.709L101.081 31.3722C109.444 31.9772 115.734 39.2476 115.129 47.6106C114.577 55.2352 108.485 61.1348 101.076 61.6588C100.885 61.6724 100.73 61.8228 100.716 62.0136C100.703 62.2044 100.834 62.3746 101.021 62.4156C108.278 64.0003 113.457 70.7161 112.906 78.3409C112.301 86.7038 105.031 92.9925 96.6678 92.3876L87.4979 91.7244C87.3884 91.7164 87.2932 91.7988 87.2853 91.9083L86.6218 101.082C86.0168 109.445 78.7462 115.734 70.3834 115.13C62.7578 114.578 56.8573 108.485 56.3344 101.075C56.3209 100.884 56.1708 100.73 55.9804 100.716C55.7901 100.702 55.6193 100.834 55.5785 101.02C53.9946 108.278 47.2793 113.458 39.6541 112.907C31.291 112.302 25.0015 105.032 25.6064 96.6686L26.2699 87.4949C26.2778 87.3854 26.1955 87.2902 26.086 87.2823L16.9152 86.619C8.55232 86.0139 2.26365 78.7445 2.86832 70.3816C3.4221 62.727 9.55938 56.8106 17.008 56.327C17.1935 56.3149 17.3445 56.1696 17.3579 55.9842C17.3712 55.7988 17.2428 55.6332 17.061 55.5945C9.75934 54.0442 4.53669 47.306 5.09013 39.6513C5.69516 31.2883 12.9655 24.9987 21.3286 25.6036L30.4994 26.2669C30.6089 26.2748 30.7041 26.1925 30.712 26.083L31.375 16.9161C31.98 8.55297 39.2503 2.26343 47.6134 2.86835Z" fill="white"/>
</mask>
<g mask="url(#mask0_2859_34541)">
<path d="M101.078 61.6604L100.944 59.7652L100.942 59.7653L101.078 61.6604ZM100.718 62.0153L98.8228 61.8783L98.8227 61.8796L100.718 62.0153ZM101.023 62.4173L100.616 64.2732L100.618 64.2735L101.023 62.4173ZM56.336 101.077L58.2313 100.943L58.2312 100.942L56.336 101.077ZM55.5801 101.022L53.724 100.616L53.7238 100.617L55.5801 101.022ZM17.3595 55.9859L19.2545 56.1229L19.2546 56.1217L17.3595 55.9859ZM47.615 2.86999L47.4779 4.76504C54.1726 5.24958 59.3498 10.6187 59.7726 17.1337L61.6686 17.0106L63.5646 16.8876C63.0206 8.50515 56.3665 1.59843 47.7522 0.974951L47.615 2.86999ZM61.6686 17.0106L59.7726 17.1337C59.8441 18.2359 60.7127 19.1714 61.8742 19.2555L62.0114 17.3605L62.1487 15.4654C62.9398 15.5227 63.5171 16.1559 63.5646 16.8876L61.6686 17.0106ZM62.0114 17.3605L61.8742 19.2555C63.036 19.3396 64.0303 18.5384 64.2596 17.4582L62.4011 17.0636L60.5425 16.6689C60.6947 15.9519 61.3572 15.4082 62.1487 15.4654L62.0114 17.3605ZM62.4011 17.0636L64.2596 17.4582C65.6157 11.0721 71.512 6.50445 78.2072 6.98873L78.3442 5.09368L78.4814 3.19864C69.867 2.57554 62.2873 8.45182 60.5425 16.6689L62.4011 17.0636ZM78.3442 5.09368L78.2072 6.98873C85.5236 7.51823 91.026 13.8781 90.497 21.1941L92.392 21.3311L94.2871 21.4682C94.9675 12.0586 87.8905 3.87959 78.4814 3.19864L78.3442 5.09368ZM92.392 21.3311L90.497 21.1941L89.8339 30.361L91.729 30.4981L93.624 30.6351L94.2871 21.4682L92.392 21.3311ZM91.9129 30.7107L91.7758 32.6057L100.946 33.269L101.083 31.3739L101.22 29.4789L92.05 28.8156L91.9129 30.7107ZM101.083 31.3739L100.946 33.269C108.262 33.7982 113.765 40.1587 113.236 47.4753L115.131 47.6123L117.026 47.7495C117.706 38.3399 110.63 30.1595 101.22 29.4789L101.083 31.3739ZM115.131 47.6123L113.236 47.4753C112.753 54.1437 107.424 59.3069 100.944 59.7652L101.078 61.6604L101.212 63.5557C109.55 62.9661 116.405 56.3301 117.026 47.7495L115.131 47.6123ZM101.078 61.6604L100.942 59.7653C99.8381 59.8442 98.9068 60.7169 98.8228 61.8783L100.718 62.0153L102.613 62.1524C102.557 62.9321 101.935 63.504 101.213 63.5556L101.078 61.6604ZM100.718 62.0153L98.8227 61.8796C98.7393 63.0448 99.5399 64.0372 100.616 64.2732L101.023 62.4173L101.43 60.5614C102.132 60.7154 102.67 61.3673 102.613 62.1511L100.718 62.0153ZM101.023 62.4173L100.618 64.2735C106.965 65.6595 111.495 71.5366 111.013 78.2054L112.908 78.3425L114.803 78.4796C115.424 69.8988 109.595 62.3444 101.428 60.561L101.023 62.4173ZM112.908 78.3425L111.013 78.2054C110.484 85.5216 104.123 91.0234 96.8064 90.4942L96.6694 92.3893L96.5323 94.2843C105.942 94.965 114.122 87.8892 114.803 78.4796L112.908 78.3425ZM96.6694 92.3893L96.8064 90.4942L87.6366 89.8309L87.4995 91.7261L87.3625 93.621L96.5323 94.2843L96.6694 92.3893ZM87.2869 91.91L85.3919 91.7729L84.7283 100.947L86.6234 101.084L88.5184 101.221L89.182 92.0471L87.2869 91.91ZM86.6234 101.084L84.7283 100.947C84.1991 108.263 77.8383 113.766 70.522 113.237L70.385 115.132L70.2479 117.027C79.6572 117.707 87.8378 110.631 88.5184 101.221L86.6234 101.084ZM70.385 115.132L70.522 113.237C63.8526 112.754 58.6887 107.424 58.2313 100.943L56.336 101.077L54.4407 101.21C55.0292 109.55 61.6662 116.406 70.2479 117.027L70.385 115.132ZM56.336 101.077L58.2312 100.942C58.1527 99.836 57.2782 98.9066 56.1191 98.8227L55.982 100.718L55.8449 102.613C55.0665 102.557 54.4922 101.936 54.4408 101.211L56.336 101.077ZM55.982 100.718L56.1191 98.8227C54.9602 98.739 53.9608 99.5326 53.724 100.616L55.5801 101.022L57.4363 101.428C57.281 102.138 56.6231 102.669 55.8449 102.613L55.982 100.718ZM55.5801 101.022L53.7238 100.617C52.3384 106.965 46.4617 111.496 39.7927 111.014L39.6557 112.909L39.5186 114.804C48.1 115.424 55.6539 109.594 57.4364 101.427L55.5801 101.022ZM39.6557 112.909L39.7927 111.014C32.4762 110.485 26.9738 104.124 27.503 96.8074L25.608 96.6702L23.7129 96.5332C23.0323 105.943 30.1089 114.123 39.5186 114.804L39.6557 112.909ZM25.608 96.6702L27.503 96.8074L28.1666 87.6337L26.2715 87.4966L24.3765 87.3595L23.7129 96.5332L25.608 96.6702ZM26.0876 87.284L26.2247 85.3889L17.0539 84.7255L16.9168 86.6207L16.7797 88.5156L25.9505 89.179L26.0876 87.284ZM16.9168 86.6207L17.0539 84.7255C9.73767 84.1963 4.23602 77.8365 4.76502 70.5202L2.86997 70.3832L0.97492 70.2461C0.294582 79.6555 7.37027 87.8348 16.7797 88.5156L16.9168 86.6207ZM2.86997 70.3832L4.76502 70.5202C5.24938 63.8252 10.618 58.6477 17.1327 58.2247L17.0096 56.3287L16.8865 54.4327C8.50403 54.9769 1.59813 61.6318 0.97492 70.2461L2.86997 70.3832ZM17.0096 56.3287L17.1327 58.2247C18.2341 58.153 19.1705 57.2854 19.2545 56.1229L17.3595 55.9859L15.4644 55.8488C15.5217 55.0572 16.1561 54.4803 16.8865 54.4327L17.0096 56.3287ZM17.3595 55.9859L19.2546 56.1217C19.3378 54.9616 18.5385 53.9673 17.4573 53.7377L17.0626 55.5962L16.6679 57.4548C15.9502 57.3023 15.4077 56.6395 15.4644 55.8499L17.3595 55.9859ZM17.0626 55.5962L17.4573 53.7377C11.0711 52.3817 6.50278 46.485 6.98683 39.79L5.09178 39.653L3.19673 39.5159C2.57391 48.1302 8.45086 55.71 16.6679 57.4548L17.0626 55.5962ZM5.09178 39.653L6.98683 39.79C7.51615 32.4736 13.8767 26.9711 21.1931 27.5003L21.3302 25.6053L21.4672 23.7102C12.0576 23.0296 3.87748 30.1063 3.19673 39.5159L5.09178 39.653ZM21.3302 25.6053L21.1931 27.5003L30.3639 28.1637L30.501 26.2686L30.638 24.3736L21.4672 23.7102L21.3302 25.6053ZM30.7136 26.0847L32.6086 26.2218L33.2717 17.0548L31.3766 16.9178L29.4816 16.7807L28.8185 25.9476L30.7136 26.0847ZM31.3766 16.9178L33.2717 17.0548C33.8009 9.73829 40.1614 4.23582 47.4779 4.76504L47.615 2.86999L47.7522 0.974951C38.3425 0.294324 30.1622 7.37094 29.4816 16.7807L31.3766 16.9178ZM30.501 26.2686L30.3639 28.1637C31.52 28.2473 32.525 27.3779 32.6086 26.2218L30.7136 26.0847L28.8185 25.9476C28.8863 25.0105 29.7009 24.3058 30.638 24.3736L30.501 26.2686ZM26.2715 87.4966L28.1666 87.6337C28.2502 86.4776 27.3808 85.4725 26.2247 85.3889L26.0876 87.284L25.9505 89.179C25.0134 89.1112 24.3087 88.2967 24.3765 87.3595L26.2715 87.4966ZM87.4995 91.7261L87.6366 89.8309C86.4805 89.7473 85.4755 90.6168 85.3919 91.7729L87.2869 91.91L89.182 92.0471C89.1142 92.9842 88.2996 93.6889 87.3625 93.621L87.4995 91.7261ZM91.729 30.4981L89.8339 30.361C89.7503 31.5171 90.6197 32.5221 91.7758 32.6057L91.9129 30.7107L92.05 28.8156C92.9871 28.8834 93.6918 29.698 93.624 30.6351L91.729 30.4981Z" fill="#1F1F1F"/>
</g>
<path d="M50.398 49.3015C52.3485 49.4577 54.152 47.2015 54.4262 44.2623C54.7004 41.3231 53.3416 38.8139 51.3911 38.6577C49.4406 38.5016 47.6371 40.7577 47.3629 43.6969C47.0886 46.6361 48.4475 49.1454 50.398 49.3015Z" fill="#1F1F1F"/>
<path d="M38.6278 48.3643C40.5801 48.5206 42.385 46.2645 42.6592 43.3253C42.9335 40.3861 41.5731 37.8768 39.6208 37.7205C37.6686 37.5642 35.8636 39.8202 35.5894 42.7594C35.3152 45.6986 36.6755 48.208 38.6278 48.3643Z" fill="#1F1F1F"/>
<path d="M38.0393 42.2332C38.4728 42.2706 38.8686 41.7865 38.9235 41.1519C38.9783 40.5173 38.6714 39.9725 38.2379 39.935C37.8045 39.8976 37.4087 40.3816 37.3538 41.0163C37.299 41.6509 37.6059 42.1957 38.0393 42.2332Z" fill="#FAFAFC"/>
<path d="M49.8128 43.2488C50.2462 43.2863 50.6421 42.8022 50.6969 42.1675C50.7517 41.5329 50.4448 40.9881 50.0114 40.9506C49.5779 40.9132 49.1821 41.3973 49.1273 42.0319C49.0724 42.6665 49.3793 43.2113 49.8128 43.2488Z" fill="#FAFAFC"/>
<path d="M51.7024 56.3352L47.2546 56.4053C46.032 56.4246 45.1599 57.5976 45.4936 58.7739C46.2486 61.4361 48.4347 62.5123 51.0992 62.9432C52.5936 63.1849 54.1161 62.9605 55.5724 62.5474C56.826 62.1919 58.0477 61.6921 59.0808 60.898C61.538 59.0092 62.6336 56.9886 61.8355 54.175C61.4997 52.991 60.1233 52.4584 59.078 53.108L55.8443 55.1176C54.5995 55.8912 53.1678 56.312 51.7024 56.3352Z" fill="#1F1F1F" stroke="#1F1F1F" stroke-width="1.9" stroke-linecap="round"/>
<mask id="mask1_2859_34541" style="mask-type:alpha" maskUnits="userSpaceOnUse" x="44" y="51" width="20" height="13">
<path d="M51.7024 56.3352L47.2547 56.4053C46.0321 56.4246 45.16 57.5976 45.4936 58.7739C46.2487 61.4361 48.4348 62.5123 51.0993 62.9432C52.5937 63.1849 54.1162 62.9605 55.5725 62.5474C56.8261 62.1919 58.0478 61.6921 59.0808 60.898C61.5381 59.0092 62.6336 56.9886 61.8356 54.175C61.4998 52.991 60.1234 52.4584 59.0781 53.108L55.8444 55.1176C54.5996 55.8912 53.1679 56.312 51.7024 56.3352Z" fill="black" stroke="black" stroke-width="1.9" stroke-linecap="round"/>
</mask>
<g mask="url(#mask1_2859_34541)">
<path d="M56.98 67.0021C61.0335 65.8524 63.8177 63.1509 63.1986 60.9682C62.5795 58.7856 58.7916 57.9482 54.7381 59.0979C50.6845 60.2476 47.9003 62.9491 48.5194 65.1318C49.1385 67.3145 52.9264 68.1518 56.98 67.0021Z" fill="#FF875F"/>
</g>
<path d="M44.577 59.0385C44.0731 57.2618 45.3902 55.4895 47.2367 55.4601L51.6852 55.3901C52.9784 55.3696 54.2418 54.9984 55.3403 54.3158L58.5739 52.3064C60.1556 51.3234 62.2385 52.1289 62.7469 53.9204C63.1978 55.5101 63.1277 56.9494 62.5456 58.2712C61.9752 59.5665 60.9522 60.6614 59.6576 61.6565C58.4931 62.5517 57.1448 63.093 55.8294 63.4661C54.3015 63.8995 52.6284 64.1583 50.9452 63.8861C48.1368 63.4319 45.4821 62.2291 44.577 59.0385Z" stroke="#1F1F1F" stroke-width="1.9" stroke-linecap="round"/>
<path d="M66.9526 68.1466C68.2558 67.3914 69.9469 67.6747 70.833 68.8865L72.3919 67.9831C74.1088 66.9881 76.3499 67.4606 77.3541 69.1933L78.4783 71.1332L63.8129 79.6323L62.6886 77.6923C61.6845 75.9597 62.3888 73.7803 64.1057 72.7852L65.6654 71.8813C65.0545 70.51 65.6493 68.9018 66.9526 68.1466Z" fill="#1F5BD2" stroke="#1F1F1F" stroke-width="1.9"/>
<path d="M80.3119 67.7791L60.1356 79.4719C59.6249 79.7679 59.4509 80.4218 59.7468 80.9325L74.8642 107.018C75.1601 107.529 75.814 107.703 76.3247 107.407L96.501 95.7139C97.0117 95.4179 97.1858 94.764 96.8898 94.2533L81.7725 68.1679C81.4765 67.6572 80.8226 67.4831 80.3119 67.7791Z" fill="#BFE6ED" stroke="#1F1F1F" stroke-width="1.9"/>
<path d="M22.7136 101.3C22.7191 101.629 22.3021 101.776 22.1001 101.516L17.7656 95.9349L22.594 94.2344L22.7136 101.3Z" fill="#ABC8FC" stroke="#1F1F1F" stroke-width="1.9"/>
<path d="M22.5941 94.2344L22.7136 101.3C22.7192 101.629 22.3021 101.776 22.1002 101.516L17.7656 95.9349L22.5941 94.2344Z" fill="#BFE6ED" stroke="#1F1F1F" stroke-width="1.9"/>
<path d="M22.7449 101.128C22.7359 101.497 22.2118 101.682 21.9738 101.4L20.3672 99.4994L22.8057 98.6406L22.7449 101.128Z" fill="#ABC8FC"/>
<mask id="mask2_2859_34541" style="mask-type:luminance" maskUnits="userSpaceOnUse" x="20" y="98" width="3" height="4">
<path d="M22.7449 101.128C22.7359 101.497 22.2118 101.682 21.9738 101.4L20.3672 99.4994L22.8057 98.6406L22.7449 101.128Z" fill="white"/>
</mask>
<g mask="url(#mask2_2859_34541)">
<path d="M20.3696 99.5033L19.7385 97.7112L17.1406 98.6262L18.9185 100.729L20.3696 99.5033ZM22.8081 98.6445L24.7075 98.6909L24.7748 95.9375L22.177 96.8524L22.8081 98.6445ZM21.9762 101.404L23.4274 100.178L21.8208 98.2769L20.3696 99.5033L18.9185 100.729L20.5251 102.63L21.9762 101.404ZM20.3696 99.5033L21.0008 101.295L23.4393 100.436L22.8081 98.6445L22.177 96.8524L19.7385 97.7112L20.3696 99.5033ZM22.8081 98.6445L20.9087 98.5982L20.8479 101.086L22.7473 101.132L24.6468 101.179L24.7075 98.6909L22.8081 98.6445ZM21.9762 101.404L20.5251 102.63C21.2816 103.526 22.3795 103.551 23.0788 103.304C23.7781 103.058 24.6182 102.351 24.6468 101.179L22.7473 101.132L20.8479 101.086C20.8675 100.283 21.441 99.8526 21.8165 99.7203C22.192 99.5881 22.9088 99.5644 23.4274 100.178L21.9762 101.404Z" fill="#1F1F1F"/>
</g>
<path d="M6.44038 56.0733C7.9656 55.5361 9.63723 56.337 10.1744 57.8622L22.6272 93.2207C22.6898 93.3991 22.5958 93.5941 22.4174 93.657L17.5411 95.3743C17.3627 95.4372 17.1672 95.3441 17.1042 95.1658L4.65145 59.8073C4.1143 58.2821 4.91516 56.6104 6.44038 56.0733Z" fill="#BFE6ED" stroke="#1F1F1F" stroke-width="1.9"/>
<path d="M6.44038 56.0733C7.9656 55.5361 9.63723 56.337 10.1744 57.8622L13.2942 66.7205L7.77122 68.6656L4.65145 59.8073C4.1143 58.2821 4.91516 56.6104 6.44038 56.0733Z" fill="#0F3E9A" stroke="#1F1F1F" stroke-width="1.9"/>
<path d="M89.167 70.3703C93.5485 77.9417 86.2569 81.2253 82.2031 81.6757L84.7094 87.1895C87.3828 86.3541 93.4313 84.3825 96.2384 79.1694C98.6324 74.7234 96.2138 69.1109 93.2736 66.0006C92.4182 65.0956 91.0418 65.0897 90.0057 65.7804C88.518 66.7722 88.2715 68.8227 89.167 70.3703Z" fill="#FAFAFC" stroke="#1F1F1F" stroke-width="1.9" stroke-linecap="round"/>
<path d="M82.2046 79.1698C84.7104 78.1677 86.1222 80.1939 86.7153 81.6765C88.4275 85.9571 86.972 88.0442 85.7817 88.5627C85.4479 88.708 85.1056 88.893 84.9016 89.1945C83.8027 90.8179 81.1597 93.4865 77.1913 94.208C72.7801 95.01 71.6774 92.5371 71.6775 91.2005C69.2714 90.3984 69.0039 88.1929 69.1709 87.1904C68.3355 87.0233 66.7649 86.1879 67.1659 84.1828C67.5669 82.1778 70.675 82.2992 72.4104 82.2466C71.9094 81.2441 71.6777 78.1677 75.6882 77.1646C79.3788 76.2415 81.5363 78.0001 82.2046 79.1698Z" fill="#FAFAFC"/>
<path d="M82.2046 79.1698C84.7104 78.1677 86.1222 80.1939 86.7153 81.6765C88.4275 85.9571 86.972 88.0442 85.7817 88.5627C85.4479 88.708 85.1056 88.893 84.9016 89.1945C83.8027 90.8179 81.1597 93.4865 77.1913 94.208C72.7801 95.01 71.6774 92.5371 71.6775 91.2005M82.2046 79.1698C81.5363 78.0001 79.3788 76.2415 75.6882 77.1646C71.6777 78.1677 71.9094 81.2441 72.4104 82.2466M82.2046 79.1698C82.3715 79.5041 82.7054 80.3732 82.7054 81.1752M71.6775 91.2005C69.2714 90.3984 69.0039 88.1929 69.1709 87.1904M71.6775 91.2005C72.1792 91.3675 74.685 91.7793 76.1501 90.4866M72.4104 82.2466C70.675 82.2992 67.5669 82.1778 67.1659 84.1828C66.7649 86.1879 68.3355 87.0233 69.1709 87.1904M72.4104 82.2466C73.1686 82.2237 75.1863 81.9773 77.1913 81.1753M69.1709 87.1904C70.6504 87.4863 72.9184 87.9013 74.8574 86.6087" stroke="#1F1F1F" stroke-width="1.9" stroke-linecap="round"/>
<path d="M18.1203 73.1544C20.4699 74.0946 20.4065 76.9767 19.4352 78.0416C21.972 79.2908 21.5864 81.9217 20.7121 82.945C22.3737 83.0838 24.2217 85.4856 20.937 87.9099C15.9084 91.6212 10.1757 90.9624 7.73349 83.4434C5.29135 75.9245 13.8914 71.462 18.1203 73.1544Z" fill="#FAFAFC"/>
<path d="M19.4352 78.0416C20.4065 76.9767 20.4699 74.0946 18.1203 73.1544C13.8914 71.462 5.29135 75.9245 7.73349 83.4434C10.1757 90.9624 15.9084 91.6212 20.937 87.9099C24.2217 85.4856 22.3737 83.0838 20.7121 82.945M19.4352 78.0416C21.972 79.2908 21.5864 81.9217 20.7121 82.945M19.4352 78.0416C18.4485 77.5558 16.0991 77.524 13.4203 79.4501M20.7121 82.945C19.4679 82.8411 17.8918 83.343 16.4737 84.7606" stroke="#1F1F1F" stroke-width="1.9" stroke-linecap="round"/>
</svg>
