<svg width="145" height="133" viewBox="0 0 145 133" fill="none" xmlns="http://www.w3.org/2000/svg">
<path d="M20.9648 45.162C23.9996 54.4995 31.3428 60.8132 37.2963 63.7681C39.2884 64.7568 40.3619 67.206 39.3409 69.1818C38.6696 70.4808 37.2459 71.2463 35.8262 70.8963C23.5653 67.874 16.8691 54.8436 14.3737 46.4591C13.9097 44.9003 14.7936 43.2988 16.316 42.7267C18.2359 42.0051 20.3308 43.2114 20.9648 45.162Z" fill="#FAFAFC" stroke="#1F1F1F" stroke-width="1.9" stroke-linecap="round"/>
<path d="M12.3414 47.1852C12.9214 48.5101 14.708 49.9737 18.8693 48.8533C23.9093 47.4962 23.527 43.8453 22.7058 42.1893C24.9673 38.8775 23.6344 38.1102 24.4017 36.7774C24.887 35.9345 27.5114 30.7597 24.1188 29.8713C21.4575 29.1744 20.0001 33.5332 19.6771 35.1218C19.152 32.3351 16.7766 24.8261 14.1431 23.7729C12.1244 22.9655 10.327 24.3793 10.0624 26.0248C8.42249 23.901 7.06943 23.77 5.82345 24.6619C4.38574 25.691 4.97614 27.3673 4.93577 28.0539C-0.448322 28.4077 3.57543 35.1861 6.17762 38.2299C6.31638 38.3922 6.41836 38.5826 6.47773 38.7877C7.65321 42.8492 9.91816 45.0871 11.3912 46.0075C11.8233 46.2775 12.1371 46.7185 12.3414 47.1852Z" fill="#FAFAFC"/>
<path d="M22.7058 42.1893C23.527 43.8453 23.9093 47.4962 18.8693 48.8533C14.708 49.9737 12.9214 48.5101 12.3414 47.1852C12.1371 46.7185 11.8233 46.2775 11.3912 46.0075C9.91816 45.0871 7.65321 42.8492 6.47773 38.7877C6.41836 38.5826 6.31639 38.3922 6.17762 38.2299C3.57543 35.1861 -0.448322 28.4077 4.93577 28.0539M22.7058 42.1893C24.9673 38.8775 23.6344 38.1102 24.4017 36.7774C24.887 35.9345 27.5114 30.7597 24.1188 29.8713C21.4575 29.1744 20.0001 33.5332 19.6771 35.1218M22.7058 42.1893C22.3711 42.6794 21.1065 43.611 20.5249 44.1279M4.93577 28.0539C4.97614 27.3673 4.38574 25.691 5.82345 24.6619C7.06943 23.77 8.42249 23.901 10.0624 26.0248M4.93577 28.0539C5.81108 28.7943 7.88409 31.8104 9.33811 35.2028M19.6771 35.1218C19.152 32.3351 16.7766 24.8261 14.1431 23.7729C12.1244 22.9655 10.327 24.3793 10.0624 26.0248M19.6771 35.1218C18.8688 37.1411 16.1225 36.9796 15.2751 39.6856M10.0624 26.0248C11.0764 27.338 12.2294 29.4582 13.6183 32.6987M14.9922 32.7788C13.3767 32.9135 11.1393 32.6901 9.29778 35.8888" stroke="#1F1F1F" stroke-width="1.9" stroke-linecap="round"/>
<path d="M96.7543 15.2079C105.219 16.5514 110.991 24.502 109.648 32.9659L108.176 42.2423C108.159 42.3531 108.234 42.4572 108.345 42.4748L117.627 43.9479C126.091 45.2914 131.864 53.2421 130.521 61.7059C129.296 69.4234 122.578 74.9026 114.986 74.7911C114.791 74.7882 114.62 74.9278 114.59 75.1207C114.559 75.3136 114.678 75.4982 114.865 75.5559C122.118 77.7999 126.81 85.0902 125.585 92.8079C124.242 101.272 116.291 107.045 107.827 105.702L98.5443 104.229C98.4335 104.211 98.3294 104.287 98.3118 104.397L96.8383 113.683C95.495 122.146 87.5442 127.919 79.0803 126.576C71.3619 125.351 65.8816 118.632 65.9944 111.039C65.9972 110.844 65.8579 110.674 65.6656 110.644C65.4734 110.613 65.2892 110.732 65.2315 110.918C62.9879 118.172 55.6973 122.865 47.9793 121.64C39.5152 120.297 33.7427 112.346 35.0857 103.882L36.5592 94.5971C36.5768 94.4863 36.5012 94.3822 36.3904 94.3646L27.1101 92.8918C18.6462 91.5484 12.8742 83.598 14.2175 75.134C15.447 67.3875 22.2102 61.8969 29.837 62.0513C30.0271 62.0552 30.1941 61.9197 30.2239 61.7321C30.2537 61.5443 30.1368 61.3639 29.9549 61.3087C22.6544 59.0945 17.9229 51.7789 19.1524 44.0319C20.4958 35.5679 28.4463 29.795 36.9103 31.1383L46.1906 32.611C46.3015 32.6286 46.4055 32.553 46.4231 32.4422L47.8953 23.1658C49.2386 14.7017 57.1891 8.92893 65.6533 10.2722C73.3999 11.5019 78.8915 18.2659 78.7367 25.8929C78.7329 26.0827 78.8677 26.2489 79.0552 26.2786C79.2426 26.3082 79.4224 26.192 79.4775 26.0104C81.6919 18.7104 89.0076 13.9785 96.7543 15.2079Z" fill="#4181FF"/>
<mask id="mask0_2859_34713" style="mask-type:luminance" maskUnits="userSpaceOnUse" x="14" y="10" width="117" height="117">
<path d="M96.7543 15.2079C105.219 16.5514 110.991 24.502 109.648 32.9659L108.176 42.2423C108.159 42.3531 108.234 42.4572 108.345 42.4748L117.627 43.9479C126.091 45.2914 131.864 53.2421 130.521 61.7059C129.296 69.4234 122.578 74.9026 114.986 74.7911C114.791 74.7882 114.62 74.9278 114.59 75.1207C114.559 75.3136 114.678 75.4982 114.865 75.5559C122.118 77.7999 126.81 85.0902 125.585 92.8079C124.242 101.272 116.291 107.045 107.827 105.702L98.5443 104.229C98.4335 104.211 98.3294 104.287 98.3118 104.397L96.8383 113.683C95.495 122.146 87.5442 127.919 79.0803 126.576C71.3619 125.351 65.8816 118.632 65.9944 111.039C65.9972 110.844 65.8579 110.674 65.6656 110.644C65.4734 110.613 65.2892 110.732 65.2315 110.918C62.9879 118.172 55.6973 122.865 47.9793 121.64C39.5152 120.297 33.7427 112.346 35.0857 103.882L36.5592 94.5971C36.5768 94.4863 36.5012 94.3822 36.3904 94.3646L27.1101 92.8918C18.6462 91.5484 12.8742 83.598 14.2175 75.134C15.447 67.3875 22.2102 61.8969 29.837 62.0513C30.0271 62.0552 30.1941 61.9197 30.2239 61.7321C30.2537 61.5443 30.1368 61.3639 29.9549 61.3087C22.6544 59.0945 17.9229 51.7789 19.1524 44.0319C20.4958 35.5679 28.4463 29.795 36.9103 31.1383L46.1906 32.611C46.3015 32.6286 46.4055 32.553 46.4231 32.4422L47.8953 23.1658C49.2386 14.7017 57.1891 8.92893 65.6533 10.2722C73.3999 11.5019 78.8915 18.2659 78.7367 25.8929C78.7329 26.0827 78.8677 26.2489 79.0552 26.2786C79.2426 26.3082 79.4224 26.192 79.4775 26.0104C81.6919 18.7104 89.0076 13.9785 96.7543 15.2079Z" fill="white"/>
</mask>
<g mask="url(#mask0_2859_34713)">
<path d="M65.2334 110.92L63.4187 110.357L63.4182 110.359L65.2334 110.92ZM79.0571 26.2804L78.7593 28.1569L78.7607 28.1572L79.0571 26.2804ZM96.7562 15.2097L96.4583 17.0862C103.885 18.2652 108.951 25.2424 107.773 32.6699L109.649 32.9677L111.526 33.2655C113.033 23.7653 106.554 14.8412 97.0541 13.3332L96.7562 15.2097ZM109.649 32.9677L107.773 32.6699L106.301 41.9463L108.177 42.2441L110.054 42.5419L111.526 33.2655L109.649 32.9677ZM108.346 42.4766L108.048 44.3531L117.33 45.8262L117.628 43.9497L117.926 42.0732L108.644 40.6001L108.346 42.4766ZM117.628 43.9497L117.33 45.8262C124.758 47.0052 129.824 53.9825 128.645 61.4099L130.522 61.7077L132.398 62.0055C133.906 52.5054 127.426 43.5812 117.926 42.0732L117.628 43.9497ZM130.522 61.7077L128.645 61.4099C127.571 68.1806 121.675 72.991 115.015 72.8931L114.987 74.7929L114.959 76.6927C123.482 76.8179 131.023 70.6698 132.398 62.0055L130.522 61.7077ZM114.987 74.7929L115.015 72.8931C113.901 72.8767 112.897 73.6723 112.714 74.8247L114.591 75.1225L116.467 75.4203C116.345 76.1868 115.682 76.7033 114.959 76.6927L114.987 74.7929ZM114.591 75.1225L112.714 74.8247C112.531 75.9821 113.246 77.0452 114.304 77.3727L114.866 75.5577L115.427 73.7427C116.112 73.9548 116.589 74.6486 116.467 75.4203L114.591 75.1225ZM114.866 75.5577L114.304 77.3727C120.668 79.3414 124.784 85.7409 123.709 92.5119L125.586 92.8097L127.463 93.1075C128.837 84.4432 123.57 76.262 115.427 73.7427L114.866 75.5577ZM125.586 92.8097L123.709 92.5119C122.53 99.9396 115.554 105.006 108.126 103.827L107.828 105.704L107.53 107.58C117.031 109.088 125.955 102.608 127.463 93.1075L125.586 92.8097ZM107.828 105.704L108.126 103.827L98.844 102.354L98.5462 104.231L98.2484 106.107L107.53 107.58L107.828 105.704ZM98.3137 104.399L96.4372 104.102L94.9637 113.387L96.8402 113.685L98.7167 113.982L100.19 104.697L98.3137 104.399ZM96.8402 113.685L94.9637 113.387C93.7849 120.814 86.8076 125.88 79.3799 124.702L79.0822 126.578L78.7844 128.455C88.2845 129.962 97.209 123.483 98.7167 113.982L96.8402 113.685ZM79.0822 126.578L79.3799 124.702C72.6082 123.627 67.7971 117.731 67.8961 111.069L65.9963 111.041L64.0965 111.013C63.9699 119.537 70.1192 127.079 78.7844 128.455L79.0822 126.578ZM65.9963 111.041L67.8961 111.069C67.9118 109.957 67.1172 108.952 65.9653 108.769L65.6675 110.646L65.3697 112.522C64.6024 112.401 64.0863 111.736 64.0965 111.013L65.9963 111.041ZM65.6675 110.646L65.9653 108.769C64.8088 108.586 63.7465 109.301 63.4187 110.357L65.2334 110.92L67.0481 111.483C66.8356 112.168 66.1418 112.645 65.3697 112.522L65.6675 110.646ZM65.2334 110.92L63.4182 110.359C61.4498 116.723 55.0501 120.84 48.2789 119.766L47.9812 121.642L47.6834 123.519C56.3482 124.894 64.5298 119.625 67.0486 111.481L65.2334 110.92ZM47.9812 121.642L48.2789 119.766C40.8513 118.587 35.7855 111.61 36.9641 104.182L35.0876 103.884L33.2111 103.587C31.7037 113.087 38.1829 122.011 47.6834 123.519L47.9812 121.642ZM35.0876 103.884L36.9641 104.182L38.4376 94.8967L36.5611 94.5989L34.6846 94.3011L33.2111 103.587L35.0876 103.884ZM36.3923 94.3664L36.6901 92.4899L27.4098 91.0171L27.112 92.8936L26.8141 94.7701L36.0945 96.2429L36.3923 94.3664ZM27.112 92.8936L27.4098 91.0171C19.9823 89.8382 14.9171 82.8614 16.0959 75.4336L14.2194 75.1358L12.3429 74.838C10.8353 84.3383 17.3138 93.2622 26.8141 94.7701L27.112 92.8936ZM14.2194 75.1358L16.0959 75.4336C17.1746 68.6373 23.1092 63.8173 29.8005 63.9528L29.8389 62.0531L29.8774 60.1535C21.315 59.9801 13.7233 66.1413 12.3429 74.838L14.2194 75.1358ZM29.8389 62.0531L29.8005 63.9528C30.9088 63.9752 31.9187 63.1866 32.1022 62.0322L30.2258 61.7339L28.3494 61.4355C28.4732 60.6565 29.1492 60.1388 29.8774 60.1535L29.8389 62.0531ZM30.2258 61.7339L32.1022 62.0322C32.2856 60.8769 31.5687 59.8139 30.5082 59.4923L29.9568 61.3105L29.4054 63.1287C28.7087 62.9174 28.2256 62.2152 28.3494 61.4355L30.2258 61.7339ZM29.9568 61.3105L30.5082 59.4923C24.1034 57.5497 19.9521 51.1283 21.0308 44.3315L19.1543 44.0337L17.2777 43.7358C15.8975 52.433 21.2093 60.6429 29.4054 63.1287L29.9568 61.3105ZM19.1543 44.0337L21.0308 44.3315C22.2097 36.9039 29.1868 31.8378 36.6144 33.0166L36.9122 31.1401L37.21 29.2636C27.7096 27.7558 18.7857 34.2356 17.2777 43.7358L19.1543 44.0337ZM36.9122 31.1401L36.6144 33.0166L45.8947 34.4894L46.1925 32.6128L46.4903 30.7363L37.21 29.2636L36.9122 31.1401ZM46.425 32.444L48.3016 32.7418L49.7737 23.4654L47.8972 23.1676L46.0207 22.8698L44.5485 32.1462L46.425 32.444ZM47.8972 23.1676L49.7737 23.4654C50.9525 16.0376 57.9296 10.9717 65.3574 12.1505L65.6552 10.274L65.9531 8.39752C56.4526 6.8898 47.5285 13.3693 46.0207 22.8698L47.8972 23.1676ZM65.6552 10.274L65.3574 12.1505C72.1539 13.2294 76.9748 19.1648 76.839 25.8561L78.7386 25.8947L80.6383 25.9332C80.812 17.3705 74.6498 9.77805 65.9531 8.39752L65.6552 10.274ZM78.7386 25.8947L76.839 25.8561C76.8165 26.9645 77.605 27.9738 78.7593 28.1569L79.0571 26.2804L79.3549 24.4039C80.1343 24.5276 80.653 25.2044 80.6383 25.9332L78.7386 25.8947ZM79.0571 26.2804L78.7607 28.1572C79.9127 28.3391 80.9754 27.6257 81.2976 26.5638L79.4794 26.0122L77.6612 25.4607C77.8732 24.7619 78.5763 24.2809 79.3535 24.4037L79.0571 26.2804ZM79.4794 26.0122L81.2976 26.5638C83.2404 20.1591 89.6619 16.0076 96.4583 17.0862L96.7562 15.2097L97.0541 13.3332C88.3571 11.953 80.1473 17.2653 77.6612 25.4607L79.4794 26.0122ZM46.1925 32.6128L45.8947 34.4894C47.0419 34.6714 48.1195 33.889 48.3016 32.7418L46.425 32.444L44.5485 32.1462C44.6954 31.2207 45.5648 30.5894 46.4903 30.7363L46.1925 32.6128ZM36.5611 94.5989L38.4376 94.8967C38.6197 93.7495 37.8373 92.6719 36.6901 92.4899L36.3923 94.3664L36.0945 96.2429C35.1689 96.096 34.5377 95.2267 34.6846 94.3011L36.5611 94.5989ZM98.5462 104.231L98.844 102.354C97.6968 102.172 96.6192 102.954 96.4372 104.102L98.3137 104.399L100.19 104.697C100.043 105.623 99.174 106.254 98.2484 106.107L98.5462 104.231ZM108.177 42.2441L106.301 41.9463C106.119 43.0935 106.901 44.1711 108.048 44.3531L108.346 42.4766L108.644 40.6001C109.569 40.747 110.201 41.6164 110.054 42.5419L108.177 42.2441Z" fill="#1F1F1F"/>
</g>
<path d="M77.2206 49.4049C74.214 48.7299 70.0174 50.1365 67.6669 52.2471C66.9785 52.8652 67.4693 53.7891 68.3942 53.7678C70.6886 53.7151 73.5158 53.8426 76.1837 56.8256" stroke="#1F1F1F" stroke-width="1.9" stroke-linecap="round"/>
<path d="M51.4046 45.625C54.4803 45.8131 58.1199 48.3318 59.7903 51.013C60.2795 51.7982 59.551 52.5491 58.6686 52.2714C56.4794 51.5824 53.7285 50.9182 50.3359 53.0412" stroke="#1F1F1F" stroke-width="1.9" stroke-linecap="round"/>
<path d="M63.5686 65.1429L59.0327 64.8325C57.7858 64.7472 56.797 65.867 57.0358 67.0937C57.5763 69.8698 59.7103 71.1536 62.3871 71.8212C63.8883 72.1957 65.4582 72.0978 66.9768 71.8021C68.2841 71.5476 69.5712 71.1435 70.6915 70.4235C73.3563 68.7107 74.6456 66.7468 74.0744 63.8128C73.834 62.5781 72.4779 61.9175 71.3575 62.4894L67.8916 64.2584C66.5573 64.9395 65.0631 65.2452 63.5686 65.1429Z" fill="#1F1F1F" stroke="#1F1F1F" stroke-width="1.9" stroke-linecap="round"/>
<mask id="mask1_2859_34713" style="mask-type:alpha" maskUnits="userSpaceOnUse" x="56" y="61" width="20" height="13">
<path d="M63.5686 65.1429L59.0327 64.8325C57.7858 64.7472 56.797 65.867 57.0358 67.0937C57.5763 69.8698 59.7103 71.1536 62.3871 71.8212C63.8883 72.1957 65.4582 72.0978 66.9768 71.8021C68.2841 71.5476 69.5712 71.1435 70.6916 70.4235C73.3563 68.7107 74.6456 66.7468 74.0744 63.8128C73.834 62.5781 72.4779 61.9175 71.3575 62.4894L67.8916 64.2584C66.5573 64.9395 65.0631 65.2452 63.5686 65.1429Z" fill="black" stroke="black" stroke-width="1.9" stroke-linecap="round"/>
</mask>
<g mask="url(#mask1_2859_34713)">
<path d="M68.0243 76.4634C72.2514 75.6405 75.3189 73.1281 74.8758 70.852C74.4326 68.5758 70.6466 67.3978 66.4195 68.2208C62.1924 69.0438 59.1249 71.5561 59.568 73.8323C60.0111 76.1084 63.7971 77.2864 68.0243 76.4634Z" fill="#FF875F"/>
</g>
<path d="M55.1969 66.8417C54.9001 64.8947 56.6658 63.3773 58.5219 63.5422L63.4327 63.9781C64.8932 64.1079 66.3763 63.8693 67.7203 63.287L71.59 61.6106C73.3112 60.865 75.4824 61.7759 75.7819 63.7396C76.0386 65.4236 75.7375 66.885 74.9022 68.1559C74.0874 69.3955 72.813 70.3799 71.2553 71.2358C69.8472 72.0093 68.3035 72.4019 66.81 72.6295C65.0734 72.8942 63.2175 72.9655 61.4097 72.4945C58.4486 71.7229 55.711 70.2139 55.1969 66.8417Z" stroke="#1F1F1F" stroke-width="1.9" stroke-linecap="round"/>
<path d="M117.728 58.0544C114.26 67.24 106.63 73.2038 100.545 75.8773C98.5088 76.772 97.3222 79.1685 98.2498 81.1898C98.8596 82.5187 100.246 83.3498 101.681 83.0666C114.069 80.6201 121.367 67.9166 124.251 59.6578C124.787 58.1225 123.979 56.4814 122.485 55.8388C120.601 55.0283 118.452 56.1355 117.728 58.0544Z" fill="#FAFAFC" stroke="#1F1F1F" stroke-width="1.9" stroke-linecap="round"/>
<path d="M126.24 60.4811C125.599 61.7774 123.746 63.156 119.641 61.8424C114.67 60.2515 115.223 56.6224 116.12 55.0066C114.016 51.5928 115.383 50.8886 114.679 49.5214C114.234 48.6568 111.854 43.365 115.284 42.636C117.975 42.0642 119.227 46.4863 119.476 48.0882C120.13 45.3291 122.854 37.9393 125.534 37.0101C127.588 36.298 129.317 37.7941 129.505 39.4502C131.242 37.4053 132.6 37.3376 133.803 38.2867C135.191 39.3819 134.523 41.0288 134.531 41.7165C139.893 42.3214 135.557 48.9044 132.815 51.8234C132.669 51.9791 132.558 52.1645 132.49 52.3666C131.126 56.3688 128.759 58.4984 127.244 59.3491C126.8 59.5986 126.466 60.0244 126.24 60.4811Z" fill="#FAFAFC"/>
<path d="M116.12 55.0066C115.223 56.6224 114.67 60.2515 119.641 61.8424C123.746 63.156 125.599 61.7774 126.24 60.4811C126.466 60.0244 126.8 59.5986 127.244 59.3491C128.759 58.4984 131.126 56.3688 132.49 52.3666C132.558 52.1645 132.669 51.9791 132.815 51.8234C135.557 48.9044 139.893 42.3214 134.531 41.7165M116.12 55.0066C114.016 51.5928 115.383 50.8886 114.679 49.5214C114.234 48.6568 111.854 43.365 115.284 42.636C117.975 42.0642 119.227 46.4863 119.476 48.0882M116.12 55.0066C116.432 55.5118 117.651 56.5014 118.208 57.045M134.531 41.7165C134.523 41.0288 135.191 39.3819 133.803 38.2867C132.6 37.3376 131.242 37.4053 129.505 39.4502M134.531 41.7165C133.622 42.4152 131.411 45.3312 129.8 48.652M119.476 48.0882C120.13 45.3291 122.854 37.9393 125.534 37.0101C127.588 36.298 129.317 37.7941 129.505 39.4502M119.476 48.0882C120.189 50.1431 122.94 50.11 123.66 52.8527M129.505 39.4502C128.431 40.7146 127.18 42.7787 125.641 45.9507M124.265 45.9666C125.872 46.1766 128.118 46.0579 129.808 49.3391" stroke="#1F1F1F" stroke-width="1.9" stroke-linecap="round"/>
<path d="M117.666 21.0764C117.511 17.5057 119.064 10.271 126.516 9.89844" stroke="#1F1F1F" stroke-width="1.9" stroke-linecap="round"/>
<path d="M122.312 25.927C124.486 23.443 130.323 19.5928 136.285 24.064" stroke="#1F1F1F" stroke-width="1.9" stroke-linecap="round"/>
<path d="M135.997 80.8531C137.074 80.8531 137.947 79.9801 137.947 78.9031C137.947 77.8262 137.074 76.9531 135.997 76.9531C134.92 76.9531 134.047 77.8262 134.047 78.9031C134.047 79.9801 134.92 80.8531 135.997 80.8531Z" fill="#BFE6ED" stroke="#1F1F1F" stroke-width="1.9"/>
<path d="M141.997 59.8531C143.074 59.8531 143.947 58.9801 143.947 57.9031C143.947 56.8262 143.074 55.9531 141.997 55.9531C140.92 55.9531 140.047 56.8262 140.047 57.9031C140.047 58.9801 140.92 59.8531 141.997 59.8531Z" fill="#FFB69E" stroke="#1F1F1F" stroke-width="1.9"/>
<path d="M22.5859 14.8541C25.9144 13.8533 33.3468 13.786 36.4483 21.5224" stroke="#1F1F1F" stroke-width="1.9" stroke-linecap="round"/>
<path d="M42.0004 4.86021C43.0793 4.86021 43.954 3.98558 43.954 2.90666C43.954 1.82775 43.0793 0.953125 42.0004 0.953125C40.9215 0.953125 40.0469 1.82775 40.0469 2.90666C40.0469 3.98558 40.9215 4.86021 42.0004 4.86021Z" fill="#9CBEFF" stroke="#1F1F1F" stroke-width="1.9"/>
</svg>
