<svg width="118" height="118" viewBox="0 0 118 118" fill="none" xmlns="http://www.w3.org/2000/svg">
<path d="M78.3418 5.09016C86.7047 5.69536 92.9943 12.9656 92.3895 21.3286L91.7263 30.4974C91.7184 30.6069 91.8007 30.7021 91.9102 30.71L101.082 31.3735C109.445 31.9785 115.735 39.2488 115.13 47.6118C114.578 55.2381 108.484 61.1395 101.073 61.6617C100.883 61.6751 100.728 61.8245 100.714 62.0147C100.701 62.2048 100.832 62.375 101.018 62.4156C108.278 63.9985 113.46 70.7148 112.908 78.3412C112.303 86.7043 105.033 92.9937 96.6696 92.3889L87.4969 91.7254C87.3874 91.7175 87.2922 91.7999 87.2842 91.9094L86.6207 101.083C86.0154 109.446 78.7451 115.734 70.3824 115.13C62.7575 114.578 56.8573 108.486 56.3332 101.077C56.3196 100.886 56.1697 100.732 55.9793 100.718C55.7888 100.704 55.6184 100.835 55.5774 101.022C53.9927 108.279 47.2768 113.459 39.652 112.908C31.289 112.303 24.9997 105.033 25.6043 96.6697L26.2679 87.4959C26.2758 87.3864 26.1934 87.2912 26.0839 87.2833L16.9151 86.6201C8.55212 86.0149 2.26347 78.7449 2.86835 70.3818C3.42218 62.7281 9.55773 56.8119 17.0051 56.327C17.1903 56.3149 17.3415 56.1693 17.3549 55.9841C17.3681 55.7991 17.2394 55.634 17.058 55.5955C9.75739 54.0442 4.53648 47.3066 5.09009 39.6524C5.69522 31.2894 12.9653 24.9998 21.3285 25.6047L30.4973 26.2679C30.6068 26.2758 30.702 26.1935 30.7099 26.084L31.3731 16.9151C31.9783 8.55208 39.2484 2.26342 47.6114 2.86835C55.2668 3.42239 61.1834 9.56036 61.6659 17.01C61.6779 17.1952 61.8227 17.3463 62.0078 17.3598C62.1929 17.3732 62.3589 17.2445 62.3974 17.0629C63.9469 9.75988 70.686 4.5364 78.3418 5.09016Z" fill="#4181FF"/>
<mask id="mask0_2859_34678" style="mask-type:luminance" maskUnits="userSpaceOnUse" x="2" y="2" width="114" height="114">
<path d="M78.3418 5.09016C86.7047 5.69536 92.9943 12.9656 92.3895 21.3286L91.7263 30.4974C91.7184 30.6069 91.8007 30.7021 91.9102 30.71L101.082 31.3735C109.445 31.9785 115.735 39.2488 115.13 47.6118C114.578 55.2381 108.484 61.1395 101.073 61.6617C100.883 61.6751 100.728 61.8245 100.714 62.0147C100.701 62.2048 100.832 62.375 101.018 62.4156C108.278 63.9985 113.46 70.7148 112.908 78.3412C112.303 86.7043 105.033 92.9937 96.6696 92.3889L87.4969 91.7254C87.3874 91.7175 87.2922 91.7999 87.2842 91.9094L86.6207 101.083C86.0154 109.446 78.7451 115.734 70.3824 115.13C62.7575 114.578 56.8573 108.486 56.3332 101.077C56.3196 100.886 56.1697 100.732 55.9793 100.718C55.7888 100.704 55.6184 100.835 55.5774 101.022C53.9927 108.279 47.2768 113.459 39.652 112.908C31.289 112.303 24.9997 105.033 25.6043 96.6697L26.2679 87.4959C26.2758 87.3864 26.1934 87.2912 26.0839 87.2833L16.9151 86.6201C8.55212 86.0149 2.26347 78.7449 2.86835 70.3818C3.42218 62.7281 9.55773 56.8119 17.0051 56.327C17.1903 56.3149 17.3415 56.1693 17.3549 55.9841C17.3681 55.7991 17.2394 55.634 17.058 55.5955C9.75739 54.0442 4.53648 47.3066 5.09009 39.6524C5.69522 31.2894 12.9653 24.9998 21.3285 25.6047L30.4973 26.2679C30.6068 26.2758 30.702 26.1935 30.7099 26.084L31.3731 16.9151C31.9783 8.55208 39.2484 2.26342 47.6114 2.86835C55.2668 3.42239 61.1834 9.56036 61.6659 17.01C61.6779 17.1952 61.8227 17.3463 62.0078 17.3598C62.1929 17.3732 62.3589 17.2445 62.3974 17.0629C63.9469 9.75988 70.686 4.5364 78.3418 5.09016Z" fill="white"/>
</mask>
<g mask="url(#mask0_2859_34678)">
<path d="M56.3349 101.079L58.2302 100.945L58.2301 100.943L56.3349 101.079ZM55.981 100.72L56.1193 98.8249L56.1181 98.8248L55.981 100.72ZM55.5791 101.024L53.7233 100.616L53.7228 100.619L55.5791 101.024ZM17.3566 55.9857L19.2517 56.1228L19.2518 56.1206L17.3566 55.9857ZM62.0095 17.3614L61.8713 19.2563L61.8724 19.2564L62.0095 17.3614ZM78.3435 5.09181L78.2063 6.98685C85.5228 7.51632 91.0253 13.8767 90.4962 21.1931L92.3912 21.3302L94.2863 21.4672C94.9668 12.0576 87.89 3.8777 78.4806 3.19676L78.3435 5.09181ZM92.3912 21.3302L90.4962 21.1931L89.8329 30.362L91.728 30.499L93.623 30.6361L94.2863 21.4672L92.3912 21.3302ZM91.9119 30.7116L91.7749 32.6067L100.946 33.2701L101.083 31.3751L101.22 29.48L92.049 28.8166L91.9119 30.7116ZM101.083 31.3751L100.946 33.2701C108.263 33.7994 113.765 40.1599 113.236 47.4764L115.131 47.6134L117.026 47.7505C117.706 38.3409 110.63 30.1607 101.22 29.48L101.083 31.3751ZM115.131 47.6134L113.236 47.4764C112.753 54.1465 107.422 59.3113 100.94 59.768L101.074 61.6633L101.207 63.5586C109.548 62.9709 116.405 56.3329 117.026 47.7505L115.131 47.6134ZM101.074 61.6633L100.94 59.768C99.8396 59.8455 98.9051 60.7152 98.8209 61.8792L100.715 62.0163L102.61 62.1533C102.554 62.9371 101.928 63.5078 101.207 63.5586L101.074 61.6633ZM100.715 62.0163L98.8209 61.8792C98.7369 63.0425 99.5359 64.0383 100.615 64.2735L101.019 62.4172L101.424 60.5608C102.131 60.7149 102.667 61.3699 102.611 62.153L100.715 62.0163ZM101.019 62.4172L100.615 64.2735C106.964 65.658 111.496 71.5356 111.014 78.2058L112.909 78.3428L114.804 78.4799C115.425 69.8972 109.593 62.3421 101.424 60.5608L101.019 62.4172ZM112.909 78.3428L111.014 78.2058C110.485 85.5223 104.124 91.0246 96.8084 90.4955L96.6713 92.3905L96.5342 94.2856C105.943 94.966 114.124 87.8896 114.804 78.4799L112.909 78.3428ZM96.6713 92.3905L96.8084 90.4955L87.6356 89.832L87.4986 91.727L87.3615 93.6221L96.5342 94.2856L96.6713 92.3905ZM87.2859 91.911L85.3909 91.7739L84.7273 100.948L86.6224 101.085L88.5174 101.222L89.181 92.048L87.2859 91.911ZM86.6224 101.085L84.7273 100.948C84.1978 108.264 77.8374 113.766 70.5211 113.237L70.3841 115.132L70.247 117.027C79.6561 117.707 87.8363 110.631 88.5174 101.222L86.6224 101.085ZM70.3841 115.132L70.5211 113.237C63.8523 112.754 58.6885 107.425 58.2302 100.945L56.3349 101.079L54.4397 101.213C55.0294 109.551 61.666 116.406 70.247 117.027L70.3841 115.132ZM56.3349 101.079L58.2301 100.943C58.1508 99.8377 57.2777 98.9095 56.1193 98.8249L55.981 100.72L55.8426 102.615C55.0651 102.558 54.4918 101.938 54.4398 101.215L56.3349 101.079ZM55.981 100.72L56.1181 98.8248C54.9571 98.7408 53.9605 99.5361 53.7233 100.616L55.5791 101.024L57.4349 101.432C57.2796 102.138 56.6238 102.672 55.8439 102.615L55.981 100.72ZM55.5791 101.024L53.7228 100.619C52.3368 106.966 46.4595 111.497 39.7907 111.015L39.6537 112.91L39.5167 114.805C48.0976 115.425 55.652 109.596 57.4354 101.429L55.5791 101.024ZM39.6537 112.91L39.7907 111.015C32.4743 110.486 26.9721 104.125 27.5011 96.8083L25.606 96.6713L23.711 96.5342C23.0306 105.944 30.1069 114.124 39.5167 114.805L39.6537 112.91ZM25.606 96.6713L27.5011 96.8083L28.1646 87.6346L26.2696 87.4975L24.3745 87.3605L23.711 96.5342L25.606 96.6713ZM26.0856 87.2849L26.2227 85.3899L17.0539 84.7267L16.9168 86.6217L16.7797 88.5168L25.9486 89.18L26.0856 87.2849ZM16.9168 86.6217L17.0539 84.7267C9.73756 84.1972 4.23585 77.837 4.76504 70.5205L2.86999 70.3834L0.97495 70.2463C0.294375 79.6559 7.36996 87.8358 16.7797 88.5168L16.9168 86.6217ZM2.86999 70.3834L4.76504 70.5205C5.24944 63.8262 10.6167 58.6487 17.1302 58.2245L17.0068 56.3286L16.8834 54.4326C8.50216 54.9783 1.59819 61.6332 0.97495 70.2463L2.86999 70.3834ZM17.0068 56.3286L17.1302 58.2245C18.2315 58.1528 19.1676 57.2849 19.2517 56.1228L17.3566 55.9857L15.4616 55.8487C15.5189 55.0569 16.1525 54.4802 16.8834 54.4326L17.0068 56.3286ZM17.3566 55.9857L19.2518 56.1206C19.3347 54.9562 18.5301 53.9671 17.4546 53.7386L17.0597 55.5971L16.6648 57.4556C15.9522 57.3042 15.4049 56.6452 15.4614 55.8509L17.3566 55.9857ZM17.0597 55.5971L17.4546 53.7386C11.0693 52.3818 6.50257 46.4857 6.98678 39.7911L5.09173 39.654L3.19669 39.5169C2.57368 48.1306 8.44877 55.7098 16.6648 57.4556L17.0597 55.5971ZM5.09173 39.654L6.98678 39.7911C7.51618 32.4745 13.8766 26.9721 21.1931 27.5014L21.3302 25.6063L21.4672 23.7113C12.0575 23.0306 3.87754 30.1074 3.19669 39.5169L5.09173 39.654ZM21.3302 25.6063L21.1931 27.5014L30.3619 28.1646L30.499 26.2695L30.6361 24.3745L21.4672 23.7113L21.3302 25.6063ZM30.7116 26.0856L32.6067 26.2227L33.2699 17.0538L31.3748 16.9167L29.4798 16.7796L28.8166 25.9485L30.7116 26.0856ZM31.3748 16.9167L33.2699 17.0538C33.7993 9.73743 40.1595 4.23582 47.4761 4.76504L47.6131 2.87L47.7503 0.974956C38.3407 0.294339 30.1607 7.36994 29.4798 16.7796L31.3748 16.9167ZM47.6131 2.87L47.4761 4.76504C54.1718 5.24963 59.3496 10.6189 59.7716 17.1344L61.6676 17.0116L63.5636 16.8888C63.0206 8.50511 56.3653 1.59845 47.7503 0.974956L47.6131 2.87ZM61.6676 17.0116L59.7716 17.1344C59.8427 18.2315 60.7056 19.1713 61.8713 19.2563L62.0095 17.3614L62.1477 15.4664C62.9433 15.5244 63.5166 16.1621 63.5636 16.8888L61.6676 17.0116ZM62.0095 17.3614L61.8724 19.2564C63.034 19.3404 64.0285 18.5395 64.2577 17.4588L62.3991 17.0645L60.5405 16.6701C60.6927 15.9526 61.3553 15.4091 62.1466 15.4663L62.0095 17.3614ZM62.3991 17.0645L64.2577 17.4588C65.613 11.0714 71.5103 6.50251 78.2063 6.98685L78.3435 5.09181L78.4806 3.19676C69.8651 2.57358 62.2843 8.45155 60.5405 16.6701L62.3991 17.0645ZM30.499 26.2695L30.3619 28.1646C31.5181 28.2482 32.5231 27.3788 32.6067 26.2227L30.7116 26.0856L28.8166 25.9485C28.8844 25.0114 29.699 24.3067 30.6361 24.3745L30.499 26.2695ZM26.2696 87.4975L28.1646 87.6346C28.2482 86.4785 27.3788 85.4735 26.2227 85.3899L26.0856 87.2849L25.9486 89.18C25.0115 89.1122 24.3067 88.2976 24.3745 87.3605L26.2696 87.4975ZM87.4986 91.727L87.6356 89.832C86.4795 89.7484 85.4745 90.6178 85.3909 91.7739L87.2859 91.911L89.181 92.048C89.1132 92.9851 88.2986 93.6899 87.3615 93.6221L87.4986 91.727ZM91.728 30.499L89.8329 30.362C89.7493 31.5181 90.6187 32.5231 91.7749 32.6067L91.9119 30.7116L92.049 28.8166C92.9861 28.8844 93.6908 29.699 93.623 30.6361L91.728 30.499Z" fill="#1F1F1F"/>
</g>
<path d="M50.3903 49.3017C52.3408 49.4578 54.1443 47.2017 54.4185 44.2624C54.6927 41.3232 53.3338 38.8139 51.3833 38.6577C49.4328 38.5016 47.6293 40.7577 47.355 43.697C47.0808 46.6362 48.4397 49.1455 50.3903 49.3017Z" fill="#1F1F1F"/>
<path d="M38.6278 48.3644C40.5801 48.5207 42.3851 46.2647 42.6593 43.3254C42.9336 40.3862 41.5732 37.8768 39.6209 37.7205C37.6686 37.5642 35.8636 39.8202 35.5894 42.7595C35.3152 45.6987 36.6755 48.2081 38.6278 48.3644Z" fill="#1F1F1F"/>
<path d="M38.0393 42.2332C38.4728 42.2706 38.8686 41.7865 38.9235 41.1519C38.9783 40.5173 38.6714 39.9725 38.238 39.935C37.8045 39.8976 37.4087 40.3817 37.3538 41.0163C37.299 41.6509 37.6059 42.1957 38.0393 42.2332Z" fill="#FAFAFC"/>
<path d="M49.8128 43.2488C50.2462 43.2863 50.6421 42.8022 50.6969 42.1676C50.7518 41.5329 50.4448 40.9881 50.0114 40.9506C49.5779 40.9132 49.1821 41.3973 49.1273 42.0319C49.0724 42.6665 49.3793 43.2114 49.8128 43.2488Z" fill="#FAFAFC"/>
<path d="M55.261 65.4422C57.4952 64.6723 58.4396 61.5331 57.3704 58.4307C56.3012 55.3283 53.6233 53.4374 51.3891 54.2074C49.1549 54.9774 48.2105 58.1166 49.2797 61.219C50.3488 64.3214 53.0268 66.2122 55.261 65.4422Z" fill="#1F1F1F"/>
<mask id="mask1_2859_34678" style="mask-type:alpha" maskUnits="userSpaceOnUse" x="48" y="54" width="10" height="12">
<path d="M51.6985 55.1034C52.4535 54.8434 53.3644 55.0034 54.2679 55.6413C55.1701 56.2784 55.9943 57.3541 56.4713 58.7379C56.9482 60.1219 56.962 61.4777 56.6438 62.5354C56.3251 63.5944 55.7061 64.2818 54.9513 64.5421C54.1963 64.8022 53.2847 64.6424 52.381 64.0045C51.4788 63.3674 50.6543 62.291 50.1773 60.907C49.7005 59.5232 49.687 58.168 50.0051 57.1104C50.3238 56.0511 50.9435 55.3636 51.6985 55.1034Z" fill="#1F1F1F" stroke="#1F1F1F" stroke-width="1.9"/>
</mask>
<g mask="url(#mask1_2859_34678)">
<path d="M59.6439 65.6173C57.5334 68.4862 54.2614 69.6635 52.3359 68.2469C50.4103 66.8304 50.5603 63.3563 52.6708 60.4875C54.7813 57.6186 58.0532 56.4413 59.9788 57.8579C61.9044 59.2744 61.7544 62.7485 59.6439 65.6173Z" fill="#FF875F"/>
</g>
<path d="M51.6985 55.1034C52.4534 54.8434 53.3644 55.0034 54.2679 55.6413C55.17 56.2784 55.9943 57.3541 56.4713 58.7379C56.9482 60.1219 56.962 61.4777 56.6438 62.5354C56.3251 63.5944 55.7061 64.2817 54.9513 64.542C54.1963 64.8022 53.2846 64.6424 52.381 64.0045C51.4787 63.3674 50.6543 62.2909 50.1773 60.907C49.7005 59.5232 49.687 58.168 50.0051 57.1104C50.3238 56.0511 50.9435 55.3636 51.6985 55.1034Z" stroke="#1F1F1F" stroke-width="1.9"/>
<path d="M22.7136 101.308C22.7191 101.637 22.3021 101.784 22.1001 101.524L17.7656 95.9427L22.594 94.2422L22.7136 101.308Z" fill="#ABC8FC" stroke="#1F1F1F" stroke-width="1.9"/>
<path d="M22.5941 94.2422L22.7136 101.308C22.7192 101.637 22.3022 101.784 22.1002 101.524L17.7656 95.9427L22.5941 94.2422Z" fill="#BFE6ED" stroke="#1F1F1F" stroke-width="1.9"/>
<path d="M22.745 101.128C22.736 101.497 22.2119 101.682 21.9739 101.4L20.3672 99.4994L22.8057 98.6406L22.745 101.128Z" fill="#ABC8FC"/>
<mask id="mask2_2859_34678" style="mask-type:luminance" maskUnits="userSpaceOnUse" x="20" y="98" width="3" height="4">
<path d="M22.745 101.128C22.736 101.497 22.2119 101.682 21.9739 101.4L20.3672 99.4994L22.8057 98.6406L22.745 101.128Z" fill="white"/>
</mask>
<g mask="url(#mask2_2859_34678)">
<path d="M20.3696 99.4956L19.7385 97.7035L17.1406 98.6184L18.9185 100.722L20.3696 99.4956ZM22.8081 98.6368L24.7076 98.6831L24.7748 95.9297L22.177 96.8447L22.8081 98.6368ZM21.9763 101.397L23.4274 100.171L21.8208 98.2692L20.3696 99.4956L18.9185 100.722L20.5251 102.623L21.9763 101.397ZM20.3696 99.4956L21.0008 101.288L23.4393 100.429L22.8081 98.6368L22.177 96.8447L19.7385 97.7035L20.3696 99.4956ZM22.8081 98.6368L20.9087 98.5904L20.848 101.079L22.7474 101.125L24.6468 101.172L24.7076 98.6831L22.8081 98.6368ZM21.9763 101.397L20.5251 102.623C21.2817 103.519 22.3796 103.543 23.0789 103.297C23.7781 103.051 24.6182 102.344 24.6468 101.172L22.7474 101.125L20.848 101.079C20.8676 100.276 21.4411 99.8448 21.8165 99.7126C22.192 99.5804 22.9089 99.5566 23.4274 100.171L21.9763 101.397Z" fill="#1F1F1F"/>
</g>
<path d="M6.44036 56.0733C7.9656 55.5361 9.63719 56.337 10.1744 57.8622L22.6272 93.2207C22.6901 93.3992 22.5963 93.595 22.4178 93.6579L17.5414 95.3753C17.3629 95.4381 17.1671 95.3443 17.1042 95.1658L4.65143 59.8073C4.11432 58.2821 4.91517 56.6105 6.44036 56.0733Z" fill="#BFE6ED" stroke="#1F1F1F" stroke-width="1.9"/>
<path d="M6.44036 56.0733C7.9656 55.5361 9.63719 56.337 10.1744 57.8622L13.2942 66.7205L7.7712 68.6656L4.65143 59.8073C4.11432 58.2821 4.91517 56.6105 6.44036 56.0733Z" fill="#0F3E9A" stroke="#1F1F1F" stroke-width="1.9"/>
<path d="M18.1205 73.1544C20.4701 74.0947 20.4067 76.9768 19.4353 78.0418C21.9723 79.2909 21.5866 81.9219 20.7123 82.9453C22.3739 83.084 24.222 85.4859 20.9372 87.9102C15.9085 91.6216 10.1757 90.9627 7.73349 83.4436C5.29132 75.9246 13.8915 71.4621 18.1205 73.1544Z" fill="#FAFAFC"/>
<path d="M19.4353 78.0418C20.4067 76.9768 20.4701 74.0947 18.1205 73.1544C13.8915 71.4621 5.29132 75.9246 7.73349 83.4436C10.1757 90.9627 15.9085 91.6216 20.9372 87.9102C24.222 85.4859 22.3739 83.084 20.7123 82.9453M19.4353 78.0418C21.9723 79.2909 21.5866 81.9219 20.7123 82.9453M19.4353 78.0418C18.4487 77.5559 16.0992 77.5241 13.4204 79.4503M20.7123 82.9453C19.4681 82.8413 17.8919 83.3433 16.4738 84.7608" stroke="#1F1F1F" stroke-width="1.9" stroke-linecap="round"/>
<path d="M107.2 4.03906L104.695 14.6841" stroke="#1F1F1F" stroke-width="2.69166" stroke-linecap="round"/>
<path d="M102.876 22.4201C103.945 22.6716 105.016 22.0089 105.267 20.94C105.519 19.8711 104.856 18.8007 103.787 18.5492C102.718 18.2976 101.648 18.9603 101.396 20.0292C101.145 21.0981 101.807 22.1686 102.876 22.4201Z" fill="#1F1F1F"/>
<path d="M66.9136 69.4594C68.2168 68.7042 69.9079 68.9876 70.794 70.1994L72.3537 69.2955C74.0706 68.3007 76.3118 68.7731 77.3159 70.5057L78.4402 72.4456L63.7739 80.9452L62.6496 79.0052C61.6455 77.2726 62.3498 75.0932 64.0667 74.0981L65.6264 73.1942C65.0155 71.8229 65.6103 70.2147 66.9136 69.4594Z" fill="#1F5BD2" stroke="#1F1F1F" stroke-width="1.9"/>
<path d="M80.2732 69.0914L60.0966 80.7844C59.5859 81.0804 59.4118 81.7343 59.7078 82.245L74.8253 108.331C75.1213 108.841 75.7752 109.016 76.2859 108.72L96.4625 97.0266C96.9732 96.7306 97.1473 96.0767 96.8513 95.566L81.7338 69.4802C81.4378 68.9695 80.7839 68.7955 80.2732 69.0914Z" fill="#BFE6ED" stroke="#1F1F1F" stroke-width="1.9"/>
<path d="M89.1281 71.6828C93.5097 79.2544 86.2179 82.538 82.1641 82.9884L84.6705 88.5023C87.3439 87.6669 93.3925 85.6952 96.1996 80.4821C98.5936 76.0361 96.175 70.4234 93.2348 67.3131C92.3793 66.4081 91.003 66.4021 89.9668 67.0929C88.4791 68.0847 88.2326 70.1353 89.1281 71.6828Z" fill="#FAFAFC" stroke="#1F1F1F" stroke-width="1.9" stroke-linecap="round"/>
<path d="M82.1658 80.4824C84.6717 79.4802 86.0835 81.5065 86.6766 82.9891C88.3888 87.2698 86.9333 89.357 85.7429 89.8754C85.4092 90.0208 85.0669 90.2058 84.8628 90.5072C83.7639 92.1306 81.1209 94.7993 77.1525 95.5208C72.7412 96.3228 71.6385 93.8499 71.6385 92.5132C69.2325 91.7112 68.9649 89.5056 69.132 88.5031C68.2965 88.336 66.7259 87.5005 67.1269 85.4955C67.5279 83.4904 70.636 83.6118 72.3715 83.5593C71.8705 82.5567 71.6387 79.4802 75.6494 78.4771C79.34 77.554 81.4975 79.3127 82.1658 80.4824Z" fill="#FAFAFC"/>
<path d="M82.1658 80.4824C84.6717 79.4802 86.0835 81.5065 86.6766 82.9891C88.3888 87.2698 86.9333 89.357 85.7429 89.8754C85.4092 90.0208 85.0669 90.2058 84.8628 90.5072C83.7639 92.1306 81.1209 94.7993 77.1525 95.5208C72.7412 96.3228 71.6385 93.8499 71.6385 92.5132M82.1658 80.4824C81.4975 79.3127 79.34 77.554 75.6494 78.4771C71.6387 79.4802 71.8705 82.5567 72.3715 83.5593M82.1658 80.4824C82.3328 80.8167 82.6666 81.6858 82.6666 82.4878M71.6385 92.5132C69.2325 91.7112 68.9649 89.5056 69.132 88.5031M71.6385 92.5132C72.1403 92.6803 74.6461 93.092 76.1112 91.7994M72.3715 83.5593C70.636 83.6118 67.5279 83.4904 67.1269 85.4955C66.7259 87.5005 68.2965 88.336 69.132 88.5031M72.3715 83.5593C73.1297 83.5363 75.1474 83.2899 77.1525 82.4879M69.132 88.5031C70.6115 88.799 72.8795 89.214 74.8185 87.9214" stroke="#1F1F1F" stroke-width="1.9" stroke-linecap="round"/>
</svg>
