<svg width="238" height="62" viewBox="0 0 238 62" fill="none" xmlns="http://www.w3.org/2000/svg">
<mask id="path-1-outside-1_2565_23963" maskUnits="userSpaceOnUse" x="25" y="12" width="186" height="36" fill="black">
<rect fill="white" x="25" y="12" width="186" height="36"/>
<path d="M26.6096 40.1389C26.2729 40.1389 26 39.8659 26 39.5293V21.0709C26 20.7343 26.2729 20.4614 26.6096 20.4614H30.8401C31.1768 20.4614 31.4497 20.7343 31.4497 21.0709V25.8379L30.4256 24.2652C31.1083 22.9241 32.0715 21.9122 33.3151 21.2294C34.583 20.5223 36.0216 20.1688 37.6309 20.1688C39.4353 20.1688 41.0081 20.632 42.3491 21.5586C43.7146 22.4608 44.6168 23.8507 45.0557 25.7282L43.0441 25.1796C43.7024 23.6434 44.7509 22.4242 46.1895 21.522C47.6526 20.6198 49.3228 20.1688 51.2004 20.1688C52.7609 20.1688 54.1386 20.4857 55.3334 21.1197C56.5525 21.7293 57.5035 22.6803 58.1862 23.9726C58.8934 25.2405 59.2469 26.8742 59.2469 28.8737V39.5293C59.2469 39.8659 58.974 40.1389 58.6373 40.1389H54.1508C53.8141 40.1389 53.5412 39.8659 53.5412 39.5293V29.7515C53.5412 28.1665 53.212 26.9961 52.5536 26.2402C51.8953 25.4844 50.9687 25.1064 49.7739 25.1064C48.9449 25.1064 48.2012 25.3015 47.5428 25.6916C46.8845 26.0574 46.3724 26.6182 46.0067 27.3741C45.6409 28.13 45.458 29.0931 45.458 30.2635V39.5293C45.458 39.8659 45.1851 40.1389 44.8485 40.1389H40.3619C40.0252 40.1389 39.7523 39.8659 39.7523 39.5293V29.7515C39.7523 28.1665 39.4231 26.9961 38.7648 26.2402C38.1308 25.4844 37.2164 25.1064 36.0216 25.1064C35.1926 25.1064 34.4489 25.3015 33.7905 25.6916C33.1322 26.0574 32.6201 26.6182 32.2544 27.3741C31.8886 28.13 31.7057 29.0931 31.7057 30.2635V39.5293C31.7057 39.8659 31.4328 40.1389 31.0962 40.1389H26.6096Z"/>
<path d="M93.534 47.5271C92.5098 47.5271 91.4979 47.3686 90.4982 47.0516C89.6824 46.7929 88.9884 46.4531 88.4162 46.032C88.1917 45.8669 88.1367 45.5614 88.264 45.3136L89.7731 42.3748C89.9551 42.0204 90.4234 41.9347 90.7597 42.1484C91.0319 42.3213 91.3227 42.4683 91.632 42.5894C92.2172 42.8088 92.7903 42.9186 93.3511 42.9186C94.1557 42.9186 94.7897 42.7235 95.253 42.3334C95.7407 41.9676 96.1796 41.3458 96.5697 40.468L97.5938 38.0541L98.0327 37.4323L104.936 20.8368C105.03 20.6095 105.252 20.4614 105.498 20.4614H109.656C110.093 20.4614 110.388 20.9076 110.217 21.3096L101.69 41.3458C101.056 42.9308 100.325 44.1743 99.4957 45.0765C98.6911 45.9787 97.7889 46.6127 96.7892 46.9784C95.8138 47.3442 94.7287 47.5271 93.534 47.5271ZM96.8989 40.9069L88.4858 21.3114C88.3131 20.9091 88.6081 20.4614 89.0459 20.4614H93.6018C93.8485 20.4614 94.0709 20.6101 94.1651 20.8381L100.812 36.9202L96.8989 40.9069Z"/>
<path d="M121.039 40.4315C118.796 40.4315 116.82 39.9926 115.114 39.1147C113.431 38.2369 112.127 37.0421 111.2 35.5304C110.274 33.9942 109.81 32.2508 109.81 30.3001C109.81 28.325 110.261 26.5816 111.164 25.0698C112.09 23.5337 113.346 22.3389 114.931 21.4855C116.516 20.6077 118.308 20.1688 120.307 20.1688C122.234 20.1688 123.965 20.5833 125.501 21.4123C127.062 22.217 128.293 23.3874 129.195 24.9235C130.097 26.4353 130.548 28.2519 130.548 30.3733C130.548 30.5927 130.536 30.8487 130.512 31.1413C130.505 31.2153 130.498 31.2882 130.492 31.3603C130.463 31.6721 130.2 31.9094 129.887 31.9094H114.455V28.5811H127.44L125.245 29.5686C125.245 28.5445 125.038 27.6545 124.623 26.8986C124.209 26.1427 123.636 25.5575 122.904 25.143C122.173 24.7041 121.319 24.4846 120.344 24.4846C119.369 24.4846 118.503 24.7041 117.747 25.143C117.016 25.5575 116.443 26.1549 116.028 26.9352C115.614 27.6911 115.406 28.5933 115.406 29.6418V30.5196C115.406 31.5924 115.638 32.5434 116.101 33.3724C116.589 34.1771 117.259 34.7989 118.113 35.2378C118.991 35.6523 120.015 35.8595 121.185 35.8595C122.234 35.8595 123.148 35.7011 123.928 35.3841C124.548 35.1401 125.124 34.8021 125.656 34.3703C125.922 34.1551 126.313 34.1642 126.545 34.4155L128.786 36.8455C128.998 37.075 129.003 37.4292 128.782 37.6497C127.947 38.4823 126.939 39.1413 125.757 39.6268C124.392 40.1632 122.819 40.4315 121.039 40.4315Z"/>
<path d="M142.613 40.4315C140.516 40.4315 138.651 39.9926 137.017 39.1147C135.408 38.2369 134.128 37.0421 133.177 35.5304C132.25 33.9942 131.787 32.2508 131.787 30.3001C131.787 28.325 132.25 26.5816 133.177 25.0698C134.128 23.5337 135.408 22.3389 137.017 21.4855C138.651 20.6077 140.516 20.1688 142.613 20.1688C144.686 20.1688 146.539 20.6077 148.173 21.4855C149.806 22.3389 151.086 23.5215 152.013 25.0333C152.94 26.545 153.403 28.3007 153.403 30.3001C153.403 32.2508 152.94 33.9942 152.013 35.5304C151.086 37.0421 149.806 38.2369 148.173 39.1147C146.539 39.9926 144.686 40.4315 142.613 40.4315ZM142.613 35.7498C143.564 35.7498 144.417 35.5304 145.173 35.0915C145.929 34.6526 146.527 34.0308 146.966 33.2261C147.404 32.3971 147.624 31.4217 147.624 30.3001C147.624 29.1541 147.404 28.1787 146.966 27.3741C146.527 26.5694 145.929 25.9476 145.173 25.5087C144.417 25.0698 143.564 24.8504 142.613 24.8504C141.662 24.8504 140.809 25.0698 140.053 25.5087C139.297 25.9476 138.687 26.5694 138.224 27.3741C137.785 28.1787 137.566 29.1541 137.566 30.3001C137.566 31.4217 137.785 32.3971 138.224 33.2261C138.687 34.0308 139.297 34.6526 140.053 35.0915C140.809 35.5304 141.662 35.7498 142.613 35.7498Z"/>
<path d="M156.729 40.1389C156.392 40.1389 156.119 39.8659 156.119 39.5293V21.0709C156.119 20.7343 156.392 20.4614 156.729 20.4614H160.96C161.296 20.4614 161.569 20.7343 161.569 21.0709V26.0208L160.801 24.4115C161.386 23.0216 162.325 21.9731 163.617 21.266C164.766 20.6161 166.135 20.2549 167.726 20.1824C168.062 20.1671 168.336 20.4417 168.336 20.7783V24.776C168.336 25.1291 168.03 25.399 167.677 25.399C167.482 25.3746 167.275 25.3624 167.055 25.3624C165.495 25.3624 164.227 25.8135 163.252 26.7157C162.301 27.5935 161.825 28.9712 161.825 30.8487V39.5293C161.825 39.8659 161.552 40.1389 161.216 40.1389H156.729Z"/>
<path d="M182.024 40.1389C181.688 40.1389 181.415 39.8659 181.415 39.5293V36.2984L181.049 35.4572V28.5811C181.049 27.3619 180.671 26.4109 179.915 25.7282C179.184 25.0455 178.05 24.7041 176.514 24.7041C175.465 24.7041 174.429 24.8748 173.405 25.2161C172.859 25.3891 172.358 25.5983 171.899 25.8438C171.45 26.0846 170.845 25.7813 170.845 25.2714V22.3135C170.845 22.1153 170.941 21.9284 171.105 21.8179C172.05 21.1832 172.791 20.8641 173.63 20.6341C175 20.2584 175.721 20.1688 177.282 20.1688C180.281 20.1688 182.61 20.8759 184.268 22.2901C185.926 23.7044 186.755 25.9111 186.755 28.9102V39.5293C186.755 39.8659 186.482 40.1389 186.145 40.1389H182.024ZM175.417 40.4315C173.88 40.4315 172.564 40.1754 171.466 39.6634C170.369 39.1269 169.528 38.4076 168.943 37.5054C168.358 36.6032 168.065 35.5913 168.065 34.4697C168.065 33.2993 168.345 32.2752 168.906 31.3974C169.491 30.5196 170.406 29.8368 171.649 29.3491C172.893 28.8371 174.514 28.5811 176.514 28.5811H181.744V31.9094H177.136C175.794 31.9094 174.868 32.1289 174.356 32.5678C173.868 33.0067 173.624 33.5553 173.624 34.2137C173.624 34.9452 173.905 35.5304 174.466 35.9693C175.051 36.3838 175.843 36.5911 176.843 36.5911C177.794 36.5911 178.647 36.3716 179.403 35.9327C180.159 35.4694 180.708 34.7989 181.049 33.9211L181.927 36.5545C181.512 37.8224 180.757 38.7856 179.659 39.4439C178.562 40.1023 177.148 40.4315 175.417 40.4315Z"/>
<path d="M194.321 36.1156L194.467 29.1663L203.295 20.7958C203.521 20.5811 203.821 20.4614 204.133 20.4614H208.996C209.536 20.4614 209.809 21.113 209.43 21.4984L201.636 29.4223L198.673 31.8363L194.321 36.1156ZM190.212 40.1389C189.875 40.1389 189.602 39.8659 189.602 39.5293V13.6096C189.602 13.2729 189.875 13 190.212 13H194.699C195.035 13 195.308 13.2729 195.308 13.6096V39.5293C195.308 39.8659 195.035 40.1389 194.699 40.1389H190.212ZM204.853 40.1389C204.484 40.1389 204.135 39.9717 203.903 39.6844L197.612 31.8728L201.197 27.4472L210.406 39.1523C210.72 39.5523 210.435 40.1389 209.927 40.1389H204.853Z"/>
</mask>
<path d="M26.6096 40.1389C26.2729 40.1389 26 39.8659 26 39.5293V21.0709C26 20.7343 26.2729 20.4614 26.6096 20.4614H30.8401C31.1768 20.4614 31.4497 20.7343 31.4497 21.0709V25.8379L30.4256 24.2652C31.1083 22.9241 32.0715 21.9122 33.3151 21.2294C34.583 20.5223 36.0216 20.1688 37.6309 20.1688C39.4353 20.1688 41.0081 20.632 42.3491 21.5586C43.7146 22.4608 44.6168 23.8507 45.0557 25.7282L43.0441 25.1796C43.7024 23.6434 44.7509 22.4242 46.1895 21.522C47.6526 20.6198 49.3228 20.1688 51.2004 20.1688C52.7609 20.1688 54.1386 20.4857 55.3334 21.1197C56.5525 21.7293 57.5035 22.6803 58.1862 23.9726C58.8934 25.2405 59.2469 26.8742 59.2469 28.8737V39.5293C59.2469 39.8659 58.974 40.1389 58.6373 40.1389H54.1508C53.8141 40.1389 53.5412 39.8659 53.5412 39.5293V29.7515C53.5412 28.1665 53.212 26.9961 52.5536 26.2402C51.8953 25.4844 50.9687 25.1064 49.7739 25.1064C48.9449 25.1064 48.2012 25.3015 47.5428 25.6916C46.8845 26.0574 46.3724 26.6182 46.0067 27.3741C45.6409 28.13 45.458 29.0931 45.458 30.2635V39.5293C45.458 39.8659 45.1851 40.1389 44.8485 40.1389H40.3619C40.0252 40.1389 39.7523 39.8659 39.7523 39.5293V29.7515C39.7523 28.1665 39.4231 26.9961 38.7648 26.2402C38.1308 25.4844 37.2164 25.1064 36.0216 25.1064C35.1926 25.1064 34.4489 25.3015 33.7905 25.6916C33.1322 26.0574 32.6201 26.6182 32.2544 27.3741C31.8886 28.13 31.7057 29.0931 31.7057 30.2635V39.5293C31.7057 39.8659 31.4328 40.1389 31.0962 40.1389H26.6096Z" fill="#16161A"/>
<path d="M93.534 47.5271C92.5098 47.5271 91.4979 47.3686 90.4982 47.0516C89.6824 46.7929 88.9884 46.4531 88.4162 46.032C88.1917 45.8669 88.1367 45.5614 88.264 45.3136L89.7731 42.3748C89.9551 42.0204 90.4234 41.9347 90.7597 42.1484C91.0319 42.3213 91.3227 42.4683 91.632 42.5894C92.2172 42.8088 92.7903 42.9186 93.3511 42.9186C94.1557 42.9186 94.7897 42.7235 95.253 42.3334C95.7407 41.9676 96.1796 41.3458 96.5697 40.468L97.5938 38.0541L98.0327 37.4323L104.936 20.8368C105.03 20.6095 105.252 20.4614 105.498 20.4614H109.656C110.093 20.4614 110.388 20.9076 110.217 21.3096L101.69 41.3458C101.056 42.9308 100.325 44.1743 99.4957 45.0765C98.6911 45.9787 97.7889 46.6127 96.7892 46.9784C95.8138 47.3442 94.7287 47.5271 93.534 47.5271ZM96.8989 40.9069L88.4858 21.3114C88.3131 20.9091 88.6081 20.4614 89.0459 20.4614H93.6018C93.8485 20.4614 94.0709 20.6101 94.1651 20.8381L100.812 36.9202L96.8989 40.9069Z" fill="#16161A"/>
<path d="M121.039 40.4315C118.796 40.4315 116.82 39.9926 115.114 39.1147C113.431 38.2369 112.127 37.0421 111.2 35.5304C110.274 33.9942 109.81 32.2508 109.81 30.3001C109.81 28.325 110.261 26.5816 111.164 25.0698C112.09 23.5337 113.346 22.3389 114.931 21.4855C116.516 20.6077 118.308 20.1688 120.307 20.1688C122.234 20.1688 123.965 20.5833 125.501 21.4123C127.062 22.217 128.293 23.3874 129.195 24.9235C130.097 26.4353 130.548 28.2519 130.548 30.3733C130.548 30.5927 130.536 30.8487 130.512 31.1413C130.505 31.2153 130.498 31.2882 130.492 31.3603C130.463 31.6721 130.2 31.9094 129.887 31.9094H114.455V28.5811H127.44L125.245 29.5686C125.245 28.5445 125.038 27.6545 124.623 26.8986C124.209 26.1427 123.636 25.5575 122.904 25.143C122.173 24.7041 121.319 24.4846 120.344 24.4846C119.369 24.4846 118.503 24.7041 117.747 25.143C117.016 25.5575 116.443 26.1549 116.028 26.9352C115.614 27.6911 115.406 28.5933 115.406 29.6418V30.5196C115.406 31.5924 115.638 32.5434 116.101 33.3724C116.589 34.1771 117.259 34.7989 118.113 35.2378C118.991 35.6523 120.015 35.8595 121.185 35.8595C122.234 35.8595 123.148 35.7011 123.928 35.3841C124.548 35.1401 125.124 34.8021 125.656 34.3703C125.922 34.1551 126.313 34.1642 126.545 34.4155L128.786 36.8455C128.998 37.075 129.003 37.4292 128.782 37.6497C127.947 38.4823 126.939 39.1413 125.757 39.6268C124.392 40.1632 122.819 40.4315 121.039 40.4315Z" fill="#16161A"/>
<path d="M142.613 40.4315C140.516 40.4315 138.651 39.9926 137.017 39.1147C135.408 38.2369 134.128 37.0421 133.177 35.5304C132.25 33.9942 131.787 32.2508 131.787 30.3001C131.787 28.325 132.25 26.5816 133.177 25.0698C134.128 23.5337 135.408 22.3389 137.017 21.4855C138.651 20.6077 140.516 20.1688 142.613 20.1688C144.686 20.1688 146.539 20.6077 148.173 21.4855C149.806 22.3389 151.086 23.5215 152.013 25.0333C152.94 26.545 153.403 28.3007 153.403 30.3001C153.403 32.2508 152.94 33.9942 152.013 35.5304C151.086 37.0421 149.806 38.2369 148.173 39.1147C146.539 39.9926 144.686 40.4315 142.613 40.4315ZM142.613 35.7498C143.564 35.7498 144.417 35.5304 145.173 35.0915C145.929 34.6526 146.527 34.0308 146.966 33.2261C147.404 32.3971 147.624 31.4217 147.624 30.3001C147.624 29.1541 147.404 28.1787 146.966 27.3741C146.527 26.5694 145.929 25.9476 145.173 25.5087C144.417 25.0698 143.564 24.8504 142.613 24.8504C141.662 24.8504 140.809 25.0698 140.053 25.5087C139.297 25.9476 138.687 26.5694 138.224 27.3741C137.785 28.1787 137.566 29.1541 137.566 30.3001C137.566 31.4217 137.785 32.3971 138.224 33.2261C138.687 34.0308 139.297 34.6526 140.053 35.0915C140.809 35.5304 141.662 35.7498 142.613 35.7498Z" fill="#16161A"/>
<path d="M156.729 40.1389C156.392 40.1389 156.119 39.8659 156.119 39.5293V21.0709C156.119 20.7343 156.392 20.4614 156.729 20.4614H160.96C161.296 20.4614 161.569 20.7343 161.569 21.0709V26.0208L160.801 24.4115C161.386 23.0216 162.325 21.9731 163.617 21.266C164.766 20.6161 166.135 20.2549 167.726 20.1824C168.062 20.1671 168.336 20.4417 168.336 20.7783V24.776C168.336 25.1291 168.03 25.399 167.677 25.399C167.482 25.3746 167.275 25.3624 167.055 25.3624C165.495 25.3624 164.227 25.8135 163.252 26.7157C162.301 27.5935 161.825 28.9712 161.825 30.8487V39.5293C161.825 39.8659 161.552 40.1389 161.216 40.1389H156.729Z" fill="#16161A"/>
<path d="M182.024 40.1389C181.688 40.1389 181.415 39.8659 181.415 39.5293V36.2984L181.049 35.4572V28.5811C181.049 27.3619 180.671 26.4109 179.915 25.7282C179.184 25.0455 178.05 24.7041 176.514 24.7041C175.465 24.7041 174.429 24.8748 173.405 25.2161C172.859 25.3891 172.358 25.5983 171.899 25.8438C171.45 26.0846 170.845 25.7813 170.845 25.2714V22.3135C170.845 22.1153 170.941 21.9284 171.105 21.8179C172.05 21.1832 172.791 20.8641 173.63 20.6341C175 20.2584 175.721 20.1688 177.282 20.1688C180.281 20.1688 182.61 20.8759 184.268 22.2901C185.926 23.7044 186.755 25.9111 186.755 28.9102V39.5293C186.755 39.8659 186.482 40.1389 186.145 40.1389H182.024ZM175.417 40.4315C173.88 40.4315 172.564 40.1754 171.466 39.6634C170.369 39.1269 169.528 38.4076 168.943 37.5054C168.358 36.6032 168.065 35.5913 168.065 34.4697C168.065 33.2993 168.345 32.2752 168.906 31.3974C169.491 30.5196 170.406 29.8368 171.649 29.3491C172.893 28.8371 174.514 28.5811 176.514 28.5811H181.744V31.9094H177.136C175.794 31.9094 174.868 32.1289 174.356 32.5678C173.868 33.0067 173.624 33.5553 173.624 34.2137C173.624 34.9452 173.905 35.5304 174.466 35.9693C175.051 36.3838 175.843 36.5911 176.843 36.5911C177.794 36.5911 178.647 36.3716 179.403 35.9327C180.159 35.4694 180.708 34.7989 181.049 33.9211L181.927 36.5545C181.512 37.8224 180.757 38.7856 179.659 39.4439C178.562 40.1023 177.148 40.4315 175.417 40.4315Z" fill="#16161A"/>
<path d="M194.321 36.1156L194.467 29.1663L203.295 20.7958C203.521 20.5811 203.821 20.4614 204.133 20.4614H208.996C209.536 20.4614 209.809 21.113 209.43 21.4984L201.636 29.4223L198.673 31.8363L194.321 36.1156ZM190.212 40.1389C189.875 40.1389 189.602 39.8659 189.602 39.5293V13.6096C189.602 13.2729 189.875 13 190.212 13H194.699C195.035 13 195.308 13.2729 195.308 13.6096V39.5293C195.308 39.8659 195.035 40.1389 194.699 40.1389H190.212ZM204.853 40.1389C204.484 40.1389 204.135 39.9717 203.903 39.6844L197.612 31.8728L201.197 27.4472L210.406 39.1523C210.72 39.5523 210.435 40.1389 209.927 40.1389H204.853Z" fill="#16161A"/>
<path d="M26.6096 40.1389C26.2729 40.1389 26 39.8659 26 39.5293V21.0709C26 20.7343 26.2729 20.4614 26.6096 20.4614H30.8401C31.1768 20.4614 31.4497 20.7343 31.4497 21.0709V25.8379L30.4256 24.2652C31.1083 22.9241 32.0715 21.9122 33.3151 21.2294C34.583 20.5223 36.0216 20.1688 37.6309 20.1688C39.4353 20.1688 41.0081 20.632 42.3491 21.5586C43.7146 22.4608 44.6168 23.8507 45.0557 25.7282L43.0441 25.1796C43.7024 23.6434 44.7509 22.4242 46.1895 21.522C47.6526 20.6198 49.3228 20.1688 51.2004 20.1688C52.7609 20.1688 54.1386 20.4857 55.3334 21.1197C56.5525 21.7293 57.5035 22.6803 58.1862 23.9726C58.8934 25.2405 59.2469 26.8742 59.2469 28.8737V39.5293C59.2469 39.8659 58.974 40.1389 58.6373 40.1389H54.1508C53.8141 40.1389 53.5412 39.8659 53.5412 39.5293V29.7515C53.5412 28.1665 53.212 26.9961 52.5536 26.2402C51.8953 25.4844 50.9687 25.1064 49.7739 25.1064C48.9449 25.1064 48.2012 25.3015 47.5428 25.6916C46.8845 26.0574 46.3724 26.6182 46.0067 27.3741C45.6409 28.13 45.458 29.0931 45.458 30.2635V39.5293C45.458 39.8659 45.1851 40.1389 44.8485 40.1389H40.3619C40.0252 40.1389 39.7523 39.8659 39.7523 39.5293V29.7515C39.7523 28.1665 39.4231 26.9961 38.7648 26.2402C38.1308 25.4844 37.2164 25.1064 36.0216 25.1064C35.1926 25.1064 34.4489 25.3015 33.7905 25.6916C33.1322 26.0574 32.6201 26.6182 32.2544 27.3741C31.8886 28.13 31.7057 29.0931 31.7057 30.2635V39.5293C31.7057 39.8659 31.4328 40.1389 31.0962 40.1389H26.6096Z" stroke="#16161A" stroke-width="0.190909" mask="url(#path-1-outside-1_2565_23963)"/>
<path d="M93.534 47.5271C92.5098 47.5271 91.4979 47.3686 90.4982 47.0516C89.6824 46.7929 88.9884 46.4531 88.4162 46.032C88.1917 45.8669 88.1367 45.5614 88.264 45.3136L89.7731 42.3748C89.9551 42.0204 90.4234 41.9347 90.7597 42.1484C91.0319 42.3213 91.3227 42.4683 91.632 42.5894C92.2172 42.8088 92.7903 42.9186 93.3511 42.9186C94.1557 42.9186 94.7897 42.7235 95.253 42.3334C95.7407 41.9676 96.1796 41.3458 96.5697 40.468L97.5938 38.0541L98.0327 37.4323L104.936 20.8368C105.03 20.6095 105.252 20.4614 105.498 20.4614H109.656C110.093 20.4614 110.388 20.9076 110.217 21.3096L101.69 41.3458C101.056 42.9308 100.325 44.1743 99.4957 45.0765C98.6911 45.9787 97.7889 46.6127 96.7892 46.9784C95.8138 47.3442 94.7287 47.5271 93.534 47.5271ZM96.8989 40.9069L88.4858 21.3114C88.3131 20.9091 88.6081 20.4614 89.0459 20.4614H93.6018C93.8485 20.4614 94.0709 20.6101 94.1651 20.8381L100.812 36.9202L96.8989 40.9069Z" stroke="#16161A" stroke-width="0.190909" mask="url(#path-1-outside-1_2565_23963)"/>
<path d="M121.039 40.4315C118.796 40.4315 116.82 39.9926 115.114 39.1147C113.431 38.2369 112.127 37.0421 111.2 35.5304C110.274 33.9942 109.81 32.2508 109.81 30.3001C109.81 28.325 110.261 26.5816 111.164 25.0698C112.09 23.5337 113.346 22.3389 114.931 21.4855C116.516 20.6077 118.308 20.1688 120.307 20.1688C122.234 20.1688 123.965 20.5833 125.501 21.4123C127.062 22.217 128.293 23.3874 129.195 24.9235C130.097 26.4353 130.548 28.2519 130.548 30.3733C130.548 30.5927 130.536 30.8487 130.512 31.1413C130.505 31.2153 130.498 31.2882 130.492 31.3603C130.463 31.6721 130.2 31.9094 129.887 31.9094H114.455V28.5811H127.44L125.245 29.5686C125.245 28.5445 125.038 27.6545 124.623 26.8986C124.209 26.1427 123.636 25.5575 122.904 25.143C122.173 24.7041 121.319 24.4846 120.344 24.4846C119.369 24.4846 118.503 24.7041 117.747 25.143C117.016 25.5575 116.443 26.1549 116.028 26.9352C115.614 27.6911 115.406 28.5933 115.406 29.6418V30.5196C115.406 31.5924 115.638 32.5434 116.101 33.3724C116.589 34.1771 117.259 34.7989 118.113 35.2378C118.991 35.6523 120.015 35.8595 121.185 35.8595C122.234 35.8595 123.148 35.7011 123.928 35.3841C124.548 35.1401 125.124 34.8021 125.656 34.3703C125.922 34.1551 126.313 34.1642 126.545 34.4155L128.786 36.8455C128.998 37.075 129.003 37.4292 128.782 37.6497C127.947 38.4823 126.939 39.1413 125.757 39.6268C124.392 40.1632 122.819 40.4315 121.039 40.4315Z" stroke="#16161A" stroke-width="0.190909" mask="url(#path-1-outside-1_2565_23963)"/>
<path d="M142.613 40.4315C140.516 40.4315 138.651 39.9926 137.017 39.1147C135.408 38.2369 134.128 37.0421 133.177 35.5304C132.25 33.9942 131.787 32.2508 131.787 30.3001C131.787 28.325 132.25 26.5816 133.177 25.0698C134.128 23.5337 135.408 22.3389 137.017 21.4855C138.651 20.6077 140.516 20.1688 142.613 20.1688C144.686 20.1688 146.539 20.6077 148.173 21.4855C149.806 22.3389 151.086 23.5215 152.013 25.0333C152.94 26.545 153.403 28.3007 153.403 30.3001C153.403 32.2508 152.94 33.9942 152.013 35.5304C151.086 37.0421 149.806 38.2369 148.173 39.1147C146.539 39.9926 144.686 40.4315 142.613 40.4315ZM142.613 35.7498C143.564 35.7498 144.417 35.5304 145.173 35.0915C145.929 34.6526 146.527 34.0308 146.966 33.2261C147.404 32.3971 147.624 31.4217 147.624 30.3001C147.624 29.1541 147.404 28.1787 146.966 27.3741C146.527 26.5694 145.929 25.9476 145.173 25.5087C144.417 25.0698 143.564 24.8504 142.613 24.8504C141.662 24.8504 140.809 25.0698 140.053 25.5087C139.297 25.9476 138.687 26.5694 138.224 27.3741C137.785 28.1787 137.566 29.1541 137.566 30.3001C137.566 31.4217 137.785 32.3971 138.224 33.2261C138.687 34.0308 139.297 34.6526 140.053 35.0915C140.809 35.5304 141.662 35.7498 142.613 35.7498Z" stroke="#16161A" stroke-width="0.190909" mask="url(#path-1-outside-1_2565_23963)"/>
<path d="M156.729 40.1389C156.392 40.1389 156.119 39.8659 156.119 39.5293V21.0709C156.119 20.7343 156.392 20.4614 156.729 20.4614H160.96C161.296 20.4614 161.569 20.7343 161.569 21.0709V26.0208L160.801 24.4115C161.386 23.0216 162.325 21.9731 163.617 21.266C164.766 20.6161 166.135 20.2549 167.726 20.1824C168.062 20.1671 168.336 20.4417 168.336 20.7783V24.776C168.336 25.1291 168.03 25.399 167.677 25.399C167.482 25.3746 167.275 25.3624 167.055 25.3624C165.495 25.3624 164.227 25.8135 163.252 26.7157C162.301 27.5935 161.825 28.9712 161.825 30.8487V39.5293C161.825 39.8659 161.552 40.1389 161.216 40.1389H156.729Z" stroke="#16161A" stroke-width="0.190909" mask="url(#path-1-outside-1_2565_23963)"/>
<path d="M182.024 40.1389C181.688 40.1389 181.415 39.8659 181.415 39.5293V36.2984L181.049 35.4572V28.5811C181.049 27.3619 180.671 26.4109 179.915 25.7282C179.184 25.0455 178.05 24.7041 176.514 24.7041C175.465 24.7041 174.429 24.8748 173.405 25.2161C172.859 25.3891 172.358 25.5983 171.899 25.8438C171.45 26.0846 170.845 25.7813 170.845 25.2714V22.3135C170.845 22.1153 170.941 21.9284 171.105 21.8179C172.05 21.1832 172.791 20.8641 173.63 20.6341C175 20.2584 175.721 20.1688 177.282 20.1688C180.281 20.1688 182.61 20.8759 184.268 22.2901C185.926 23.7044 186.755 25.9111 186.755 28.9102V39.5293C186.755 39.8659 186.482 40.1389 186.145 40.1389H182.024ZM175.417 40.4315C173.88 40.4315 172.564 40.1754 171.466 39.6634C170.369 39.1269 169.528 38.4076 168.943 37.5054C168.358 36.6032 168.065 35.5913 168.065 34.4697C168.065 33.2993 168.345 32.2752 168.906 31.3974C169.491 30.5196 170.406 29.8368 171.649 29.3491C172.893 28.8371 174.514 28.5811 176.514 28.5811H181.744V31.9094H177.136C175.794 31.9094 174.868 32.1289 174.356 32.5678C173.868 33.0067 173.624 33.5553 173.624 34.2137C173.624 34.9452 173.905 35.5304 174.466 35.9693C175.051 36.3838 175.843 36.5911 176.843 36.5911C177.794 36.5911 178.647 36.3716 179.403 35.9327C180.159 35.4694 180.708 34.7989 181.049 33.9211L181.927 36.5545C181.512 37.8224 180.757 38.7856 179.659 39.4439C178.562 40.1023 177.148 40.4315 175.417 40.4315Z" stroke="#16161A" stroke-width="0.190909" mask="url(#path-1-outside-1_2565_23963)"/>
<path d="M194.321 36.1156L194.467 29.1663L203.295 20.7958C203.521 20.5811 203.821 20.4614 204.133 20.4614H208.996C209.536 20.4614 209.809 21.113 209.43 21.4984L201.636 29.4223L198.673 31.8363L194.321 36.1156ZM190.212 40.1389C189.875 40.1389 189.602 39.8659 189.602 39.5293V13.6096C189.602 13.2729 189.875 13 190.212 13H194.699C195.035 13 195.308 13.2729 195.308 13.6096V39.5293C195.308 39.8659 195.035 40.1389 194.699 40.1389H190.212ZM204.853 40.1389C204.484 40.1389 204.135 39.9717 203.903 39.6844L197.612 31.8728L201.197 27.4472L210.406 39.1523C210.72 39.5523 210.435 40.1389 209.927 40.1389H204.853Z" stroke="#16161A" stroke-width="0.190909" mask="url(#path-1-outside-1_2565_23963)"/>
<path d="M67.1578 20.3701C68.2173 19.961 68.7477 19.7564 69.2325 19.768C69.8789 19.7838 70.4928 20.0564 70.9388 20.5246C71.0549 20.6466 71.1554 20.7903 71.2542 20.9702C71.2664 20.9922 71.2929 21.0019 71.3165 20.9933C71.3415 20.984 71.3562 20.957 71.3501 20.9311C71.3029 20.7322 71.2819 20.5584 71.2859 20.3906C71.3017 19.7444 71.5736 19.1306 72.0416 18.6847C72.3927 18.3503 72.9231 18.1455 73.9827 17.7364C75.0424 17.3273 75.5726 17.1226 76.0574 17.1344C76.7037 17.1502 77.3174 17.422 77.7634 17.8901C78.0977 18.2412 78.3026 18.7717 78.7116 19.8312L79.2609 21.2542C79.3216 21.411 79.498 21.4892 79.6549 21.4287L81.0743 20.8808C82.1341 20.4716 82.6642 20.2669 83.149 20.2787C83.7953 20.2945 84.409 20.5664 84.855 21.0344C85.1894 21.3855 85.3942 21.9159 85.8032 22.9755C86.2123 24.0351 86.417 24.5655 86.4053 25.0502C86.3895 25.6966 86.1181 26.3111 85.65 26.7571C85.5147 26.886 85.3515 26.9942 85.143 27.1035C85.1301 27.1104 85.1215 27.124 85.12 27.1386C85.1169 27.1692 85.1452 27.1942 85.1751 27.1864C85.4031 27.1272 85.5967 27.0987 85.7836 27.1033C86.4299 27.1191 87.0436 27.3909 87.4896 27.859C87.824 28.2101 88.0287 28.7404 88.4378 29.8C88.8469 30.8597 89.0516 31.39 89.0398 31.8748C89.0241 32.521 88.7521 33.1348 88.2842 33.5807C87.933 33.9152 87.4027 34.1199 86.3431 34.529L84.9237 35.0769C84.7667 35.1376 84.6886 35.3139 84.7492 35.4709L85.2978 36.8921C85.7068 37.9517 85.9116 38.4821 85.8998 38.9668C85.884 39.613 85.6122 40.2269 85.1442 40.6728C84.793 41.0072 84.2627 41.212 83.2031 41.621C82.1435 42.0301 81.6131 42.2348 81.1283 42.2231C80.4821 42.2073 79.8684 41.9353 79.4224 41.4674C79.3015 41.3405 79.1969 41.1897 79.0942 40.9995C79.0825 40.9781 79.057 40.9684 79.0341 40.9767C79.0106 40.9854 78.9971 41.0104 79.0031 41.0347C79.0548 41.2443 79.0792 41.4255 79.0749 41.6005C79.0591 42.2466 78.7872 42.8606 78.3193 43.3064C77.9681 43.6407 77.4376 43.8457 76.3782 44.2547C75.3186 44.6637 74.7882 44.8684 74.3034 44.8567C73.6572 44.8409 73.0434 44.569 72.5975 44.101C72.263 43.7499 72.0583 43.2195 71.6492 42.16L71.1009 40.7396C71.0403 40.5826 70.864 40.5046 70.707 40.5651L69.2821 41.1152C68.2223 41.5243 67.6922 41.729 67.2074 41.7172C66.561 41.7015 65.9474 41.4297 65.5014 40.9616C65.1669 40.6104 64.9623 40.0802 64.5532 39.0205C64.1441 37.9608 63.9394 37.4305 63.9511 36.9457C63.9669 36.2994 64.2387 35.6857 64.7068 35.2398C64.8223 35.1298 64.9574 35.0342 65.1241 34.9405C65.1642 34.918 65.1601 34.8551 65.1183 34.836C65.1077 34.8311 65.0958 34.8298 65.0844 34.8323C64.8976 34.8751 64.7329 34.8975 64.5732 34.8936C63.9268 34.8778 63.3129 34.6051 62.8669 34.137C62.5325 33.7858 62.3277 33.2555 61.9186 32.1959C61.5096 31.1364 61.3049 30.6059 61.3166 30.1212C61.3324 29.4749 61.6043 28.8611 62.0723 28.4152C62.4234 28.0807 62.9536 27.8761 64.0134 27.467L65.4382 26.9169C65.5951 26.8563 65.6731 26.6799 65.6127 26.523L65.063 25.099C64.6542 24.0399 64.4498 23.5098 64.4613 23.0252C64.477 22.3789 64.7487 21.7643 65.2167 21.3183C65.5678 20.9839 66.0982 20.7791 67.1578 20.3701ZM69.9894 33.0173C69.6467 33.1496 69.4967 33.5545 69.7028 33.8586C71.3986 36.358 74.5623 37.4803 77.3979 36.3858C80.2333 35.291 81.8214 32.3344 81.3978 29.3439C81.3462 28.9801 80.963 28.781 80.6203 28.9134L69.9894 33.0173ZM76.5592 24.8744C75.8109 25.1635 75.4389 26.0046 75.7278 26.753C76.0168 27.5014 76.8574 27.8743 77.6059 27.5856C78.3544 27.2967 78.7271 26.4552 78.4381 25.7067C78.1492 24.9582 77.3077 24.5854 76.5592 24.8744ZM70.0541 27.3846C69.3057 27.6735 68.9328 28.5142 69.2214 29.2626C69.5104 30.0112 70.3518 30.3839 71.1004 30.0949C71.8488 29.8059 72.2207 28.9648 71.9317 28.2163C71.6426 27.4682 70.8024 27.0958 70.0541 27.3846Z" fill="#4181FF"/>
</svg>
